<svg width="142" height="52" viewBox="0 0 142 52" fill="none" xmlns="http://www.w3.org/2000/svg">
<g clip-path="url(#clip0_726_17327)">
<path d="M11.2092 18.0171C11.2137 18.737 11.0771 19.4509 10.8071 20.1188C10.5564 20.7339 10.1762 21.2886 9.69215 21.7456C9.19793 22.2061 8.61817 22.5664 7.9853 22.8063C7.28057 23.0685 6.53232 23.1959 5.77999 23.1817H3.62283V29.6643H0.943604V12.7371H5.75828C8.83967 12.7371 11.2111 14.896 11.2111 18.0171M3.62283 20.4004H6.1123C6.73606 20.4176 7.34126 20.1884 7.79554 19.7631C8.24586 19.3388 8.48282 18.7737 8.48282 18.0659C8.4997 17.446 8.26966 16.8445 7.84275 16.3923C7.41603 15.9427 6.84677 15.707 6.16139 15.707H3.62283V20.4004Z" fill="#50287D"/>
<path d="M29.2398 22.1422H35.0249V17.7097H37.6088V29.6619H35.0249V24.8765H29.2398V29.6619H26.6559V17.7097H29.2398V22.1422Z" fill="#50287D"/>
<path d="M46.9266 27.4226C49.0593 27.4226 50.3167 26.2681 50.649 25.8438L51.4043 27.8469C51.2381 28.1285 49.5294 30.0397 46.8728 30.0397C46.0154 30.0578 45.1622 29.9138 44.3588 29.6154C43.6063 29.3446 42.9198 28.9188 42.3442 28.366C41.7616 27.8099 41.3083 27.1339 41.0159 26.3854C40.6941 25.5507 40.5339 24.6631 40.5439 23.7693C40.5391 22.9486 40.6836 22.1339 40.9706 21.3644C41.2469 20.6287 41.6568 19.9497 42.1799 19.3612C42.7048 18.768 43.3516 18.2936 44.0765 17.9701C44.8615 17.6299 45.7108 17.4612 46.567 17.4754C47.3583 17.4632 48.1429 17.6211 48.8672 17.9383C49.5914 18.2556 50.2382 18.7246 50.7633 19.3134C51.2697 19.893 51.6565 20.566 51.9018 21.294C52.1677 22.0598 52.3039 22.8643 52.3049 23.6745C52.3075 23.9888 52.2835 24.3028 52.2332 24.6132H43.1806C43.2986 25.5321 44.3352 27.4179 46.9266 27.4179M46.4546 20.1573C44.1568 20.1573 43.3071 21.8084 43.191 22.4946H49.705C49.4293 21.3259 48.3248 20.1573 46.4508 20.1573" fill="#50287D"/>
<path d="M18.4774 27.4226C20.6101 27.4226 21.8675 26.2681 22.1998 25.8438L22.9551 27.8469C22.7889 28.1285 21.0802 30.0397 18.4236 30.0397C17.5665 30.0577 16.7137 29.9137 15.9106 29.6154C15.1601 29.3443 14.4759 28.9185 13.9026 28.366C13.32 27.8099 12.8666 27.1339 12.5743 26.3854C12.2525 25.5508 12.0923 24.6631 12.1022 23.7693C12.0974 22.9486 12.242 22.1339 12.529 21.3644C12.8049 20.6285 13.2148 19.9494 13.7383 19.3613C14.263 18.7678 14.9098 18.2934 15.6349 17.9701C16.4195 17.6298 17.2685 17.4611 18.1244 17.4755C18.9156 17.4635 19.7002 17.6215 20.4244 17.9387C21.1486 18.2559 21.7955 18.7248 22.3207 19.3134C22.8265 19.8933 23.2129 20.5662 23.4583 21.294C23.7247 22.0597 23.8609 22.8642 23.8614 23.6745C23.8638 23.9888 23.8401 24.3027 23.7906 24.6132H14.7305C14.8494 25.5321 15.886 27.4179 18.4774 27.4179M18.0054 20.1573C15.7085 20.1573 14.8589 21.8084 14.7418 22.4946H21.2605C20.9839 21.3259 19.8803 20.1573 18.0054 20.1573Z" fill="#50287D"/>
<path d="M73.4564 30.0163C70.5383 30.0163 67.2445 27.8133 67.2445 23.7225C67.2445 20.1151 69.9577 17.4512 73.48 17.4512C75.9591 17.4512 77.5819 18.9371 77.8897 19.4787L77.1788 21.6001C77.1788 21.6001 75.6617 20.1855 73.8595 20.1855C71.0755 20.1855 69.8529 22.1277 69.8529 23.699C69.8529 24.7597 70.2305 25.6083 70.9669 26.2682C71.7033 26.9281 72.6738 27.2585 73.8831 27.2585C75.5701 27.2585 77.0164 26.2485 77.3487 25.8711L78.104 27.9925C78.104 27.9925 76.4481 30.0163 73.4535 30.0163" fill="#50287D"/>
<path d="M60.5568 30.0163C57.6388 30.0163 54.345 27.8133 54.345 23.7225C54.345 20.1151 57.0582 17.4512 60.5804 17.4512C63.0595 17.4512 64.6824 18.9371 64.9901 19.4787L64.2792 21.6001C64.2792 21.6001 62.7622 20.1855 60.96 20.1855C58.1788 20.1855 56.9515 22.1277 56.9515 23.699C56.9515 24.7597 57.3291 25.6083 58.0655 26.2682C58.8018 26.9281 59.7723 27.2585 60.9817 27.2585C62.6687 27.2585 64.115 26.2485 64.4473 25.8711L65.2025 27.9925C65.2025 27.9925 63.5467 30.0163 60.5521 30.0163" fill="#50287D"/>
<path d="M115.758 30.0163C112.839 30.0163 109.546 27.8133 109.546 23.7225C109.546 20.1151 112.259 17.4512 115.781 17.4512C118.26 17.4512 119.882 18.9371 120.191 19.4787L119.48 21.6001C119.48 21.6001 117.963 20.1855 116.161 20.1855C113.377 20.1855 112.153 22.1277 112.153 23.699C112.153 24.7597 112.531 25.6083 113.267 26.2682C114.003 26.9281 114.975 27.2585 116.184 27.2585C117.87 27.2585 119.317 26.2485 119.649 25.8711L120.404 27.9925C120.404 27.9925 118.747 30.0163 115.754 30.0163" fill="#50287D"/>
<path d="M89.764 29.6628V28.4134C89.301 28.9105 88.7399 29.3074 88.1156 29.5793C87.4914 29.8511 86.8175 29.992 86.136 29.9932C83.1283 29.9932 79.9723 27.7976 79.9723 23.7228C79.9723 19.142 83.302 17.4045 85.9519 17.4045C87.3575 17.4131 88.7064 17.9566 89.7215 18.9233V17.7115H92.2299V29.6628H89.764ZM82.5354 23.7228C82.5354 25.2857 83.7466 27.2119 86.3295 27.2119C88.6255 27.2119 89.6724 25.7907 89.6724 25.7907V21.5666C88.8634 20.6589 87.6739 20.1586 86.3295 20.1586C84.0818 20.1586 82.5354 21.6774 82.5354 23.719" fill="#50287D"/>
<path d="M98.6069 22.1422H104.392V17.7097H106.976V29.6619H104.392V24.8765H98.6069V29.6619H96.0231V17.7097H98.6069V22.1422Z" fill="#50287D"/>
<path d="M4.17898 44.1892C3.68126 44.1915 3.18752 44.1011 2.72325 43.9227C2.27575 43.751 1.86742 43.4918 1.52241 43.1604C1.16214 42.807 0.876067 42.386 0.680812 41.9218C0.485557 41.4575 0.38501 40.9593 0.38501 40.4561C0.38501 39.9529 0.485557 39.4547 0.680812 38.9905C0.876067 38.5262 1.16214 38.1052 1.52241 37.7518C1.8672 37.4202 2.27559 37.1609 2.72325 36.9896C3.19148 36.8101 3.68945 36.7197 4.19125 36.723C4.52262 36.7212 4.85296 36.7597 5.17496 36.8375C5.46628 36.908 5.74897 37.01 6.018 37.1416C6.25442 37.2545 6.4737 37.3998 6.6694 37.5734C6.83477 37.7206 6.97673 37.8918 7.09044 38.0813L6.79684 38.958C6.66834 38.7836 6.51832 38.6259 6.35031 38.4886C6.16515 38.3362 5.96382 38.2043 5.74989 38.0953C5.52771 37.978 5.29179 37.8885 5.04751 37.8288C4.79314 37.7629 4.53151 37.7289 4.26867 37.7274C3.86486 37.7212 3.46303 37.7847 3.08105 37.9151C2.73917 38.0301 2.42575 38.216 2.16154 38.4605C1.90782 38.6997 1.70773 38.9895 1.57434 39.3109C1.43126 39.6691 1.36161 40.0521 1.36948 40.4373C1.36622 40.8289 1.43998 41.2173 1.58661 41.5807C1.7184 41.9062 1.92385 42.1972 2.18703 42.4311C2.45504 42.6675 2.76758 42.8488 3.10654 42.9643C3.48852 43.0946 3.89034 43.1582 4.29416 43.152C4.83926 43.1638 5.37885 43.0416 5.86506 42.7962C6.32481 42.555 6.66939 42.2762 6.90352 41.9458L7.18674 42.8094C6.814 43.2401 6.35257 43.5862 5.83365 43.8243C5.31474 44.0623 4.75046 44.1868 4.17898 44.1892Z" fill="#50287D"/>
<path d="M13.9025 36.8499V37.8402H11.4508V44.0364H10.5058V37.8402H8.02856V36.8499H13.9025Z" fill="#50287D"/>
<path d="M19.8803 39.0464C19.8859 39.3468 19.8293 39.6452 19.7141 39.9231C19.6068 40.1788 19.4507 40.4115 19.2544 40.6083C19.0518 40.8068 18.8078 40.9587 18.5397 41.0533C18.2445 41.157 17.9333 41.2085 17.6202 41.2053H16.292V44.0364H15.3479V36.8499H17.6212C19.4432 36.8499 19.8812 38.4109 19.8812 39.0464M18.8985 39.0595C18.9008 38.9021 18.8686 38.7461 18.8041 38.6024C18.746 38.4663 18.6638 38.3417 18.5615 38.2344C18.4589 38.1285 18.3376 38.0423 18.2037 37.98C18.0595 37.9139 17.9027 37.8793 17.7439 37.8786H16.2627V40.2535H17.7439C18.5803 40.2535 18.8938 39.6509 18.8938 39.0595" fill="#50287D"/>
<path d="M21.8328 42.3655L21.1436 44.041H20.125L23.1007 36.8545H24.1476L27.1195 44.0363H26.1009L25.4202 42.3655H21.8328ZM25.0001 41.3752L23.6265 38.056L22.2444 41.3705L25.0001 41.3752Z" fill="#50287D"/>
<path d="M27.7888 44.0364L30.3557 40.3164L27.9295 36.8499H29.1162L30.9429 39.4275L32.7819 36.8499H33.9563L31.5301 40.3164L34.1225 44.0364H32.9603L30.9552 41.2044L28.9887 44.0364H27.7888Z" fill="#50287D"/>
<path d="M38.671 44.1761C38.1673 44.181 37.6678 44.0852 37.2021 43.8944C36.7498 43.7112 36.3341 43.4489 35.9748 43.12C35.6157 42.7877 35.3288 42.3859 35.1317 41.9392C34.9293 41.4652 34.825 40.9555 34.825 40.4406C34.825 39.9256 34.9293 39.416 35.1317 38.942C35.3297 38.4967 35.6173 38.0964 35.9767 37.7658C36.336 37.4369 36.7516 37.1746 37.2039 36.9914C38.1561 36.6184 39.2151 36.6184 40.1673 36.9914C40.6194 37.1751 41.035 37.4373 41.3946 37.7658C41.7536 38.0982 42.0405 38.5001 42.2376 38.9467C42.443 39.4209 42.5472 39.9323 42.5435 40.4486C42.5435 42.3006 40.9603 44.1817 38.6729 44.1817M41.5589 40.4739C41.5617 40.106 41.4831 39.7419 41.3285 39.4076C41.1821 39.0791 40.9711 38.7829 40.708 38.5366C40.4449 38.2903 40.1349 38.0988 39.7963 37.9733C39.0574 37.6899 38.2397 37.6852 37.4975 37.9601C37.159 38.086 36.8491 38.2778 36.586 38.5243C36.3229 38.7707 36.1119 39.0668 35.9653 39.3954C35.8141 39.7308 35.736 40.0941 35.736 40.4617C35.736 40.8292 35.8141 41.1927 35.9653 41.528C36.1119 41.8566 36.3229 42.1527 36.586 42.3991C36.8491 42.6456 37.159 42.8374 37.4975 42.9633C38.2397 43.2382 39.0574 43.2335 39.7963 42.9501C40.1349 42.8246 40.4449 42.6331 40.708 42.3868C40.9711 42.1405 41.1821 41.8444 41.3285 41.5158C41.4832 41.1812 41.5618 40.8168 41.5589 40.4486V40.4739Z" fill="#50287D"/>
<path d="M47.9432 40.2061C48.2358 40.3543 48.483 40.578 48.6588 40.8538C48.8602 41.173 48.9624 41.5443 48.9524 41.9211C48.9558 42.2344 48.8951 42.5451 48.7739 42.8344C48.6641 43.087 48.4982 43.3116 48.2887 43.4915C48.0766 43.6751 47.8289 43.8135 47.5608 43.8979C47.2718 43.9899 46.9703 44.0368 46.6668 44.0368H44.2406V36.8494H46.3477C46.6506 36.8453 46.9523 36.8884 47.2418 36.977C47.5031 37.0527 47.7463 37.1804 47.9564 37.3525C48.1508 37.5217 48.3074 37.7296 48.4162 37.9627C48.5338 38.222 48.5946 38.5033 48.5946 38.7878C48.5946 39.0723 48.5338 39.3535 48.4162 39.6129C48.3068 39.8345 48.1498 40.0297 47.9564 40.1845L47.9432 40.2061ZM46.8198 43.0381C46.9722 43.0386 47.1236 43.0129 47.2672 42.9621C47.4058 42.9133 47.5321 42.8352 47.6373 42.733C47.7433 42.6312 47.8297 42.5109 47.8922 42.3782C47.9593 42.235 47.9944 42.079 47.9951 41.9211C47.9958 41.7809 47.9678 41.642 47.9128 41.5128C47.8578 41.3837 47.7769 41.2671 47.6751 41.1701C47.5689 41.0625 47.4417 40.9777 47.3012 40.921C47.1607 40.8643 47.01 40.837 46.8585 40.8406H45.1724V43.0221L46.8198 43.0381ZM46.5262 39.8466C46.8055 39.8514 47.0773 39.7569 47.2927 39.58C47.4004 39.493 47.4863 39.3824 47.5438 39.2568C47.6013 39.1312 47.6288 38.9942 47.6241 38.8563C47.6285 38.7211 47.6038 38.5865 47.5517 38.4615C47.4996 38.3366 47.4213 38.2241 47.322 38.1316C47.1107 37.9364 46.8305 37.8318 46.5422 37.8406H45.1856V39.8719L46.5262 39.8466Z" fill="#50287D"/>
<path d="M51.6487 42.3655L50.9595 44.041H49.9371L52.9128 36.8545H53.9597L56.9354 44.041H55.913L55.2371 42.3655H51.6487ZM54.816 41.3752L53.4367 38.0607L52.0575 41.3705L54.816 41.3752Z" fill="#50287D"/>
<path d="M59.3002 36.8499V39.8339H63.6032V36.8499H64.5482V44.0364H63.6032V40.8242H59.3002V44.0364H58.3552V36.8499H59.3002Z" fill="#50287D"/>
<path d="M72.1488 44.0364V38.3348L67.8835 44.0364H66.8234V36.8499H67.7684V42.5636L72.0591 36.8499H73.0938V44.0364H72.1488Z" fill="#50287D"/>
<path d="M79.4426 36.8499V37.8402H76.314V39.8339H79.1235V40.8242H76.314V43.0461H79.4426V44.0364H75.369V36.8499H79.4426Z" fill="#50287D"/>
<path d="M126.287 26.3699H122.977V29.6618H126.287V26.3699Z" fill="#50287D"/>
<path d="M132.116 24.8769L122.977 7.95068H141.255L132.116 24.8769Z" fill="#CEDC00"/>
</g>
<defs>
<clipPath id="clip0_726_17327">
<rect width="141.64" height="51.5755" fill="white"/>
</clipPath>
</defs>
</svg>
