<svg width="142" height="53" viewBox="0 0 142 53" fill="none" xmlns="http://www.w3.org/2000/svg">
<g clip-path="url(#clip0_726_17308)">
<path d="M35.0807 41.8427C34.1796 42.147 33.2351 42.3039 32.2839 42.3072C29.588 42.3072 26.6802 40.7725 26.6802 36.8347C26.6802 33.109 29.3053 31.231 32.7382 31.231C33.5509 31.2236 34.3594 31.3499 35.1312 31.6046L35.0403 33.4624C34.3553 33.1931 33.6256 33.0561 32.8897 33.0585C32.3807 33.0127 31.8679 33.0771 31.3861 33.2474C30.9044 33.4178 30.4649 33.69 30.0979 34.0455C29.7309 34.401 29.4448 34.8315 29.2593 35.3076C29.0737 35.7838 28.9929 36.2942 29.0226 36.8044C28.9806 37.3016 29.0482 37.802 29.2205 38.2702C29.3928 38.7385 29.6657 39.1632 30.02 39.5146C30.3743 39.866 30.8013 40.1354 31.2709 40.3039C31.7406 40.4724 32.2414 40.5358 32.7382 40.4898C33.5174 40.4956 34.2888 40.3338 34.9999 40.0152L35.0807 41.8427Z" fill="#0016E0"/>
<path d="M43.9857 31.3619V33.2803H40.8153V42.2058H38.6647V33.2702H35.5347V31.3518L43.9857 31.3619Z" fill="#0016E0"/>
<path d="M48.499 31.3623C52.4267 31.3623 52.6589 34.0682 52.6589 34.7447C52.6558 35.2208 52.5531 35.691 52.3574 36.1251C52.1618 36.5591 51.8775 36.9474 51.5228 37.2651C51.1681 37.5827 50.7508 37.8225 50.2979 37.9693C49.8449 38.116 49.3663 38.1663 48.8928 38.117H47.4994V42.1558H45.2983V31.3623H48.499ZM48.499 36.4107C48.7379 36.4338 48.979 36.4056 49.2062 36.3281C49.4334 36.2506 49.6414 36.1255 49.8163 35.961C49.9912 35.7966 50.129 35.5968 50.2205 35.3748C50.312 35.1528 50.355 34.9139 50.3467 34.674C50.3467 33.7754 49.7712 33.0485 48.499 33.0485H47.4893V36.4107H48.499Z" fill="#0016E0"/>
<path d="M58.99 31.3623L63.3013 42.2062H60.8276L59.9189 39.7628H55.446L54.5272 42.2062H52.1747L56.486 31.3825L58.99 31.3623ZM59.2525 37.9656L57.6572 33.5432L56.1528 37.9656H59.2525Z" fill="#0016E0"/>
<path d="M66.2288 31.3623L67.9654 34.3913L68.4602 35.3L68.9549 34.3913L70.7319 31.3623H73.1249L69.8333 36.5319L73.4984 42.2062H70.9036L68.8337 38.7733L68.3693 37.9353L67.9048 38.7733L65.7037 42.2062H63.3108L66.9254 36.5419L63.6339 31.3623H66.2288Z" fill="#0016E0"/>
<path d="M84.232 36.7735C84.232 40.7012 81.5967 42.3065 78.9312 42.3065C76.2656 42.3065 73.6304 40.7012 73.6304 36.7735C73.6304 32.8459 76.2555 31.2405 78.9312 31.2405C81.6068 31.2405 84.232 32.8358 84.232 36.7735ZM75.9425 36.7735C75.9425 40.4386 78.1032 40.8122 78.9716 40.8122C79.8399 40.8122 82.0006 40.4891 82.0006 36.7735C82.0006 33.0579 79.8298 32.7348 78.9716 32.7348C78.1133 32.7348 75.9122 33.1185 75.9122 36.7735H75.9425Z" fill="#0016E0"/>
<path d="M89.5333 31.3623C91.6334 31.3623 93.1379 32.2104 93.1379 34.0379C93.1824 34.5948 93.0298 35.1496 92.7068 35.6055C92.3839 36.0613 91.911 36.3892 91.3709 36.5319C92.018 36.5959 92.6158 36.9061 93.0404 37.3985C93.4652 37.8909 93.6844 38.5277 93.6528 39.1772C93.6528 40.5201 92.8652 42.2062 89.4021 42.2062H85.9792V31.3623H89.5333ZM88.1702 35.7544H89.2809C90.7045 35.7544 90.9671 34.8861 90.9671 34.4115C90.9671 34.0985 90.8863 33.0586 89.19 33.0586H88.1803L88.1702 35.7544ZM88.1702 40.4898H89.392C90.7651 40.4898 91.3305 39.7527 91.3305 38.9753C91.3305 38.1978 90.9065 37.4608 89.392 37.4608H88.1702V40.4898Z" fill="#0016E0"/>
<path d="M101.074 31.3623L105.375 42.2062H102.891L101.982 39.7628H97.5093L96.6006 42.2062H94.248L98.5696 31.3623H101.074ZM101.336 37.9656L99.7408 33.5432L98.2363 37.9656H101.336Z" fill="#0016E0"/>
<path d="M108.878 31.3623V35.7241H113.27V31.3623H115.471V42.2062H113.27V37.491H108.878V42.2062H106.687V31.3623H108.878Z" fill="#0016E0"/>
<path d="M119.823 31.3623V36.9256V39.5508L120.59 37.9757L124.377 31.3623H127.002V42.2062H124.821V36.5924V33.9875L124.074 35.6231L120.257 42.2062H117.632V31.3623H119.823Z" fill="#0016E0"/>
<path d="M135.645 31.3623V33.2807H131.374V35.7241H135.261V37.5011H131.374V40.2778H135.645V42.2062H129.183V31.3623H135.645Z" fill="#0016E0"/>
<path d="M39.7494 28.2764C38.262 28.7868 36.7034 29.0506 35.1333 29.0576C30.7172 29.0576 25.901 26.511 25.901 19.9258C25.901 13.7077 30.2171 10.5831 35.8103 10.5831C37.1499 10.5738 38.4824 10.7821 39.7571 11.2002L39.5956 14.3248C38.4748 13.872 37.2782 13.6438 36.0719 13.653C32.0866 13.653 29.7247 16.2074 29.7247 19.9023C29.7247 24.2612 32.6175 26.0423 35.818 26.0423C37.0949 26.0542 38.3595 25.7879 39.5263 25.2611L39.7494 28.2764Z" fill="#0016E0"/>
<path d="M82.0953 10.5828V29.0576H78.5957V13.6206H71.7462V29.0576H68.2391V10.5828H82.0953Z" fill="#0016E0"/>
<path d="M57.5852 10.5828L53.2283 23.8453L48.8869 10.5828H42.8363V29.0576H46.4148V13.2209H46.4453L51.5421 29.0576H54.9376L60.0268 13.2209H60.0497V29.0576H63.6205V10.5828H57.5852Z" fill="#0016E0"/>
<path d="M27.4305 7.39887C27.2679 7.20677 25.2045 8.26973 25.2045 8.26973L25.2983 8.2057C25.711 7.94316 26.3487 7.56536 26.1111 7.25799C25.9923 7.10431 25.711 7.17475 24.9231 7.66781C24.5605 7.90474 22.6159 8.74999 20.615 9.64007C18.9581 10.3957 15.963 11.7532 15.6879 12.067C15.6879 12.067 15.6379 12.1758 15.6066 12.2399C15.4708 12.5897 15.3682 12.9521 15.3003 13.322V13.3669C15.2969 13.3966 15.2969 13.4267 15.3003 13.4565C15.1752 14.0968 15.0689 14.8396 14.9501 15.6849C14.5875 18.2463 14.2311 22.0435 14.2311 22.0435C14.1884 23.3291 14.0799 24.6116 13.9059 25.8856C13.8723 26.0602 13.8241 26.2316 13.7621 26.3978C13.7621 26.4555 13.7308 26.5259 13.7058 26.5835C13.6399 26.8195 13.5246 27.038 13.3682 27.2239C12.9055 27.7554 11.7738 27.5825 11.4549 27.5441C10.8734 27.4462 10.3324 27.1769 9.89795 26.7692C9.61302 26.308 9.16489 25.9776 8.64742 25.8471C8.45358 25.8471 7.65949 25.9752 7.39688 25.9624C7.13427 25.9496 6.77161 25.5782 6.36519 25.527C5.98027 25.5574 5.60962 25.6897 5.28973 25.9112C5.92963 26.1414 6.54039 26.4487 7.10926 26.8269C7.43177 27.3514 7.87108 27.7903 8.39106 28.1076C8.98506 28.3893 11.0484 30.8418 11.0484 30.8418C11.4059 31.2096 11.7838 31.556 12.1802 31.8792C11.5553 32.1086 10.9072 32.2654 10.2481 32.3466C9.16826 32.5031 8.06867 32.4339 7.01565 32.1432C5.96264 31.8524 4.9781 31.3462 4.12142 30.655C3.26474 29.9638 2.55374 29.1019 2.03133 28.1215C1.50886 27.1411 1.18585 26.0625 1.08168 24.9507C0.966127 23.9261 1.0361 22.8884 1.28802 21.8898C1.53775 20.6817 2.04834 19.5462 2.78241 18.5664C3.45144 17.6709 4.28936 16.922 5.24633 16.3643C6.20337 15.8066 7.26001 15.4515 8.35354 15.3199C9.72625 15.1728 11.1132 15.3729 12.3928 15.9026C12.3928 15.7489 12.3928 15.6017 12.3928 15.448C11.1575 14.9552 9.8283 14.7592 8.50748 14.8751C7.1866 14.991 5.90931 15.4156 4.77388 16.1164C3.63846 16.8172 2.67517 17.7754 1.95811 18.9173C1.241 20.0591 0.789302 21.3543 0.637737 22.7031C0.602659 22.93 0.579649 23.1587 0.568957 23.3882C0.526752 24.1139 0.53932 24.8417 0.606474 25.5654C0.756726 26.962 1.23249 28.3011 1.99382 29.47C2.75508 30.6389 3.77958 31.6033 4.98097 32.2818C6.1823 32.9604 7.52531 33.3333 8.89683 33.3691C10.2684 33.4049 11.6282 33.1025 12.8617 32.4875C13.6104 33.0564 14.4151 33.5436 15.2627 33.9411C17.4699 34.9272 20.1836 35.0489 20.7588 35.1193C22.0094 35.2922 23.1536 36.9443 23.51 37.2773C23.8664 37.6102 26.2237 37.0852 26.2237 37.0852C26.106 36.7132 26.0182 36.332 25.9611 35.9454C25.8548 35.305 25.1732 35.0233 25.0482 34.8632C24.9231 34.7031 21.8593 33.2687 21.3779 32.9421C20.6492 32.398 20.0541 31.6877 19.6396 30.8674C19.4313 30.5551 19.2987 30.1964 19.2531 29.821C19.2074 29.4457 19.2499 29.0646 19.377 28.7095C19.5021 28.5046 19.7397 28.4597 19.8772 28.178C20.0148 27.8962 19.921 27.877 19.8772 27.7426C19.8335 27.6081 19.921 27.4928 20.0523 27.2559C20.1836 27.019 20.1273 27.0318 20.1273 27.0318V26.7372C20.1586 26.4363 20.1273 26.7372 20.1836 26.6348L20.2399 26.5259C20.2287 26.44 20.2441 26.3528 20.2836 26.2762C20.3337 26.1737 20.2086 26.0649 20.2399 25.9432C20.2711 25.8215 20.2962 25.8343 20.3337 25.5974C20.3493 25.4699 20.3493 25.3408 20.3337 25.2132C20.3337 24.9443 20.4024 25.0659 20.5338 24.9186C20.6651 24.7714 20.4024 24.5729 20.4024 24.5729C20.4624 24.3719 20.5398 24.1769 20.6338 23.9901C20.8339 23.5163 20.6338 23.9902 20.6838 23.798C20.7338 23.6059 20.615 23.4395 20.59 23.2538C20.565 23.0681 20.59 23.1257 20.6463 22.8824C20.7026 22.639 20.6463 22.8824 20.7276 22.6582C20.777 22.5528 20.7924 22.4339 20.7714 22.3189L20.7588 21.845L20.8276 21.7169C20.8675 21.5812 20.8675 21.4365 20.8276 21.3007L20.64 20.75C20.6297 20.6222 20.6297 20.4937 20.64 20.3658C20.6115 20.1325 20.5591 19.9028 20.4837 19.6806L20.6088 19.1235L20.4275 18.3039L20.3149 17.6123C20.3149 17.6123 20.3149 16.575 20.3149 16.1652C20.3074 15.6839 20.3304 15.2026 20.3837 14.7244C20.4462 14.1801 21.9844 13.5205 22.1469 13.194C22.3095 12.8674 21.2153 13.194 21.2153 13.194C21.2153 13.194 23.1099 12.6369 23.2599 12.4064C23.41 12.1758 22.0094 12.496 22.0094 12.496C22.848 12.3435 23.6542 12.0423 24.3917 11.6059C24.9356 11.1193 23.46 11.4907 23.2224 11.5547C23.46 11.4843 25.0982 11.036 25.3045 10.5365C25.4359 10.2548 24.0915 10.4597 24.0915 10.4597C24.7621 10.3096 25.4173 10.0952 26.0486 9.81936C27.0115 9.29428 27.0115 8.92929 26.8427 8.79481C26.2354 8.87125 25.6393 9.02173 25.0669 9.24306H24.9857H25.0669C25.5018 9.08155 25.9205 8.87784 26.3175 8.63473C26.9302 8.24412 27.6868 7.72544 27.4305 7.39887ZM24.9294 8.40421C24.9956 8.36482 25.0646 8.33058 25.1357 8.30175C25.0714 8.3324 25.0088 8.3666 24.9481 8.40421H24.9294Z" fill="#0016E0"/>
<path d="M24.1607 7.22502C24.0089 7.04099 22.9731 7.5602 22.9731 7.5602C22.9731 7.5602 16.6522 10.59 13.8679 12.0951C13.4996 12.2424 13.1805 12.4901 12.9471 12.8097C12.7137 13.1294 12.5755 13.5081 12.5483 13.9024C12.6558 17.3083 12.9598 20.7052 13.4588 24.0763C13.7689 26.5015 13.98 27.5136 13.9668 27.5925C14.0561 27.3556 14.1332 27.1143 14.1978 26.8696C14.3814 25.562 14.4959 24.2457 14.5408 22.9262C14.5408 22.9262 14.9169 19.0223 15.2996 16.3999C15.5503 14.6517 15.7681 13.2452 16.1178 12.6734C16.3421 12.3185 21.4423 10.1365 22.3331 9.72248C23.4283 9.21642 23.5405 9.06525 23.5669 8.72349C23.5933 8.38173 22.4254 8.76293 22.4254 8.76293C22.4254 8.76293 23.3953 8.24372 23.7516 8.00711C24.1079 7.77051 24.3256 7.40247 24.1607 7.22502ZM3.10656 18.6279L4.74285 16.3145L2.76346 18.2862L1.83975 14.9606L1.9981 18.3519L0.342005 17.2477L1.85954 18.8251L-0.271606 19.41L1.89253 19.3049L0.097881 21.8089L2.21583 19.7058L3.09336 22.7947L2.9812 19.6861L4.57791 20.7311L2.9812 19.134L5.13214 18.5228L3.10656 18.6279Z" fill="#0016E0" stroke="#0016E0" stroke-width="0.331007"/>
</g>
<defs>
<clipPath id="clip0_726_17308">
<rect width="141.64" height="51.5755" fill="white" transform="translate(0.113281 0.575684)"/>
</clipPath>
</defs>
</svg>
