<svg width="143" height="53" viewBox="0 0 143 53" fill="none" xmlns="http://www.w3.org/2000/svg">
<g clip-path="url(#clip0_726_16892)">
<path d="M15.721 31.0561C14.5914 31.0786 13.489 30.7074 12.6031 30.006C11.7171 29.3046 11.1029 28.3168 10.8657 27.212V27.1778C10.7848 26.6768 10.7418 26.1704 10.7369 25.6629V21.0765H14.047V25.6629C14.05 25.9799 14.0753 26.2963 14.1228 26.6097C14.2371 26.939 14.4513 27.2246 14.7353 27.4267C15.0194 27.6287 15.3592 27.7373 15.7079 27.7373C16.0564 27.7373 16.3964 27.6287 16.6803 27.4267C16.9644 27.2246 17.1786 26.939 17.2928 26.6097C17.3444 26.2928 17.3735 25.9726 17.38 25.6516V21.0688H20.7052V25.6553C20.7005 26.1627 20.6588 26.669 20.5802 27.1702V27.2081C20.3444 28.3147 19.7301 29.3043 18.8432 30.0066C17.9562 30.709 16.8522 31.08 15.721 31.0561Z" fill="#034991"/>
<path d="M15.7097 36.0331C13.4594 36.0335 11.271 35.2964 9.47945 33.935C7.68895 32.5929 6.4564 30.6375 6.01782 28.4433V28.4092C5.83938 27.2815 5.74444 26.1422 5.73376 25.0006V16.623H9.04769V25.0158C9.05878 25.9606 9.13725 26.9036 9.28251 27.8373C9.82031 30.6173 12.5775 32.7079 15.6982 32.7079C18.8191 32.7079 21.5724 30.6173 22.1102 27.8411C22.2572 26.9063 22.3357 25.962 22.345 25.0158V12.1804H25.6704V25.0158C25.6595 26.1574 25.5646 27.2967 25.3863 28.4244V28.4584C24.9497 30.6516 23.7199 32.6068 21.9323 33.9501C20.1416 35.3061 17.9558 36.0378 15.7097 36.0331Z" fill="#034991"/>
<path d="M15.7134 41.0211C12.3326 41.0231 9.04419 39.9176 6.35112 37.8738C3.68568 35.8733 1.85065 32.961 1.19654 29.6931V29.659C0.918473 27.9177 0.770357 26.158 0.753418 24.3947V12.1804H4.07871V24.3947C4.09119 25.9659 4.21777 27.5342 4.45744 29.0871C5.40428 34.0107 10.2332 37.6957 15.7058 37.6957C21.1786 37.6957 25.9999 33.9956 26.9467 29.0871C27.1833 27.5325 27.3099 25.9632 27.3254 24.3908V16.623H30.6507V24.3947C30.6338 26.1566 30.487 27.915 30.2114 29.6552V29.6931C29.5567 32.9607 27.7218 35.8728 25.0568 37.8738C22.3698 39.9152 19.088 41.0207 15.7134 41.0211ZM41.7742 37.1542C42.0563 37.0004 42.3733 36.9221 42.6945 36.927C42.9465 36.923 43.1962 36.9734 43.427 37.0746C43.6577 37.176 43.8639 37.3258 44.0315 37.5139L44.6488 36.9384C44.4159 36.6682 44.1226 36.4568 43.7928 36.321C43.4331 36.1716 43.0461 36.0981 42.6566 36.1052C42.1799 36.0975 41.7092 36.2123 41.2893 36.4383C40.8917 36.6495 40.5592 36.9652 40.3275 37.3511C40.0947 37.7542 39.9722 38.2114 39.9722 38.6767C39.9722 39.142 40.0947 39.5993 40.3275 40.0023C40.5552 40.3898 40.8854 40.707 41.2819 40.9188C41.7027 41.1415 42.173 41.2548 42.649 41.2483C43.0381 41.2537 43.4243 41.1816 43.7852 41.0363C44.1168 40.8999 44.4115 40.6871 44.645 40.4151L44.0466 39.847C43.8797 40.0362 43.6737 40.1871 43.4429 40.2891C43.2121 40.3911 42.9619 40.4417 42.7096 40.4379C42.3884 40.4427 42.0714 40.3644 41.7894 40.2106C41.5243 40.0659 41.304 39.8511 41.1531 39.5895C41.0039 39.3111 40.9259 39.0001 40.9259 38.6843C40.9259 38.3684 41.0039 38.0575 41.1531 37.7792C41.2994 37.5182 41.5141 37.3021 41.7742 37.1542ZM46.7698 36.9724H48.421V41.1726H49.3413V36.9724H50.9964V36.1884H46.7698V36.9724ZM56.8403 36.4006C56.4803 36.2519 56.0933 36.1797 55.7041 36.1884H53.6514V41.1726H54.5792V39.7334H55.7154C56.1049 39.7441 56.4923 39.6719 56.8516 39.5213C57.1541 39.3943 57.4115 39.1792 57.5902 38.9039C57.7593 38.6171 57.8486 38.2901 57.8486 37.9571C57.8486 37.6241 57.7593 37.2971 57.5902 37.0103C57.4066 36.7368 57.1455 36.5245 56.8403 36.4006ZM56.5865 38.6957C56.3186 38.8849 55.9934 38.976 55.6662 38.9532H54.5829V36.9724H55.6662C55.993 36.9485 56.3181 37.0382 56.5865 37.2261C56.6859 37.3209 56.7651 37.4349 56.8193 37.5613C56.8733 37.6875 56.9013 37.8235 56.9013 37.961C56.9013 38.0983 56.8733 38.2343 56.8193 38.3605C56.7651 38.4869 56.6859 38.6009 56.5865 38.6957ZM62.0705 36.1808L59.821 41.165H60.7791L61.2715 40.0288H63.7711L64.271 41.165H65.2406L62.9682 36.1808H62.0705ZM61.5857 39.2865L62.5213 37.1049L63.4644 39.2865H61.5857ZM71.8912 36.1884H70.808L69.6301 37.8549L68.4522 36.1884H67.3805L69.0733 38.6161L67.2668 41.1726H68.3349L69.6301 39.3584L70.9292 41.1726H72.0275L70.2134 38.5821L71.8912 36.1884ZM78.2388 36.4498C77.8119 36.2316 77.3395 36.1179 76.8602 36.1179C76.3808 36.1179 75.9084 36.2316 75.4816 36.4498C75.0822 36.6602 74.7491 36.9776 74.5196 37.3663C74.2889 37.7659 74.1675 38.2191 74.1675 38.6804C74.1675 39.1419 74.2889 39.5951 74.5196 39.9947C74.7501 40.3836 75.0828 40.7019 75.4816 40.9151C75.9084 41.1331 76.3808 41.2468 76.8602 41.2468C77.3395 41.2468 77.8119 41.1331 78.2388 40.9151C78.6374 40.7035 78.9702 40.3864 79.2007 39.9985C79.4334 39.5955 79.5559 39.1383 79.5559 38.673C79.5559 38.2075 79.4334 37.7504 79.2007 37.3473C78.9689 36.9653 78.636 36.6547 78.2388 36.4498ZM78.3865 39.5819C78.241 39.8448 78.0244 40.0614 77.7615 40.2068C77.4848 40.3567 77.175 40.435 76.8602 40.435C76.5454 40.435 76.2356 40.3567 75.9588 40.2068C75.6941 40.0646 75.4749 39.8506 75.3262 39.5895C75.1749 39.3132 75.0954 39.0032 75.0954 38.6881C75.0954 38.3729 75.1749 38.063 75.3262 37.7866C75.4717 37.5237 75.6883 37.3072 75.9512 37.1618C76.228 37.012 76.5379 36.9335 76.8526 36.9335C77.1674 36.9335 77.4772 37.012 77.754 37.1618C78.0169 37.3072 78.2334 37.5237 78.3789 37.7866C78.5304 38.063 78.6098 38.3729 78.6098 38.6881C78.6098 39.0032 78.5304 39.3132 78.3789 39.5895L78.3865 39.5819ZM85.5521 38.5821C85.7721 38.4923 85.9614 38.3411 86.0975 38.1465C86.2265 37.9443 86.2925 37.7084 86.2869 37.4685C86.2942 37.2837 86.2546 37.0999 86.1718 36.9344C86.089 36.7688 85.9658 36.6268 85.8135 36.5218C85.4205 36.2772 84.9613 36.1607 84.4992 36.1884H82.2647V41.1726H84.6356C85.1336 41.2002 85.6274 41.0675 86.0445 40.7939C86.3052 40.5819 86.4749 40.2781 86.5185 39.9448C86.5622 39.6116 86.4766 39.2745 86.2793 39.0024C86.0879 38.7885 85.8331 38.6411 85.5521 38.5821ZM83.1813 36.9004H84.4159C84.6582 36.8845 84.8989 36.9483 85.1015 37.0823C85.1797 37.1457 85.2419 37.2269 85.2828 37.3191C85.3236 37.4113 85.3419 37.5117 85.3363 37.6124C85.3426 37.7126 85.3245 37.8129 85.2837 37.9046C85.2427 37.9963 85.1803 38.0766 85.1015 38.1389C84.8978 38.2698 84.6575 38.3322 84.4159 38.317H83.1737L83.1813 36.9004ZM84.6091 40.4606H83.1813V38.9948H84.6091C85.2643 38.9948 85.5938 39.2372 85.5938 39.722C85.5938 40.2068 85.2605 40.4606 84.6053 40.4606H84.6091ZM90.8545 36.1808L88.5821 41.1726H89.5365L90.0326 40.0364H92.5285L93.0284 41.1726H94.0017L91.7293 36.1884L90.8545 36.1808ZM90.3658 39.2865L91.3014 37.1049L92.2444 39.2865H90.3658ZM100.114 38.2449H97.5277V36.1884H96.5999V41.1726H97.5277V39.0364H100.114V41.1726H101.042V36.1884H100.114V38.2449ZM105.322 39.7296V36.1884H104.409V41.1726H105.269L107.954 37.6427V41.1726H108.871V36.1884H108.007L105.322 39.7296ZM113.162 36.9648V38.2601H115.578V39.0214H113.162V40.3962H115.593V41.1726H112.234V36.1884H115.593V36.9648H113.162ZM57.2493 17.3426C56.0496 16.6864 54.7004 16.3524 53.3331 16.373C52.1287 16.364 50.9372 16.6226 49.8451 17.1305C48.8049 17.6022 47.895 18.3196 47.1938 19.2211C46.4995 20.1245 46.0297 21.1798 45.8228 22.3002H43.8913V16.6191H40.566V31.0452H43.8913V25.171H45.7849C45.959 26.321 46.4134 27.4105 47.1084 28.3432C47.8032 29.2759 48.7171 30.0231 49.7693 30.5187C50.8811 31.0363 52.0956 31.2952 53.3218 31.2763C54.6891 31.2969 56.0383 30.9628 57.2379 30.3066C58.3753 29.6892 59.3222 28.7724 59.9762 27.6555C60.6245 26.4855 60.9645 25.1698 60.9645 23.8322C60.9645 22.4946 60.6245 21.1789 59.9762 20.0088C59.3275 18.8879 58.3844 17.9659 57.2493 17.3426ZM57.0334 26.2429C56.6894 26.9158 56.1648 27.4797 55.5185 27.8714C54.8581 28.2486 54.1108 28.4472 53.3502 28.4472C52.5897 28.4472 51.8423 28.2486 51.1819 27.8714C50.5355 27.4797 50.011 26.9158 49.667 26.2429C49.3008 25.4919 49.1105 24.6676 49.1105 23.8322C49.1105 22.9968 49.3008 22.1724 49.667 21.4216C50.011 20.7487 50.5355 20.1847 51.1819 19.793C51.8423 19.4157 52.5897 19.2173 53.3502 19.2173C54.1108 19.2173 54.8581 19.4157 55.5185 19.793C56.1648 20.1847 56.6894 20.7487 57.0334 21.4216C57.3996 22.1724 57.5899 22.9968 57.5899 23.8322C57.5899 24.6676 57.3996 25.4919 57.0334 26.2429ZM67.7819 19.3385H74.6635L74.6824 16.6191H64.4794V31.0452H67.8046L67.7819 19.3385ZM84.575 31.2913C85.9846 31.3137 87.3771 30.9802 88.6237 30.3219C89.7888 29.7097 90.7664 28.7935 91.4529 27.6706C92.1311 26.5107 92.4885 25.1911 92.4885 23.8473C92.4885 22.5037 92.1311 21.1841 91.4529 20.024C90.7664 18.9011 89.7888 17.985 88.6237 17.3729C87.3672 16.7354 85.9783 16.4032 84.5694 16.4032C83.1604 16.4032 81.7714 16.7354 80.515 17.3729C79.3471 17.9811 78.3685 18.8981 77.6858 20.024C77.0158 21.1868 76.6631 22.5053 76.6631 23.8473C76.6631 25.1894 77.0158 26.5078 77.6858 27.6706C78.3685 28.7966 79.3471 29.7137 80.515 30.3219C81.7657 30.9802 83.1618 31.3137 84.575 31.2913ZM80.6286 21.4406C81.0044 20.7536 81.5662 20.1866 82.2496 19.8043C82.9601 19.4192 83.7555 19.2174 84.5637 19.2174C85.3719 19.2174 86.1673 19.4192 86.8777 19.8043C87.5588 20.1895 88.1199 20.7558 88.4986 21.4406C88.8843 22.1787 89.0857 22.9993 89.0857 23.8322C89.0857 24.6651 88.8843 25.4856 88.4986 26.2239C88.1199 26.9086 87.5588 27.4749 86.8777 27.86C86.1673 28.2452 85.3719 28.447 84.5637 28.447C83.7555 28.447 82.9601 28.2452 82.2496 27.86C81.5662 27.4779 81.0044 26.9108 80.6286 26.2239C80.2405 25.4864 80.0377 24.6656 80.0377 23.8322C80.0377 22.9988 80.2405 22.178 80.6286 21.4406ZM107.655 24.6256C108.153 23.7854 108.416 22.8265 108.416 21.8495C108.416 20.8726 108.153 19.9137 107.655 19.0734C107.123 18.2634 106.364 17.6273 105.474 17.2441C104.419 16.7963 103.282 16.5781 102.137 16.6041H95.8803V31.0301H99.2244V27.0685H102.137C103.281 27.0941 104.417 26.88 105.474 26.4398C106.364 26.0644 107.124 25.433 107.655 24.6256ZM104.246 23.6978C103.58 24.1744 102.769 24.4047 101.951 24.3492H99.2244V19.3385H101.951C102.769 19.283 103.58 19.5133 104.246 19.99C104.512 20.219 104.721 20.5064 104.857 20.8296C104.993 21.1529 105.052 21.5033 105.031 21.8533C105.047 22.1977 104.985 22.5414 104.849 22.8584C104.714 23.1753 104.507 23.4572 104.246 23.6825V23.6978ZM125.63 31.0452V16.6191H122.49L115.59 26.0156V16.6191H112.264V31.0452H115.427L122.324 21.6677V31.0452H125.63ZM135.715 16.6191C134.579 16.5922 133.451 16.8145 132.409 17.2707C131.518 17.665 130.764 18.3148 130.243 19.1378C129.739 20.0167 129.475 21.013 129.478 22.0263C129.481 23.0396 129.752 24.0342 130.262 24.9096C130.808 25.7305 131.595 26.3607 132.515 26.7125L129.485 31.0604H133.019L135.58 27.2276H138.635V31.0604H141.941V16.6191H135.715ZM138.647 24.5726H135.715C134.945 24.6291 134.183 24.3863 133.588 23.8946C133.337 23.6405 133.144 23.3363 133.019 23.0023C132.894 22.668 132.841 22.3115 132.864 21.9555C132.838 21.5942 132.894 21.2317 133.024 20.894C133.156 20.5562 133.359 20.2513 133.621 20.0013C134.243 19.5204 135.019 19.2844 135.803 19.3385H138.651L138.647 24.5726Z" fill="#034991"/>
</g>
<defs>
<clipPath id="clip0_726_16892">
<rect width="141.833" height="51.5755" fill="white" transform="translate(0.75354 0.575684)"/>
</clipPath>
</defs>
</svg>
