<svg width="143" height="53" viewBox="0 0 143 53" fill="none" xmlns="http://www.w3.org/2000/svg">
<g clip-path="url(#clip0_726_17231)">
<path d="M29.5308 12.208H27.7535V41.3746H29.5308V12.208Z" fill="url(#paint0_linear_726_17231)"/>
<path d="M24.9606 12.123H23.1833V41.2896H24.9606V12.123Z" fill="url(#paint1_linear_726_17231)"/>
<path d="M20.3482 12.123H18.571V41.2896H20.3482V12.123Z" fill="url(#paint2_linear_726_17231)"/>
<path d="M16.0743 12.123H14.297V41.2896H16.0743V12.123Z" fill="url(#paint3_linear_726_17231)"/>
<path d="M11.4616 12.123H9.68427V41.2896H11.4616V12.123Z" fill="url(#paint4_linear_726_17231)"/>
<path d="M6.97616 12.123H5.19885V41.2896H6.97616V12.123Z" fill="url(#paint5_linear_726_17231)"/>
<path d="M2.36359 12.208H0.586304V41.3746H2.36359V12.208Z" fill="url(#paint6_linear_726_17231)"/>
<path d="M5.0297 24.8303V29.4356H3.54862V26.1096H2.10986V29.4356H0.628784V24.8303H5.0297ZM10.2346 29.4782H8.75356L10.4039 24.8303H11.9273L13.5776 29.4356H12.0965L11.9273 28.8386H10.4039L10.2346 29.4782ZM11.6311 27.9005L11.1656 26.1948L10.7001 27.9005H11.6311ZM18.6556 29.4782H17.1745V24.8303H19.375C20.0097 24.8303 20.5175 24.9583 20.8561 25.2141C21.1946 25.5126 21.3215 25.8537 21.3215 26.3654C21.3215 26.8771 21.1946 27.2609 20.8984 27.5167C20.5598 27.8578 20.0944 27.9431 19.4173 27.9431H18.6556V29.4782ZM18.6556 26.9198H19.2904C19.502 26.9198 19.6289 26.8771 19.7135 26.7918C19.8405 26.7065 19.8828 26.5786 19.8828 26.408C19.8828 26.1948 19.7981 26.0669 19.5866 26.0243C19.4596 25.939 19.2904 25.939 19.0788 25.939H18.6556V26.9198ZM26.5265 27.3035L28.0922 24.873H29.4886V29.4782H28.0499V27.0477L26.4841 29.4782H25.0454V24.8303H26.4841L26.5265 27.3035Z" fill="#345352"/>
<path d="M41.1778 19.5194L42.7057 19.988C42.5064 20.8581 42.1078 21.4606 41.5764 21.8622C41.045 22.2638 40.3807 22.4647 39.5171 22.4647C38.5207 22.4647 37.6571 22.13 36.9928 21.3937C36.3286 20.7243 35.9964 19.7202 35.9964 18.5154C35.9964 17.2435 36.3286 16.2394 36.9928 15.5031C37.6571 14.7668 38.5207 14.4321 39.5835 14.4321C40.5135 14.4321 41.3107 14.6999 41.8421 15.3024C42.1742 15.637 42.44 16.1056 42.6393 16.708L41.1114 17.1097C41.045 16.708 40.8457 16.3733 40.5135 16.1725C40.1814 15.9717 39.8492 15.8378 39.4506 15.8378C38.8528 15.8378 38.4542 16.0387 38.0557 16.4403C37.7236 16.8419 37.5243 17.5113 37.5243 18.4484C37.5243 19.4525 37.7236 20.1218 38.0557 20.5235C38.3878 20.9251 38.8528 21.1259 39.3842 21.1259C39.7828 21.1259 40.1814 20.9921 40.4471 20.7243C40.8457 20.4565 41.045 20.0549 41.1778 19.5194ZM46.1599 22.3307V15.9047H43.9013V14.566H50.0127V15.9047H47.7542V22.3307H46.1599ZM51.607 22.3307V14.6329H54.0648C54.9948 14.6329 55.5927 14.6998 55.9248 14.7668C56.3898 14.9006 56.722 15.1015 57.0541 15.5031C57.3864 15.9046 57.5188 16.3732 57.5188 16.9756C57.5188 17.4442 57.4526 17.8459 57.2532 18.1806C57.0542 18.5152 56.8549 18.783 56.5891 18.9169C56.3234 19.1177 56.0577 19.2516 55.792 19.2516C55.3934 19.3185 54.862 19.3855 54.1977 19.3855H53.2013V22.3307H51.607ZM53.2013 15.9046V18.1136H54.0648C54.6627 18.1136 55.0613 18.0467 55.2606 17.9798C55.4599 17.9128 55.6592 17.7789 55.7256 17.5782C55.8584 17.3773 55.9248 17.1765 55.9248 16.9756C55.9248 16.7079 55.8584 16.4402 55.6591 16.3063C55.5263 16.1055 55.2606 16.0386 55.0613 15.9716C54.862 15.9046 54.5299 15.9046 53.932 15.9046H53.2013ZM65.4237 22.3307H63.7633L63.099 20.5903H59.9767L59.3124 22.3307H57.652L60.641 14.6329H62.3022L65.4237 22.3307ZM62.5678 19.2516L61.5047 16.3732L60.4417 19.2516H62.5678ZM66.088 22.3307L68.6791 18.3145L66.2874 14.6329H68.081L69.609 17.1096L71.137 14.6329H72.9306L70.5389 18.3814L73.13 22.3307H71.2694L69.5428 19.6532L67.8154 22.3307H66.088ZM74.1261 18.5154C74.1261 17.7121 74.2593 17.0427 74.4579 16.5072C74.6573 16.1056 74.8566 15.7709 75.1892 15.4362C75.521 15.1015 75.8535 14.9007 76.1853 14.7668C76.6502 14.566 77.1822 14.4321 77.8465 14.4321C78.9758 14.4321 79.9057 14.7668 80.57 15.5031C81.2343 16.2394 81.5661 17.1766 81.5661 18.4484C81.5661 19.7202 81.2343 20.6574 80.57 21.3937C79.9057 22.13 78.9758 22.4647 77.8465 22.4647C76.7172 22.4647 75.7865 22.13 75.1222 21.3937C74.4579 20.7243 74.1261 19.7871 74.1261 18.5154ZM75.7203 18.4484C75.7203 19.3186 75.9197 19.988 76.3185 20.4565C76.7164 20.9251 77.2484 21.1259 77.8465 21.1259C78.4438 21.1259 78.9758 20.9251 79.3737 20.4565C79.7725 19.988 79.9719 19.3186 79.9719 18.4484C79.9719 17.5782 79.7725 16.9088 79.3737 16.4403C78.9758 15.9717 78.4438 15.7709 77.8465 15.7709C77.1822 15.7709 76.7164 15.9717 76.3185 16.4403C75.9197 16.9088 75.7203 17.5782 75.7203 18.4484ZM83.4259 14.6329H86.4819C87.0793 14.6329 87.545 14.6329 87.8106 14.6998C88.0761 14.7668 88.4079 14.8336 88.6073 15.0345C88.8067 15.2353 89.006 15.4362 89.2054 15.7039C89.4048 15.9716 89.471 16.3063 89.471 16.641C89.471 16.9756 89.4048 17.3104 89.2054 17.6451C89.006 17.9798 88.7405 18.1806 88.4079 18.3145C88.8729 18.4483 89.2054 18.7161 89.471 18.9838C89.7366 19.3185 89.8697 19.7202 89.8697 20.1218C89.8697 20.4565 89.8035 20.7912 89.6042 21.1259C89.4048 21.4605 89.2054 21.7283 88.9398 21.9291C88.6743 22.1299 88.3417 22.2638 87.8768 22.2638C87.6112 22.2638 87.0131 22.3307 86.017 22.3307H83.4259V14.6329ZM84.9539 15.9046V17.712H85.95C86.5481 17.712 86.9469 17.712 87.0793 17.712C87.3456 17.712 87.545 17.5782 87.6774 17.4443C87.8106 17.3104 87.8768 17.1096 87.8768 16.8418C87.8768 16.5741 87.8106 16.4402 87.6774 16.2394C87.545 16.1055 87.3456 15.9716 87.0793 15.9716C86.9469 15.9716 86.4819 15.9716 85.7514 15.9716H84.9539V15.9046ZM84.9539 18.9838V21.0589H86.4157C86.9469 21.0589 87.3456 21.0589 87.478 20.9919C87.6774 20.925 87.8768 20.8581 88.0099 20.6573C88.1423 20.4565 88.2085 20.2556 88.2085 19.9879C88.2085 19.7871 88.1423 19.5863 88.0099 19.3855C87.8768 19.1846 87.7436 19.1177 87.545 19.0508C87.3456 18.9838 86.8807 18.9169 86.1494 18.9169H84.9539V18.9838ZM98.2396 22.3307H96.5122L95.8479 20.5903H92.7926L92.1283 22.3307H90.5341L93.5231 14.6329H95.1836L98.2396 22.3307ZM95.3829 19.2516L94.3206 16.3732L93.2576 19.2516H95.3829ZM104.285 22.3308V19.1178H103.952C103.487 19.1178 103.088 19.1847 102.89 19.3186C102.69 19.4524 102.358 19.921 101.893 20.6574L100.764 22.3308H98.9039L99.8338 20.7912C100.233 20.1888 100.498 19.7871 100.698 19.5194C100.897 19.2517 101.162 19.0508 101.494 18.85C100.764 18.7161 100.233 18.5154 99.967 18.1137C99.6345 17.7121 99.5021 17.2435 99.5021 16.708C99.5021 16.2394 99.6345 15.8378 99.8338 15.4362C100.099 15.1015 100.365 14.8337 100.764 14.6999C101.162 14.566 101.694 14.499 102.491 14.499H105.746V22.1969H104.285V22.3308ZM104.285 15.9047H103.088C102.491 15.9047 102.092 15.9047 101.893 15.9717C101.694 15.9717 101.561 16.1056 101.362 16.2394C101.162 16.3733 101.162 16.6411 101.162 16.8419C101.162 17.1096 101.229 17.3104 101.362 17.5113C101.494 17.6451 101.694 17.779 101.893 17.779C102.092 17.779 102.491 17.846 103.155 17.846H104.285V15.9047ZM36.3286 30.2964H37.8564V33.5764C38.1885 33.5094 38.4542 33.4425 38.5871 33.3086C38.72 33.1747 38.9193 32.7731 39.1849 32.1038C39.5171 31.3005 39.8492 30.7649 40.1814 30.5641C40.5135 30.3633 41.045 30.2295 41.7092 30.2295C41.7756 30.2295 41.8421 30.2295 41.9085 30.2295V31.3674H41.7092C41.3771 31.3674 41.1778 31.4344 41.0449 31.5013C40.9121 31.5682 40.7792 31.7021 40.7128 31.8359C40.6464 31.9698 40.5135 32.3045 40.3143 32.8401C40.2478 33.1078 40.115 33.3086 39.9821 33.5094C39.8492 33.7102 39.6499 33.8441 39.3842 34.0449C39.7164 34.1118 39.9821 34.3127 40.2478 34.6474C40.4471 34.9151 40.7128 35.3836 40.9785 35.9192L42.0414 38.0612H40.2478L39.3178 36.0531C39.3178 36.0531 39.2514 35.9861 39.2514 35.9192C39.2514 35.9192 39.1849 35.7852 39.0521 35.5845C38.8528 35.1828 38.72 34.9821 38.5871 34.8482C38.4542 34.7812 38.2549 34.7143 37.9892 34.7143V38.1281H36.4614V30.2964H36.3286ZM43.8349 34.2458C43.8349 33.4425 43.9677 32.7731 44.167 32.2376C44.3663 31.8359 44.5656 31.5013 44.8978 31.1666C45.2299 30.8319 45.562 30.6311 45.8942 30.4972C46.3592 30.2965 46.8906 30.1625 47.5549 30.1625C48.6841 30.1625 49.6142 30.4972 50.2784 31.2335C50.9427 31.9698 51.2748 32.907 51.2748 34.1788C51.2748 35.4506 50.9427 36.3878 50.2784 37.1241C49.6142 37.8604 48.6841 38.1951 47.5549 38.1951C46.4256 38.1951 45.4956 37.8604 44.8314 37.1241C44.167 36.3878 43.8349 35.4506 43.8349 34.2458ZM45.4292 34.1788C45.4292 35.049 45.6285 35.7184 46.0271 36.1869C46.4256 36.6555 46.957 36.8563 47.5549 36.8563C48.1528 36.8563 48.6841 36.6555 49.0827 36.1869C49.4813 35.7184 49.6806 35.049 49.6806 34.1788C49.6806 33.3086 49.4813 32.6392 49.0827 32.1706C48.6841 31.7021 48.1528 31.5013 47.5549 31.5013C46.957 31.5013 46.4256 31.7021 46.0271 32.1706C45.6285 32.6392 45.4292 33.3086 45.4292 34.1788ZM53.7991 38.0613V30.3634H56.1241L57.5188 35.6515L58.9144 30.3634H61.2392V38.0613H59.7773V31.97L58.2501 38.0613H56.7884L55.2606 31.97V38.0613H53.7991ZM64.0958 30.2964H70.2071V37.9942H68.6129V31.5681H65.6231V37.9942H64.0958V30.2964ZM80.0381 38.0613H78.3776L77.7133 36.3209H74.5911L73.9267 38.0613H72.2663L75.2554 30.3634H76.9158L80.0381 38.0613ZM77.1822 34.9821L76.1191 32.1038L75.056 34.9821H77.1822ZM82.1642 38.0613V30.3634H83.6915V33.3757H86.7475V30.3634H88.2755V38.0613H86.7475V34.7144H83.6915V38.0613H82.1642ZM91.2646 30.2964H92.7256V35.4505L95.8479 30.2964H97.3759V37.9942H95.9149V32.9738L92.7926 37.9942H91.2646V30.2964ZM104.816 38.0612V34.8482H104.484C104.018 34.8482 103.62 34.9151 103.421 35.049C103.222 35.1828 102.889 35.6514 102.424 36.3878L101.295 38.0612H99.4351L100.365 36.5216C100.764 35.9192 101.029 35.5175 101.229 35.2498C101.428 34.9821 101.694 34.7812 102.026 34.5804C101.295 34.4465 100.764 34.2458 100.498 33.8441C100.166 33.4425 100.033 32.9739 100.033 32.4384C100.033 31.9698 100.166 31.5682 100.365 31.1666C100.631 30.8319 100.897 30.5642 101.295 30.4302C101.694 30.2964 102.226 30.2295 103.022 30.2295H106.278V37.9273H104.816V38.0612ZM104.816 31.6351H103.62C103.022 31.6351 102.624 31.6352 102.424 31.7021C102.226 31.7021 102.092 31.8359 101.893 31.9698C101.694 32.1037 101.694 32.3715 101.694 32.5722C101.694 32.8401 101.76 33.0408 101.893 33.2416C102.026 33.3755 102.226 33.5094 102.424 33.5094C102.624 33.5094 103.022 33.5764 103.687 33.5764H104.816V31.6351Z" fill="#345352"/>
</g>
<defs>
<linearGradient id="paint0_linear_726_17231" x1="28.642" y1="12.2082" x2="28.642" y2="41.3746" gradientUnits="userSpaceOnUse">
<stop stop-color="#345352"/>
<stop offset="0.184" stop-color="#345352"/>
<stop offset="0.373" stop-color="white"/>
<stop offset="0.67" stop-color="white"/>
<stop offset="0.8" stop-color="#345352"/>
<stop offset="1" stop-color="#345352"/>
</linearGradient>
<linearGradient id="paint1_linear_726_17231" x1="24.0722" y1="12.1231" x2="24.0722" y2="41.2896" gradientUnits="userSpaceOnUse">
<stop stop-color="#345352"/>
<stop offset="0.184" stop-color="#345352"/>
<stop offset="0.373" stop-color="white"/>
<stop offset="0.67" stop-color="white"/>
<stop offset="0.8" stop-color="#345352"/>
<stop offset="1" stop-color="#345352"/>
</linearGradient>
<linearGradient id="paint2_linear_726_17231" x1="19.4594" y1="12.1231" x2="19.4594" y2="41.2896" gradientUnits="userSpaceOnUse">
<stop stop-color="#345352"/>
<stop offset="0.184" stop-color="#345352"/>
<stop offset="0.373" stop-color="white"/>
<stop offset="0.67" stop-color="white"/>
<stop offset="0.8" stop-color="#345352"/>
<stop offset="1" stop-color="#345352"/>
</linearGradient>
<linearGradient id="paint3_linear_726_17231" x1="15.1858" y1="12.1231" x2="15.1858" y2="41.2896" gradientUnits="userSpaceOnUse">
<stop stop-color="#345352"/>
<stop offset="0.184" stop-color="#345352"/>
<stop offset="0.373" stop-color="white"/>
<stop offset="0.67" stop-color="white"/>
<stop offset="0.8" stop-color="#345352"/>
<stop offset="1" stop-color="#345352"/>
</linearGradient>
<linearGradient id="paint4_linear_726_17231" x1="10.5732" y1="12.1231" x2="10.5732" y2="41.2896" gradientUnits="userSpaceOnUse">
<stop stop-color="#345352"/>
<stop offset="0.184" stop-color="#345352"/>
<stop offset="0.373" stop-color="white"/>
<stop offset="0.67" stop-color="white"/>
<stop offset="0.8" stop-color="#345352"/>
<stop offset="1" stop-color="#345352"/>
</linearGradient>
<linearGradient id="paint5_linear_726_17231" x1="6.08736" y1="12.1231" x2="6.08736" y2="41.2896" gradientUnits="userSpaceOnUse">
<stop stop-color="#345352"/>
<stop offset="0.184" stop-color="#345352"/>
<stop offset="0.373" stop-color="white"/>
<stop offset="0.67" stop-color="white"/>
<stop offset="0.8" stop-color="#345352"/>
<stop offset="1" stop-color="#345352"/>
</linearGradient>
<linearGradient id="paint6_linear_726_17231" x1="1.47484" y1="12.2082" x2="1.47484" y2="41.3746" gradientUnits="userSpaceOnUse">
<stop stop-color="#345352"/>
<stop offset="0.184" stop-color="#345352"/>
<stop offset="0.373" stop-color="white"/>
<stop offset="0.67" stop-color="white"/>
<stop offset="0.8" stop-color="#345352"/>
<stop offset="1" stop-color="#345352"/>
</linearGradient>
<clipPath id="clip0_726_17231">
<rect width="141.64" height="51.5755" fill="white" transform="translate(0.586304 0.575684)"/>
</clipPath>
</defs>
</svg>
