<svg width="142" height="52" viewBox="0 0 142 52" fill="none" xmlns="http://www.w3.org/2000/svg">
<g clip-path="url(#clip0_726_16952)">
<path d="M7.37863 35.7359H8.62295L9.01082 34.5395L9.39544 35.7359H10.6268L9.63132 36.4614L10.003 37.6578L9.01082 36.9193L8.00245 37.6578L8.38706 36.4614L7.37863 35.7359ZM7.44974 15.2038H8.66824L9.04634 14.0429L9.42451 15.2038H10.6429L9.66045 15.9294L10.0321 17.0806L9.0496 16.3647L8.06704 17.0806L8.43875 15.9294L7.45619 15.2038H7.44974ZM3.00901 19.4508H4.25333L4.63143 18.148L5.02902 19.4508H6.27979L5.2617 20.1893L5.64632 21.3825L4.64114 20.644L3.63277 21.3825L4.01739 20.1893L3.00901 19.4508ZM1.30897 25.6295H2.53067L2.90232 24.4653L3.28048 25.6295H4.49893L3.51643 26.355L3.88808 27.5159L2.90558 26.8033L1.92308 27.5159L2.30118 26.355L1.31223 25.6295H1.30897ZM2.76662 31.5211H4.01739L4.402 30.328L4.78982 31.5211H6.04059L5.03221 32.2757L5.42009 33.4689L4.39875 32.7304L3.39037 33.4689L3.76854 32.2757L2.76336 31.5211H2.76662ZM27.6691 19.7443H13.7424V11.7308C14.0366 11.7114 14.3339 11.6985 14.6216 11.6985C20.3066 11.6985 25.2515 14.9813 27.6691 19.7443ZM28.713 30.2441L13.7457 30.2344L13.7586 30.2215L13.7457 21.605H28.4545C28.9748 23.0787 29.2431 24.6749 29.2431 26.3292C29.2431 27.6739 29.0556 28.9897 28.7162 30.2409L28.713 30.2441ZM0 26.2906V26.3711C0.0194208 33.543 5.23909 39.5153 12.0715 40.7278V11.9339C5.23909 13.14 0.0226174 19.1219 0 26.2906ZM13.7457 40.9277V32.1241L13.7845 32.1338H28.0505C25.7977 37.3192 20.6201 40.9503 14.628 40.9503C14.3404 40.9503 14.043 40.9406 13.7489 40.9309L13.7457 40.9277Z" fill="#35347E"/>
<path d="M37.9111 16.6273V20.7834H43.1534V23.3117H37.9111V27.5543H44.6475V30.1735H34.6403V14.0081H44.6475V16.6273H37.9111Z" fill="#35347E"/>
<path d="M53.1475 14.0127C54.1695 14.0127 55.0465 14.1127 55.7719 14.3173C56.4982 14.5219 57.0906 14.8129 57.5507 15.1858C58.01 15.5632 58.3451 16.018 58.5559 16.55C58.7659 17.0865 58.8693 17.6823 58.8693 18.3416C58.8693 18.7145 58.818 19.0691 58.7146 19.4102C58.6112 19.7512 58.4565 20.0741 58.2417 20.3742C58.0276 20.6743 57.7527 20.9472 57.4176 21.1927C57.0825 21.4382 56.6785 21.6474 56.2192 21.8157C57.2581 22.0749 58.0276 22.4977 58.5254 23.0843C59.024 23.671 59.2733 24.4304 59.2733 25.3671C59.2733 26.0492 59.1483 26.6857 58.899 27.2724C58.6505 27.859 58.289 28.3682 57.808 28.8003C57.327 29.2322 56.7427 29.5688 56.0469 29.8097C55.3471 30.0507 54.5479 30.1735 53.6413 30.1735H47.7266V14.0081H53.1475V14.0127ZM50.8838 16.5545V20.9199H52.9583C53.4008 20.9199 53.792 20.879 54.1359 20.8016C54.4789 20.7243 54.7667 20.6015 54.9992 20.4288C55.2308 20.256 55.4072 20.0332 55.5314 19.7558C55.6565 19.4784 55.7166 19.1419 55.7166 18.7463C55.7166 18.3507 55.6645 18.0051 55.5659 17.7232C55.4625 17.4413 55.3086 17.2138 55.0978 17.0456C54.887 16.8728 54.6208 16.7501 54.2986 16.6728C53.9763 16.5955 53.594 16.5545 53.1515 16.5545H50.8878H50.8838ZM53.59 27.6179C54.0966 27.6179 54.5094 27.5543 54.8357 27.4224C55.1619 27.2906 55.424 27.1178 55.622 26.904C55.8192 26.6903 55.9571 26.4402 56.034 26.1629C56.1118 25.8854 56.1503 25.5944 56.1503 25.2989C56.1503 24.9714 56.103 24.6804 56.0124 24.4167C55.9226 24.1575 55.7719 23.9347 55.5699 23.7528C55.3687 23.5709 55.1018 23.4299 54.7755 23.3344C54.4493 23.2389 54.0493 23.1889 53.5683 23.1889H50.8838V27.6134H53.59V27.6179Z" fill="#35347E"/>
<path d="M67.6782 14.0081C68.7547 14.0081 69.6899 14.1398 70.4745 14.399C71.2584 14.6581 71.905 15.0218 72.4102 15.4855C72.9154 15.9491 73.2924 16.4992 73.5355 17.1402C73.7794 17.7812 73.8993 18.4722 73.8993 19.2223C73.8993 20.0178 73.7703 20.7452 73.5181 21.4044C73.2659 22.0635 72.8798 22.6318 72.3663 23.1091C71.8521 23.5864 71.2055 23.9546 70.4208 24.2183C69.6411 24.482 68.7241 24.6138 67.6741 24.6138H65.6094V30.1735H62.3525V14.0126H67.6741L67.6782 14.0081ZM67.6782 22.0499C68.6977 22.0499 69.446 21.7953 69.9206 21.2907C70.3943 20.7861 70.6341 20.0951 70.6341 19.2177C70.6341 18.8177 70.5762 18.4494 70.4564 18.1222C70.3373 17.7903 70.1554 17.5085 69.9115 17.2766C69.6676 17.0448 69.3625 16.8629 68.9945 16.7356C68.6266 16.6083 68.1883 16.5447 67.6832 16.5447H65.6177V22.0453H67.6832L67.6782 22.0499Z" fill="#35347E"/>
<path d="M91.6043 22.0841C91.6043 23.241 91.4089 24.3134 91.0232 25.3011C90.6374 26.289 90.0869 27.1433 89.3815 27.8641C88.6762 28.585 87.8243 29.1501 86.8309 29.5594C85.8367 29.9688 84.7365 30.1735 83.5261 30.1735C82.315 30.1735 81.2148 29.9688 80.2205 29.5594C79.2271 29.1501 78.3752 28.585 77.6658 27.8641C76.9555 27.1433 76.4058 26.289 76.02 25.3011C75.6334 24.3134 75.4388 23.241 75.4388 22.0841C75.4388 20.9272 75.6334 19.8593 76.02 18.8759C76.4058 17.8926 76.9555 17.0382 77.6658 16.3174C78.3752 15.5966 79.2271 15.0314 80.2205 14.6221C81.2148 14.2127 82.315 14.0081 83.5261 14.0081C84.7365 14.0081 85.8367 14.2127 86.8309 14.6221C87.8243 15.0314 88.6721 15.601 89.3815 16.3219C90.0869 17.0471 90.6374 17.897 91.0232 18.8848C91.4089 19.8682 91.6043 20.9361 91.6043 22.0841ZM88.2681 22.0841C88.2681 21.2565 88.1571 20.5134 87.9394 19.8549C87.7225 19.1963 87.4071 18.6357 86.999 18.1774C86.5908 17.7146 86.0941 17.3631 85.5088 17.1183C84.9277 16.8736 84.2662 16.7535 83.5261 16.7535C82.7852 16.7535 82.1237 16.8736 81.5385 17.1183C80.9532 17.3631 80.4515 17.7146 80.0434 18.1774C79.6352 18.6401 79.3206 19.1963 79.1029 19.8549C78.8852 20.5134 78.7743 21.2565 78.7743 22.0841C78.7743 22.9118 78.8852 23.6682 79.1029 24.3223C79.3206 24.9808 79.6352 25.537 80.0434 25.9953C80.4515 26.4536 80.9532 26.8051 81.5385 27.0455C82.1237 27.2901 82.7893 27.4103 83.5261 27.4103C84.2621 27.4103 84.9277 27.2901 85.5088 27.0455C86.09 26.8007 86.5867 26.4536 86.999 25.9953C87.4071 25.537 87.7225 24.9808 87.9394 24.3223C88.1571 23.6638 88.2681 22.9162 88.2681 22.0841Z" fill="#35347E"/>
<path d="M107.77 14.0081V30.1689H104.778V20.5361C104.778 20.1361 104.786 19.7132 104.807 19.2723C104.827 18.8313 104.867 18.3631 104.924 17.8766C104.778 18.3131 104.625 18.7222 104.459 19.0995C104.293 19.4769 104.135 19.8087 103.982 20.0906L99.0023 29.1461C98.9375 29.2734 98.8567 29.3962 98.764 29.5143C98.6704 29.6325 98.5693 29.7416 98.4607 29.8417C98.3513 29.9417 98.2344 30.0235 98.1047 30.0826C97.9757 30.1417 97.8377 30.1735 97.6928 30.1735H95.4532V14.0126H98.4441V23.6455C98.4441 24.0455 98.4366 24.4684 98.4162 24.9093C98.3959 25.3502 98.3551 25.8184 98.2985 26.3049C98.4441 25.8685 98.598 25.4593 98.764 25.0821C98.9292 24.7047 99.0868 24.3729 99.2407 24.091L104.221 15.0264C104.286 14.9081 104.366 14.7854 104.459 14.6627C104.552 14.54 104.653 14.4308 104.762 14.3354C104.872 14.2399 104.989 14.1626 105.118 14.1035C105.247 14.0444 105.385 14.0126 105.53 14.0126H107.77V14.0081Z" fill="#35347E"/>
<path d="M125.475 14.0081V30.1735H122.296V23.2117H115.567V30.1735H112.388V14.0081H115.567V20.8699H122.296V14.0081H125.475Z" fill="#35347E"/>
<path d="M139.927 26.1088C140.105 26.1088 140.253 26.1755 140.374 26.3045L141.64 27.6876C141.016 28.5014 140.244 29.1196 139.32 29.542C138.396 29.9645 137.295 30.1735 136.021 30.1735C134.868 30.1735 133.826 29.9734 132.907 29.5687C131.988 29.164 131.203 28.6037 130.561 27.8833C129.916 27.1628 129.421 26.3089 129.074 25.3217C128.728 24.3344 128.554 23.2538 128.554 22.0841C128.554 21.3014 128.636 20.5543 128.806 19.8472C128.971 19.1401 129.213 18.4863 129.534 17.8904C129.855 17.2945 130.236 16.7564 130.688 16.2761C131.138 15.7958 131.646 15.3866 132.214 15.0487C132.782 14.7106 133.398 14.4527 134.065 14.2749C134.733 14.097 135.449 14.0081 136.207 14.0081C136.775 14.0081 137.308 14.057 137.815 14.1592C138.323 14.2615 138.795 14.4038 139.234 14.5861C139.672 14.7685 140.079 14.9864 140.448 15.2443C140.821 15.5022 141.155 15.7825 141.453 16.0893L140.383 17.5925C140.317 17.6859 140.24 17.7704 140.14 17.8415C140.04 17.9127 139.905 17.9527 139.736 17.9527C139.567 17.9527 139.394 17.8904 139.221 17.7659C139.047 17.6414 138.835 17.5035 138.583 17.3523C138.332 17.2011 138.015 17.0632 137.638 16.9387C137.261 16.8142 136.78 16.752 136.199 16.752C135.552 16.752 134.962 16.872 134.425 17.1122C133.887 17.3523 133.423 17.6992 133.037 18.1528C132.651 18.6065 132.352 19.1623 132.14 19.8249C131.927 20.4876 131.819 21.2391 131.819 22.0796C131.819 22.9202 131.936 23.6851 132.166 24.3522C132.396 25.0148 132.712 25.5796 133.111 26.0377C133.51 26.4957 133.978 26.8426 134.512 27.0783C135.045 27.314 135.618 27.4341 136.229 27.4341C136.589 27.4341 136.918 27.4163 137.213 27.3807C137.508 27.3451 137.781 27.2829 138.032 27.1939C138.284 27.105 138.523 26.9938 138.744 26.856C138.964 26.718 139.19 26.5446 139.42 26.3312C139.498 26.2645 139.58 26.2111 139.663 26.1667C139.749 26.1222 139.841 26.1 139.94 26.1L139.927 26.1088Z" fill="#35347E"/>
<path d="M38.1529 38.4308C38.1883 38.4308 38.2193 38.4439 38.2414 38.4698L38.4892 38.73C38.299 38.9425 38.0733 39.1116 37.8035 39.2331C37.5336 39.3546 37.2106 39.4109 36.8302 39.4109C36.4984 39.4109 36.2019 39.3546 35.932 39.2417C35.6622 39.129 35.4321 38.9729 35.2419 38.7691C35.0517 38.5653 34.9013 38.3223 34.7995 38.0405C34.6933 37.7586 34.6403 37.4464 34.6403 37.1037C34.6403 36.7611 34.6933 36.4532 34.804 36.167C34.9145 35.8851 35.0649 35.6379 35.2641 35.4341C35.4631 35.2302 35.6976 35.0742 35.9763 34.9614C36.255 34.8486 36.5558 34.7922 36.8921 34.7922C37.2283 34.7922 37.5071 34.8443 37.7592 34.9484C38.0113 35.0524 38.2281 35.1912 38.4228 35.369L38.2193 35.651C38.2193 35.651 38.1883 35.69 38.1707 35.703C38.1529 35.716 38.122 35.7247 38.0865 35.7247C38.0468 35.7247 38.0025 35.703 37.945 35.6639C37.8875 35.6249 37.8167 35.5772 37.7282 35.5252C37.6397 35.4732 37.5247 35.4298 37.392 35.3864C37.2549 35.3474 37.0911 35.3257 36.8921 35.3257C36.6532 35.3257 36.4364 35.3647 36.2418 35.4471C36.0427 35.5295 35.8746 35.6466 35.733 35.7984C35.5914 35.9502 35.4809 36.1367 35.4012 36.3578C35.3215 36.579 35.2817 36.8262 35.2817 37.1037C35.2817 37.3813 35.3215 37.6372 35.4057 37.8583C35.4897 38.0795 35.6002 38.266 35.7418 38.4178C35.8834 38.5696 36.0515 38.6867 36.2462 38.7647C36.4408 38.8428 36.6488 38.8862 36.8744 38.8862C37.0116 38.8862 37.1354 38.8775 37.246 38.8645C37.3566 38.8471 37.4584 38.8255 37.5512 38.7908C37.6442 38.7561 37.7326 38.7127 37.8123 38.665C37.892 38.613 37.9715 38.5522 38.0512 38.4829C38.0865 38.4525 38.122 38.4352 38.1618 38.4352L38.1529 38.4308Z" fill="#35347E"/>
<path d="M43.8777 35.3163H42.6045V39.4109H42.0756V35.3163H40.7986V34.7922H43.8777V35.3163Z" fill="#35347E"/>
<path d="M47.9717 34.7922C48.1913 34.7922 48.381 34.8278 48.544 34.8943C48.7071 34.9609 48.8402 35.0584 48.9467 35.1827C49.0532 35.3069 49.1333 35.4578 49.186 35.6353C49.2394 35.8127 49.2661 36.0079 49.2661 36.2253C49.2661 36.4428 49.2394 36.6379 49.1829 36.8154C49.1264 36.9928 49.0432 37.1482 48.9367 37.2768C48.8269 37.4055 48.6938 37.5076 48.534 37.5785C48.3743 37.6496 48.188 37.685 47.9783 37.685H47.4226V39.4109H46.9568V34.7922H47.9783H47.9717ZM47.9717 37.1881C48.1048 37.1881 48.2246 37.1659 48.3244 37.1171C48.4276 37.0683 48.5141 37.0062 48.584 36.9175C48.6539 36.8287 48.7071 36.7311 48.7437 36.6113C48.7803 36.4915 48.7969 36.3628 48.7969 36.2209C48.7969 35.928 48.7304 35.6973 48.594 35.5332C48.4575 35.369 48.2512 35.2847 47.975 35.2847H47.4193V37.1881H47.975H47.9717Z" fill="#35347E"/>
<path d="M55.4201 39.4109H54.9032C54.8413 39.4109 54.7944 39.3977 54.7608 39.371C54.7227 39.3444 54.6944 39.3089 54.6802 39.2646L54.22 38.1509H52.0058L51.5456 39.2646C51.5315 39.3045 51.5076 39.3355 51.4651 39.3665C51.427 39.3977 51.3748 39.4109 51.3182 39.4109H50.8058L52.7784 34.7922H53.4519L55.4245 39.4109H55.4201ZM54.0307 37.6984L53.2572 35.8215C53.2342 35.7639 53.2103 35.7018 53.1864 35.6264C53.1625 35.5509 53.1386 35.4755 53.1156 35.3912C53.0678 35.5642 53.0156 35.7107 52.9687 35.826L52.1952 37.7028H54.0404L54.0307 37.6984Z" fill="#35347E"/>
<path d="M61.5827 39.4021H60.9965C60.9501 39.4021 60.9163 39.3888 60.8911 39.3667C60.8659 39.3445 60.8447 39.3135 60.8282 39.2868L59.6519 37.3498C59.6346 37.403 59.6181 37.4473 59.5969 37.4828L58.4505 39.2913C58.4293 39.3223 58.408 39.3489 58.3829 39.3711C58.3577 39.3977 58.3278 39.4066 58.2861 39.4066H57.7338L59.2428 37.0351L57.7928 34.7922H58.3829C58.4246 34.7922 58.4584 34.801 58.4796 34.8144C58.5009 34.8276 58.5174 34.8499 58.5347 34.8809L59.681 36.7293C59.6936 36.6849 59.7149 36.6362 59.7448 36.5829L60.8242 34.8941C60.8408 34.8631 60.8573 34.841 60.8832 34.8232C60.9084 34.8055 60.9336 34.7966 60.9627 34.7966H61.5276L60.0736 37.013L61.5788 39.4109L61.5827 39.4021Z" fill="#35347E"/>
<path d="M67.741 37.1059C67.741 37.4445 67.6956 37.7528 67.6019 38.0392C67.5081 38.3257 67.3774 38.5645 67.2088 38.7685C67.0403 38.9725 66.8375 39.1288 66.6019 39.2417C66.3655 39.3545 66.1033 39.4109 65.8145 39.4109C65.5263 39.4109 65.2676 39.3545 65.0312 39.2417C64.7956 39.1288 64.5928 38.9725 64.4242 38.7685C64.2557 38.5645 64.125 38.3214 64.0312 38.0392C63.9375 37.7571 63.8921 37.4445 63.8921 37.1059C63.8921 36.7674 63.9375 36.4548 64.0312 36.1727C64.125 35.8905 64.2557 35.6474 64.4242 35.4391C64.5928 35.235 64.7956 35.0744 65.0312 34.9615C65.2676 34.8487 65.5298 34.7922 65.8145 34.7922C66.0998 34.7922 66.362 34.8487 66.6019 34.9615C66.8375 35.0744 67.0403 35.235 67.2088 35.4391C67.3774 35.6431 67.5081 35.8862 67.6019 36.1727C67.6956 36.4591 67.741 36.7674 67.741 37.1059ZM67.1977 37.1059C67.1977 36.8281 67.1634 36.5806 67.0998 36.3593C67.0361 36.1379 66.9424 35.9513 66.8228 35.7993C66.7026 35.6474 66.5564 35.5302 66.3879 35.4477C66.2158 35.3653 66.0284 35.3261 65.8145 35.3261C65.6012 35.3261 65.4173 35.3653 65.2452 35.4477C65.0725 35.5302 64.9305 35.6474 64.8068 35.7993C64.6865 35.9513 64.5928 36.1379 64.5291 36.3593C64.4655 36.5806 64.4319 36.8281 64.4319 37.1059C64.4319 37.3838 64.4655 37.6311 64.5291 37.8525C64.5928 38.0739 64.6865 38.2563 64.8068 38.4126C64.9263 38.5645 65.0725 38.6817 65.2452 38.7641C65.4173 38.8466 65.6047 38.8857 65.8145 38.8857C66.0242 38.8857 66.2158 38.8466 66.3879 38.7641C66.5606 38.6817 66.7026 38.5645 66.8228 38.4126C66.9424 38.2606 67.0361 38.0739 67.0998 37.8525C67.1634 37.6311 67.1977 37.3838 67.1977 37.1059Z" fill="#35347E"/>
<path d="M72.2126 34.7922C72.4818 34.7922 72.7134 34.8188 72.9064 34.8764C73.1003 34.9339 73.2596 35.0136 73.386 35.1155C73.5124 35.2174 73.605 35.3457 73.6639 35.4919C73.7227 35.6425 73.7518 35.8063 73.7518 35.9967C73.7518 36.1119 73.7353 36.2181 73.7015 36.3244C73.6678 36.4307 73.6176 36.5237 73.5501 36.6167C73.4826 36.7053 73.3986 36.7893 73.2934 36.8602C73.1929 36.9311 73.0705 36.9887 72.9316 37.0374C73.2518 37.1038 73.4951 37.2233 73.6552 37.4005C73.8193 37.5777 73.8993 37.8079 73.8993 38.0957C73.8993 38.2906 73.8656 38.4677 73.7981 38.6316C73.7306 38.791 73.6301 38.9327 73.4998 39.0478C73.3695 39.163 73.2055 39.2515 73.0163 39.3179C72.8225 39.38 72.6082 39.4109 72.3641 39.4109H70.8202V34.8011H72.2165L72.2126 34.7922ZM71.4049 35.2838V36.8558H72.1875C72.3554 36.8558 72.4983 36.8381 72.6247 36.7982C72.751 36.7584 72.8523 36.7053 72.9316 36.6389C73.0116 36.5724 73.0705 36.4883 73.1082 36.3908C73.1466 36.2934 73.167 36.1871 73.167 36.072C73.167 35.7975 73.0917 35.6026 72.9363 35.4742C72.7801 35.3457 72.5407 35.2882 72.2165 35.2882H71.4089L71.4049 35.2838ZM72.3515 38.9061C72.5195 38.9061 72.667 38.8839 72.7887 38.8441C72.9112 38.8043 73.0116 38.7467 73.0917 38.6714C73.1717 38.5961 73.2259 38.5076 73.2644 38.4057C73.302 38.3038 73.3185 38.1932 73.3185 38.0691C73.3185 37.83 73.2392 37.6441 73.0791 37.5068C72.919 37.3695 72.6749 37.2986 72.3554 37.2986H71.4089V38.9017H72.3554L72.3515 38.9061Z" fill="#35347E"/>
<path d="M80.8273 37.1059C80.8273 37.4445 80.7736 37.7528 80.6611 38.0392C80.5487 38.3257 80.3909 38.5645 80.1886 38.7685C79.9863 38.9725 79.7438 39.1288 79.4601 39.2417C79.1772 39.3545 78.8625 39.4109 78.5159 39.4109C78.1692 39.4109 77.8595 39.3545 77.5758 39.2417C77.2922 39.1288 77.0496 38.9725 76.8473 38.7685C76.6451 38.5645 76.4873 38.3214 76.3748 38.0392C76.2623 37.7571 76.2086 37.4445 76.2086 37.1059C76.2086 36.7674 76.2623 36.4548 76.3748 36.1727C76.4873 35.8905 76.6451 35.6474 76.8473 35.4391C77.0496 35.235 77.2922 35.0744 77.5758 34.9615C77.8595 34.8487 78.1743 34.7922 78.5159 34.7922C78.8575 34.7922 79.1722 34.8487 79.4601 34.9615C79.7438 35.0744 79.9863 35.235 80.1886 35.4391C80.3909 35.6431 80.5487 35.8862 80.6611 36.1727C80.7736 36.4591 80.8273 36.7674 80.8273 37.1059ZM80.1752 37.1059C80.1752 36.8281 80.1349 36.5806 80.0585 36.3593C79.9821 36.1379 79.8697 35.9513 79.7253 35.7993C79.5818 35.6474 79.4064 35.5302 79.2041 35.4477C78.9968 35.3653 78.7719 35.3261 78.5159 35.3261C78.259 35.3261 78.0391 35.3653 77.8318 35.4477C77.6254 35.5302 77.4541 35.6474 77.3056 35.7993C77.1621 35.9513 77.0496 36.1379 76.9732 36.3593C76.8968 36.5806 76.8566 36.8281 76.8566 37.1059C76.8566 37.3838 76.8968 37.6311 76.9732 37.8525C77.0496 38.0739 77.1621 38.2563 77.3056 38.4126C77.4499 38.5645 77.6254 38.6817 77.8318 38.7641C78.0391 38.8466 78.2641 38.8857 78.5159 38.8857C78.7677 38.8857 78.9968 38.8466 79.2041 38.7641C79.4106 38.6817 79.5818 38.5645 79.7253 38.4126C79.8697 38.2606 79.9821 38.0739 80.0585 37.8525C80.1349 37.6311 80.1752 37.3838 80.1752 37.1059Z" fill="#35347E"/>
<path d="M86.2159 38.9007V39.4109H83.1367V34.7922H86.2114V35.3024H83.8134V36.8376H85.7558V37.3256H83.8134V38.9007H86.2159Z" fill="#35347E"/>
<path d="M96.9929 37.1059C96.9929 37.4445 96.9391 37.7528 96.8265 38.0392C96.7139 38.3257 96.556 38.5645 96.3536 38.7685C96.1511 38.9725 95.9075 39.1288 95.6244 39.2417C95.3404 39.3545 95.0254 39.4109 94.6835 39.4109C94.3416 39.4109 94.0266 39.3545 93.7426 39.2417C93.4587 39.1288 93.2159 38.9725 93.0134 38.7685C92.811 38.5645 92.653 38.3214 92.5405 38.0392C92.4279 37.7571 92.3741 37.4445 92.3741 37.1059C92.3741 36.7674 92.4279 36.4548 92.5405 36.1727C92.653 35.8905 92.811 35.6474 93.0134 35.4391C93.2159 35.235 93.4587 35.0744 93.7426 34.9615C94.0266 34.8487 94.3416 34.7922 94.6835 34.7922C95.0254 34.7922 95.3404 34.8487 95.6244 34.9615C95.9075 35.0744 96.1511 35.235 96.3536 35.4391C96.556 35.6431 96.7139 35.8862 96.8265 36.1727C96.9391 36.4591 96.9929 36.7674 96.9929 37.1059ZM96.3401 37.1059C96.3401 36.8281 96.2998 36.5806 96.2233 36.3593C96.1461 36.1379 96.0343 35.9513 95.8898 35.7993C95.7462 35.6474 95.5706 35.5302 95.3673 35.4477C95.1607 35.3653 94.9355 35.3261 94.6793 35.3261C94.4222 35.3261 94.2021 35.3653 93.9946 35.4477C93.788 35.5302 93.6166 35.6474 93.4679 35.7993C93.3243 35.9513 93.2117 36.1379 93.1302 36.3593C93.0538 36.5806 93.0134 36.8281 93.0134 37.1059C93.0134 37.3838 93.0538 37.6311 93.1302 37.8525C93.2067 38.0739 93.3192 38.2563 93.4679 38.4126C93.6124 38.5645 93.788 38.6817 93.9946 38.7641C94.2021 38.8466 94.4264 38.8857 94.6793 38.8857C94.9313 38.8857 95.1607 38.8466 95.3673 38.7641C95.5748 38.6817 95.7462 38.5645 95.8898 38.4126C96.0343 38.2606 96.1461 38.0739 96.2233 37.8525C96.2998 37.6311 96.3401 37.3838 96.3401 37.1059Z" fill="#35347E"/>
<path d="M101.189 36.7799C101.395 36.7799 101.575 36.8109 101.725 36.8731C101.875 36.9352 102 37.0195 102.097 37.1304C102.195 37.2413 102.267 37.3744 102.313 37.5253C102.359 37.6761 102.381 37.8447 102.381 38.0266C102.381 38.2396 102.356 38.4303 102.303 38.6034C102.251 38.7765 102.173 38.9184 102.071 39.0382C101.97 39.158 101.842 39.2512 101.695 39.3133C101.545 39.3754 101.378 39.4109 101.189 39.4109H100.072V34.7922H102.27V35.2847H100.532V36.7799H101.195H101.189ZM101.189 38.914C101.32 38.914 101.434 38.8918 101.529 38.8519C101.623 38.812 101.699 38.7543 101.758 38.6833C101.816 38.6123 101.859 38.5235 101.888 38.4215C101.914 38.3195 101.931 38.2085 101.931 38.0843C101.931 37.9556 101.918 37.8403 101.888 37.7427C101.862 37.6406 101.816 37.5563 101.758 37.4897C101.699 37.4232 101.62 37.3655 101.529 37.3301C101.434 37.2946 101.323 37.2768 101.192 37.2768H100.529V38.914H101.189Z" fill="#35347E"/>
<path d="M111.614 38.6649V40.0058C111.614 40.0599 111.595 40.1016 111.552 40.1307C111.514 40.1641 111.462 40.1807 111.4 40.1807H111.001V39.1272H104.691V34.7922H105.361V38.6649H107.432V34.7922H108.102V38.6649H110.188V34.7922H110.863V38.6649H111.619H111.614Z" fill="#35347E"/>
<path d="M117.007 38.9007V39.4109H113.928V34.7922H117.002V35.3024H114.605V36.8376H116.546V37.3256H114.605V38.9007H117.007Z" fill="#35347E"/>
<path d="M122.829 38.4308C122.865 38.4308 122.895 38.4439 122.918 38.4698L123.165 38.73C122.976 38.9425 122.749 39.1116 122.479 39.2331C122.21 39.3546 121.887 39.4109 121.507 39.4109C121.175 39.4109 120.879 39.3546 120.609 39.2417C120.339 39.129 120.108 38.9729 119.918 38.7691C119.728 38.5653 119.582 38.3223 119.476 38.0405C119.369 37.7586 119.317 37.4464 119.317 37.1037C119.317 36.7611 119.369 36.4532 119.48 36.167C119.591 35.8851 119.741 35.6379 119.941 35.4341C120.14 35.2302 120.374 35.0742 120.652 34.9614C120.927 34.8486 121.232 34.7922 121.569 34.7922C121.905 34.7922 122.183 34.8443 122.436 34.9484C122.687 35.0524 122.909 35.1912 123.099 35.369L122.895 35.651C122.895 35.651 122.865 35.69 122.847 35.703C122.829 35.716 122.798 35.7247 122.763 35.7247C122.723 35.7247 122.679 35.703 122.621 35.6639C122.564 35.6249 122.493 35.5772 122.404 35.5252C122.316 35.4732 122.201 35.4298 122.068 35.3864C121.935 35.3474 121.768 35.3257 121.573 35.3257C121.334 35.3257 121.117 35.3647 120.922 35.4471C120.723 35.5295 120.555 35.6466 120.414 35.7984C120.273 35.9502 120.162 36.1367 120.082 36.3578C120.003 36.579 119.962 36.8262 119.962 37.1037C119.962 37.3813 120.003 37.6372 120.086 37.8583C120.17 38.0795 120.281 38.266 120.423 38.4178C120.564 38.5696 120.732 38.6867 120.927 38.7647C121.121 38.8428 121.329 38.8862 121.556 38.8862C121.693 38.8862 121.816 38.8775 121.927 38.8645C122.038 38.8514 122.139 38.8255 122.232 38.7908C122.325 38.7561 122.413 38.7127 122.493 38.665C122.573 38.613 122.652 38.5522 122.732 38.4829C122.768 38.4525 122.807 38.4352 122.843 38.4352L122.829 38.4308Z" fill="#35347E"/>
<path d="M128.554 35.3163H127.281V39.4109H126.752V35.3163H125.475V34.7922H128.554V35.3163Z" fill="#35347E"/>
<path d="M132.255 34.7922C132.525 34.7922 132.756 34.8188 132.95 34.8764C133.143 34.9339 133.303 35.0136 133.43 35.1155C133.555 35.2174 133.648 35.3457 133.707 35.4919C133.766 35.6425 133.796 35.8063 133.796 35.9967C133.796 36.1119 133.778 36.2181 133.745 36.3244C133.712 36.4307 133.661 36.5237 133.594 36.6167C133.526 36.7053 133.442 36.7893 133.337 36.8602C133.236 36.9311 133.114 36.9887 132.975 37.0374C133.295 37.1038 133.539 37.2233 133.699 37.4005C133.862 37.5777 133.942 37.8079 133.942 38.0957C133.942 38.2906 133.909 38.4677 133.842 38.6316C133.774 38.791 133.673 38.9327 133.543 39.0478C133.412 39.163 133.248 39.2515 133.059 39.3179C132.865 39.38 132.651 39.4109 132.407 39.4109H130.863V34.8011H132.26L132.255 34.7922ZM131.448 35.2838V36.8558H132.23C132.399 36.8558 132.542 36.8381 132.668 36.7982C132.794 36.7584 132.895 36.7053 132.975 36.6389C133.055 36.5724 133.114 36.4883 133.152 36.3908C133.19 36.2934 133.211 36.1871 133.211 36.072C133.211 35.7975 133.135 35.6026 132.979 35.4742C132.824 35.3457 132.583 35.2882 132.26 35.2882H131.452L131.448 35.2838ZM132.394 38.9061C132.563 38.9061 132.71 38.8839 132.832 38.8441C132.954 38.8043 133.055 38.7467 133.135 38.6714C133.215 38.5961 133.27 38.5076 133.307 38.4057C133.345 38.3038 133.362 38.1932 133.362 38.0691C133.362 37.83 133.282 37.6441 133.122 37.5068C132.963 37.3695 132.718 37.2986 132.399 37.2986H131.452V38.9017H132.399L132.394 38.9061Z" fill="#35347E"/>
<path d="M141.64 37.1059C141.64 37.4445 141.587 37.7528 141.474 38.0392C141.362 38.3257 141.205 38.5645 141.002 38.7685C140.799 38.9725 140.557 39.1288 140.273 39.2417C139.99 39.3545 139.675 39.4109 139.329 39.4109C138.982 39.4109 138.673 39.3545 138.389 39.2417C138.105 39.1288 137.863 38.9725 137.66 38.7685C137.458 38.5645 137.3 38.3214 137.188 38.0392C137.075 37.7571 137.022 37.4445 137.022 37.1059C137.022 36.7674 137.075 36.4548 137.188 36.1727C137.3 35.8905 137.458 35.6474 137.66 35.4391C137.863 35.235 138.105 35.0744 138.389 34.9615C138.673 34.8487 138.987 34.7922 139.329 34.7922C139.67 34.7922 139.985 34.8487 140.273 34.9615C140.557 35.0744 140.799 35.235 141.002 35.4391C141.205 35.6431 141.362 35.8862 141.474 36.1727C141.587 36.4591 141.64 36.7674 141.64 37.1059ZM140.988 37.1059C140.988 36.8281 140.948 36.5806 140.872 36.3593C140.795 36.1379 140.683 35.9513 140.539 35.7993C140.395 35.6474 140.219 35.5302 140.017 35.4477C139.81 35.3653 139.585 35.3261 139.329 35.3261C139.073 35.3261 138.852 35.3653 138.646 35.4477C138.438 35.5302 138.267 35.6474 138.119 35.7993C137.975 35.9513 137.863 36.1379 137.786 36.3593C137.71 36.5806 137.67 36.8281 137.67 37.1059C137.67 37.3838 137.71 37.6311 137.786 37.8525C137.863 38.0739 137.975 38.2563 138.119 38.4126C138.263 38.5645 138.438 38.6817 138.646 38.7641C138.852 38.8466 139.077 38.8857 139.329 38.8857C139.581 38.8857 139.81 38.8466 140.017 38.7641C140.224 38.6817 140.395 38.5645 140.539 38.4126C140.683 38.2606 140.795 38.0739 140.872 37.8525C140.948 37.6311 140.988 37.3838 140.988 37.1059Z" fill="#35347E"/>
</g>
<defs>
<clipPath id="clip0_726_16952">
<rect width="141.64" height="51.5755" fill="white" transform="translate(0 0.151367)"/>
</clipPath>
</defs>
</svg>
