<svg width="143" height="52" viewBox="0 0 143 52" fill="none" xmlns="http://www.w3.org/2000/svg">
<g clip-path="url(#clip0_726_16994)">
<path d="M9.20384 11.6985C9.23889 11.8593 9.18381 11.963 9.03858 12.0305C8.75312 12.155 8.47268 12.3002 8.18723 12.4144C7.63635 12.6322 7.16561 12.9954 6.6598 13.3014C5.53302 13.9862 4.5765 14.8784 3.68509 15.8589C3.3145 16.2635 2.98898 16.72 2.67849 17.1817C2.25782 17.8094 1.84216 18.4474 1.47158 19.1114C1.24622 19.5109 1.12603 19.9726 0.930719 20.3928C0.870624 20.538 0.740418 20.6521 0.640259 20.7766C0.640259 17.7575 0.640259 14.7332 0.640259 11.6985C3.49478 11.6985 6.34931 11.6985 9.20384 11.6985Z" fill="#120F4F"/>
<path d="M28.6391 11.6985C28.8784 12.0011 28.8834 12.3507 28.8834 12.7211C28.8784 15.2984 28.8784 17.881 28.8784 20.4584C28.8784 20.5523 28.8684 20.641 28.8634 20.7349C28.8385 20.7505 28.8186 20.761 28.7936 20.7766C28.7288 20.6879 28.6391 20.6097 28.5943 20.5158C28.4647 20.2027 28.3749 19.8793 28.2354 19.5714C28.0559 19.1801 27.8814 18.7784 27.6472 18.4236C27.2185 17.7662 26.8745 17.041 26.3112 16.4828C26.1168 16.2897 25.9773 16.0289 25.7978 15.815C25.6183 15.5958 25.4389 15.3767 25.2295 15.1889C24.7261 14.735 24.2226 14.2863 23.6942 13.8637C23.3104 13.5611 22.8717 13.3263 22.4829 13.0289C21.8748 12.5646 21.157 12.3611 20.504 12.0011C20.4143 11.9489 20.3744 11.8028 20.3096 11.6985C23.0911 11.6985 25.8626 11.6985 28.6391 11.6985Z" fill="#120F4F"/>
<path d="M0.640259 31.8721C0.735468 31.9565 0.870764 32.0199 0.915863 32.1254C1.10628 32.5582 1.24158 33.0121 1.44202 33.4344C1.6174 33.8038 1.8429 34.1416 2.05837 34.49C2.37406 35.0125 2.65468 35.5667 3.0305 36.0364C3.51657 36.6539 4.05775 37.224 4.61898 37.7729C5.13512 38.2796 5.66628 38.8021 6.2676 39.1874C6.88395 39.5832 7.46022 40.0741 8.1818 40.2957C8.5476 40.4066 8.8683 40.6652 9.21406 40.8552C9.20905 40.8816 9.20905 40.9027 9.20404 40.9291C9.11384 40.9344 9.01863 40.9502 8.92844 40.9502C6.29767 40.9502 3.67191 40.9502 1.04114 40.9449C0.910852 40.9449 0.775556 40.8447 0.64527 40.7972C0.640259 37.8204 0.640259 34.8436 0.640259 31.8721Z" fill="#120F4F"/>
<path fill-rule="evenodd" clip-rule="evenodd" d="M126.762 15.3271C126.803 15.3028 126.845 15.2781 126.885 15.2493V13.0068C126.858 12.9792 126.828 12.9526 126.798 12.9257C126.721 12.8556 126.64 12.7831 126.594 12.6847C126.217 11.9041 125.592 11.5201 124.87 11.4457C124.04 11.359 123.038 12.3006 122.855 13.3165C122.597 14.7909 122.92 15.6209 124.116 16.4015C124.773 16.8351 125.861 16.4634 126.551 15.497C126.601 15.4226 126.68 15.3758 126.762 15.3271ZM124.773 12.1018C125.732 12.1142 126.637 13.1178 126.572 14.0841C126.561 14.9266 125.527 16.0912 124.805 16.0664C123.976 16.054 123.146 14.9886 123.178 13.9602C123.211 12.9815 123.825 12.0895 124.773 12.1018Z" fill="#120F4F"/>
<path fill-rule="evenodd" clip-rule="evenodd" d="M12.2959 39.579C13.1913 39.8049 14.097 39.8995 15.0232 39.9415C15.1763 39.924 15.3293 39.9068 15.4824 39.8895C16.1113 39.8185 16.7396 39.7476 17.3646 39.663C17.3918 39.6596 17.419 39.6561 17.4462 39.6527C17.749 39.6145 18.0543 39.576 18.3423 39.4844C18.6462 39.3866 18.94 39.2579 19.2346 39.1288C19.3041 39.0984 19.3737 39.0679 19.4435 39.0377C19.6003 38.9701 19.76 38.9097 19.92 38.8493C20.2694 38.7172 20.6197 38.5848 20.941 38.3757C21.1162 38.2628 21.2964 38.1597 21.4765 38.0566C21.8413 37.8479 22.2055 37.6395 22.5259 37.3511C22.7254 37.1705 22.9349 37.0022 23.1443 36.834C23.4101 36.6203 23.6758 36.4069 23.9205 36.1688C24.3064 35.7957 24.646 35.3649 24.9754 34.934C25.2996 34.5084 25.6083 34.067 25.8913 33.6099C25.9137 33.574 25.9361 33.5382 25.9585 33.5024C26.1788 33.1505 26.3982 32.8 26.5243 32.3803C26.6095 32.0975 26.738 31.8274 26.8671 31.5562C26.9562 31.3689 27.0455 31.181 27.1212 30.9879C27.1709 30.8554 27.1984 30.7139 27.2259 30.5722C27.2496 30.4497 27.2734 30.3272 27.3116 30.2102C27.5483 29.4799 27.7284 28.7442 27.7644 27.9718C27.767 27.8904 27.7799 27.8076 27.7927 27.7249C27.8056 27.6421 27.8185 27.5594 27.821 27.4779C27.8266 27.3206 27.8359 27.1626 27.8452 27.0044C27.8704 26.576 27.8956 26.1465 27.8468 25.7282C27.8327 25.6028 27.8194 25.4771 27.8062 25.3512C27.7322 24.6486 27.6577 23.9411 27.4351 23.2638C27.3998 23.1497 27.3712 23.0356 27.3427 22.9215C27.3213 22.836 27.2998 22.7504 27.2756 22.6648C27.2489 22.5735 27.2241 22.4812 27.1994 22.389C27.143 22.1787 27.0867 21.9688 27.008 21.7716C26.8684 21.4313 26.7052 21.0992 26.5425 20.768C26.5192 20.7207 26.496 20.6734 26.4728 20.6261C26.4284 20.5313 26.3852 20.4351 26.342 20.3388C26.2151 20.0558 26.0873 19.7708 25.9222 19.5121C25.562 18.9394 25.1915 18.3667 24.7644 17.8465C24.3887 17.3841 23.9462 16.9742 23.5088 16.5749C23.0508 16.1598 22.5774 15.7657 22.0885 15.3926C21.911 15.2575 21.7174 15.1472 21.524 15.0371C21.409 14.9716 21.2941 14.9062 21.1828 14.8357C20.7043 14.5256 20.1948 14.2944 19.6597 14.1053C19.5197 14.0548 19.3814 14.001 19.2431 13.9472C19.0356 13.8665 18.8281 13.7858 18.615 13.7165C18.2857 13.6114 17.9512 13.5273 17.6116 13.4485C17.4964 13.4227 17.3762 13.415 17.2563 13.4073C17.2047 13.404 17.1532 13.4007 17.1022 13.3959C16.8938 13.3755 16.685 13.3479 16.4759 13.3203C16.0395 13.2627 15.6022 13.2049 15.1673 13.212C14.6807 13.2183 14.1959 13.271 13.7107 13.3237C13.3801 13.3597 13.0494 13.3957 12.7179 13.4169C12.193 13.4537 11.6938 13.5641 11.2101 13.7637C10.9871 13.8552 10.7618 13.9412 10.5366 14.0272C10.1797 14.1634 9.82299 14.2995 9.47595 14.4573C9.02311 14.6623 8.58571 14.8987 8.16375 15.1614C7.82412 15.3716 7.50507 15.6343 7.19632 15.8971C6.73834 16.2964 6.28035 16.7062 5.8481 17.1319C5.16884 17.7992 4.62852 18.5821 4.10364 19.3755C3.9495 19.6116 3.81556 19.8683 3.68237 20.1236C3.6377 20.2092 3.59312 20.2947 3.54788 20.3791C3.53632 20.4003 3.52471 20.4214 3.5131 20.4426C3.40066 20.6475 3.28755 20.8536 3.20826 21.0727C3.12866 21.2904 3.05849 21.5129 2.98819 21.7358C2.93124 21.9164 2.87421 22.0972 2.81202 22.276C2.78151 22.3631 2.75004 22.4498 2.7186 22.5364C2.54326 23.0197 2.36869 23.5008 2.36433 24.031C2.36433 24.1156 2.3551 24.1955 2.34537 24.2796L2.34375 24.2937C2.32255 24.5118 2.29515 24.7299 2.26778 24.9478C2.20876 25.4177 2.14983 25.8868 2.15335 26.3535C2.16364 27.7564 2.23568 29.1593 2.70396 30.4992C2.74394 30.6135 2.78334 30.7285 2.8228 30.8435C2.98648 31.3209 3.15117 31.8012 3.36263 32.2542C3.64566 32.8637 3.96985 33.4628 4.34035 34.0197C4.75202 34.6398 5.19457 35.2493 5.70401 35.7905C6.23918 36.3632 6.85154 36.8677 7.4639 37.3616C7.77611 37.6174 8.1211 37.8298 8.46485 38.0414C8.55171 38.0948 8.63849 38.1482 8.72465 38.2023C9.00767 38.3809 9.30613 38.5386 9.60459 38.6857C9.75365 38.7637 9.91042 38.8233 10.0676 38.883C10.1329 38.9079 10.1983 38.9327 10.2633 38.9589C10.3548 38.9955 10.4459 39.0331 10.537 39.0707C10.7993 39.1789 11.0611 39.2869 11.3285 39.3688C11.5101 39.4235 11.6985 39.4589 11.8869 39.4942C12.0242 39.52 12.1614 39.5457 12.2959 39.579ZM21.161 19.5937C21.2142 19.6109 21.2692 19.6288 21.3268 19.6439C21.2999 19.6853 21.2731 19.7264 21.2464 19.7675C20.758 20.5182 20.3081 21.2097 19.8397 21.8823C19.7799 21.9723 19.7162 22.0603 19.6522 22.1488C19.6116 22.205 19.5709 22.2613 19.5309 22.3184L19.5308 22.3186C19.1706 22.8282 18.8104 23.3379 18.4554 23.8475C18.1775 24.2468 17.9048 24.6462 17.6372 25.0508C17.1484 25.7864 16.6595 26.522 16.1758 27.2629C16.0282 27.4865 15.8838 27.7122 15.7392 27.9382C15.5611 28.2166 15.3827 28.4954 15.1981 28.7709C15.0858 28.9415 14.9647 29.1077 14.8434 29.2741C14.7369 29.4204 14.6302 29.5668 14.5291 29.7167C14.174 30.2422 13.819 30.7781 13.4793 31.3141C13.361 31.498 13.5154 31.5138 13.644 31.5138C13.8529 31.5138 14.0618 31.5155 14.2706 31.5172C14.7921 31.5215 15.3129 31.5258 15.831 31.5032C15.877 31.5012 15.923 31.4991 15.969 31.497C16.8492 31.4573 17.7288 31.4176 18.5943 31.2878C18.9683 31.2333 19.3299 31.0831 19.6911 30.9331C19.8518 30.8663 20.0125 30.7996 20.1741 30.7413C20.3028 30.6993 20.4314 30.6468 20.5498 30.5837C20.6707 30.5233 20.7904 30.4602 20.91 30.3972C21.0296 30.3341 21.1493 30.2711 21.2702 30.2106C21.3268 30.1844 21.4297 30.1634 21.4555 30.1896C21.5018 30.2369 21.5326 30.342 21.5121 30.3998C21.4648 30.5446 21.4047 30.6842 21.3444 30.8241C21.3194 30.8822 21.2944 30.9403 21.2702 30.9988C21.2279 31.0991 21.186 31.1999 21.144 31.3009C21.0432 31.5436 20.9418 31.7875 20.8328 32.0287C20.6218 32.4963 20.4006 32.964 20.1793 33.4264C20.1587 33.4684 20.0867 33.4947 20.0301 33.5052C19.9529 33.521 19.8757 33.521 19.7985 33.521H19.7985H8.81201C8.49812 33.521 8.39005 33.4054 8.50841 33.2004C8.59648 33.0506 8.6948 32.9077 8.79224 32.766C8.81436 32.7339 8.83643 32.7018 8.85833 32.6697C8.96892 32.5109 9.07977 32.3519 9.19077 32.1926C9.57557 31.6404 9.96208 31.0858 10.3455 30.5312C10.6131 30.1476 10.8755 29.764 11.138 29.3752C11.3242 29.0996 11.5072 28.8218 11.6899 28.5444C11.9009 28.224 12.1115 27.9041 12.3267 27.5887C12.5304 27.2892 12.7398 26.9953 12.9491 26.7015C13.0887 26.5056 13.2282 26.3097 13.3661 26.1122C13.7006 25.634 14.0299 25.1611 14.3541 24.6777C14.5156 24.4384 14.6732 24.1971 14.8305 23.9563C14.9289 23.8058 15.0271 23.6555 15.126 23.5059C15.3164 23.2196 15.5094 22.9345 15.7023 22.6495C15.8953 22.3644 16.0883 22.0794 16.2787 21.793C16.3044 21.7562 16.325 21.6774 16.3096 21.6564C16.2684 21.6143 16.2015 21.5723 16.1449 21.5723C15.2753 21.5828 14.4107 21.5986 13.5462 21.6143C13.4227 21.617 13.2979 21.6209 13.1732 21.6248C13.0484 21.6288 12.9236 21.6327 12.8001 21.6353C12.1363 21.6459 11.5136 21.8403 10.9012 22.082C10.6858 22.1681 10.4666 22.2445 10.2481 22.3206C10.1066 22.3699 9.96538 22.4192 9.82575 22.4708C9.79032 22.4853 9.75813 22.5097 9.72621 22.534C9.68861 22.5625 9.65138 22.5908 9.60963 22.6022C9.54478 22.6206 9.4774 22.6209 9.40927 22.6213C9.38009 22.6215 9.35077 22.6216 9.32146 22.6232C9.32304 22.5973 9.32267 22.5709 9.32231 22.5446C9.32149 22.4856 9.32067 22.4271 9.34204 22.3762C9.53758 21.8928 9.73827 21.4147 9.94411 20.9365C10.0126 20.785 10.0842 20.6352 10.1555 20.486C10.2128 20.3662 10.2699 20.2467 10.3249 20.1273C10.3284 20.1203 10.3318 20.1133 10.3352 20.1063C10.3625 20.0512 10.3884 19.9988 10.4021 19.9381C10.469 19.6597 10.6388 19.5178 10.9321 19.5178H14.0197C16.2941 19.5178 18.5635 19.5178 20.838 19.523C20.9429 19.523 21.0479 19.5571 21.161 19.5937Z" fill="#009DA9"/>
<path fill-rule="evenodd" clip-rule="evenodd" d="M119.873 30.2099C119.875 29.6952 119.878 29.1804 119.878 28.6657C119.878 28.5049 119.88 28.344 119.881 28.1832C119.883 27.8615 119.885 27.5398 119.878 27.218C119.863 26.6594 119.873 26.0982 119.883 25.5371C119.914 23.7719 119.945 22.0072 119.19 20.3228C118.936 19.7652 118.671 19.1968 118.311 18.725C118.16 18.5297 117.944 18.39 117.726 18.2485C117.56 18.1414 117.393 18.0333 117.252 17.8993C116.552 17.2344 115.663 16.8376 114.794 16.709C113.787 16.5656 112.762 16.576 111.738 16.5865C111.383 16.5901 111.028 16.5938 110.674 16.591C110.616 16.591 110.558 16.5908 110.5 16.5905C110.004 16.5885 109.498 16.5865 109.043 16.7304C108.4 16.9306 107.794 17.243 107.191 17.554C107.148 17.5762 107.105 17.5984 107.062 17.6205L107.061 17.6212C106.32 18.0071 105.558 18.4038 105.05 19.1218C104.96 19.2475 104.864 19.3727 104.768 19.4984C104.454 19.9086 104.136 20.3243 104.022 20.7839C103.831 21.5453 103.895 22.3817 103.959 23.1753C104.012 23.8187 104.467 24.2905 105.05 24.4514C106.141 24.7516 107.126 24.8374 108.026 23.5184C108.365 23.0251 108.418 22.2101 108.068 21.7061C107.751 21.2343 107.454 20.6981 107.719 20.1619C108.217 19.1861 108.947 18.4033 110.113 18.3175C110.764 18.268 111.416 18.282 112.068 18.2959C112.264 18.3001 112.459 18.3043 112.655 18.3068C112.845 18.3068 113.068 18.3282 113.216 18.4247C114.19 19.111 114.89 19.9796 115.218 21.17C115.552 22.3782 115.544 23.5998 115.535 24.8189C115.533 25.1471 115.531 25.475 115.536 25.8025C115.536 26.2744 115.313 26.521 114.815 26.5103C114.639 26.5103 114.463 26.5086 114.287 26.5069C113.701 26.5012 113.116 26.4955 112.538 26.5532C111.617 26.639 110.684 26.7462 109.784 26.9821C108.873 27.218 107.994 27.5826 107.136 27.958C106.543 28.2153 105.96 28.5263 105.452 28.9231C104.922 29.3306 104.329 29.8024 104.043 30.3815C103.577 31.3144 103.217 32.3225 103.238 33.427C103.291 35.3787 103.545 37.2231 105.41 38.2955C106.077 38.6815 106.84 39.0354 107.592 39.1212C109.233 39.3035 110.875 39.1962 112.453 38.5314C113.449 38.1132 114.371 37.6521 115.165 36.9336C115.493 36.6333 115.684 36.6548 115.938 37.0623C116.754 38.3705 117.887 39.2177 119.486 39.1641C120.027 39.1426 120.588 39.014 121.107 38.8316C122.071 38.4885 122.939 37.9738 123.564 37.1052C123.787 36.8049 123.903 36.5583 123.681 36.2473C123.427 35.8827 123.024 35.8934 122.738 36.1079C122.307 36.4373 121.851 36.4315 121.389 36.4256C121.25 36.4239 121.109 36.4221 120.969 36.4296C120.514 36.451 120.27 36.1937 120.186 35.7969C120.169 35.7116 120.152 35.6261 120.135 35.5405C120.022 34.9694 119.907 34.3912 119.889 33.813C119.859 32.612 119.866 31.4109 119.873 30.2099ZM115.523 30.4674C115.524 30.7534 115.525 31.0393 115.525 31.3253C115.525 32.151 115.525 32.966 115.536 33.7917C115.546 34.2421 115.356 34.5424 115.006 34.8212C114.148 35.5075 113.227 36.108 112.168 36.301L112.128 36.308C111.154 36.4777 110.121 36.6578 109.181 36.0866C108.545 35.7005 108.196 35.0678 107.984 34.4244C107.708 33.6094 107.602 32.7086 107.963 31.9044C108.376 30.9714 108.873 30.1028 109.859 29.5881C110.78 29.0948 111.702 28.6015 112.74 28.4192C113.449 28.293 114.167 28.2547 114.878 28.2168C114.953 28.2128 115.027 28.2088 115.102 28.2047C115.43 28.194 115.536 28.4299 115.525 28.7516C115.518 29.3236 115.521 29.8955 115.523 30.4674Z" fill="#120F4F"/>
<path fill-rule="evenodd" clip-rule="evenodd" d="M60.3418 27.5887H66.4083H66.4088C68.393 27.5887 70.3876 27.5887 72.3718 27.578C73.2047 27.578 73.4823 27.3006 73.4103 26.4257C73.3486 25.5935 73.2355 24.7613 73.0607 23.9504C72.814 22.7874 72.2279 21.7845 71.611 20.8029C70.9529 19.7573 69.9967 19.0638 68.9685 18.477C68.8995 18.439 68.8299 18.3998 68.7598 18.3603C68.318 18.1114 67.8554 17.8508 67.385 17.8048C67.256 17.7924 67.1267 17.7796 66.9974 17.7668C65.2414 17.5929 63.4661 17.4171 61.771 18.0929C60.8354 18.4663 59.8791 18.8931 59.108 19.5332C58.2649 20.2268 57.4731 21.0376 56.8562 22.0086C56.1879 23.0542 55.6841 24.1211 55.4476 25.3374C55.4051 25.5429 55.353 25.7484 55.3007 25.9543C55.201 26.3471 55.1009 26.7415 55.0671 27.1405C55.0545 27.295 55.0411 27.4496 55.0277 27.6042C54.9429 28.5826 54.8578 29.5646 54.9643 30.5228C55.1083 31.8138 55.3653 33.1261 55.8486 34.3104C56.301 35.4094 56.9693 36.4976 57.7816 37.3405C57.7984 37.3577 57.8153 37.375 57.8321 37.3923C58.5888 38.1675 59.4013 38.9999 60.568 39.2503C60.9817 39.3442 61.3882 39.4906 61.7942 39.6368C62.357 39.8395 62.9191 40.0419 63.4984 40.1039C65.195 40.296 66.9224 40.3173 68.588 39.7838C68.7481 39.7327 68.9124 39.6865 69.0769 39.6402C69.5993 39.4932 70.1248 39.3453 70.5314 39.037C71.2818 38.474 71.9369 37.7708 72.5874 37.0724C72.6767 36.9766 72.7658 36.8809 72.8551 36.7857C72.9991 36.6363 73.071 36.2202 72.9785 36.0495C72.8654 35.8575 72.5364 35.7188 72.2999 35.6974C72.0634 35.6761 71.7961 35.8041 71.5904 35.9428C70.6547 36.615 69.5957 36.9564 68.4955 37.0418C68.3572 37.0531 68.2187 37.0653 68.0799 37.0775C66.7846 37.1911 65.473 37.3061 64.2285 36.7857C63.4573 36.4656 62.6759 36.0709 62.0178 35.5481C60.9073 34.6625 60.3727 33.3181 60.0642 31.9631C59.8294 30.9703 59.7564 29.9393 59.6835 28.9089C59.6702 28.7212 59.6569 28.5336 59.6427 28.3462C59.581 27.61 59.6529 27.5887 60.3418 27.5887ZM65.1661 25.926C64.8403 25.9253 64.5141 25.9246 64.1874 25.9246H60.3933C59.7558 25.9246 59.5913 25.7753 59.7352 25.1244C60.0026 23.9508 60.3316 22.7878 60.6606 21.6249C60.7223 21.3795 60.9177 21.1447 61.1027 20.9847C61.6374 20.5259 62.1926 20.0885 62.7684 19.6723C62.9535 19.5443 63.2003 19.459 63.4265 19.4483C63.8996 19.4269 64.3774 19.4246 64.8566 19.4222C65.096 19.421 65.3357 19.4198 65.5754 19.4163C66.1821 19.4056 66.6345 19.7257 67.0355 20.1525C67.4262 20.5686 67.8066 20.9954 68.1562 21.4435C68.3105 21.6355 68.4236 21.9023 68.475 22.1477C68.5118 22.3288 68.5527 22.51 68.5935 22.6913C68.8149 23.6738 69.0372 24.6598 68.6292 25.6686C68.5778 25.8073 68.2796 25.914 68.0945 25.914C67.1155 25.93 66.1422 25.928 65.1661 25.926Z" fill="#120F4F"/>
<path d="M45.884 38.6201C43.4381 38.6201 41.0025 38.6305 38.5566 38.6097C38.2469 38.6097 37.7825 38.506 37.669 38.2882C37.5452 38.0807 37.7103 37.6347 37.8548 37.365C38.4637 36.2344 39.1139 35.1245 39.7744 34.025C40.2904 33.1744 40.8477 32.3446 41.374 31.5044C41.9726 30.5398 42.5402 29.5647 43.1491 28.6208C43.5619 27.9881 44.047 27.3968 44.4598 26.7641C45.11 25.7683 45.7292 24.7414 46.3794 23.7352C46.7922 23.1025 47.2566 22.4905 47.6591 21.8578C48.01 21.3184 48.3299 20.7583 48.6189 20.1981C48.7634 19.9284 48.7015 19.6899 48.3299 19.5758C46.5858 19.0571 44.8107 19.2646 43.0665 19.3579C42.0036 19.4202 40.9509 19.8143 40.1252 20.5923C40.0633 20.6545 39.9704 20.696 39.9395 20.7583C39.5989 21.5777 39.2377 22.3868 38.9384 23.2166C38.7526 23.7456 38.3501 23.5796 38.0096 23.59C37.6277 23.6108 37.5658 23.3514 37.5968 23.0403C37.7206 21.474 37.8341 19.9077 37.9889 18.3518C38.0096 18.1858 38.2469 18.0095 38.4224 17.8954C38.5359 17.8228 38.7217 17.8746 38.8765 17.8746C43.6032 17.8746 48.3402 17.8746 53.067 17.8746C53.2011 17.8746 53.3456 17.8746 53.4798 17.885C54.0164 17.9161 54.2641 18.2999 54.0061 18.7563C53.4179 19.7832 52.809 20.7997 52.1897 21.8059C51.5396 22.8639 50.879 23.9116 50.2082 24.9488C49.1452 26.5877 48.0513 28.2163 46.978 29.8552C46.2349 30.9962 45.4918 32.1475 44.79 33.3093C44.2327 34.2117 43.727 35.1556 43.211 36.0788C42.9324 36.5767 43.2214 36.9916 43.9231 37.0227C45.1409 37.0746 46.3691 37.1368 47.5869 37.1057C48.5363 37.0746 49.4961 36.9605 50.425 36.7634C51.4157 36.5559 52.0452 35.8298 52.4374 34.917C52.7058 34.2947 52.8812 33.6412 53.0773 32.9877C53.2218 32.5106 53.5623 32.3239 54.13 32.4483C54.4705 32.5313 54.5634 32.8736 54.5118 33.3093C54.4086 34.2117 54.3673 35.1349 54.3054 36.0477C54.2641 36.67 54.2538 37.2924 54.1919 37.9044C54.13 38.5268 54.0061 38.6409 53.3766 38.6409C50.8687 38.6201 48.3712 38.6201 45.884 38.6201Z" fill="#120F4F"/>
<path d="M77.4269 27.258C77.4269 24.86 77.4166 22.4728 77.4269 20.0748C77.4269 19.2322 77.2727 18.9622 76.2761 18.757C75.9267 18.6813 75.5568 18.703 75.1972 18.7246C74.7656 18.757 74.5601 18.5733 74.5704 18.1088C74.5704 17.9144 74.5396 17.72 74.5396 17.5147C74.5498 17.1259 74.7142 16.953 75.1355 16.8882C76.2658 16.7154 77.4063 16.467 78.2489 15.5704C78.5674 15.2247 78.8346 14.7711 78.9784 14.3174C79.2045 13.6477 79.3792 12.9455 79.4305 12.2326C79.5127 11.0444 80.4478 10.6447 81.3417 11.1308C81.5061 11.2172 81.6191 11.5629 81.6191 11.7897C81.65 13.086 81.6294 14.3822 81.6294 15.6784C81.6294 16.4346 81.7424 16.5534 82.4617 16.5534C83.7769 16.5534 85.1024 16.5534 86.4176 16.5534C87.0341 16.5534 87.476 17.1367 87.3527 17.7848C87.2191 18.5517 87.0547 18.6922 86.3046 18.6922C84.9894 18.6922 83.6639 18.6922 82.3487 18.6922C81.8041 18.6922 81.6294 18.8542 81.6294 19.4159C81.6294 23.607 81.5986 27.8089 81.6808 32.0001C81.7013 33.0479 82.0404 34.1064 82.3589 35.111C82.4617 35.4243 82.9446 35.7699 83.2837 35.8131C84.1057 35.9104 84.9688 35.9212 85.7909 35.7915C86.3354 35.7051 86.88 35.4027 87.3527 35.0678C87.702 34.8194 87.8562 34.9166 88.1233 35.1542C88.4213 35.4135 88.4727 35.7267 88.2877 36.0076C87.7123 36.8501 87.0444 37.5414 86.0888 37.9951C84.5989 38.6972 83.0782 38.6864 81.5267 38.6C79.8415 38.5028 78.3722 37.2606 77.7454 35.6511C77.3344 34.5925 77.4577 33.5339 77.4269 32.4646C77.3858 30.7579 77.4269 29.0079 77.4269 27.258Z" fill="#120F4F"/>
<path d="M91.6069 26.9316C91.6069 24.6457 91.5723 22.3707 91.6184 20.0849C91.6415 19.2115 91.192 18.8773 90.2125 18.7371C89.8553 18.6832 89.4865 18.7048 89.1178 18.7155C88.6568 18.7263 88.4379 18.5215 88.4263 18.1117C88.4148 17.8745 88.3572 17.6158 88.4379 17.4217C88.5185 17.2276 88.7375 17.012 88.9449 16.9473C89.717 16.7101 90.5237 16.5483 91.3073 16.3327C92.0794 16.1278 92.5749 15.6211 92.9897 14.9957C93.6581 13.9822 93.8771 12.85 94.096 11.7179C94.1882 11.2435 94.6722 10.8985 95.283 10.9308C95.9283 10.9632 96.3086 11.2974 96.3201 11.8365C96.3201 13.1519 96.3201 14.4566 96.3201 15.772C96.3201 16.4944 96.4238 16.5807 97.1844 16.5807C98.6825 16.5807 100.181 16.5807 101.679 16.5807C102.67 16.5807 102.808 16.7101 102.808 17.6265C102.808 18.5322 102.624 18.7155 101.69 18.7155C100.169 18.7155 98.6594 18.7155 97.1383 18.7155C96.4469 18.7155 96.3201 18.8126 96.3201 19.4595C96.3201 23.74 96.3086 28.0098 96.3547 32.2903C96.3662 33.5302 96.6773 34.7163 97.7145 35.6112C97.8297 35.7082 97.9795 35.8269 98.1293 35.8269C99.1088 35.8376 100.1 35.9131 101.056 35.7837C101.667 35.7082 102.266 35.374 102.808 35.0721C103.211 34.8457 103.465 34.9966 103.638 35.2446C103.776 35.4495 103.845 35.8053 103.741 35.9994C103.545 36.3875 103.223 36.7326 102.923 37.0668C102.324 37.7137 101.448 37.9078 100.653 38.2205C99.3508 38.738 97.9565 38.6626 96.5736 38.5871C95.5595 38.5332 94.6607 38.145 93.7388 37.7137C92.5403 37.1531 92.2983 36.1503 91.9065 35.126C91.5147 34.0801 91.6299 33.0343 91.6184 31.9884C91.5954 30.3064 91.6184 28.6244 91.6069 26.9316C91.6069 26.9316 91.6184 26.9316 91.6069 26.9316Z" fill="#120F4F"/>
<path d="M20.3096 40.8656C20.5504 40.7333 20.7862 40.5905 21.0321 40.4741C21.7095 40.1567 22.3768 39.8287 22.9739 39.3631C23.3502 39.0722 23.6914 38.723 24.0978 38.5008C24.4591 38.2998 24.6799 37.9665 24.9709 37.7073C25.4576 37.2788 25.9042 36.7973 26.2705 36.2419C26.4511 35.9615 26.6919 35.7287 26.8776 35.4483C27.279 34.8399 27.6904 34.2421 27.9764 33.5544C28.127 33.1894 28.3327 32.8508 28.4983 32.491C28.5535 32.3694 28.5484 32.2159 28.5986 32.089C28.6337 32.0043 28.714 31.9461 28.7742 31.8721C28.8094 31.9461 28.8796 32.0202 28.8796 32.0943C28.8846 34.8981 28.8846 37.6967 28.8796 40.5005C28.8796 40.8285 28.7592 40.9502 28.4481 40.9502C25.839 40.9502 23.2348 40.9502 20.6257 40.9502C20.5253 40.9502 20.42 40.9396 20.3196 40.9291C20.3196 40.9132 20.3146 40.8867 20.3096 40.8656Z" fill="#120F4F"/>
<path d="M80.7919 20.6366C80.2243 20.9405 79.833 20.7489 79.822 20.0551C79.8109 19.6323 80.2904 19.1169 80.7313 19.3019C80.7698 19.3217 80.7974 19.3878 80.8305 19.4341C80.7919 19.4737 80.7588 19.5332 80.7147 19.5398C80.599 19.5662 80.4667 19.5398 80.3675 19.5926C80.1251 19.7248 80.114 19.9891 80.1526 20.26C80.1912 20.5309 80.362 20.5969 80.5604 20.6035C80.6376 20.6102 80.7147 20.63 80.7919 20.6366Z" fill="black"/>
</g>
<defs>
<clipPath id="clip0_726_16994">
<rect width="141.64" height="51.5755" fill="white" transform="translate(0.640259 0.151367)"/>
</clipPath>
</defs>
</svg>
