<svg width="142" height="52" viewBox="0 0 142 52" fill="none" xmlns="http://www.w3.org/2000/svg">
<g clip-path="url(#clip0_726_17016)">
<path fill-rule="evenodd" clip-rule="evenodd" d="M56.7661 26.2346C56.7661 21.7553 53.5118 18.7047 49.0178 18.6274H48.9403C44.4462 18.6661 41.1919 21.7553 41.1919 26.196C41.1919 30.6754 44.4462 33.726 48.9403 33.7646H49.0178C53.5118 33.7646 56.7661 30.6754 56.7661 26.2346ZM13.4914 33.5713H10.3145V23.9176L3.341 33.5713H0.280396V18.859H3.49597V28.5128L10.5083 18.859H13.4914V33.5713ZM15.8159 18.8981H19.0702V24.6903H25.5789V18.8981H28.8332V33.5718H25.5789V27.6637H19.0702V33.5718H15.8159V18.8981ZM31.1576 33.5713H34.3732V21.7937H41.1531V18.859H31.1576V33.5713ZM44.5623 26.2349C44.5623 29.0538 46.3832 30.8301 48.9789 30.8301C51.5746 30.8301 53.3955 29.0538 53.3955 26.2349C53.3955 23.416 51.5746 21.6397 48.9789 21.6397C46.3832 21.6397 44.5623 23.3774 44.5623 26.2349ZM90.6653 21.8714H85.9001V18.8981H98.6462V21.8714H93.9197V33.5718H90.6653V21.8714ZM107.247 18.8981H100.622V33.5718H103.876V29.1697H106.937C110.269 29.1697 112.903 27.3934 112.903 23.9953C112.903 20.9833 110.772 18.8981 107.247 18.8981ZM107.014 26.2734C108.641 26.2734 109.571 25.308 109.571 23.9951C109.571 22.5664 108.564 21.7554 106.937 21.7554H103.837V26.2348H107.014V26.2734ZM136.691 26.0414L141.921 33.5713H138.085L134.753 28.7445L131.383 33.5713H127.664L132.894 26.1186L127.857 18.859H131.693L134.831 23.3769L137.969 18.859H141.688L136.691 26.0414ZM124.022 33.5711H127.315L121 18.7815H118.017L111.702 33.5711H114.995L116.39 30.173H122.627L124.022 33.5711ZM119.528 22.7199L117.552 27.3151H121.504L119.528 22.7199ZM65.9479 30.8295C63.3522 30.8295 61.5313 29.0533 61.5313 26.2343C61.5313 23.3768 63.3522 21.6391 65.9479 21.6391C67.3039 21.6391 68.4274 22.0253 69.3959 22.8362L71.4105 20.8282C70.0546 19.5153 68.2337 18.6658 65.9867 18.6658H65.9092C61.4151 18.7044 58.1608 21.7936 58.1608 26.2343C58.1608 30.7137 61.4151 33.7643 65.9092 33.8029H65.9867C68.1949 33.7643 70.0158 32.9148 71.4105 31.6405L69.3959 29.6325C68.4274 30.4434 67.3039 30.8295 65.9479 30.8295ZM75.0522 26.2343C75.0522 29.0533 76.873 30.8295 79.4688 30.8295C80.8247 30.8295 81.9482 30.4434 82.9168 29.6325L84.9314 31.6405C83.5367 32.9148 81.7158 33.7643 79.5075 33.8029H79.43C74.936 33.7643 71.6816 30.7137 71.6816 26.2343C71.6816 21.7936 74.936 18.7044 79.43 18.6658H79.5075C81.7545 18.6658 83.5754 19.5153 84.9314 20.8282L82.9168 22.8362C81.9482 22.0253 80.8247 21.6391 79.4688 21.6391C76.873 21.6391 75.0522 23.3768 75.0522 26.2343Z" fill="#1A5EBC"/>
</g>
<defs>
<clipPath id="clip0_726_17016">
<rect width="141.64" height="51.5755" fill="white" transform="translate(0.280518 0.151367)"/>
</clipPath>
</defs>
</svg>
