<svg width="143" height="52" viewBox="0 0 143 52" fill="none" xmlns="http://www.w3.org/2000/svg">
<g clip-path="url(#clip0_726_17032)">
<path fill-rule="evenodd" clip-rule="evenodd" d="M0.942139 10.6182V36.3316H21.333L19.2518 16.5954L11.7257 33.4893L0.942139 10.6182Z" fill="#004B88"/>
<path fill-rule="evenodd" clip-rule="evenodd" d="M0.921021 5.54004V9.67037L1.28828 10.4528L10.5389 30.0719H12.833L18.906 16.4407L19.4809 15.142L19.6299 16.5578L21.0564 30.0719H21.3332L19.3478 11.4747L11.8856 28.869L0.921021 5.54004Z" fill="#ED1847"/>
<path fill-rule="evenodd" clip-rule="evenodd" d="M49.4709 35.3041H40.1614V34.0111H40.4326C41.0634 34.0111 41.5175 33.6012 41.795 32.7938C41.9905 32.2073 42.0851 31.4252 42.0851 30.4349V14.3831H41.9842L35.8094 35.3041H33.911L28.1966 14.3831H28.1083V28.9149C28.1083 30.416 28.1399 31.3999 28.2092 31.8856C28.4048 33.3047 28.9409 34.0174 29.8176 34.0174H30.0636V35.3104H24.7844V34.0174H25.2007C25.6737 34.0174 25.9891 33.6705 26.1468 32.9894C26.2603 32.5037 26.3171 31.6838 26.3171 30.5169V11.8728C26.3171 10.7059 26.2603 9.8797 26.1468 9.40035C25.9828 8.71287 25.6611 8.37228 25.1755 8.37228H24.7844V7.07929H32.5423L37.1907 24.4178L42.3374 7.07929H49.4835V8.37228H49.0925C48.7203 8.37228 48.4365 8.58041 48.241 9.003C48.0455 9.42558 47.9508 10.378 47.9508 11.8791V30.5169C47.9508 31.7342 48.0013 32.5605 48.0959 32.9894C48.2599 33.6768 48.5816 34.0174 49.0672 34.0174H49.4835L49.4709 35.3041ZM67.8438 35.3041V34.0111C67.5348 33.9102 67.2762 33.6832 67.0617 33.3236C66.8473 32.9641 66.6455 32.3586 66.4499 31.4945L60.786 6.30981H57.4306L52.0821 29.0978C51.6595 30.9269 51.2054 32.2325 50.7197 33.0146C50.3602 33.6012 49.9376 33.9291 49.452 34.0048V35.2978H55.406V34.0048C54.996 34.0048 54.6617 33.7462 54.3968 33.2416C54.1256 32.7308 53.9932 32.0874 53.9932 31.299C53.9932 30.8386 54.0247 30.4097 54.0815 30.006C54.1382 29.5961 54.2265 29.142 54.3401 28.6374L54.8509 26.2785H59.2786L60.3761 31.3747C60.477 31.8099 60.5338 32.1127 60.5464 32.2893C60.5653 32.4659 60.5716 32.6362 60.5716 32.7875C60.5716 33.2732 60.477 33.6075 60.2878 33.7967C60.0986 33.9859 59.8778 34.0553 59.6192 34.0048V35.2978L67.8438 35.3041ZM58.7551 23.7367H55.4312L57.1026 15.9409L58.7551 23.7367ZM86.8033 35.3041H78.3453V34.0111H78.6859C78.7995 34.0111 78.9004 33.9165 78.9887 33.7273C79.077 33.5381 79.1211 33.2984 79.1211 33.0209C79.1211 32.7434 79.0959 32.5037 79.0455 32.3145C78.995 32.1253 78.913 31.8604 78.7995 31.5324L75.7342 22.0968H75.5639V30.5043C75.5639 31.8982 75.6522 32.8317 75.8351 33.2984C76.018 33.7715 76.2766 34.0048 76.6172 34.0048H77.1028V35.2978H68.1844V34.0048H68.6701C69.0927 34.0048 69.3828 33.6327 69.5468 32.9011C69.6603 32.3902 69.7171 31.5955 69.7171 30.5043V11.8728C69.7171 10.4789 69.6288 9.54542 69.4459 9.07868C69.263 8.60564 69.0044 8.37228 68.6701 8.37228H68.1844V7.07929H77.1028V8.37228H76.6172C76.1946 8.37228 75.9171 8.68764 75.7783 9.30574C75.6395 9.93016 75.5702 10.7816 75.5702 11.8728V19.555H75.7405L78.4147 15.0642C79.6446 12.9829 80.2627 11.425 80.2627 10.3843C80.2627 9.04084 79.6951 8.36597 78.5598 8.36597V7.07299H85.8509V8.36597C85.3653 8.36597 84.867 8.59934 84.3561 9.07238C83.8452 9.54542 83.2019 10.4095 82.4198 11.6773L79.55 16.3572L84.558 29.7853C85.1445 31.3621 85.4977 32.2577 85.6302 32.4848C85.9392 33.0714 86.3303 33.5759 86.797 34.0048L86.8033 35.3041ZM104.842 30.7377C103.675 32.7434 102.376 34.1751 100.95 35.0392C99.8341 35.7267 98.642 36.0673 97.3742 36.0673C94.372 36.0673 91.9942 34.5599 90.2281 31.5387C88.6198 28.8014 87.8188 25.4522 87.8188 21.4976C87.8188 16.9564 88.746 13.2919 90.594 10.5041C92.442 7.71002 94.864 6.31612 97.8599 6.31612C98.7051 6.31612 99.4556 6.42965 100.124 6.66302C100.414 6.76393 101.001 7.04776 101.878 7.50188C102.168 7.65325 102.388 7.72894 102.534 7.72894C102.925 7.72894 103.145 7.33158 103.189 6.54949H104.142V16.1365H103.215C103.038 14.3074 102.647 12.7369 102.048 11.4187C101.285 9.74094 100.326 8.90839 99.1781 8.90839C97.9103 8.90839 96.8949 9.58326 96.1128 10.9267C94.9586 12.9072 94.3846 16.2815 94.3846 21.0435C94.3846 25.4081 94.9964 28.5869 96.2074 30.5926C97.0841 32.037 98.169 32.7623 99.4682 32.7623C100.137 32.7623 100.812 32.5037 101.512 31.9991C102.294 31.4126 103.076 30.5232 103.871 29.3375L104.842 30.7377Z" fill="#004B88"/>
<path fill-rule="evenodd" clip-rule="evenodd" d="M6.78367 41.1848H6.45029C6.34335 40.4992 5.91562 39.5242 4.99724 39.5242C4.35563 39.5242 3.2737 39.8387 3.2737 42.3171C3.2737 44.5942 4.41853 45.0093 5.10417 45.0093C5.55707 45.0093 6.09174 44.7954 6.68932 44.223L7.04157 44.5501C6.11061 45.5629 5.11675 45.7767 4.35563 45.7767C2.07855 45.7767 0.921143 44.1035 0.921143 42.4303C0.921143 40.3482 2.38048 38.9392 4.53176 38.9392C5.19852 38.9392 5.55707 39.0713 5.97852 39.2097C6.06029 39.2349 6.13578 39.2663 6.21755 39.2663C6.39997 39.2663 6.43771 39.1782 6.45658 38.9958H6.79625C6.78367 38.9832 6.78367 41.1848 6.78367 41.1848Z" fill="#004B88"/>
<path fill-rule="evenodd" clip-rule="evenodd" d="M8.84663 45.2944H9.09195C9.50711 45.2944 9.51969 44.9358 9.51969 44.4892V39.6897H9.39389C8.52583 39.6897 8.02261 40.2747 7.8968 40.9415H7.55713L7.6389 39.1047H13.5077L13.5895 40.9415H13.2498C13.124 40.2747 12.6208 39.6897 11.7527 39.6897H11.6269V44.4892C11.6269 45.0302 11.6835 45.2944 12.0798 45.2944H12.3V45.5963H8.84663V45.2944Z" fill="#004B88"/>
<path fill-rule="evenodd" clip-rule="evenodd" d="M18.112 39.111C18.848 39.111 20.4457 39.1739 20.4457 40.8534C20.4457 41.7089 20.0054 42.6902 17.6277 42.6902C17.3572 42.6902 17.093 42.6839 16.8225 42.665V44.5018C16.8225 45.2566 17.0364 45.3069 17.2691 45.3069H17.4956V45.6089H14.1617V45.3006H14.3127C14.665 45.3006 14.7153 44.9421 14.7153 44.4955V40.2118C14.7153 39.7652 14.6587 39.4067 14.319 39.4067H14.1617V39.1047H18.112V39.111ZM16.8288 42.0737C16.9358 42.0926 17.0301 42.0926 17.137 42.0926C18.3007 42.0926 18.3448 41.1365 18.3448 40.8471C18.3448 39.6834 17.4075 39.6897 17.1119 39.6897H16.8288V42.0737Z" fill="#004B88"/>
<path fill-rule="evenodd" clip-rule="evenodd" d="M22.6039 43.5206L22.4215 44.0616C22.3523 44.2629 22.2957 44.4453 22.2957 44.678C22.2957 45.0491 22.5158 45.307 22.8241 45.3007V45.6027H20.6665V45.3007C20.9559 45.2756 21.2767 45.0806 21.61 44.1685L23.5349 38.9287H24.7426L26.7806 44.7158C26.9316 45.1372 27.0889 45.2504 27.2776 45.2945V45.5964H24.34V45.2945C24.491 45.3133 24.6671 45.2441 24.6671 45.0114C24.6671 44.9548 24.6545 44.8667 24.5979 44.6843L24.2016 43.5143L22.6039 43.5206ZM23.4091 41.1429L22.8052 42.9356H24.0066L23.4091 41.1429Z" fill="#004B88"/>
<path fill-rule="evenodd" clip-rule="evenodd" d="M28.3025 40.0105C27.988 39.4696 27.6609 39.4067 27.5162 39.4067V39.111H30.8627V39.4067H30.7997C30.6991 39.4067 30.5607 39.4759 30.5607 39.6268C30.5607 39.7401 30.6173 39.8407 30.6614 39.9162L31.4162 41.2371L31.9131 40.52C32.0389 40.3376 32.1522 40.1363 32.1522 39.8784C32.1522 39.5891 31.9131 39.4067 31.6804 39.4067H31.5483V39.1047H34.0204V39.4067C33.6052 39.457 33.2655 39.696 32.8378 40.325L31.781 41.8662L33.341 44.5836C33.5234 44.9107 33.8757 45.2818 34.2342 45.3006V45.6026H30.8438V45.3006H30.9067C30.9947 45.3006 31.1457 45.2377 31.1457 45.0742C31.1457 44.9924 31.108 44.8792 31.0577 44.7911L30.1896 43.2941L29.5606 44.2124C29.4536 44.3634 29.3467 44.5269 29.3467 44.7911C29.3467 45.0994 29.6109 45.3195 29.9254 45.3006V45.6026H27.3149V45.3006C27.5854 45.2566 28.1704 45.0868 28.7743 44.2061L29.831 42.6587L28.3025 40.0105Z" fill="#004B88"/>
<path fill-rule="evenodd" clip-rule="evenodd" d="M34.813 42.3506C34.813 40.6774 35.9389 38.9287 38.5117 38.9287C41.1095 38.9287 42.2103 40.6711 42.2103 42.3506C42.2103 44.0112 41.1095 45.7725 38.5117 45.7725C35.9452 45.7662 34.813 44.005 34.813 42.3506ZM39.8515 42.3506C39.8515 41.231 39.581 39.5263 38.5117 39.5263C37.4423 39.5263 37.1718 41.231 37.1718 42.3506C37.1718 43.4703 37.4423 45.1749 38.5117 45.1749C39.581 45.1749 39.8515 43.4703 39.8515 42.3506Z" fill="#004B88"/>
<path fill-rule="evenodd" clip-rule="evenodd" d="M46.6703 39.1099C47.4944 39.1099 49.0292 39.2231 49.0292 40.6258C49.0292 41.67 48.0919 42.0789 47.3937 42.1481V42.1858C48.1045 42.2235 49.3563 42.5695 49.3563 43.8339C49.3563 44.7082 48.7839 45.6077 46.6389 45.6077H43.1038V45.2995H43.2736C43.6447 45.2995 43.6573 44.8843 43.6573 44.4943V40.2107C43.6573 39.8144 43.6384 39.4055 43.2736 39.4055H43.1038V39.1099H46.6703ZM45.7582 41.8965H46.0224C46.6515 41.8965 47.0289 41.4058 47.0289 40.7768C47.0289 39.6823 46.1357 39.6886 45.9281 39.6886H45.7582V41.8965ZM45.7582 44.5447C45.7582 45.0101 45.9847 45.0542 46.1734 45.0542C46.7961 45.0542 47.1547 44.5195 47.1547 43.7143C47.1547 43.2866 47.0478 42.4437 45.7645 42.4814V44.5447H45.7582Z" fill="#004B88"/>
<path fill-rule="evenodd" clip-rule="evenodd" d="M51.7527 43.5206L51.5703 44.0616C51.5011 44.2629 51.4445 44.4453 51.4445 44.678C51.4445 45.0491 51.6646 45.307 51.9729 45.3007V45.6027H49.8153V45.3007C50.1047 45.2756 50.4318 45.0806 50.7588 44.1685L52.6837 38.9287H53.8914L55.9294 44.7158C56.0804 45.1372 56.2377 45.2504 56.4327 45.2945V45.5964H53.4951V45.2945C53.6461 45.3133 53.8222 45.2441 53.8222 45.0114C53.8222 44.9548 53.8096 44.8667 53.753 44.6843L53.3567 43.5143L51.7527 43.5206ZM52.5579 41.1429L51.954 42.9356H53.1554L52.5579 41.1429Z" fill="#004B88"/>
<path fill-rule="evenodd" clip-rule="evenodd" d="M63.132 39.1114V39.407H62.9748C62.6351 39.407 62.5785 39.7656 62.5785 40.2122V44.4959C62.5785 45.0305 62.6665 45.301 62.9936 45.301H63.1383V45.603H59.9303V45.301H60.0687C60.3957 45.301 60.4838 45.0305 60.4838 44.4959V42.7346C60.3328 42.7598 60.1253 42.8667 59.9303 43.2881L58.8735 45.5967H56.4077V45.2947C56.5838 45.2696 56.8103 45.1626 57.0808 44.6217L57.6343 43.5083C57.8042 43.1686 58.0746 42.7723 58.7037 42.6339V42.5962C57.8733 42.5585 57.043 41.9798 57.043 40.8978C57.043 39.6083 58.0495 39.0925 59.4208 39.0925L63.132 39.1114ZM60.4712 39.6964C59.3767 39.6901 59.2006 40.4324 59.2006 40.9985C59.2006 41.6904 59.622 42.1559 60.207 42.1559H60.4712V39.6964Z" fill="#004B88"/>
<path fill-rule="evenodd" clip-rule="evenodd" d="M71.0762 40.9409H70.7365C70.6422 40.444 70.2521 39.6892 69.1199 39.6892H68.8746V44.4887C68.8746 44.885 68.9186 45.2938 69.252 45.2938H69.5539V45.5957H66.2201V45.2938H66.3962C66.7296 45.2938 66.7736 44.8787 66.7736 44.4887V40.205C66.7736 39.8087 66.7296 39.3998 66.3962 39.3998H66.2201V39.0979H70.9944L71.0762 40.9409Z" fill="#004B88"/>
<path fill-rule="evenodd" clip-rule="evenodd" d="M75.6622 39.111C76.3982 39.111 77.9959 39.1739 77.9959 40.8534C77.9959 41.7089 77.5556 42.6902 75.1779 42.6902C74.9074 42.6902 74.6432 42.6839 74.3727 42.665V44.5018C74.3727 45.2566 74.5866 45.3069 74.8193 45.3069H75.0458V45.6089H71.7119V45.3006H71.8629C72.2151 45.3006 72.2655 44.9421 72.2655 44.4955V40.2118C72.2655 39.7652 72.2088 39.4067 71.8692 39.4067H71.7119V39.1047H75.6622V39.111ZM74.379 42.0737C74.4859 42.0926 74.5803 42.0926 74.6872 42.0926C75.8509 42.0926 75.8949 41.1365 75.8949 40.8471C75.8949 39.6834 74.9577 39.6897 74.662 39.6897H74.379V42.0737Z" fill="#004B88"/>
<path fill-rule="evenodd" clip-rule="evenodd" d="M83.4617 40.5384C83.5435 40.356 83.5749 40.1861 83.5749 39.9597C83.5749 39.5445 83.2415 39.3747 82.9522 39.3998V39.1042H85.1475V39.3998C84.7197 39.4816 84.531 39.859 84.3675 40.2302L82.5496 44.2433C82.2791 44.8409 81.7633 45.7656 80.6688 45.7656C79.9077 45.7656 79.417 45.3819 79.417 44.7843C79.417 44.2685 79.7253 43.8722 80.2662 43.8722C80.7065 43.8722 81.0525 44.1427 81.0525 44.5138C81.0525 44.5767 81.0462 44.627 81.0336 44.69C81.0273 44.7277 81.0148 44.7717 81.0148 44.8032C81.0148 44.929 81.1028 44.973 81.2161 44.973C81.3041 44.973 81.518 44.9038 81.7885 44.4383L79.1654 40.1169C78.8069 39.5319 78.5427 39.425 78.3917 39.3998V39.0979H81.7004V39.3998C81.5746 39.3935 81.3607 39.425 81.3607 39.6829C81.3607 39.815 81.4425 39.9911 81.518 40.1232L82.7697 42.2116L83.4617 40.5384Z" fill="#004B88"/>
<path fill-rule="evenodd" clip-rule="evenodd" d="M85.5502 45.2938H85.7011C86.0534 45.2938 86.1037 44.9353 86.1037 44.4887V40.205C86.1037 39.7584 86.0471 39.3998 85.7011 39.3998H85.5502V39.0979H92.4569V39.3998H92.3311C92.0732 39.3998 91.9033 39.5005 91.9033 40.205V44.4887C91.9033 45.363 92.2053 45.2938 92.394 45.2938H92.4569V45.5957H89.2488V45.2938H89.3935C89.7206 45.2938 89.8087 45.0233 89.8087 44.4887V39.6892H88.2172V44.4887C88.2172 44.9353 88.2739 45.2938 88.6135 45.2938H88.7708V45.5957H85.5627L85.5502 45.2938Z" fill="#004B88"/>
<path fill-rule="evenodd" clip-rule="evenodd" d="M93.2871 45.2938H93.4381C93.7903 45.2938 93.8407 44.9353 93.8407 44.4887V40.205C93.8407 39.7584 93.784 39.3998 93.4381 39.3998H93.2871V39.0979H100.194V39.3998H100.068C99.8101 39.3998 99.6403 39.5005 99.6403 40.205V44.4887C99.6403 45.363 99.9422 45.2938 100.131 45.2938H100.194V45.5957H96.9858V45.2938H97.1242C97.4513 45.2938 97.5393 45.0233 97.5393 44.4887V39.6892H95.9479V44.4887C95.9479 44.9353 96.0045 45.2938 96.3442 45.2938H96.5014V45.5957H93.2934L93.2871 45.2938Z" fill="#004B88"/>
<path fill-rule="evenodd" clip-rule="evenodd" d="M102.478 43.5206L102.295 44.0616C102.226 44.2629 102.169 44.4453 102.169 44.678C102.169 45.0491 102.39 45.307 102.698 45.3007V45.6027H100.54V45.3007C100.83 45.2756 101.157 45.0806 101.484 44.1685L103.409 38.9287H104.616L106.654 44.7158C106.805 45.1372 106.963 45.2504 107.151 45.2945V45.5964H104.214V45.2945C104.365 45.3133 104.541 45.2441 104.541 45.0114C104.541 44.9548 104.535 44.8667 104.472 44.6843L104.075 43.5143L102.478 43.5206ZM103.277 41.1429L102.673 42.9356H103.874L103.277 41.1429Z" fill="#004B88"/>
</g>
<defs>
<clipPath id="clip0_726_17032">
<rect width="141.64" height="51.5755" fill="white" transform="translate(0.920898 0.151367)"/>
</clipPath>
</defs>
</svg>
