<svg width="143" height="52" viewBox="0 0 143 52" fill="none" xmlns="http://www.w3.org/2000/svg">
<g clip-path="url(#clip0_726_17054)">
<path d="M91.3173 29.4323H94.1666V18.1357H85.7257V19.511C85.7257 24.4359 85.092 26.2691 83.126 26.9689V29.4245C83.8671 29.3506 88.3385 28.5924 88.3706 21.3077V20.5578H91.3173V29.4323Z" fill="#D9731E"/>
<path d="M83.3132 18.1357H75.2518V29.4323H78.1216V20.625H83.3132V18.1357Z" fill="#D9731E"/>
<path fill-rule="evenodd" clip-rule="evenodd" d="M100.071 18.0403H102.898L107.587 29.4327H104.513L103.655 27.3231H99.2341L98.3791 29.4327H95.3677L100.071 18.0403ZM101.46 21.5946L100.055 25.1349H102.848L101.46 21.5946Z" fill="#D9731E"/>
<path d="M130.248 29.4382V18.1577H127.533L122.53 24.8671V18.1577H119.692V29.4382H122.407L127.41 22.8539V29.4382H130.248Z" fill="#D9731E"/>
<path d="M135.688 27.0279V24.9285H141.567V22.7084H135.688V20.8211H142.121V18.1577H132.849V29.4382H142.201V27.0279H135.688Z" fill="#D9731E"/>
<path fill-rule="evenodd" clip-rule="evenodd" d="M62.943 20.4203C64.0292 18.9156 65.8089 17.9326 67.7925 17.9326C71.0409 17.9326 73.6736 20.5658 73.6736 23.8137C73.6736 27.0621 71.0409 29.6953 67.7925 29.6953C65.5008 29.6953 63.4803 28.3833 62.489 26.4703C62.0286 27.0913 61.4329 27.7298 60.6558 28.3099C59.6431 29.0656 58.0936 29.655 56.7202 29.655H56.6954C56.4798 29.6623 56.2647 29.6598 56.0506 29.6442C52.811 29.4077 50.3763 26.59 50.6128 23.3504C50.8493 20.1108 53.667 17.6761 56.9066 17.9126C58.3734 18.0197 59.6606 18.6674 60.6202 19.6353L58.936 21.9912C58.4259 21.2899 57.6332 20.8013 56.7008 20.7332C55.0189 20.6106 53.556 21.8744 53.4334 23.5563C53.3108 25.2376 54.4719 26.8231 56.5986 26.8231C59.2275 26.8231 60.8156 24.034 61.9905 21.9705C62.3356 21.3644 62.645 20.8209 62.9347 20.4291C62.9377 20.4257 62.9401 20.4232 62.943 20.4203ZM67.7924 26.8669C68.1087 26.8669 68.4075 26.8051 68.6942 26.716C69.9375 26.3291 70.8456 25.184 70.8456 23.8136C70.8456 22.4437 69.9375 21.2986 68.6942 20.9117C68.4075 20.8227 68.1087 20.7609 67.7924 20.7609C66.5281 20.7609 65.4429 21.5298 64.9791 22.6257C64.8248 22.9907 64.7396 23.3922 64.7396 23.8136C64.7396 24.2356 64.8248 24.637 64.9791 25.002C65.4429 26.098 66.5281 26.8669 67.7924 26.8669Z" fill="#D9731E"/>
<path d="M115.986 25.9464L115.75 26.1683L115.735 26.1615C115.151 26.6725 114.414 26.9533 113.653 26.9533C111.902 26.9533 110.479 25.5293 110.479 23.7788C110.479 22.0284 111.902 20.6044 113.653 20.6044C114.55 20.6044 115.402 20.9923 116.009 21.6726L116.121 21.568L117.526 19.5995C116.434 18.5454 115.016 17.9658 113.524 17.9658C110.319 17.9658 107.711 20.5733 107.711 23.7788C107.711 26.9839 110.319 29.5919 113.524 29.5919C115.149 29.5919 116.71 28.8882 117.821 27.6574L115.986 25.9464Z" fill="#D9731E"/>
<path d="M93.2267 37.6439C92.3673 37.6439 91.7147 36.9358 91.7147 36.0443C91.7147 35.145 92.3512 34.4364 93.1868 34.4364C93.7435 34.4364 94.126 34.6992 94.4526 35.0413L94.8424 34.6277C94.4604 34.2218 93.9747 33.8953 93.1951 33.8953C91.9931 33.8953 91.0859 34.8822 91.0859 36.0443C91.0859 37.2142 91.9931 38.1929 93.1951 38.1929C93.9669 38.1929 94.4604 37.859 94.874 37.3972L94.4681 37.023C94.1421 37.3733 93.7518 37.6439 93.2267 37.6439" fill="#D9731E"/>
<path d="M95.4072 34.5248H96.8793V38.0983H97.5003V34.5248H98.9729V33.9841H95.4072V34.5248Z" fill="#D9731E"/>
<path fill-rule="evenodd" clip-rule="evenodd" d="M100.477 34.8099C100.811 34.3169 101.297 33.895 102.052 33.895C103.039 33.895 104.019 34.6751 104.019 36.0441C104.019 37.3887 103.047 38.1848 102.052 38.1848C101.288 38.1848 100.795 37.7702 100.477 37.3093V39.3703H99.864V33.9826H100.477V34.8099ZM100.453 36.0444C100.453 36.9987 101.177 37.6362 101.941 37.6362C102.737 37.6362 103.39 37.0469 103.39 36.0361C103.39 35.0652 102.722 34.4438 101.941 34.4438C101.177 34.4438 100.453 35.0891 100.453 36.0444Z" fill="#D9731E"/>
<path fill-rule="evenodd" clip-rule="evenodd" d="M105.331 34.2706C105.785 34.0632 106.222 33.9202 106.827 33.9202C107.409 33.9202 107.862 34.0793 108.156 34.3737C108.443 34.6604 108.586 35.0584 108.586 35.5835V38.0985H107.981V37.4858C107.695 37.8518 107.226 38.1861 106.5 38.1861C105.729 38.1861 104.965 37.7481 104.965 36.8887C104.965 36.0055 105.681 35.5436 106.723 35.5436C107.249 35.5436 107.615 35.6157 107.981 35.7188V35.5913C107.981 34.8594 107.536 34.4774 106.763 34.4774C106.278 34.4774 105.896 34.5966 105.514 34.7718L105.331 34.2706ZM106.62 37.6929C107.376 37.6929 107.989 37.2393 107.989 36.5867V36.2047C107.687 36.1171 107.289 36.0295 106.787 36.0295C106.023 36.0295 105.586 36.3639 105.586 36.8729C105.586 37.3902 106.063 37.6929 106.62 37.6929Z" fill="#D9731E"/>
<path d="M113.416 33.9841H112.733L111.514 35.576L110.297 33.9841H109.596L111.148 36.0052L109.533 38.0983H110.217L111.499 36.4193L112.772 38.0983H113.48L111.857 35.9891L113.416 33.9841Z" fill="#D9731E"/>
<path fill-rule="evenodd" clip-rule="evenodd" d="M113.909 36.0441C113.909 34.8819 114.817 33.895 116.058 33.895C117.292 33.895 118.199 34.8659 118.199 36.0441C118.199 37.2062 117.285 38.1926 116.042 38.1926C114.809 38.1926 113.909 37.2218 113.909 36.0441ZM114.538 36.0442C114.538 36.9274 115.191 37.6438 116.059 37.6438C116.95 37.6438 117.571 36.9274 117.571 36.0442C117.571 35.1604 116.91 34.4363 116.042 34.4363C115.152 34.4363 114.538 35.1604 114.538 36.0442Z" fill="#D9731E"/>
<path fill-rule="evenodd" clip-rule="evenodd" d="M122.639 35.0097C122.639 35.5514 122.297 35.8137 121.956 35.9572C122.449 36.092 122.862 36.3947 122.862 36.9753C122.862 37.6678 122.273 38.0975 121.367 38.0975H119.305V33.9829H121.295C122.114 33.9829 122.639 34.3888 122.639 35.0097ZM119.918 34.5084H121.199C121.733 34.5084 122.019 34.7468 122.019 35.0894C122.019 35.5191 121.677 35.7498 121.184 35.7498H119.918V34.5084ZM121.287 37.572H119.918V36.2434H121.208C121.876 36.2434 122.234 36.4814 122.234 36.8794C122.234 37.3092 121.876 37.572 121.287 37.572Z" fill="#D9731E"/>
<path fill-rule="evenodd" clip-rule="evenodd" d="M124.024 34.2706C124.478 34.0632 124.915 33.9202 125.52 33.9202C126.102 33.9202 126.555 34.0793 126.85 34.3737C127.136 34.6604 127.279 35.0584 127.279 35.5835V38.0985H126.674V37.4858C126.388 37.8518 125.919 38.1861 125.194 38.1861C124.422 38.1861 123.658 37.7481 123.658 36.8887C123.658 36.0055 124.375 35.5436 125.417 35.5436C125.943 35.5436 126.308 35.6157 126.674 35.7188V35.5913C126.674 34.8594 126.229 34.4774 125.456 34.4774C124.971 34.4774 124.589 34.5966 124.207 34.7718L124.024 34.2706ZM125.314 37.6929C126.069 37.6929 126.683 37.2393 126.683 36.5867V36.2047C126.38 36.1171 125.982 36.0295 125.481 36.0295C124.717 36.0295 124.279 36.3639 124.279 36.8729C124.279 37.3902 124.757 37.6929 125.314 37.6929Z" fill="#D9731E"/>
<path d="M131.561 35.7582H129.189V33.9834H128.577V38.098H129.189V36.2994H131.561V38.098H132.174V33.9834H131.561V35.7582Z" fill="#D9731E"/>
<path d="M134.155 37.2386V33.9834H133.542V38.098H134.131L136.582 34.8428V38.098H137.195V33.9834H136.598L134.155 37.2386Z" fill="#D9731E"/>
<path fill-rule="evenodd" clip-rule="evenodd" d="M138.309 36.0441C138.309 34.8498 139.145 33.895 140.283 33.895C141.5 33.895 142.201 34.8659 142.201 36.0757C142.201 36.1317 142.201 36.1949 142.193 36.2908H138.93C139.017 37.158 139.654 37.6597 140.378 37.6597C140.943 37.6597 141.341 37.4291 141.676 37.0787L142.058 37.4208C141.643 37.8821 141.142 38.1926 140.362 38.1926C139.232 38.1926 138.309 37.3254 138.309 36.0441ZM140.267 34.4122C139.558 34.4122 139.017 35.0011 138.93 35.7972H141.58C141.508 35.0488 141.078 34.4122 140.267 34.4122Z" fill="#D9731E"/>
<path fill-rule="evenodd" clip-rule="evenodd" d="M22.4787 13.6486C24.6771 12.3875 27.1829 11.7211 29.731 11.7211C37.7803 11.7211 44.3287 18.2723 44.3287 26.3244C44.3287 34.3765 37.7803 40.927 29.731 40.927C27.1836 40.927 24.6778 40.2612 22.4787 39.0002C20.2684 40.276 17.7464 40.9503 15.182 40.9503C7.12005 40.9503 0.561035 34.3892 0.561035 26.3244C0.561035 18.2596 7.12005 11.6985 15.182 11.6985C17.7471 11.6985 20.2684 12.372 22.4787 13.6486ZM10.6765 26.2886L10.6674 26.3175C10.4734 26.9297 10.3747 27.5672 10.3747 28.2133C10.3747 31.6712 13.1866 34.4845 16.6438 34.4845C18.8795 34.4845 20.9516 33.275 22.0652 31.3609V31.3687L22.1047 31.2925C22.1802 31.1599 22.2507 31.0238 22.3163 30.8841L26.1424 23.4901L26.1967 23.373H26.196L26.2059 23.3525C26.6093 22.5499 27.4161 22.0506 28.3139 22.0506C29.6131 22.0506 30.6695 23.1085 30.6695 24.409C30.6695 24.44 30.6689 24.4703 30.6682 24.5013L30.6681 24.5035L30.6688 24.5543L30.6703 24.5564C30.6561 25.5488 30.1519 27.6491 27.0353 30.8319C23.0195 34.9331 19.302 36.216 19.2653 36.228L19.2569 36.2315C17.962 36.7654 16.5909 37.0348 15.1818 37.0348C9.27728 37.0348 4.47509 32.2298 4.47509 26.3239C4.47509 20.4179 9.27728 15.6122 15.1818 15.6122C16.2968 15.6122 17.3935 15.7836 18.4472 16.1214C14.3609 19.3184 11.7471 22.7376 10.6765 26.2886ZM34.2707 26.3626L34.2721 26.3577C34.4774 25.7307 34.581 25.0748 34.581 24.409C34.581 20.9511 31.7698 18.1378 28.314 18.1378C26.0959 18.1378 24.0309 19.3339 22.9123 21.2255V21.2078L22.8192 21.387C22.7642 21.4871 22.712 21.588 22.6627 21.6909L18.711 29.3452C18.2971 30.102 17.505 30.5717 16.6439 30.5717C15.3441 30.5717 14.2876 29.5138 14.2876 28.2133L14.2883 28.1787L14.2876 28.092C14.3031 27.0877 14.8215 24.9768 17.9754 21.7551C21.9849 17.6604 25.6512 16.457 25.7085 16.4381L25.7087 16.4381C27.0184 15.8901 28.4078 15.6122 29.8374 15.6122C35.7412 15.6122 40.5441 20.4179 40.5441 26.3239C40.5441 32.2298 35.7412 37.0348 29.8374 37.0348C28.7118 37.0348 27.6059 36.8613 26.5459 36.5178C30.5977 33.3462 33.1966 29.9306 34.2707 26.3626Z" fill="#D9731E"/>
</g>
<defs>
<clipPath id="clip0_726_17054">
<rect width="141.64" height="51.5755" fill="white" transform="translate(0.561157 0.151367)"/>
</clipPath>
</defs>
</svg>
