<svg width="142" height="52" viewBox="0 0 142 52" fill="none" xmlns="http://www.w3.org/2000/svg">
<g clip-path="url(#clip0_726_17170)">
<path d="M0.201538 26.3244C0.201538 34.4062 6.74564 40.9503 14.8274 40.9503C22.9092 40.9503 29.4533 34.4062 29.4533 26.3244C29.4533 18.2426 22.9092 11.6985 14.8274 11.6985C6.74564 11.6985 0.201538 18.2426 0.201538 26.3244ZM1.73922 26.3244C1.73922 19.1008 7.60389 13.2362 14.8274 13.2362C22.051 13.2362 27.9156 19.1008 27.9156 26.3244C27.9156 33.5479 22.051 39.4126 14.8274 39.4126C7.60389 39.4126 1.73922 33.5479 1.73922 26.3244ZM18.1531 14.5593C16.4724 15.3103 13.5758 15.3103 10.572 18.2068C10.8223 17.5631 11.5375 16.3473 12.4315 15.7394C11.3945 15.9539 10.5362 16.3473 10.2144 16.4903C9.96406 16.6334 9.85678 16.7407 9.71374 16.9552C9.03429 17.8492 8.03301 19.8518 7.56813 22.4623C7.24629 20.7816 7.46085 19.0651 7.60389 18.2068C6.92445 18.779 6.28076 19.5657 5.99468 19.9948C5.78012 20.2809 5.74436 20.4955 5.74436 20.7458C5.7086 21.2822 5.8874 24.3933 7.03172 26.7893C5.8874 25.8595 4.95764 23.8569 4.56428 22.7841C4.27819 23.5709 4.02787 24.7509 3.99211 25.5377C3.95635 26.1456 4.20667 26.3959 4.34971 26.6462C4.52852 26.9323 6.10196 29.6858 9.28462 31.5454C8.03301 31.4381 5.49404 30.0434 4.27819 29.0064C4.56428 30.0792 4.85036 30.8302 5.31524 31.6526C5.5298 32.0102 5.67284 32.1533 6.245 32.4394C7.67541 33.2261 9.78526 34.0128 12.8964 33.9771C11.2872 34.728 8.92701 34.6923 7.38933 34.2989C7.53237 34.4062 7.92573 34.7995 8.42637 35.1571C9.07005 35.622 9.96406 36.1227 11.1084 36.3372C13.4686 36.8379 16.3294 35.1571 15.6499 32.0102C15.6499 32.0102 15.2566 32.94 14.3268 33.1903C15.5069 32.046 15.3638 30.1865 13.3613 29.9719C12.5745 29.9004 11.2514 30.0077 10.8581 30.0077C10.4647 30.0077 9.89254 30.0077 9.49918 29.5428C9.49918 29.5428 10.0356 29.5428 10.6435 29.3998C11.1084 29.2925 12.0739 28.9349 12.6818 28.9706C12.6461 28.8634 12.3957 28.5058 11.466 28.8634C11.2514 28.9349 10.8223 28.9349 10.5362 28.5773C10.9653 28.7203 11.2514 28.5415 11.5375 28.3985C11.8951 28.2197 12.1812 28.0409 12.6818 28.3627C12.8606 28.47 13.1825 28.5058 13.0394 28.2554C12.8964 28.0051 12.6818 27.8263 12.2527 27.8263C11.2157 27.7906 10.3932 27.719 9.71374 28.0409C9.39189 28.1839 9.03429 28.4342 8.74821 28.7203C8.78397 28.2554 8.81973 27.0396 9.46342 26.4674C10.1786 25.8595 11.6805 25.5734 12.2885 25.4661C12.2885 25.4661 12.1454 25.1085 12.3242 24.894C12.6103 24.5721 13.4686 23.9285 18.5823 23.9285C18.5823 23.9285 18.2604 24.1788 18.1889 24.3218C18.9399 24.3576 20.1199 24.5364 21.4073 25.0013C21.4788 25.037 21.8007 25.1085 22.1225 24.5364C22.2298 24.3576 22.1225 24.3218 21.8364 24.1788C21.8722 24.0715 21.8722 23.9642 21.9079 23.8927C21.9079 23.7497 21.8007 23.7854 21.7649 23.8212C21.5861 23.9285 21.1927 23.9285 21.157 23.7854C21.1212 23.5709 20.7994 23.1775 20.1557 23.0702C20.1557 23.0702 20.5848 22.6053 21.4431 22.7841C21.4431 22.7841 21.4788 22.9987 21.6576 22.9272C21.8364 22.8914 21.9437 22.7126 22.051 22.8914C22.1225 22.9987 22.0867 23.0702 22.0867 23.1775C22.0867 23.249 22.1225 23.3563 22.3013 23.2133C22.3728 23.1417 22.4801 23.0345 22.5874 22.9272C22.5874 22.9272 22.9092 23.0702 23.3026 22.9629C23.5172 22.8914 23.9105 22.6053 24.0893 21.9974C24.2681 21.8186 24.5184 21.4968 24.3754 21.3537C24.1608 21.1749 23.0165 20.4597 22.7304 20.2809C22.4443 20.1379 21.9079 19.7445 21.9437 19.0293C21.9795 18.2426 21.5146 17.2771 20.0842 16.0255C20.0842 16.0255 20.0842 16.2758 20.0842 16.3831C20.0842 16.3831 19.6551 15.8824 18.618 15.6321C18.618 15.6321 18.7253 15.1672 18.7611 14.9169C18.7611 14.7381 18.6538 14.5235 18.4392 14.5235C18.2604 14.5235 18.2246 14.5235 18.1531 14.5593ZM16.4009 16.7764C16.687 16.1327 17.1518 15.7394 17.5452 15.4891C17.867 15.3103 17.9028 15.4533 17.8671 15.5248C17.6882 15.7394 17.2591 16.3115 17.3664 16.6334C17.3664 16.6334 16.9373 16.7407 16.5797 16.9195C16.5439 16.9552 16.5082 16.9552 16.4724 16.9552C16.4009 16.9195 16.3651 16.8479 16.4009 16.7764ZM16.4009 17.6704C14.6844 19.2081 14.5771 21.1749 14.5771 21.1749C14.8274 21.0676 15.0062 21.0319 15.2566 20.9246C15.4711 20.8531 15.6142 20.8888 15.4711 21.1034C14.9347 21.8544 14.899 23.3205 15.6857 23.6066C15.1493 23.6066 14.7202 23.6781 14.291 23.7497C14.2553 22.498 14.4698 21.7113 14.4698 21.7113C14.2195 21.7828 13.8262 21.9616 13.6831 22.0332C13.5758 20.6385 14.7917 18.3499 16.4009 17.6704ZM21.0855 18.5287C21.2285 18.9936 21.1927 19.2796 21.157 19.4942C21.1212 19.673 21.1212 19.7803 20.8709 19.7088C20.7636 19.673 20.5848 19.6372 20.5133 19.6015C20.3703 19.5657 20.3345 19.5657 20.3703 19.673C20.4418 19.816 20.5848 20.2452 20.5133 20.4955C20.5133 20.4955 20.0842 19.673 19.4763 19.1366C19.6908 19.0651 20.2987 19.1008 20.6206 19.2439C20.6563 19.2439 20.6921 19.2796 20.7636 19.2796C20.9067 19.2439 21.0139 19.1008 21.0855 18.5287ZM22.2298 25.3231C23.2668 25.7522 24.6615 26.4674 25.627 27.2899C25.6628 26.9323 25.6628 26.5747 25.6628 26.3244C25.6628 26.2171 25.5912 26.1813 25.5912 26.1456C24.4469 25.6807 23.7317 25.5377 23.7317 25.5377C24.0536 25.3946 24.2681 25.037 24.3039 24.8582C23.6244 25.2516 22.7662 25.3589 22.2298 25.3231ZM12.7176 26.0741C12.7891 26.1456 12.9679 26.1456 13.1825 26.0383C13.3613 25.9668 13.7189 25.8237 13.8977 25.788C13.9334 25.788 13.9692 25.788 13.9334 25.8237C13.8262 25.9668 13.6116 26.3601 13.5401 26.5389C13.4686 26.7893 13.4328 26.8965 13.8262 27.0038C14.1838 27.1111 16.079 27.719 17.2234 28.47C18.3677 29.2567 21.0855 31.3666 20.9424 35.3002C21.5861 34.8711 22.1225 34.3704 22.4801 34.0486C22.5516 33.9771 22.5516 33.834 22.5159 33.7983C22.1225 32.6539 21.0139 30.9732 19.7981 30.1865C20.1915 30.2938 20.7636 30.3653 21.157 30.1865C19.369 29.7216 18.3677 27.2184 14.291 26.8608C14.0765 26.8608 13.6831 26.8965 13.9334 26.5032C14.1838 26.1098 15.7572 25.0013 15.7572 25.0013C15.4354 25.0013 14.0765 25.1085 13.6831 25.1801C13.2898 25.2516 13.1825 25.1085 13.1467 24.8225C13.1467 24.894 12.3242 25.6807 12.7176 26.0741ZM24.1251 31.9387C24.3039 31.6169 24.6972 30.9374 24.9833 30.1865C25.0191 30.0792 24.9476 29.9719 24.9118 29.9362C23.2668 28.5415 21.3358 27.576 19.4763 27.2541C21.3715 28.1124 23.1953 30.0434 24.1251 31.9387ZM16.5797 37.0524C17.0088 36.9809 17.7955 36.8021 18.5107 36.5518C18.6538 36.516 18.6895 36.4087 18.6895 36.3372C19.0829 35.1929 19.2617 32.7612 18.0459 31.4738C18.7253 32.94 18.4392 35.3717 16.5797 37.0524Z" fill="#434244"/>
<path d="M32.0309 20.1304C32.2394 20.4283 32.299 20.607 32.299 21.0837V27.1016C32.299 27.5782 32.2394 27.7868 32.0309 28.0549H34.2354C34.0269 27.757 33.9673 27.5782 33.9673 27.1016V25.612H34.9802C37.0656 25.612 38.3169 24.5395 38.3169 22.8116C38.3169 21.0837 37.1252 20.1304 34.9802 20.1304H32.0309ZM33.9971 21.0837H34.7717C36.0229 21.0837 36.6188 21.7093 36.6188 22.8414C36.6188 24.0032 35.9633 24.6587 34.7717 24.6587H33.9971V21.0837Z" fill="#434244"/>
<path d="M44.0368 21.2329C44.1857 21.5904 44.0964 21.9479 43.9772 22.3054L42.6366 25.94L41.0874 22.3054C40.9385 21.9479 40.8789 21.5606 41.0576 21.2329H38.6445C38.8829 21.4712 39.1212 21.8287 39.3595 22.365L41.8322 27.9062C41.5343 28.6212 41.0874 29.0085 40.4618 29.0085C39.7766 29.0085 39.3893 28.651 39.0616 28.1743L38.585 29.1276C39.1212 29.6043 39.6872 29.8426 40.432 29.8426C42.0408 29.8426 42.6962 28.651 43.2324 27.2508L45.1391 22.216C45.3178 21.7394 45.437 21.501 45.7349 21.2031H44.0368V21.2329Z" fill="#434244"/>
<path d="M45.7646 24.6885C45.7646 27.042 47.1946 28.2039 49.0119 28.2039C50.3823 28.2039 51.1569 27.7868 51.9315 27.0122L51.6335 26.2376C51.1569 26.8335 50.3823 27.2803 49.4588 27.2803C48.0884 27.2803 47.4925 26.2376 47.4925 24.6587C47.4925 22.9904 48.2373 21.8881 49.5779 21.8881C50.4121 21.8881 50.9483 22.2754 51.3058 22.6329L51.9315 21.1135C51.6931 21.2327 51.5442 21.2923 51.3356 21.2923C50.8888 21.2923 50.3525 21.0837 49.4588 21.0837C47.2244 21.1135 45.7646 22.6329 45.7646 24.6885Z" fill="#434244"/>
<path d="M52.2592 24.6885C52.2592 27.042 53.6891 28.2039 55.5064 28.2039C56.8768 28.2039 57.6514 27.7868 58.426 27.0122L58.1281 26.2376C57.6514 26.8335 56.8768 27.2803 55.9533 27.2803C54.5829 27.2803 53.9871 26.2376 53.9871 24.6587C53.9871 22.9904 54.7318 21.8881 56.0724 21.8881C56.9066 21.8881 57.4429 22.2754 57.8003 22.6329L58.426 21.1135C58.1876 21.2327 58.0387 21.2923 57.8301 21.2923C57.3833 21.2923 56.847 21.0837 55.9533 21.0837C53.7189 21.1135 52.2592 22.6329 52.2592 24.6885Z" fill="#434244"/>
<path d="M63.9077 21.2324C63.9077 21.5601 63.8481 21.7389 63.4608 22.156L61.1073 24.5988V22.2155C61.1073 21.7389 61.1668 21.5303 61.3754 21.2622H59.2304C59.4389 21.5601 59.4985 21.7389 59.4985 22.2155V27.1311C59.4985 27.6078 59.4389 27.8163 59.2304 28.0844H61.3754C61.1668 27.7865 61.1073 27.6078 61.1073 27.1311V24.6882L63.2225 27.2503C63.4906 27.578 63.5204 27.7865 63.5204 28.0844H66.2016C65.7249 27.7865 65.4866 27.6078 65.0099 27.0119L62.8054 24.3009L64.8312 22.2751C65.1887 21.9176 65.5164 21.6197 66.0228 21.2622H63.9077V21.2324Z" fill="#434244"/>
<path d="M71.2064 21.2324C71.4149 21.5303 71.4745 21.7091 71.4745 22.1857V22.3943L68.555 25.5224V22.1857C68.555 21.7091 68.6145 21.5005 68.8231 21.2324H66.6781C66.8866 21.5303 66.9462 21.7091 66.9462 22.1857V27.1013C66.9462 27.578 66.8866 27.7865 66.6781 28.0546H68.8231C68.6145 27.7567 68.555 27.578 68.555 27.1013V26.8928L71.4745 23.7647V27.1013C71.4745 27.578 71.4149 27.7865 71.2064 28.0546H73.3514C73.1428 27.7567 73.0832 27.578 73.0832 27.1013V22.1857C73.0832 21.7091 73.1428 21.5005 73.3514 21.2324H71.2064Z" fill="#434244"/>
<path d="M78.416 19.1772C78.5352 19.3858 78.6246 19.5645 78.6246 19.7135C78.6246 19.8922 78.4756 20.1306 78.0287 20.1306C77.5819 20.1306 77.4329 19.8922 77.4329 19.7135C77.4329 19.5645 77.4925 19.3858 77.6414 19.1772H76.986C76.8669 19.3262 76.6881 19.5943 76.6881 19.8327C76.6881 20.3689 77.1946 20.6966 77.9989 20.6966C78.8331 20.6966 79.3098 20.3689 79.3098 19.8327C79.3098 19.5943 79.131 19.3262 79.0416 19.1772H78.416ZM79.1608 21.2329C79.3693 21.5308 79.4289 21.7095 79.4289 22.1862V22.3947L76.5094 25.5228V22.1862C76.5094 21.7095 76.5689 21.501 76.7775 21.2329H74.6325C74.841 21.5308 74.9006 21.7095 74.9006 22.1862V27.1018C74.9006 27.5784 74.841 27.787 74.6325 28.0551H76.7775C76.5689 27.7572 76.5094 27.5784 76.5094 27.1018V26.8932L79.4289 23.7651V27.1018C79.4289 27.5784 79.3693 27.787 79.1608 28.0551H81.3058C81.0972 27.7572 81.0377 27.5784 81.0377 27.1018V22.1862C81.0377 21.7095 81.0972 21.501 81.3058 21.2329H79.1608Z" fill="#434244"/>
<path d="M91.8519 20.2798C91.1965 20.2798 90.7199 20.0713 89.6176 20.0713C87.0853 20.0713 85.417 21.8886 85.417 24.1825C85.417 26.7446 86.9661 28.2043 89.3793 28.2043C90.9582 28.2043 91.7328 27.6681 92.5967 26.9233L92.1498 26.1487C91.5242 26.8042 90.7497 27.2808 89.8261 27.2808C87.9493 27.2808 87.2343 26.0296 87.2343 24.1229C87.2343 22.1865 88.1876 20.9055 89.7665 20.9055C90.5709 20.9055 91.2561 21.2034 91.7923 21.7992L92.6563 20.0117C92.3882 20.2203 92.1498 20.2798 91.8519 20.2798Z" fill="#434244"/>
<path d="M92.9839 21.2324L92.4476 22.4539C92.9541 22.1857 93.2818 22.1262 93.967 22.1262H94.9799V27.1013C94.9799 27.578 94.9203 27.7865 94.7118 28.0546H96.8568C96.6482 27.7567 96.5886 27.578 96.5886 27.1013V22.1262H97.6909C98.1974 22.1262 98.4059 22.2453 98.6442 22.4539L99.1805 21.2324H92.9839Z" fill="#434244"/>
<path d="M100.67 21.2324C100.938 21.5005 101.028 21.6197 101.177 21.8878L98.9721 27.0119C98.7934 27.4588 98.5848 27.7865 98.3167 28.0546H99.985C99.8063 27.6972 99.8361 27.4886 100.045 26.9822L100.194 26.5949H103.173L103.322 26.9822C103.5 27.4588 103.59 27.6674 103.381 28.0546H105.794C105.467 27.7567 105.318 27.4588 105.109 27.0119L102.636 21.2324H100.67ZM101.683 22.8709L102.815 25.7607H100.521L101.683 22.8709Z" fill="#434244"/>
<path d="M110.889 21.2324C111.097 21.5303 111.157 21.7091 111.157 22.1857V24.0924H108.237V22.1857C108.237 21.7091 108.297 21.5005 108.505 21.2324H106.36C106.569 21.5303 106.628 21.7091 106.628 22.1857V27.1013C106.628 27.578 106.569 27.7865 106.36 28.0546H108.505C108.297 27.7567 108.237 27.578 108.237 27.1013V24.9861H111.157V27.1013C111.157 27.578 111.097 27.7865 110.889 28.0546H113.034C112.825 27.7567 112.765 27.578 112.765 27.1013V22.1857C112.765 21.7091 112.825 21.5005 113.034 21.2324H110.889Z" fill="#434244"/>
<path d="M114.821 21.2324C115.03 21.5303 115.089 21.7091 115.089 22.1857V24.8968C115.089 26.1778 114.91 27.1013 113.629 27.578V28.7696C114.285 28.293 114.791 28.0546 115.447 28.0546H118.962C119.677 28.0546 120.094 28.2334 120.779 28.7696V27.578C120.124 27.3992 119.915 27.0119 119.915 26.4459V22.1857C119.915 21.7091 119.975 21.5005 120.183 21.2324H114.821ZM116.132 25.0159V22.3943C116.132 22.2155 116.221 22.0368 116.46 22.0368H118.277V26.8034C118.277 26.9822 118.217 27.1609 117.949 27.1609H115.625C116.042 26.6545 116.132 25.999 116.132 25.0159Z" fill="#434244"/>
<path d="M123.55 21.2324C123.818 21.5005 123.907 21.6197 124.056 21.8878L121.852 27.0119C121.673 27.4588 121.464 27.7865 121.196 28.0546H122.865C122.686 27.6972 122.716 27.4886 122.924 26.9822L123.073 26.5949H126.052L126.201 26.9822C126.38 27.4588 126.469 27.6674 126.261 28.0546H128.674C128.346 27.7567 128.197 27.4588 127.989 27.0119L125.516 21.2324H123.55ZM124.563 22.8709L125.695 25.7607H123.401L124.563 22.8709Z" fill="#434244"/>
<path d="M129.151 21.2324C129.359 21.5303 129.419 21.7091 129.419 22.1857V27.1013C129.419 27.578 129.359 27.7865 129.151 28.0546H131.296C131.087 27.7567 131.028 27.578 131.028 27.1013V25.9693H131.862C133.768 25.9693 134.96 25.0159 134.96 23.5264C134.96 22.007 133.917 21.2324 131.862 21.2324H129.151ZM131.028 22.0368H131.623C132.756 22.0368 133.292 22.5135 133.292 23.5562C133.292 24.6286 132.726 25.1947 131.623 25.1947H131.028V22.0368Z" fill="#434244"/>
<path d="M135.645 21.2324L135.109 22.4539C135.615 22.1857 135.943 22.1262 136.628 22.1262H137.641V27.1013C137.641 27.578 137.582 27.7865 137.373 28.0546H139.518C139.31 27.7567 139.25 27.578 139.25 27.1013V22.1262H140.352C140.859 22.1262 141.067 22.2453 141.306 22.4539L141.842 21.2324H135.645Z" fill="#434244"/>
<path d="M31.7627 33.8944C31.7627 35.5627 32.7756 36.3969 34.1162 36.3969C35.0695 36.3969 35.6654 36.0692 36.2314 35.5329L35.9633 34.9669C35.6356 35.384 35.0695 35.7117 34.4141 35.7117C33.4608 35.7117 33.0437 34.9967 33.0437 33.9242C33.0437 32.7326 33.58 32.0176 34.4737 32.0176C35.0695 32.0176 35.4568 32.2857 35.6952 32.5538L36.142 31.4515C35.9931 31.5409 35.8739 31.5707 35.7249 31.5707C35.3972 31.5707 35.0397 31.4217 34.3843 31.4217C32.7756 31.3622 31.7627 32.4644 31.7627 33.8944Z" fill="#434244"/>
<path d="M36.7675 31.4514L36.3802 32.375C36.7377 32.1962 36.9761 32.1366 37.4527 32.1366H38.1379V35.6222C38.1379 35.9797 38.1081 36.0989 37.9592 36.3074H39.5083C39.3594 36.0989 39.3296 35.9797 39.3296 35.6222V32.1068H40.1042C40.4617 32.1068 40.6106 32.1962 40.7596 32.3452L41.1469 31.4216H36.7675V31.4514Z" fill="#434244"/>
<path d="M41.5045 31.4517C41.6535 31.6602 41.6833 31.7794 41.6833 32.1369V35.6225C41.6833 35.9799 41.6535 36.0991 41.5045 36.3077H43.0537C42.9047 36.0991 42.8749 35.9799 42.8749 35.6225V34.8479H43.441C44.7816 34.8479 45.6455 34.1329 45.6455 33.0902C45.6455 32.0177 44.9007 31.4517 43.441 31.4517H41.5045ZM42.8749 32.0773H43.2324C44.0368 32.0773 44.4241 32.3752 44.4241 33.12C44.4241 33.8946 44.0368 34.2521 43.2324 34.2521H42.8749V32.0773Z" fill="#434244"/>
<path d="M46.8968 31.4517C47.0755 31.6602 47.1649 31.7496 47.2543 31.9581L45.7051 35.5629C45.5562 35.8608 45.437 36.0991 45.2285 36.3077H46.4201C46.3009 36.0395 46.3307 35.9204 46.4499 35.5331L46.5691 35.265H48.6843L48.8034 35.5331C48.9524 35.8608 48.9822 36.0097 48.863 36.3077H50.6207C50.3824 36.0991 50.2632 35.8906 50.144 35.5629L48.3863 31.4517H46.8968ZM47.6713 32.6135L48.4757 34.6691H46.8372L47.6713 32.6135Z" fill="#434244"/>
<path d="M54.2253 31.4517C54.2849 31.69 54.2551 31.8092 54.0168 32.1071L53.421 32.9412L52.8252 32.0475C52.6762 31.8092 52.6464 31.69 52.6762 31.4517H50.7398C51.0675 31.6602 51.2164 31.8092 51.5143 32.2262L52.6762 33.8946L51.425 35.5927C51.2164 35.8608 51.0377 36.0693 50.71 36.3077H52.1399C52.0804 36.0693 52.1102 35.9502 52.3187 35.6522L53.1231 34.5202L53.9572 35.7416C54.1062 35.9799 54.1658 36.0991 54.136 36.3374H56.0724C55.7447 36.1289 55.5957 35.9799 55.2978 35.5629L53.8976 33.5966L54.9701 32.1964C55.1787 31.9283 55.3574 31.7198 55.6851 31.4815H54.2253V31.4517Z" fill="#434244"/>
<path d="M55.7448 33.8648C55.7448 35.2054 56.6981 36.3673 58.2174 36.3673C59.7368 36.3673 60.6901 35.2054 60.6901 33.8648C60.6901 32.5242 59.7368 31.3623 58.2174 31.3623C56.6981 31.3623 55.7448 32.5242 55.7448 33.8648ZM56.996 33.8648C56.996 32.405 57.5918 32.0177 58.2472 32.0177C58.8431 32.0177 59.4985 32.3752 59.4985 33.8648C59.4985 35.2948 58.9026 35.7118 58.2472 35.7118C57.5918 35.7118 56.996 35.3246 56.996 33.8648Z" fill="#434244"/>
<path d="M61.3456 31.4514C61.4946 31.66 61.5244 31.7791 61.5244 32.1366V35.6222C61.5244 35.9797 61.4946 36.0989 61.3456 36.3074H63.4608C64.8014 36.3074 65.3973 35.6818 65.3973 34.8476C65.3973 34.2816 65.1291 33.8645 64.5631 33.656C64.9206 33.4474 65.1589 33.1197 65.1589 32.6431C65.1589 32.1366 64.8014 31.4216 63.5502 31.4216H61.3456V31.4514ZM62.6863 32.0472H63.2523C63.8183 32.0472 64.0567 32.2558 64.0567 32.6729C64.0567 33.0602 63.8779 33.4772 63.2225 33.4772H62.6863V32.0472ZM62.6863 34.0433H63.2523C63.8481 34.0433 64.2354 34.2816 64.2354 34.8774C64.2354 35.4435 63.9375 35.7116 63.2821 35.7116H62.6565V34.0433H62.6863Z" fill="#434244"/>
<path d="M67.1846 31.4517C67.3634 31.6602 67.4527 31.7496 67.5421 31.9581L65.993 35.5629C65.844 35.8608 65.7248 36.0991 65.5163 36.3077H66.708C66.5888 36.0395 66.6186 35.9204 66.7377 35.5331L66.8569 35.265H68.9721L69.0913 35.5331C69.2402 35.8608 69.27 36.0097 69.1508 36.3077H70.9085C70.6702 36.0991 70.551 35.8906 70.4319 35.5629L68.6742 31.4517H67.1846ZM67.9294 32.6135L68.7338 34.6691H67.0952L67.9294 32.6135Z" fill="#434244"/>
<path d="M74.6026 31.4517C74.7516 31.6602 74.7814 31.7794 74.7814 32.1369V33.4775H72.6364V32.1369C72.6364 31.7794 72.6662 31.6602 72.8151 31.4517H71.266C71.4149 31.6602 71.4447 31.7794 71.4447 32.1369V35.6225C71.4447 35.9799 71.4149 36.0991 71.266 36.3077H72.8151C72.6662 36.0991 72.6364 35.9799 72.6364 35.6225V34.1329H74.7814V35.6225C74.7814 35.9799 74.7516 36.0991 74.6026 36.3077H76.1518C76.0028 36.0991 75.973 35.9799 75.973 35.6225V32.1369C75.973 31.7794 76.0028 31.6602 76.1518 31.4517H74.6026Z" fill="#434244"/>
<path d="M80.3524 31.4517C80.5014 31.6602 80.5312 31.7794 80.5312 32.1369V32.256L78.4756 34.4904V32.1369C78.4756 31.7794 78.5054 31.6602 78.6543 31.4517H77.1052C77.2541 31.6602 77.2839 31.7794 77.2839 32.1369V35.6225C77.2839 35.9799 77.2541 36.0991 77.1052 36.3077H78.6543C78.5054 36.0991 78.4756 35.9799 78.4756 35.6225V35.4735L80.5312 33.2391V35.5927C80.5312 35.9502 80.5014 36.0693 80.3524 36.2779H81.9016C81.7526 36.0693 81.7228 35.9502 81.7228 35.5927V32.1369C81.7228 31.7794 81.7526 31.6602 81.9016 31.4517H80.3524Z" fill="#434244"/>
<path d="M82.8848 31.4517C83.0337 31.6602 83.0635 31.7794 83.0635 32.1369V35.6225C83.0635 35.9799 83.0337 36.0991 82.8848 36.3077H86.2512L86.6087 35.265C86.3406 35.5033 86.1618 35.6225 85.7149 35.6225H84.2552V34.1031H84.9106C85.2681 34.1031 85.417 34.1925 85.566 34.3414L85.9533 33.4179H84.2254V32.1369H85.417C85.7745 32.1369 85.9235 32.2262 86.0724 32.3752L86.4597 31.4517H82.8848Z" fill="#434244"/>
</g>
<defs>
<clipPath id="clip0_726_17170">
<rect width="141.64" height="51.5755" fill="white" transform="translate(0.201416 0.151367)"/>
</clipPath>
</defs>
</svg>
