<svg width="143" height="52" viewBox="0 0 143 52" fill="none" xmlns="http://www.w3.org/2000/svg">
<g clip-path="url(#clip0_726_16896)">
<path fill-rule="evenodd" clip-rule="evenodd" d="M137.029 20.3555C137.029 16.0952 133.393 12.6672 126.013 12.6672C118.16 12.6672 114.121 17.0389 114.121 22.4413H121.333C121.333 19.6357 122.903 18.1729 125.908 18.1729C128.754 18.1729 129.966 19.1908 129.966 20.8011C129.966 22.4107 129.07 23.5071 126.857 23.5071L122.777 23.5101V28.1276L126.75 28.1246C129.281 28.1246 130.335 29.2158 130.335 30.982C130.335 32.6439 129.229 34.2235 126.013 34.2235C122.535 34.2235 120.953 32.4582 120.953 29.5491H113.76C113.76 36.1461 118.424 39.6783 126.013 39.6783C133.497 39.6783 137.662 36.5611 137.662 31.5744C137.662 28.9777 136.292 27.1076 133.657 26.0169C135.922 24.8223 137.029 22.6406 137.029 20.3547V20.3555ZM102.233 38.9766H109.636V13.3697H102.233V16.1709C100.326 13.8116 97.8128 12.8432 95.0799 12.8432C88.1239 12.8432 82.5836 18.1744 82.5836 26.1728C82.5836 34.1711 88.1239 39.5023 95.0799 39.5023C97.8128 39.5023 100.326 38.5332 102.233 36.1746V38.9758V38.9766ZM102.749 26.1728C102.749 30.2233 99.7007 33.1885 96.0498 33.1885C92.4521 33.1885 89.3517 30.2233 89.3517 26.1728C89.3517 22.1222 92.4521 19.157 96.0505 19.157C99.7007 19.157 102.749 22.1222 102.749 26.1728ZM70.0994 19.5144H80.8556V13.369H62.7017V38.9766H70.1001V19.5144H70.0994ZM59.0479 26.1728C59.0479 18.5204 52.8134 12.3167 45.1234 12.3167C37.4327 12.3167 31.199 18.5204 31.199 26.1728C31.199 33.8251 37.4334 40.0289 45.1234 40.0289C52.8142 40.0289 59.0479 33.8251 59.0479 26.1728ZM53.0509 27.4984C48.7826 28.5066 45.8101 32.1197 45.1234 37.9393C44.4368 32.1197 41.4641 28.5066 37.196 27.4984C36.4621 22.9432 40.5035 18.9594 45.1234 18.9526C49.7434 18.9594 53.7848 22.9432 53.0509 27.4984ZM7.40292 26.1728C7.40292 22.0159 10.2233 18.6305 14.2768 18.6305C17.391 18.6305 19.9761 20.3262 20.6224 22.8399H27.673C27.3076 17.0082 21.9547 12.3167 14.4397 12.3167C6.56709 12.3167 0.640137 18.0216 0.640137 26.175C0.640137 34.3291 6.56709 40.0289 14.4397 40.0289C22.0863 40.0289 27.4903 35.359 27.673 28.9791H20.6224C20.0728 31.8957 17.6263 33.7143 14.2776 33.7143C10.5757 33.7143 7.40292 30.4367 7.40292 26.1728Z" fill="#000078"/>
</g>
<defs>
<clipPath id="clip0_726_16896">
<rect width="141.833" height="51.5755" fill="white" transform="translate(0.640259)"/>
</clipPath>
</defs>
</svg>
