<svg width="143" height="53" viewBox="0 0 143 53" fill="none" xmlns="http://www.w3.org/2000/svg">
<g clip-path="url(#clip0_726_16985)">
<path fill-rule="evenodd" clip-rule="evenodd" d="M7.30239 17.475C8.27621 17.8373 8.78875 18.9503 8.42998 19.9598C8.04557 20.9433 6.94361 21.461 5.96978 21.0727C5.73364 20.9851 5.517 20.8512 5.33233 20.6787C5.14767 20.5061 4.99864 20.2984 4.89382 20.0674C4.78901 19.8365 4.73048 19.5868 4.72162 19.3329C4.71276 19.079 4.75374 18.8258 4.8422 18.588C4.9303 18.3509 5.06406 18.1339 5.23574 17.9494C5.40742 17.7649 5.61362 17.6166 5.8424 17.5131C6.07119 17.4096 6.31802 17.3529 6.56862 17.3464C6.81922 17.3398 7.06862 17.3836 7.30239 17.475ZM30.1617 25.1364C30.1873 25.007 30.1617 24.8776 30.1617 24.7481C29.931 18.3291 22.8067 12.2725 15.6824 12.2725C7.96869 12.2725 0.998146 18.4585 0.921265 25.9905C2.48451 25.9905 2.97142 26.4047 4.09901 27.4918C4.30403 27.6988 4.5603 27.9318 4.81657 28.1647C5.04721 28.3718 5.2266 28.553 5.43162 28.7341C7.37927 30.4942 9.81384 32.7202 13.2735 33.0308C13.3247 33.0308 13.376 33.0566 13.4529 33.0566C12.9403 32.8496 12.3253 32.5907 11.7102 32.306C11.0183 31.9695 10.3264 31.5813 9.86509 31.2189C9.48432 30.9651 9.19629 30.5924 9.04502 30.1577C8.9733 29.8961 8.96451 29.621 9.0194 29.3553C9.07065 29.2259 9.09628 29.1224 9.17316 29.0447C9.10602 28.8717 9.02007 28.7068 8.91689 28.553C7.71242 26.1458 5.45724 23.894 3.56085 22.7034C7.30239 22.9622 8.96814 22.0045 9.99322 19.4421C10.0701 19.2609 10.147 19.028 10.1982 18.8468C12.0178 19.3903 13.4529 19.7786 15.3749 19.8045C17.8863 19.8303 20.039 19.2609 21.141 18.8727C21.2691 19.235 21.3716 19.6492 21.5254 19.9598C22.5505 22.1598 24.2162 22.9363 27.7271 22.7034C25.3694 24.1528 22.4992 27.2588 21.7048 30.2354C21.6791 30.2871 21.6791 30.313 21.6791 30.3389C20.449 27.44 19.5521 22.9104 20.5772 19.9598C20.7053 19.5974 20.7822 19.3386 20.9103 19.1056C20.5259 19.5715 20.0903 20.1151 19.9621 20.3221C19.5265 20.9433 18.9114 21.7716 18.5014 22.574C17.3994 24.6705 16.8869 26.7153 16.3487 29.0189C16.3487 29.1224 16.2975 29.3295 16.2462 29.5624C19.424 30.5201 21.961 30.986 25.19 29.6659C26.0101 29.3295 26.7533 28.9412 27.394 28.4753C28.5472 27.6988 29.7516 26.5082 30.1617 25.1364ZM10.3007 28.3977C10.4033 28.3718 10.5058 28.3718 10.6083 28.3718C12.0434 28.3718 13.4785 28.7341 14.888 29.1483C14.8624 28.993 14.8367 28.8636 14.8367 28.8118C14.3754 26.6894 13.7348 24.567 12.8378 22.8069C12.1971 21.6163 11.3258 20.3221 10.5058 19.235C10.5826 19.5974 10.6083 19.6492 10.7108 19.9598C11.4796 22.2116 11.1464 25.3693 10.4033 28.0353C10.4033 28.0871 10.352 28.2165 10.3007 28.3977ZM23.9856 17.475C24.985 17.0867 26.0614 17.6044 26.4458 18.588C26.8045 19.5974 26.3176 20.7104 25.3182 21.0727C24.8457 21.2524 24.322 21.2362 23.8612 21.0278C23.4005 20.8193 23.0399 20.4354 22.858 19.9598C22.4992 18.9503 22.9861 17.8373 23.9856 17.475ZM15.6055 14.136C16.8356 14.136 17.8607 15.1714 17.8607 16.4396C17.8607 17.682 16.8356 18.7174 15.6055 18.7174C14.3498 18.7174 13.3504 17.682 13.3504 16.4396C13.3504 15.1714 14.3498 14.136 15.6055 14.136Z" fill="url(#paint0_linear_726_16985)"/>
<path fill-rule="evenodd" clip-rule="evenodd" d="M29.4033 33.0054C29.4033 32.261 28.3522 31.988 27.8395 32.5091C26.0194 33.7498 22.1484 38.2659 15.6882 38.2659C16.9699 37.0004 20.0719 37.2486 20.0719 35.2634C20.0719 34.4942 19.3028 34.2461 18.5337 34.2461C16.4572 34.2461 13.3553 35.5116 10.7661 35.5116C6.6131 35.5116 4.28025 33.2535 1.69104 30.7473C2.20375 36.0079 9.45867 41.7647 16.7136 41.5165C22.4047 41.2684 28.8906 37.2486 29.4033 33.0054Z" fill="url(#paint1_linear_726_16985)"/>
<path fill-rule="evenodd" clip-rule="evenodd" d="M0.921429 25.4865C2.48485 25.4865 2.97182 25.9089 4.09953 27.0175C4.30457 27.2286 4.56087 27.4662 4.81717 27.7037C5.04784 27.9149 5.22725 28.0996 5.43229 28.2844C7.38016 30.0793 9.81499 32.3492 13.275 32.666C13.3263 32.666 13.3775 32.6924 13.4544 32.6924C12.9418 32.4812 12.3267 32.2173 11.7116 31.9269C11.0196 31.5838 10.3276 31.1879 9.86625 30.8183C9.48544 30.5595 9.19738 30.1794 9.0461 29.7361C8.97437 29.4694 8.96558 29.1888 9.02047 28.9179C9.09736 28.6539 9.25114 28.4164 9.50744 28.2316C9.76373 28.0469 10.1482 27.9149 10.6095 27.9149C12.378 27.9149 14.1208 28.4692 15.838 28.9971C19.2212 30.0529 21.8354 30.6336 25.1929 29.2346C26.0131 28.8915 26.7563 28.4956 27.3971 28.0205C28.5504 27.2286 29.7807 25.988 30.1651 24.5891C30.3445 27.0175 27.4483 28.7859 25.3723 29.6569C21.8354 31.1351 19.2212 30.528 15.7099 29.4458C14.0183 28.8915 12.3011 28.3636 10.6095 28.3636C10.311 28.355 10.0167 28.4377 9.76373 28.6012C9.60996 28.7067 9.50744 28.8651 9.45618 29.0235C9.40492 29.2082 9.43055 29.393 9.48181 29.6042C9.5587 29.8945 9.78936 30.2112 10.1226 30.4752C10.5839 30.8183 11.2246 31.1615 11.9166 31.5046C12.9675 32.0325 13.967 32.5076 15.146 32.8243C14.8385 32.9563 13.9414 33.1147 13.07 33.0355C9.45618 32.6924 7.12386 30.4488 5.12473 28.6012C4.89406 28.39 4.68902 28.1788 4.50961 28.0469C4.25331 27.7829 3.99701 27.5717 3.79197 27.3342C2.92056 26.4896 2.48485 26.0672 1.48529 25.9617C0.895799 25.9089 0.921429 26.0936 0.921429 25.4865Z" fill="#DF5022"/>
<path fill-rule="evenodd" clip-rule="evenodd" d="M59.8633 40.0701V13.2698H54.6849L47.7351 27.7601L40.7397 13.2698H35.5614V40.0701H40.8306V24.4442L45.9635 34.5737H49.5066L54.6395 24.4442V40.0701H59.8633ZM82.9842 24.7621C82.9842 20.4469 82.1665 17.8577 80.3041 15.9499C78.3963 14.0421 75.9434 13.0427 73.0817 13.0427C70.1746 13.0427 67.6762 14.0421 65.8139 15.9499C63.7243 18.0848 63.1793 20.2197 63.1793 25.5798V27.7601C63.1793 30.6673 63.2247 34.6646 65.8139 37.3446C67.6762 39.2524 70.1746 40.2972 73.0817 40.2972C75.9889 40.2972 78.3963 39.2979 80.3041 37.3446C82.9387 34.6192 82.9842 31.1215 82.9842 27.6239V24.7621ZM77.715 26.1703C77.715 31.6212 77.5333 32.9385 76.3977 34.1649C75.58 35.1188 74.4444 35.6185 73.0817 35.6185C71.719 35.6185 70.5834 35.0734 69.6749 34.1649C68.4485 32.9385 68.403 30.3947 68.403 27.6239V26.2611C68.403 22.9452 68.4939 20.4469 69.6749 19.1296C70.4925 18.1756 71.719 17.676 73.0817 17.676C74.4444 17.676 75.58 18.1756 76.3977 19.1296C77.4878 20.3106 77.715 21.7642 77.715 26.1703ZM102.017 26.3066C104.243 25.0801 105.333 23.1723 105.333 20.6285C105.333 16.1316 102.108 13.2698 97.0656 13.2698H86.3001V40.0701H97.5199C102.562 40.0701 105.696 37.0721 105.696 32.3934C105.696 30.4856 105.197 28.9866 104.061 27.7601C103.47 27.1696 103.062 26.8971 102.017 26.3066ZM91.5239 24.0808V17.9031H96.6114C98.7918 17.9031 100.109 19.0841 100.109 20.9919C100.109 22.9452 98.7918 24.0808 96.6114 24.0808H91.5239ZM91.5239 35.3914V28.8049H96.9748C99.1097 28.8049 100.472 30.0313 100.472 32.0754C100.472 34.1195 99.1097 35.3914 96.9748 35.3914H91.5239ZM127.818 31.8029H122.549C122.003 33.9378 120.641 35.6185 118.006 35.6185C116.598 35.6185 115.417 35.0734 114.645 34.2104C113.645 33.0748 113.327 31.8029 113.327 26.67C113.327 21.4916 113.645 20.2197 114.645 19.0841C115.417 18.2211 116.598 17.676 118.006 17.676C120.641 17.676 122.003 19.3567 122.549 21.4916H127.818C126.909 15.9044 122.957 13.0427 117.961 13.0427C115.054 13.0427 112.646 14.0875 110.738 15.9499C108.058 18.6753 108.104 22.0367 108.104 26.67C108.104 31.2578 108.058 34.6192 110.738 37.3446C112.646 39.207 115.054 40.2972 117.961 40.2972C122.957 40.2972 126.909 37.4355 127.818 31.8029Z" fill="url(#paint2_linear_726_16985)"/>
</g>
<defs>
<linearGradient id="paint0_linear_726_16985" x1="17.8607" y1="32.6943" x2="13.8913" y2="15.8359" gradientUnits="userSpaceOnUse">
<stop stop-color="#EB6324"/>
<stop offset="1" stop-color="#F18818"/>
</linearGradient>
<linearGradient id="paint1_linear_726_16985" x1="17.6621" y1="41.988" x2="15.2194" y2="34.7919" gradientUnits="userSpaceOnUse">
<stop stop-color="#F8AF02"/>
<stop offset="1" stop-color="#FDD21F"/>
</linearGradient>
<linearGradient id="paint2_linear_726_16985" x1="39.3316" y1="9.09083" x2="109.512" y2="38.1623" gradientUnits="userSpaceOnUse">
<stop stop-color="#EB6324"/>
<stop offset="1" stop-color="#F18818"/>
</linearGradient>
<clipPath id="clip0_726_16985">
<rect width="141.64" height="51.5755" fill="white" transform="translate(0.920898 0.727051)"/>
</clipPath>
</defs>
</svg>
