<svg width="142" height="53" viewBox="0 0 142 53" fill="none" xmlns="http://www.w3.org/2000/svg">
<g clip-path="url(#clip0_726_17152)">
<path fill-rule="evenodd" clip-rule="evenodd" d="M11.9437 24.5476C6.11481 24.5476 1.1819 28.5623 1.1819 33.7339C1.1819 35.3671 1.70262 37.0403 2.7385 38.5747C5.50195 35.9911 7.92121 31.2569 8.85606 25.6467C8.97042 25.6012 9.78646 25.418 10.4393 25.3736C10.4393 26.1852 9.74982 38.2227 5.4864 42.4872C2.30327 40.3877 0.201538 36.7794 0.201538 32.6803C0.201538 27.0745 4.12633 22.3881 9.37899 21.2168C9.65878 17.4552 9.65878 15.9186 9.67099 14.0356H10.6014C10.6014 14.0556 10.5714 19.2994 10.547 21.0192C10.8667 20.9792 11.1954 20.9548 11.5251 20.9448C11.5251 17.9337 11.5385 12.3991 11.5485 9.19482H12.3379C12.349 12.4002 12.3612 17.9348 12.3612 20.9448C12.6909 20.9548 13.0162 20.9792 13.3393 21.0192C13.3149 19.2994 13.2827 14.0556 13.2827 14.0356H14.2131C14.2264 15.9175 14.2264 17.4552 14.5106 21.2168C19.7611 22.387 23.6825 27.0745 23.6825 32.6803C23.6825 36.7783 21.5841 40.3866 18.401 42.4872C14.1354 38.2227 13.4459 26.1852 13.4459 25.3736C14.0987 25.418 14.9159 25.6023 15.0302 25.6467C15.9618 31.2558 18.3844 35.99 21.1467 38.5747C22.1837 37.0403 22.7055 35.366 22.7055 33.7339C22.7055 28.5623 17.7726 24.5476 11.9437 24.5476ZM8.29648 43.8418C10.0074 40.8785 10.9589 35.2106 11.3242 25.2815H12.5621C12.9285 35.2106 13.8811 40.8785 15.592 43.8418C14.4451 44.2193 13.2172 44.4213 11.9448 44.4213C10.6725 44.4213 9.44339 44.2193 8.29648 43.8418Z" fill="#06408D"/>
<path fill-rule="evenodd" clip-rule="evenodd" d="M102.738 24.7875H98.9319V16.5171L94.4686 24.7875H89.8977V13.0453H93.7292V21.1225L98.0837 13.0453H102.737V24.7875H102.738ZM89.136 24.7875H83.8967C81.0211 24.7875 78.7784 22.4326 78.7784 19.0774C78.7784 15.3147 81.0222 13.0442 83.9367 13.0442H89.1371V15.972H85.7586C83.7046 15.972 82.5966 16.5859 82.5966 19.0163C82.5966 21.4189 83.7179 21.8697 85.7586 21.8697H89.1349V24.7875H89.136ZM36.5239 24.7875H32.3826L34.2711 21.4656L29.5558 13.0453H33.8048L36.2618 18.0515L38.7211 13.0453H42.8613L36.5239 24.7875ZM110.591 22.0518C111.438 22.0518 111.438 21.3856 111.438 21.1103C111.438 20.8371 111.438 20.2409 110.579 20.2409H107.322V22.0518H110.591ZM111.221 17.5086C115.244 17.5086 115.244 19.7902 115.255 21.0625C115.255 22.4082 115.244 24.7875 111.258 24.7875H103.514V13.0453H114.673V15.9731H107.321V17.5086H111.221ZM60.2225 16.3772L60.2092 16.3406L59.0167 19.6836H61.4416L60.2225 16.3772ZM53.1601 24.7875L58.0974 13.0453H62.3697L66.4533 22.8234L70.5824 13.0453H74.7703L79.7709 24.7875H75.7251L72.693 16.3261L69.6631 24.7875H63.2557L62.3498 22.3704H58.0997L57.1693 24.7875H53.1601ZM46.9537 15.9564V18.4812H49.6861C50.1524 18.4812 51.236 18.4812 51.236 17.171C51.236 15.9564 50.1513 15.9564 49.7227 15.9564H46.9537ZM46.967 24.7875H43.1588V13.0564L51.035 13.0453C55.0553 13.0453 55.0553 16.3406 55.0553 17.0756C55.0553 17.8616 55.0553 21.3967 51.035 21.3967H46.967V24.7875Z" fill="#06408D"/>
<path fill-rule="evenodd" clip-rule="evenodd" d="M36.2858 40.8912C35.5097 41.1498 34.7203 41.2642 34.0153 41.2642C31.8359 41.2642 29.4532 40.0251 29.4532 36.8265C29.4532 33.8043 31.585 32.2888 34.3429 32.2888C35.0323 32.2888 35.6197 32.3754 36.2858 32.5908L36.2103 34.0952C35.6963 33.8954 35.1323 33.7677 34.4672 33.7677C32.4976 33.7677 31.334 35.0112 31.334 36.802C31.334 38.9171 32.7629 39.7864 34.344 39.7864C35.12 39.7864 35.7351 39.5977 36.1737 39.3978L36.2858 40.8912Z" fill="#06408D"/>
<path fill-rule="evenodd" clip-rule="evenodd" d="M43.8201 32.3894V33.9404H41.2898V41.1616H39.509V33.9416H36.9764V32.3905H43.8201V32.3894Z" fill="#06408D"/>
<path fill-rule="evenodd" clip-rule="evenodd" d="M47.4817 32.3894C50.6648 32.3894 50.8535 34.5833 50.8535 35.1329C50.8535 36.2842 50.0486 37.8652 47.8048 37.8652H46.6667V41.1627H44.8859V32.3894H47.4817ZM47.4817 36.4874C48.5597 36.4874 48.9739 35.7457 48.9739 35.084C48.9739 34.3546 48.5076 33.7672 47.4817 33.7672H46.6667V36.4874H47.4817Z" fill="#06408D"/>
<path fill-rule="evenodd" clip-rule="evenodd" d="M57.0711 32.3894L60.554 41.1627H58.55L57.8106 39.1931H54.1889L53.4494 41.1627H51.5409L55.0405 32.3894H57.0711ZM57.2843 37.7387L55.9964 34.1536H55.9686L54.754 37.7387H57.2843Z" fill="#06408D"/>
<path fill-rule="evenodd" clip-rule="evenodd" d="M63.3662 32.3894L64.7696 34.8309L65.1704 35.5725H65.2092L65.6078 34.8309L67.0501 32.3894H68.993L66.3217 36.5751L69.2584 41.1627H67.1533L65.4701 38.3782L65.0971 37.7042H65.0582L64.683 38.3782L62.9399 41.1627H60.9969L63.9291 36.5751L61.2622 32.3894H63.3662Z" fill="#06408D"/>
<path fill-rule="evenodd" clip-rule="evenodd" d="M78.6713 36.7743C78.6713 39.963 76.5396 41.2642 74.3735 41.2642C72.2051 41.2642 70.0734 39.963 70.0734 36.7743C70.0734 33.5934 72.2051 32.2888 74.3735 32.2888C76.5396 32.2888 78.6713 33.5923 78.6713 36.7743ZM71.9531 36.7743C71.9531 39.7454 73.7073 40.0096 74.3735 40.0096C75.0352 40.0096 76.7894 39.7454 76.7894 36.7743C76.7894 33.8043 75.0352 33.5445 74.3735 33.5445C73.7084 33.5445 71.9531 33.8043 71.9531 36.7743Z" fill="#06408D"/>
<path fill-rule="evenodd" clip-rule="evenodd" d="M83.0002 32.3894C84.7045 32.3894 85.9191 33.0789 85.9191 34.5544C85.9191 35.8734 85.1164 36.3875 84.488 36.5751V36.5984C85.6204 36.7727 86.331 37.591 86.331 38.6913C86.331 39.7838 85.6937 41.1627 82.8836 41.1627H80.1146V32.3894H83.0002ZM81.8944 35.9511H82.7615C83.9128 35.9511 84.1271 35.2483 84.1271 34.8575C84.1271 34.6055 84.0638 33.7672 82.6827 33.7672H81.8933V35.9511H81.8944ZM81.8944 39.7849H82.8836C84.0006 39.7849 84.4535 39.182 84.4535 38.5558C84.4535 37.9285 84.1149 37.3268 82.8836 37.3268H81.8944V39.7849Z" fill="#06408D"/>
<path fill-rule="evenodd" clip-rule="evenodd" d="M92.8016 32.3894L96.2845 41.1627H94.2805L93.541 39.1931H89.9194L89.1755 41.1627H87.2703L90.7687 32.3894H92.8016ZM93.0137 37.7387L91.7213 34.1536H91.698L90.4812 37.7387H93.0137Z" fill="#06408D"/>
<path fill-rule="evenodd" clip-rule="evenodd" d="M99.1334 32.3894V35.9223H102.694V32.3894H104.473V41.1627H102.694V37.3667H99.1334V41.1627H97.3492V32.3894H99.1334Z" fill="#06408D"/>
<path fill-rule="evenodd" clip-rule="evenodd" d="M108.007 32.3898V36.903L107.972 39.0303H108.007L108.635 37.7501L111.704 32.3887H113.84V41.162H112.059V36.6354L112.094 34.5159H112.059L111.454 35.846L108.358 41.162H106.228V32.3887H108.007V32.3898Z" fill="#06408D"/>
<path fill-rule="evenodd" clip-rule="evenodd" d="M120.831 32.3898V33.9408H117.373V35.9226H120.522V37.366H117.373V39.6054H120.831V41.162H115.59V32.3887H120.831V32.3898Z" fill="#06408D"/>
<path d="M121.058 29.9795L121.058 29.2097L29.4532 29.2097L29.4532 29.9795L121.058 29.9795Z" fill="#06408D"/>
</g>
<defs>
<clipPath id="clip0_726_17152">
<rect width="141.64" height="51.5755" fill="white" transform="translate(0.201416 0.727051)"/>
</clipPath>
</defs>
</svg>
