<svg width="143" height="52" viewBox="0 0 143 52" fill="none" xmlns="http://www.w3.org/2000/svg">
<g clip-path="url(#clip0_726_17095)">
<path d="M17.0573 26.2756V15.5362C15.2676 15.8925 13.5825 16.6485 12.129 17.7473C10.4503 19.0644 9.25072 20.8743 8.48593 23.1359L5.44897 22.1251C6.401 19.2666 7.96232 16.9513 10.1488 15.2393C12.3353 13.5273 15.0708 12.4629 18.479 12.0617L20.2752 11.8501V26.2756H17.0573Z" fill="#328B4A"/>
<path d="M15.0628 24.4824H4.36002C4.71954 26.2725 5.4824 27.958 6.59109 29.4118C7.92017 31.0909 9.74646 32.2907 12.0285 33.0557L11.0086 36.0933C8.12415 35.141 5.7879 33.5794 4.06042 31.3924C2.33293 29.2055 1.25883 26.4631 0.854048 23.0636L0.640503 21.2671H15.066V24.4824H15.0628Z" fill="#328B4A"/>
<path d="M13.2726 26.6765V37.3808C15.0627 37.0211 16.7482 36.2579 18.202 35.1488C19.8811 33.8191 21.0809 31.992 21.8458 29.7089L24.8834 30.7293C23.9312 33.615 22.3695 35.9523 20.1826 37.6806C17.9957 39.4088 15.2596 40.4738 11.8538 40.8883L10.0573 41.102V26.6765H13.2726Z" fill="#328B4A"/>
<path d="M15.4668 28.2665H25.9971C25.64 26.4768 24.8822 24.7917 23.7809 23.3382C22.4606 21.6595 20.6465 20.4599 18.3796 19.6952L19.3927 16.6582C22.258 17.6102 24.5787 19.1715 26.2947 21.358C28.0107 23.5445 29.0777 26.28 29.4798 29.6882L29.6919 31.4844H15.4668V28.2665Z" fill="#328B4A"/>
<path fill-rule="evenodd" clip-rule="evenodd" d="M38.1619 21.8211V15.1093H40.1756C42.7284 15.1093 43.8932 16.5618 43.8932 18.3559C43.8932 19.9962 42.8647 21.8211 40.1756 21.8211H38.1619ZM33.7411 11.709V33.3552H38.1619V25.2248H40.9966C46.573 25.2248 48.5619 21.3288 48.5619 18.4823C48.5619 17.1221 48.0941 11.7121 40.1973 11.7121H33.7535L33.7411 11.709Z" fill="#328B4A"/>
<path fill-rule="evenodd" clip-rule="evenodd" d="M63.3828 11.709V15.5459H54.7583V20.429H62.6021V23.9859H54.7583V29.5213H63.3828V33.3552H50.317V11.709H63.3828Z" fill="#328B4A"/>
<path fill-rule="evenodd" clip-rule="evenodd" d="M81.5187 32.8186C79.7028 33.4283 77.8 33.7413 75.884 33.7454C70.4662 33.7454 64.5527 30.6716 64.5527 22.7537C64.5527 15.2715 69.8436 11.5149 76.6925 11.5149C78.3312 11.4989 79.9614 11.7504 81.5187 12.2594L81.3359 15.9943C79.955 15.4526 78.4831 15.1789 76.9992 15.188C72.1111 15.188 69.2178 18.2619 69.2178 22.7012C69.2178 27.953 72.7678 30.0908 76.6894 30.0908C78.2562 30.1003 79.8064 29.7714 81.2337 29.1269L81.5125 32.8341L81.5187 32.8186Z" fill="#328B4A"/>
<path fill-rule="evenodd" clip-rule="evenodd" d="M93.1221 14.6014C94.7655 14.6014 99.1036 15.2529 99.1036 22.6077C99.1036 29.9626 94.7655 30.6141 93.1221 30.6141C91.4787 30.6141 87.1405 29.9626 87.1405 22.6077C87.1405 15.2529 91.4848 14.6014 93.1221 14.6014ZM93.122 11.5142C87.7602 11.5142 82.4939 14.7408 82.4939 22.6298C82.4939 30.5188 87.7602 33.7454 93.122 33.7454C98.4838 33.7454 103.75 30.5188 103.75 22.6298C103.75 14.7408 98.4838 11.5142 93.122 11.5142Z" fill="#328B4A"/>
<path fill-rule="evenodd" clip-rule="evenodd" d="M36.2762 36.6707V37.396H34.5789V40.7659H33.7411V36.6707H36.2762Z" fill="#328B4A"/>
<path fill-rule="evenodd" clip-rule="evenodd" d="M43.2716 39.1697L43.8547 37.4967L44.4852 39.1697H43.2747H43.2716ZM43.4104 36.6707L41.7366 40.7659H42.6476L43.0006 39.8484H44.7281L45.0811 40.7659H46.0268L44.3593 36.6707H43.3884H43.4104Z" fill="#328B4A"/>
<path fill-rule="evenodd" clip-rule="evenodd" d="M52.8848 38.5817V37.3125H53.258C53.4308 37.2894 53.6048 37.3436 53.7353 37.4609C53.8657 37.5782 53.9398 37.7472 53.9383 37.9241C53.9452 38.1063 53.8744 38.2826 53.7441 38.408C53.6138 38.5333 53.4367 38.5955 53.258 38.5787H52.8848V38.5817ZM52.0721 36.6707V40.7659H52.8849V39.2367H53.4116C54.4351 39.2367 54.8023 38.4996 54.8023 37.9613C54.8023 37.7044 54.715 36.6798 53.2611 36.6798H52.0752L52.0721 36.6707Z" fill="#328B4A"/>
<path fill-rule="evenodd" clip-rule="evenodd" d="M62.1855 39.1695L62.7646 37.5057L63.3942 39.1787H62.1855V39.1695ZM62.324 36.6707L60.6526 40.7659H61.5623L61.9148 39.8484H63.646L63.9985 40.7659H64.9428L63.2777 36.6707H62.3082H62.324Z" fill="#328B4A"/>
<path fill-rule="evenodd" clip-rule="evenodd" d="M71.622 36.6707V38.3204H73.2796V36.6707H74.1084V40.7659H73.2796V38.9937H71.622V40.7659H70.7932V36.6707H71.622Z" fill="#328B4A"/>
<path fill-rule="evenodd" clip-rule="evenodd" d="M83.2739 36.6707V37.396H82.1177V40.7659H81.3069V37.396H80.1537V36.6707H83.2739Z" fill="#328B4A"/>
<path fill-rule="evenodd" clip-rule="evenodd" d="M90.1406 36.6707V38.7764L90.1224 39.7712H90.1406L90.4296 39.1743L91.847 36.6707H92.8295V40.7659H92.0083V38.654L92.0235 37.6654H92.0083L91.7315 38.2836L90.3018 40.7659H89.3193V36.6707H90.1406Z" fill="#328B4A"/>
<path fill-rule="evenodd" clip-rule="evenodd" d="M101.36 38.6008H100.893C100.788 38.6008 100.121 38.6008 100.121 37.9586C100.121 37.7353 100.207 37.3163 100.887 37.3163H101.36V38.6039V38.6008ZM102.19 36.6707H100.862C100.576 36.6707 99.242 36.6523 99.242 37.9338C99.2041 38.4575 99.5401 38.936 100.047 39.0807L99.0698 40.7659H100.063L100.859 39.2367H101.36V40.7659H102.19V36.6707Z" fill="#328B4A"/>
</g>
<defs>
<clipPath id="clip0_726_17095">
<rect width="141.64" height="51.5755" fill="white" transform="translate(0.640259 0.302734)"/>
</clipPath>
</defs>
</svg>
