<svg width="142" height="52" viewBox="0 0 142 52" fill="none" xmlns="http://www.w3.org/2000/svg">
<g clip-path="url(#clip0_726_17126)">
<path d="M23.7569 12.5843C23.0389 9.85089 21.8611 7.25962 20.2737 4.92139C18.8959 6.99351 17.8172 9.24957 17.0693 11.6229C16.151 14.7586 15.8784 18.048 16.2681 21.2921C16.5613 23.4143 17.1086 25.4936 17.8983 27.4851C18.5325 28.9978 19.3339 30.4348 20.2877 31.7693C22.3753 28.7759 23.7263 25.3315 24.2306 21.717C24.6874 18.6735 24.5214 15.5688 23.7429 12.5912L23.7569 12.5843ZM20.2598 30.7871C19.4815 29.2788 19.0709 27.6079 19.0616 25.9107C19.0627 24.2286 19.4791 22.5727 20.2737 21.0901C21.0143 22.5193 21.4328 24.0934 21.4998 25.7017C21.5449 27.467 21.1397 29.2147 20.3225 30.7801L20.2598 30.7871ZM23.527 19.2719C23.5051 20.6293 23.3582 21.9818 23.0881 23.3123C23.1418 21.3863 22.9759 19.4605 22.5935 17.5721C22.1103 15.4123 21.3394 13.327 20.3016 11.3721C19.2688 13.3212 18.5004 15.3991 18.0167 17.5512C17.643 19.4648 17.4656 21.4115 17.4872 23.3611C17.178 21.5016 17.052 19.6164 17.1111 17.7323C17.2073 16.0087 17.4827 14.2996 17.9331 12.633C18.5047 10.6956 19.2873 8.8267 20.2668 7.06003C21.2752 8.7883 22.0727 10.6313 22.6423 12.5494C23.2349 14.7402 23.5209 17.0025 23.4922 19.2719" fill="#0072BB"/>
<path d="M21.8171 32.6822H14.9763V37.273C15.3476 36.8441 15.8032 36.4963 16.3148 36.2512C16.8264 36.0061 17.383 35.8691 17.9499 35.8485C18.5168 35.828 19.0818 35.9244 19.6098 36.1318C20.1378 36.3392 20.6175 36.6531 21.0188 37.054C21.4202 37.4549 21.7346 37.9341 21.9427 38.4618C22.1507 38.9896 22.2478 39.5546 22.2279 40.1215C22.2081 40.6884 22.0717 41.2451 21.8272 41.757C21.5828 42.2689 21.2354 42.725 20.807 43.0968C19.3542 44.5359 17.4186 45.3839 15.3758 45.4765C13.333 45.569 11.3287 44.8993 9.7517 43.5974C8.17468 42.2957 7.13757 40.4544 6.84149 38.4311C6.54541 36.4077 7.01148 34.3465 8.14932 32.6474C8.44448 32.2041 8.78284 31.791 9.15943 31.4144C9.926 30.6482 10.8362 30.0409 11.838 29.6272C12.8398 29.2137 13.9133 29.0019 14.9972 29.004V17.9973C12.5606 17.9921 10.1609 18.5932 8.01453 19.7466C5.86816 20.8999 4.0425 22.5692 2.7021 24.604C1.36171 26.6388 0.548719 28.9752 0.336386 31.4025C0.124053 33.8298 0.519045 36.2719 1.48579 38.5085C2.45254 40.7452 3.96065 42.7061 5.87419 44.2146C7.78771 45.7231 10.0465 46.7316 12.4471 47.1495C14.8476 47.5674 17.3143 47.3814 19.625 46.6082C21.9358 45.835 24.0178 44.499 25.6834 42.7206V32.6822H21.8171Z" fill="#0072BB"/>
<path d="M34.1805 8.7876H41.0423V11.0179H37.778V26.7922H34.1805V8.7876Z" fill="#0072BB"/>
<path d="M44.9304 20.0496L45.5542 11.0345H45.7593L46.3745 20.0496H44.9304ZM40.9484 26.8088H44.469L44.8022 22.0235H46.5112L46.8445 26.8088H50.3736L48.4937 8.8042H42.8283L40.9484 26.8088Z" fill="#0072BB"/>
<path d="M55.0988 20.4942V23.9122C55.0929 23.9894 55.1031 24.067 55.1288 24.1399C55.1546 24.2129 55.1954 24.2797 55.2485 24.3361C55.3016 24.3924 55.3659 24.437 55.4372 24.4671C55.5086 24.497 55.5854 24.5118 55.6628 24.5104C55.7395 24.5094 55.8152 24.4929 55.8853 24.462C55.9555 24.4312 56.0188 24.3865 56.0714 24.3307C56.124 24.2749 56.1648 24.2091 56.1916 24.1372C56.2182 24.0653 56.2302 23.9888 56.2268 23.9122V19.7251C56.2268 19.1611 56.1243 18.5459 54.7827 18.5459H53.3215V16.5292H54.8339C55.8679 16.5292 56.2268 16.2985 56.2268 15.1877V11.6072C56.2291 11.5314 56.2162 11.4557 56.189 11.3849C56.1618 11.314 56.1207 11.2492 56.0683 11.1943C56.0157 11.1395 55.9528 11.0956 55.8833 11.0653C55.8136 11.0349 55.7387 11.0187 55.6628 11.0176C55.5862 11.0163 55.5101 11.0309 55.4394 11.0604C55.3686 11.0898 55.3048 11.1337 55.2518 11.189C55.1988 11.2444 55.1579 11.3102 55.1316 11.3822C55.1052 11.4541 55.0941 11.5308 55.0988 11.6072V14.5468H51.4928V11.9832C51.4928 10.7271 51.6466 8.77026 54.1674 8.77026H57.1582C59.679 8.77026 59.8328 10.7271 59.8328 11.9832V14.9228C59.8695 15.2526 59.8315 15.5865 59.7216 15.8996C59.6117 16.2128 59.4328 16.4973 59.1981 16.7319C58.9635 16.9667 58.679 17.1455 58.3658 17.2554C58.0526 17.3653 57.7188 17.4033 57.3889 17.3667V17.4863C57.7215 17.4355 58.0613 17.4637 58.3811 17.5686C58.7008 17.6734 58.9913 17.852 59.2292 18.0899C59.4671 18.3278 59.6457 18.6183 59.7505 18.938C59.8554 19.2578 59.8836 19.5976 59.8328 19.9302V23.5619C59.8328 24.818 59.679 26.7748 57.1582 26.7748H54.1674C51.6039 26.7748 51.4928 24.818 51.4928 23.5619V20.4942H55.0988Z" fill="#0072BB"/>
<path d="M61.7214 8.7876H70.0615V26.7922H66.464V11.0179H65.3275V26.7922H61.7214V8.7876Z" fill="#0072BB"/>
<path d="M75.7696 18.6914V11.0008H76.2311C76.6156 11.0008 76.8976 11.334 76.8976 11.8553V17.7343C76.8976 18.2983 76.6156 18.5889 76.2311 18.5889L75.7696 18.6914ZM72.1892 26.7922H75.7953V20.6739H77.8546C80.3754 20.6739 80.5293 18.717 80.5293 17.4524V12.0006C80.5293 10.7444 80.3754 8.7876 77.8546 8.7876H72.1892V26.7922Z" fill="#0072BB"/>
<path d="M86.9808 23.8783C86.9842 23.9549 86.9723 24.0314 86.9458 24.1033C86.9193 24.1752 86.8783 24.2409 86.8253 24.2967C86.7732 24.3525 86.7099 24.3972 86.639 24.4281C86.5689 24.4589 86.4937 24.4754 86.4168 24.4764C86.3399 24.4766 86.2635 24.461 86.1928 24.4306C86.122 24.4 86.0583 24.3554 86.0055 24.2994C85.9526 24.2433 85.9118 24.1771 85.8856 24.1046C85.8594 24.0323 85.8482 23.9552 85.8529 23.8783V11.6075C85.8481 11.531 85.8593 11.4544 85.8856 11.3824C85.9119 11.3105 85.9528 11.2447 86.0058 11.1893C86.0588 11.1339 86.1227 11.0901 86.1934 11.0606C86.2641 11.0311 86.3399 11.0166 86.4168 11.0179C86.4929 11.019 86.5681 11.0352 86.6373 11.0656C86.7065 11.0959 86.7698 11.1397 86.8219 11.1946C86.8749 11.2495 86.9159 11.3142 86.9432 11.3851C86.9706 11.4561 86.9834 11.5316 86.9808 11.6075V23.8783ZM82.2468 23.5792C82.2468 24.8353 82.4092 26.7922 84.93 26.7922H87.9122C90.4758 26.7922 90.5869 24.8353 90.5869 23.5792V12.0006C90.5869 10.7444 90.4331 8.7876 87.9122 8.7876H84.93C82.3665 8.7876 82.2468 10.7444 82.2468 12.0006V23.5792Z" fill="#0072BB"/>
<path d="M101.806 8.7876H106.489V26.7922H102.883V15.5041H102.755L100.909 26.7922H98.021L96.1753 15.5041H96.0471V26.7922H92.441V8.7876H97.1238L99.4651 21.4429L101.806 8.7876Z" fill="#0072BB"/>
<path d="M106.481 32.3894H34.1719V44.8055H106.481V32.3894Z" fill="#0072BB"/>
<path d="M41.3242 39.3109V40.0116C41.3242 41.7206 40.5551 42.464 38.8803 42.464C37.2055 42.464 36.4279 41.7292 36.4279 40.0031V36.7303C36.4279 35.551 37.1627 34.6025 38.8803 34.6025C40.5979 34.6025 41.3242 35.5681 41.3242 36.7388V37.2515H39.5126V36.5765C39.5083 36.4945 39.4878 36.4142 39.4523 36.3402C39.4169 36.2662 39.3671 36.1999 39.306 36.1451C39.2449 36.0903 39.1736 36.0481 39.0961 36.0209C39.0187 35.9939 38.9366 35.9822 38.8547 35.9868C38.7771 35.9798 38.699 35.9888 38.6251 36.0134C38.5512 36.038 38.4832 36.0777 38.4254 36.1299C38.3677 36.182 38.3213 36.2456 38.2892 36.3166C38.2573 36.3876 38.2403 36.4644 38.2394 36.5423V40.285C38.2394 40.849 38.4787 41.0797 38.8547 41.0797C39.2307 41.0797 39.5126 40.8747 39.5126 40.3107V39.3109H41.3242Z" fill="white"/>
<path d="M45.7591 42.2844H44.1014V36.2002H42.6743V34.7732H47.0921V36.2002H45.7591V42.2844Z" fill="white"/>
<path d="M50.3562 42.2673H48.5447V34.7732H51.168C52.2191 34.7732 53.3641 35.1492 53.3641 37.0633C53.3641 38.9774 52.2362 39.3534 51.168 39.3534H50.3562V42.2673ZM50.3562 37.9947H50.681C51.1253 37.9947 51.5355 37.7811 51.5355 37.0377C51.5355 36.2942 51.1509 36.1148 50.6297 36.1148H50.3392L50.3562 37.9947Z" fill="white"/>
<path d="M57.9275 34.7737L59.5938 42.2678H57.8164L57.5429 40.7638H56.1586L55.9535 42.2678H54.1591L55.7826 34.7566L57.9275 34.7737ZM57.2951 39.4308L56.808 36.1238L56.3381 39.4308H57.2951Z" fill="white"/>
<path d="M62.2939 34.7732L63.1569 36.9778L64.0285 34.7732H65.7717L64.1823 38.4903L65.8486 42.2844H63.9431L63.1569 39.9943L62.217 42.2844H60.4652L62.1315 38.4903L60.5421 34.7732H62.2939Z" fill="white"/>
<path d="M72.0353 36.7303V40.097C72.0353 41.5924 71.2918 42.464 69.5999 42.464C67.908 42.464 67.1646 41.6095 67.1646 40.097V36.7217C67.1646 35.534 67.908 34.6025 69.6085 34.6025C71.3089 34.6025 72.0353 35.5596 72.0353 36.7303ZM68.9761 36.6021V40.4132C68.9689 40.4989 68.9798 40.5852 69.0081 40.6665C69.0363 40.7478 69.0812 40.8222 69.14 40.885C69.1988 40.9478 69.2701 40.9976 69.3493 41.0311C69.4285 41.0647 69.5139 41.0812 69.5999 41.0797C69.6859 41.0798 69.771 41.0625 69.85 41.0286C69.9291 40.9946 70.0004 40.945 70.0596 40.8826C70.1188 40.8202 70.1646 40.7464 70.1943 40.6657C70.224 40.585 70.2369 40.4991 70.2322 40.4132V36.6021C70.2347 36.5191 70.2199 36.4366 70.1888 36.3597C70.1577 36.2828 70.111 36.2131 70.0515 36.1553C69.992 36.0974 69.9211 36.0526 69.8434 36.0236C69.7657 35.9945 69.6827 35.9821 69.5999 35.9868C69.5171 35.9806 69.434 35.9921 69.356 36.0207C69.278 36.0493 69.2072 36.0943 69.148 36.1525C69.0889 36.2108 69.043 36.2811 69.0134 36.3586C68.9837 36.4362 68.971 36.5192 68.9761 36.6021Z" fill="white"/>
<path d="M73.7528 34.7728H76.6411C76.8904 34.7588 77.1399 34.7981 77.3729 34.888C77.6059 34.9779 77.8171 35.1164 77.9926 35.2942C78.1679 35.472 78.3034 35.6851 78.3902 35.9193C78.4768 36.1536 78.5127 36.4035 78.4953 36.6527C78.5306 36.9947 78.4482 37.3385 78.2617 37.6274C78.0754 37.9163 77.796 38.1331 77.4699 38.2421C77.8308 38.3777 78.1353 38.6312 78.3338 38.9617C78.5324 39.2921 78.6134 39.6799 78.5637 40.0622C78.5981 40.3684 78.562 40.6783 78.458 40.9683C78.3541 41.2582 78.185 41.5206 77.9639 41.7351C77.7428 41.9496 77.4755 42.1106 77.1825 42.2057C76.8895 42.3009 76.5786 42.3276 76.2736 42.2839H73.7528V34.7728ZM75.5046 37.6696H76.0344C76.5471 37.6696 76.7436 37.4217 76.7436 36.815C76.7584 36.7189 76.7503 36.6206 76.7198 36.5282C76.6892 36.4358 76.6372 36.3519 76.5679 36.2835C76.4987 36.2152 76.4143 36.1642 76.3216 36.1348C76.2288 36.1054 76.1303 36.0984 76.0344 36.1143H75.5046V37.6696ZM75.5046 40.9338H75.9062C76.5898 40.9338 76.7607 40.6689 76.7607 39.9938C76.7607 39.3188 76.5641 39.0197 75.9062 39.0197H75.4618L75.5046 40.9338Z" fill="white"/>
<path d="M83.597 34.7737L85.2633 42.2678H83.4859L83.2125 40.7638H81.8282L81.5889 42.2678H79.7944L81.4265 34.7566L83.597 34.7737ZM82.9732 39.4308L82.4861 36.1238L82.0162 39.4308H82.9732Z" fill="white"/>
<path d="M88.3908 37.67H89.57V34.7732H91.3816V42.2844H89.57V39.097H88.3908V42.2844H86.5792V34.7732H88.3908V37.67Z" fill="white"/>
<path d="M94.8937 34.7732V36.636C94.8937 37.4905 94.663 38.6612 94.6203 39.4901L96.1413 34.7732H97.8503V42.2673H96.1413V40.5582C96.1413 39.7037 96.3977 38.5245 96.4831 37.7298L94.9279 42.2673H93.1676V34.7732H94.8937Z" fill="white"/>
<path d="M99.679 34.7732H103.883V36.2002H101.491V37.67H103.627V39.097H101.491V40.8659H103.883V42.2844H99.679V34.7732Z" fill="white"/>
</g>
<defs>
<clipPath id="clip0_726_17126">
<rect width="141.64" height="51.5755" fill="white" transform="translate(0.280518 0.302734)"/>
</clipPath>
</defs>
</svg>
