<svg width="142" height="52" viewBox="0 0 142 52" fill="none" xmlns="http://www.w3.org/2000/svg">
<g clip-path="url(#clip0_726_16898)">
<path d="M48.5784 19.156L44.2575 26.1919V19.156H36.454V38.6999H44.2575V31.2742L48.3537 38.6999H57.3275L50.5014 28.4249L57.1344 19.156H48.5784Z" fill="#2E6EB4"/>
<path d="M34.4831 38.0863C33.2569 38.727 31.5843 39.286 29.2437 39.286C22.8896 39.286 18.3741 35.1825 18.3741 28.9278C18.3741 21.8375 24.1716 18.571 29.132 18.571C30.7216 18.571 32.9222 18.961 34.4831 20.0502V26.8912C33.2855 25.4106 31.5286 24.8244 30.1637 24.8244C27.2649 24.8244 25.8713 26.7507 25.8713 29.1242C25.8713 31.6095 27.6826 33.0327 30.135 33.0327C31.8633 33.0327 33.3686 32.2516 34.4831 31.2468V38.0863Z" fill="#2E6EB4"/>
<path fill-rule="evenodd" clip-rule="evenodd" d="M0.113403 19.031V38.5735H11.6511C17.058 38.5735 18.2284 35.1123 18.2284 33.13C18.2284 30.477 16.4171 28.5522 13.9088 28.1337V28.0777C15.5242 27.6034 17.3084 26.2059 17.3084 24.0002C17.3084 22.4938 16.7232 19.031 11.1217 19.031H0.113403ZM7.91682 33.8854V30.9529H8.86398C9.61657 30.9529 10.8141 31.0919 10.8141 32.4034C10.8141 33.7706 9.58939 33.8854 8.86398 33.8854H7.91682ZM7.91682 23.7221V26.4583H8.64079C10.0072 26.4583 10.3691 25.7588 10.3691 25.0895C10.3691 24.4201 10.0072 23.7221 8.64079 23.7221H7.91682Z" fill="#2E6EB4"/>
<path d="M91.7366 16.3485L90.1084 16.4316L89.9565 15.929L88.3902 15.791L88.3786 15.4266L86.6949 15.3958L86.9725 16.1529L87.7238 16.2614L87.6306 16.0135L88.3115 16.5856L89.4421 16.9033L90.1923 16.9353L92.0834 16.6218L91.7366 16.3485Z" fill="#6EB7E4"/>
<path d="M87.4648 15.0053L86.6413 14.8984C86.6413 14.8984 86.6637 14.6248 86.3434 14.4716C86.0218 14.3183 86.0935 14.4595 86.0935 14.4595L85.7809 14.2389L85.2051 14.1441L85.1568 13.7283L84.4107 13.6942L84.4286 13.4879L83.8415 13.4196L83.5951 13.2056L83.6735 12.9686L83.5267 12.7546L82.8276 12.4359L82.2405 12.212L81.8529 11.7852L81.3946 11.4004L80.7997 10.8424L79.3209 10.3451L77.9181 9.35041L77.349 9.11767L76.7462 8.83314L75.4701 8.17153L73.589 7.1625L69.4302 5.22272L68.2449 4.71546C67.5715 4.43425 67.4628 4.28538 67.4471 4.20157C66.8377 4.06483 66.6349 3.96337 66.3167 3.6557C65.9929 3.66894 65.2748 3.27194 65.0776 3.08557C65.0776 3.07675 63.8531 2.73159 63.7746 2.66432C63.7724 2.59374 60.595 1.51524 60.2039 1.42482C59.9272 1.40276 59.1586 1.26492 59.0533 1.2175C58.9245 1.2186 58.4349 1.07193 58.2377 1.05208C57.5767 0.978199 56.946 0.880054 56.2647 0.871224C55.7785 0.864607 55.5006 0.870123 55.0737 0.769775C54.9225 0.860202 53.9288 0.689269 53.5725 0.940699C53.1737 0.956136 52.2651 1.15022 52.013 1.26712C51.4696 1.28807 50.543 1.86041 50.2315 2.00817C50.0747 2.07985 49.9089 2.15594 49.7454 2.23314C50.7391 2.56948 51.8662 2.96869 51.8684 3.01059C51.9479 3.07895 53.1714 3.42191 53.1714 3.43074C53.3686 3.6171 54.0867 4.0141 54.4105 4.00308C54.7287 4.30964 54.9315 4.41109 55.5399 4.54784C55.5567 4.63275 55.6653 4.78052 56.3375 5.06282L57.5241 5.5679L61.6829 7.50873L63.564 8.51776L64.8401 9.17947L65.4429 9.464L66.012 9.69664L66.4781 10.0275L67.3945 10.3704L69.4616 11.0167L71.9578 11.9518L72.8899 12.2584L73.8277 12.5362L74.2691 12.4591L74.7554 12.619L75.2953 13.0833L75.8443 12.909L76.2174 12.9708L76.511 13.3424L76.7059 13.5651L77.1753 13.6985L77.6414 13.7559L78.1938 13.66L78.8447 13.7096L79.0732 14.0835L79.9796 14.2356L80.6306 14.2831L81.2815 14.3316L81.7823 14.5543L82.2383 15.0318L82.8914 15.1586L84.5832 15.3957L86.1125 15.2193L87.1085 15.2645L87.4648 15.0053Z" fill="#6EB7E4"/>
<path d="M74.3784 16.9353L76.0622 16.9815L76.0727 17.5256L77.6391 17.7345L77.791 18.4856L79.4182 18.3611L79.7669 18.7706L77.8758 19.2447L77.125 19.1924L75.9973 18.7204L75.3156 17.8611L75.4078 18.2325L74.6579 18.0699L74.3784 16.9353Z" fill="#2E6EB4"/>
<path d="M74.3306 16.465C74.3306 16.465 74.3539 16.206 74.0347 16.0597C73.7166 15.9156 73.7877 16.0482 73.7877 16.0482L73.4763 15.8393L72.9046 15.7494L72.8578 15.3545L72.1159 15.3222L72.1337 15.1278L71.5519 15.063L71.3061 14.8614L71.3851 14.6368L71.2382 14.4331L70.5441 14.1301L69.9612 13.9191L69.5764 13.5159L69.1203 13.1491L68.5318 12.6215L67.0636 12.1504L65.6709 11.2091L65.1047 10.9886L64.5062 10.718L63.2393 10.0912L61.3727 9.13532L57.2426 7.2966L56.0646 6.81709C55.3972 6.55073 55.2892 6.4107 55.2737 6.33024C54.6686 6.20073 54.4672 6.10459 54.1514 5.81416C53.831 5.82566 53.1168 5.44956 52.9222 5.27301C52.9211 5.26464 51.7064 4.9387 51.6274 4.87392C51.6241 4.80916 48.4705 3.78533 48.0823 3.69966C47.8075 3.67982 47.0445 3.54922 46.9399 3.5043C46.812 3.50534 46.327 3.36639 46.1312 3.34654C45.4749 3.2776 44.8476 3.18253 44.1713 3.17522C43.6885 3.1679 43.4137 3.17312 42.9888 3.0791C42.8386 3.16477 41.852 3.00179 41.4983 3.24104C41.1034 3.25566 40.2002 3.43953 39.9499 3.55027C39.4104 3.57012 38.4904 4.11337 38.1812 4.25127C37.9087 4.37351 37.5995 4.49574 37.3459 4.64095C37.2258 4.72766 35.4983 5.5112 35.3826 5.60836C35.4103 5.66373 33.6929 6.59669 33.5305 6.7356C33.4593 6.80769 33.0021 6.97902 32.8875 7.07827C32.7641 7.18062 32.3091 7.55882 32.1545 7.62883C32.0856 7.76051 31.6484 7.90571 31.5783 8.03626C31.4738 8.17 30.9531 8.39876 30.8686 8.48964C30.8575 8.50017 30.5683 8.71746 30.3358 8.89086L30.0455 9.2419C29.9342 9.28156 29.4726 9.52498 29.3536 9.6075C29.3647 9.85825 29.3847 10.2563 28.952 10.1801C28.9409 10.1717 28.457 10.4631 28.4459 10.4548C28.5081 10.4517 28.1789 10.8946 27.9064 11.2081C27.7451 11.3878 27.0021 11.6353 26.8585 11.8213C26.5616 12.2005 26.1789 12.5494 25.882 12.9192C25.882 12.9298 25.8831 12.9381 25.8831 12.9486C25.8953 12.9475 25.9064 12.9475 25.9186 12.9475C25.922 12.9966 26.2045 12.9893 26.2456 13.0917C26.3024 13.2369 26.1278 13.3675 26.0844 13.4981C26.0955 13.4981 26.1077 13.4981 26.1188 13.497C26.1199 13.5075 26.1199 13.5169 26.121 13.5263C26.3491 13.5179 26.5749 13.2996 26.7585 13.2086C26.912 13.1543 27.0665 13.0989 27.2212 13.0446C27.4937 12.8963 27.7673 12.7469 28.0399 12.5996C30.0855 11.582 32.1289 10.5634 34.1734 9.54801C35.1534 9.06746 35.9309 8.61605 37.011 8.06972C37.268 7.94021 38.2514 7.33419 38.9944 7.29039C39.9332 7.23184 41.0622 7.4512 41.3637 7.56925C41.6529 7.66229 42.3637 7.99237 42.7218 8.07178C42.8331 8.10938 43.0367 8.24519 43.0856 8.24312C43.1201 8.28908 43.7952 8.38522 44.1501 8.50327C44.2736 8.57122 44.3937 8.63804 44.515 8.70487C45.1023 8.86163 46.5617 9.17611 47.0901 9.32545C47.5395 9.44979 47.8053 9.68062 48.0278 9.72554C48.3359 9.92094 48.3971 9.82169 48.7765 9.98785C49.3415 10.0411 49.6897 10.227 49.7074 10.2427C49.8833 10.3085 50.0011 10.3775 50.1769 10.4423C50.3237 10.4611 50.604 10.6575 50.7142 10.7086C50.8454 10.7327 51.7664 10.9908 51.8588 11.0325C52.01 11.019 52.663 11.2781 52.7442 11.3418C52.93 11.4211 53.1369 11.464 53.346 11.5037L55.2226 12.1744L57.2737 12.7877L59.7521 13.6725L60.6775 13.9619L61.6097 14.2262L62.0469 14.152L62.5307 14.3035L63.0657 14.7444L63.6108 14.5793L63.9812 14.6389L64.2738 14.9899L64.4662 15.1999L64.9323 15.3284L65.395 15.3838L65.9445 15.2897L66.5908 15.3389L66.8178 15.693L67.7166 15.8351L68.3628 15.8811L69.0091 15.927L69.5074 16.138L69.9579 16.5904L70.6075 16.7106L72.2872 16.9352L73.8056 16.768L74.7956 16.8119L75.1481 16.5664L74.3306 16.465Z" fill="#2E6EB4"/>
<path d="M63.8327 37.9028C63.4579 38.0948 62.9614 38.2597 62.2875 38.2597C61.1901 38.2597 60.5262 37.8942 59.9998 37.4084C59.2786 36.7332 58.9982 35.9737 58.9982 35.0793C58.9982 33.9728 59.4661 33.1759 59.9998 32.6915C60.6278 32.1153 61.4061 31.8875 62.296 31.8875C62.7367 31.8875 63.2604 31.962 63.8327 32.2629V33.6517C63.2604 33.0126 62.5494 32.9667 62.3232 32.9667C61.0685 32.9667 60.253 33.9728 60.253 35.0965C60.253 36.448 61.3218 37.1804 62.3704 37.1804C62.9514 37.1804 63.4664 36.9339 63.8327 36.5125V37.9028Z" fill="#2E6EB4"/>
<path d="M67.3938 38.1221H66.1748V33.0498H64.7698V32.0264H68.7989V33.0498H67.3938V38.1221Z" fill="#2E6EB4"/>
<path fill-rule="evenodd" clip-rule="evenodd" d="M70.0337 38.1221V32.0264H71.8537C72.5547 32.0264 73.044 32.0981 73.5019 32.4908C74.0069 32.9293 74.1386 33.5255 74.1386 33.9628C74.1386 34.2007 74.1015 34.8585 73.6221 35.3258C73.2759 35.664 72.7622 35.8646 72.0411 35.8646H71.2528V38.1221H70.0337ZM71.6748 33.0498H71.2528V34.8399H71.7492C71.9839 34.8399 72.2829 34.8399 72.5462 34.6492C72.7708 34.4758 72.8825 34.2007 72.8825 33.9354C72.8825 33.5972 72.7136 33.3694 72.5361 33.2403C72.2829 33.0669 71.9639 33.0498 71.6748 33.0498Z" fill="#2E6EB4"/>
<path fill-rule="evenodd" clip-rule="evenodd" d="M80.67 38.1226H79.358L78.8044 36.8426H76.2834L75.7324 38.1226H74.4104L77.1175 31.8979H78.036L80.67 38.1226ZM77.5681 33.6809L76.6682 35.8738H78.4481L77.5681 33.6809Z" fill="#2E6EB4"/>
<path d="M83.444 34.9044L81.5783 32.0264H83.0406L84.1365 33.9169L85.2898 32.0264H86.7519L84.8291 34.9044L86.968 38.1221H85.5043L84.1365 35.892L82.6943 38.1221H81.2321L83.444 34.9044Z" fill="#2E6EB4"/>
<path fill-rule="evenodd" clip-rule="evenodd" d="M88.0342 35.0793C88.0342 33.2233 89.402 31.8875 91.3693 31.8875C93.3365 31.8875 94.7044 33.2233 94.7044 35.0793C94.7044 36.9339 93.3365 38.2597 91.3693 38.2597C89.402 38.2597 88.0342 36.9339 88.0342 35.0793ZM89.289 35.0793C89.289 36.3133 90.1517 37.1804 91.3693 37.1804C92.5869 37.1804 93.4496 36.3133 93.4496 35.0793C93.4496 33.8438 92.5869 32.9667 91.3693 32.9667C90.1517 32.9667 89.289 33.8438 89.289 35.0793Z" fill="#2E6EB4"/>
<path fill-rule="evenodd" clip-rule="evenodd" d="M96.2996 32.0264V38.1221H98.397C98.9407 38.1221 99.5117 38.0317 99.9809 37.629C100.413 37.2535 100.515 36.7504 100.515 36.3949C100.515 36.0753 100.44 35.5995 100.065 35.2527C99.9065 35.105 99.6633 34.933 99.2498 34.8686C99.4186 34.7768 99.9523 34.4557 99.9523 33.6718C99.9523 33.1587 99.7377 32.6828 99.3714 32.4091C98.8663 32.0264 98.191 32.0264 97.8448 32.0264H96.2996ZM97.5171 35.472H97.9664C98.2282 35.472 98.5387 35.472 98.8006 35.5909C99.194 35.7629 99.2599 36.0926 99.2599 36.2846C99.2599 36.5225 99.1754 36.8149 98.875 36.9883C98.6045 37.1446 98.2669 37.1547 98.0422 37.1547H97.5171V35.472ZM97.872 32.9938H97.5171V34.5576H97.8633C98.0508 34.5576 98.8105 34.5389 98.8105 33.7606C98.8105 33.2045 98.3699 32.9938 97.872 32.9938Z" fill="#2E6EB4"/>
<path fill-rule="evenodd" clip-rule="evenodd" d="M101.808 35.0793C101.808 33.2233 103.178 31.8875 105.145 31.8875C107.114 31.8875 108.481 33.2233 108.481 35.0793C108.481 36.9339 107.114 38.2597 105.145 38.2597C103.178 38.2597 101.808 36.9339 101.808 35.0793ZM103.065 35.0793C103.065 36.3133 103.927 37.1804 105.145 37.1804C106.362 37.1804 107.224 36.3133 107.224 35.0793C107.224 33.8438 106.362 32.9667 105.145 32.9667C103.927 32.9667 103.065 33.8438 103.065 35.0793Z" fill="#2E6EB4"/>
<path fill-rule="evenodd" clip-rule="evenodd" d="M112.828 30.6075C112.708 30.6075 112.183 30.5902 111.985 30.0771L111.143 30.4068C111.386 31.0274 111.967 31.4301 112.828 31.4301C113.691 31.4301 114.272 31.0274 114.515 30.4068L113.672 30.0771C113.475 30.5902 112.95 30.6075 112.828 30.6075ZM111.291 36.1212V32.0264H110.074V38.2425H110.916L114.366 34.0086V38.122H115.584V31.8873H114.741L111.291 36.1212Z" fill="#2E6EB4"/>
<path fill-rule="evenodd" clip-rule="evenodd" d="M120.727 34.675V32.0264H124.944V37.0987H125.599V39.4936H124.474V38.1221H120.633V39.4936H119.508V37.0987C119.957 37.1174 120.314 36.7332 120.501 36.2761C120.624 35.9736 120.727 35.5164 120.727 34.675ZM123.725 33.0498H121.908V34.675C121.908 35.6167 121.805 36.0854 121.691 36.3764C121.56 36.7146 121.381 36.9339 121.204 37.0987H123.725V33.0498Z" fill="#2E6EB4"/>
<path fill-rule="evenodd" clip-rule="evenodd" d="M126.572 35.0793C126.572 33.2233 127.94 31.8875 129.908 31.8875C131.876 31.8875 133.244 33.2233 133.244 35.0793C133.244 36.9339 131.876 38.2597 129.908 38.2597C127.94 38.2597 126.572 36.9339 126.572 35.0793ZM127.828 35.0793C127.828 36.3133 128.691 37.1804 129.908 37.1804C131.128 37.1804 131.987 36.3133 131.987 35.0793C131.987 33.8438 131.128 32.9667 129.908 32.9667C128.691 32.9667 127.828 33.8438 127.828 35.0793Z" fill="#2E6EB4"/>
<path d="M134.518 38.1227L135.68 31.9167H136.523L138.221 35.9026L139.991 31.9167H140.835L141.884 38.1227H140.646L140.086 34.3661L138.369 38.2043H138.033L136.391 34.3661L135.756 38.1227H134.518Z" fill="#2E6EB4"/>
</g>
<defs>
<clipPath id="clip0_726_16898">
<rect width="141.833" height="51.5755" fill="white" transform="translate(0.113281)"/>
</clipPath>
</defs>
</svg>
