<svg width="143" height="52" viewBox="0 0 143 52" fill="none" xmlns="http://www.w3.org/2000/svg">
<g clip-path="url(#clip0_726_17242)">
<path fill-rule="evenodd" clip-rule="evenodd" d="M51.4495 30.6522H48.6517L48.1724 27.2256H44.7692L44.2909 30.6522H41.7446L44.5677 11.7636H48.6265L51.4495 30.6522ZM44.6873 38.6733C44.3866 38.8687 44.0281 38.9648 43.6146 38.9648C43.0548 38.9648 42.6036 38.7704 42.2597 38.381C41.9173 37.9916 41.7446 37.4866 41.7446 36.8646C41.7446 36.1729 41.9305 35.6169 42.3008 35.1974C42.6706 34.7786 43.1649 34.5688 43.7837 34.5688C44.1289 34.5688 44.4318 34.6362 44.6952 34.7736V35.4622C44.4032 35.2438 44.0923 35.1346 43.76 35.1346C43.36 35.1346 43.0304 35.2885 42.7743 35.5962C42.5174 35.9031 42.388 36.3073 42.388 36.8072C42.388 37.2999 42.5096 37.688 42.7508 37.9722C42.9924 38.2564 43.3153 38.399 43.722 38.399C44.0652 38.399 44.3868 38.2777 44.6875 38.0336V38.6733H44.6873ZM49.2834 35.2409H48.1076V38.8673H47.4781V35.2409H46.2991V34.6661H49.2836V35.2409H49.2834ZM51.8648 38.2589H51.849V40.7987H51.2201V34.6659H51.849V35.4041H51.8648C52.1732 34.8471 52.6261 34.5684 53.2216 34.5684C53.726 34.5684 54.1209 34.7557 54.4045 35.1329C54.6884 35.5083 54.8297 36.0119 54.8297 36.6435C54.8297 37.3459 54.6699 37.9087 54.3512 38.3315C54.0317 38.7531 53.5953 38.9645 53.0405 38.9645C52.5318 38.9646 52.141 38.7297 51.8648 38.2589ZM51.849 36.5646V37.1517C51.849 37.4985 51.9539 37.7949 52.1654 38.0367C52.3763 38.2789 52.6433 38.3988 52.9677 38.3988C53.3485 38.3988 53.6462 38.244 53.8621 37.9313C54.0781 37.6187 54.1867 37.1868 54.1867 36.6306C54.1867 36.1631 54.0859 35.7977 53.8831 35.5315C53.6815 35.2664 53.4084 35.1344 53.0643 35.1344C52.6981 35.1344 52.4051 35.2697 52.183 35.5419C51.9604 35.8144 51.849 36.1556 51.849 36.5646ZM59.7215 38.8671H59.0921V38.2102H59.0778C58.8043 38.7136 58.402 38.9646 57.871 38.9646C57.4796 38.9646 57.1741 38.8543 56.9531 38.6328C56.7321 38.4121 56.6221 38.1173 56.6221 37.7505C56.6221 36.9673 57.0536 36.5092 57.9163 36.3815L59.0921 36.2052C59.0921 35.4912 58.8228 35.1344 58.284 35.1344C57.8121 35.1344 57.3853 35.3064 57.0048 35.6511V34.9621C57.3911 34.6989 57.8344 34.5684 58.3381 34.5684C59.2597 34.5684 59.7215 35.0914 59.7215 36.1349V38.8671ZM59.0919 36.7412L58.1464 36.8813C57.855 36.9253 57.6353 37.0018 57.4872 37.1137C57.3397 37.2247 57.2649 37.4206 57.2649 37.7022C57.2649 37.9062 57.3332 38.0739 57.4706 38.2042C57.6065 38.3342 57.7878 38.3987 58.0153 38.3987C58.3268 38.3987 58.5844 38.281 58.7873 38.0495C58.991 37.8158 59.0917 37.5179 59.0917 37.1602V36.7412H59.0919ZM64.9542 34.6661L63.636 36.7922L64.9306 38.8673H64.1994L63.429 37.5047C63.3809 37.4206 63.323 37.3143 63.257 37.1857H63.2414C63.2284 37.2087 63.1694 37.3166 63.0608 37.5047L62.2759 38.8673H61.5512L62.8894 36.8072L61.609 34.6663H62.3415L63.0998 36.1019C63.1566 36.2099 63.2112 36.319 63.2645 36.431H63.279L64.2603 34.6663H64.9542V34.6661ZM68.4422 38.9646C67.863 38.9646 67.4004 38.7687 67.0536 38.3764C66.7083 37.9843 66.5343 37.4636 66.5343 36.8162C66.5343 36.1103 66.7146 35.5599 67.0744 35.1628C67.4357 34.7663 67.922 34.5686 68.5348 34.5686C69.1199 34.5686 69.576 34.7605 69.9039 35.1467C70.233 35.5317 70.3961 36.0672 70.3961 36.7502C70.3961 37.4206 70.2198 37.9567 69.8669 38.3603C69.5121 38.7629 69.0371 38.9646 68.4422 38.9646ZM68.4882 35.1344C68.0853 35.1344 67.7658 35.2812 67.5303 35.5753C67.2952 35.8693 67.1773 36.2739 67.1773 36.7922C67.1773 37.2889 67.2965 37.6811 67.5345 37.9676C67.7721 38.2549 68.0901 38.3988 68.488 38.3988C68.8945 38.3988 69.2075 38.2578 69.4255 37.9766C69.6442 37.6951 69.7528 37.2943 69.7528 36.7754C69.7528 36.2503 69.6444 35.8455 69.4255 35.5612C69.2077 35.2757 68.8947 35.1344 68.4882 35.1344ZM72.5833 38.8671V34.6659H74.2921C74.6782 34.6659 74.9834 34.7577 75.2065 34.9411C75.4304 35.124 75.5412 35.3753 75.5412 35.6916C75.5412 36.2362 75.2914 36.5662 74.7906 36.6842C75.3907 36.7663 75.6909 37.0897 75.6909 37.6569C75.6909 37.9985 75.5676 38.285 75.3218 38.5182C75.074 38.7503 74.7683 38.867 74.4034 38.867H72.5833V38.8671ZM73.2121 35.2409V36.4222H74.1555C74.6597 36.4222 74.9137 36.2109 74.9137 35.7906C74.9137 35.4246 74.6859 35.2409 74.2311 35.2409H73.2121ZM73.2121 36.9961V38.2923H74.3001C74.8088 38.2923 75.0626 38.0726 75.0626 37.6319C75.0626 37.2072 74.7771 36.9961 74.2085 36.9961H73.2121ZM80.7324 38.8671H80.1035V38.2102H80.0892C79.8157 38.7136 79.4128 38.9646 78.8819 38.9646C78.4912 38.9646 78.1847 38.8543 77.9637 38.6328C77.7429 38.4121 77.633 38.1173 77.633 37.7505C77.633 36.9673 78.0647 36.5092 78.9277 36.3815L80.1035 36.2052C80.1035 35.4912 79.8344 35.1344 79.2954 35.1344C78.8227 35.1344 78.3971 35.3064 78.0164 35.6511V34.9621C78.4021 34.6989 78.8454 34.5684 79.3489 34.5684C80.2711 34.5684 80.7324 35.0914 80.7324 36.1349V38.8671ZM80.1035 36.7412L79.1582 36.8813C78.8668 36.9253 78.6464 37.0018 78.499 37.1137C78.3509 37.2247 78.2769 37.4206 78.2769 37.7022C78.2769 37.9062 78.3444 38.0739 78.4819 38.2042C78.6177 38.3342 78.7998 38.3987 79.0271 38.3987C79.3378 38.3987 79.5962 38.281 79.7983 38.0495C80.0027 37.8158 80.1035 37.5179 80.1035 37.1602V36.7412ZM85.7809 38.8671H85.1534V37.1277H84.6276C84.3757 37.1277 84.1442 37.3461 83.9382 37.7847L83.4283 38.8671H82.7006L83.3604 37.5703C83.513 37.2694 83.6978 37.0717 83.9144 36.9746C83.6087 36.9314 83.3741 36.8112 83.2136 36.6151C83.0531 36.418 82.9725 36.1712 82.9725 35.8754C82.9725 35.5054 83.0985 35.2094 83.3495 34.9924C83.6022 34.7759 83.9552 34.6657 84.4087 34.6657H85.7807V38.8671H85.7809ZM85.1534 36.5646V35.2409H84.4089C83.8814 35.2409 83.6169 35.4547 83.6169 35.8846C83.6169 36.3382 83.873 36.5646 84.3866 36.5646H85.1534ZM94.7539 38.8671H93.8727L92.1408 36.8489H92.1251V38.8671H91.4961V34.6659H92.1251V36.5898H92.1408L93.787 34.6659H94.6117L92.7918 36.6921L94.7539 38.8671ZM98.0607 38.9646C97.4821 38.9646 97.0191 38.7687 96.6727 38.3764C96.3271 37.9843 96.153 37.4636 96.153 36.8162C96.153 36.1103 96.3334 35.5599 96.6933 35.1628C97.055 34.7663 97.5413 34.5686 98.1541 34.5686C98.739 34.5686 99.195 34.7605 99.5236 35.1467C99.8521 35.5317 100.015 36.0672 100.015 36.7502C100.015 37.4206 99.8393 37.9567 99.4858 38.3603C99.1314 38.7629 98.656 38.9646 98.0607 38.9646ZM98.1077 35.1344C97.7048 35.1344 97.3853 35.2812 97.15 35.5753C96.9141 35.8685 96.7973 36.2739 96.7973 36.7922C96.7973 37.2889 96.9158 37.6811 97.1536 37.9676C97.3922 38.2549 97.709 38.3988 98.1075 38.3988C98.514 38.3988 98.8262 38.2578 99.0442 37.9766C99.2631 37.6951 99.3719 37.2943 99.3719 36.7754C99.3719 36.2503 99.2633 35.8455 99.0442 35.5612C98.8262 35.2757 98.514 35.1344 98.1077 35.1344ZM106.441 38.8671H105.82V35.4041C105.764 35.5791 105.677 35.837 105.559 36.1754L104.579 38.8671H104.015L103.005 36.1754C102.95 36.0315 102.863 35.7737 102.742 35.4041V38.8671H102.202V34.6659H103.005L104.038 37.406C104.112 37.6064 104.207 37.882 104.321 38.2353L104.601 37.4227L105.605 34.6659H106.441V38.8671ZM112.152 38.8671H111.523V35.2407H109.524V38.8671H108.895V34.6659H112.152V38.8671ZM117.415 38.8671H116.786V38.2102H116.772C116.498 38.7136 116.095 38.9646 115.565 38.9646C115.174 38.9646 114.868 38.8543 114.647 38.6328C114.426 38.4121 114.316 38.1173 114.316 37.7505C114.316 36.9673 114.747 36.5092 115.611 36.3815L116.786 36.2052C116.786 35.4912 116.517 35.1344 115.979 35.1344C115.507 35.1344 115.079 35.3064 114.699 35.6511V34.9621C115.085 34.6989 115.528 34.5684 116.032 34.5684C116.954 34.5684 117.415 35.0914 117.415 36.1349V38.8671ZM116.786 36.7412L115.841 36.8813C115.55 36.9253 115.33 37.0018 115.182 37.1137C115.034 37.2247 114.959 37.4206 114.959 37.7022C114.959 37.9062 115.027 38.0739 115.164 38.2042C115.301 38.3342 115.482 38.3987 115.71 38.3987C116.022 38.3987 116.279 38.281 116.482 38.0495C116.686 37.8158 116.786 37.5179 116.786 37.1602V36.7412ZM123.039 38.8671H122.411V36.96H120.411V38.8671H119.781V34.6659H120.411V36.3888H122.411V34.6659H123.039V38.8671ZM128.78 38.8671H128.213V35.5146C128.156 35.6328 128.072 35.7988 127.956 36.0121L126.144 38.8671H125.493V34.6659H126.068V37.9764C126.098 37.8975 126.165 37.7622 126.267 37.5703L128.129 34.6659H128.78V38.8671ZM133.916 38.8671H133.288V37.1277H132.763C132.511 37.1277 132.281 37.3461 132.074 37.7847L131.564 38.8671H130.837L131.495 37.5703C131.649 37.2694 131.833 37.0717 132.05 36.9746C131.745 36.9314 131.51 36.8112 131.35 36.6151C131.188 36.418 131.108 36.1712 131.108 35.8754C131.108 35.5054 131.234 35.2094 131.485 34.9924C131.738 34.7759 132.09 34.6657 132.544 34.6657H133.916V38.8671H133.916ZM133.288 36.5646V35.2409H132.544C132.017 35.2409 131.753 35.4547 131.753 35.8846C131.753 36.3382 132.009 36.5646 132.522 36.5646H133.288ZM45.1227 24.6617H47.7948L46.4588 15.1096L45.1227 24.6617ZM58.1963 11.7634C59.5912 11.7634 60.6288 12.1591 61.3094 12.9504C61.99 13.7417 62.3304 14.9023 62.3304 16.4315V18.887C62.3304 20.4157 61.9902 21.5763 61.3094 22.3682C60.6288 23.1597 59.5912 23.5554 58.1963 23.5554H56.8855V30.6524H54.1126V11.7634H58.1963ZM56.8853 14.4611V20.8569H58.1961C58.6335 20.8569 58.9694 20.731 59.2047 20.4792C59.4393 20.2274 59.5572 19.7595 59.5572 19.0755V16.2425C59.5572 15.5589 59.4394 15.0913 59.2047 14.8388C58.9694 14.587 58.6335 14.4611 58.1961 14.4611H56.8853ZM73.2871 23.6364V26.146C73.2871 27.6747 72.9382 28.8443 72.2405 29.6534C71.5433 30.4632 70.5143 30.8677 69.1531 30.8677C67.7918 30.8677 66.7624 30.4589 66.065 29.64C65.3672 28.8216 65.0189 27.648 65.0189 26.1184V16.2962C65.0189 14.7676 65.3672 13.5934 66.065 12.7754C66.7622 11.9564 67.7918 11.5469 69.1531 11.5469C70.5143 11.5469 71.5431 11.9564 72.2405 12.7754C72.9382 13.5934 73.2871 14.7674 73.2871 16.2962V18.1308H70.6654V16.108C70.6654 15.4243 70.5351 14.943 70.2748 14.6637C70.0142 14.3852 69.6656 14.2453 69.2287 14.2453C68.7913 14.2453 68.4432 14.3852 68.1827 14.6637C67.9223 14.943 67.792 15.4285 67.792 16.112V26.3301C67.792 27.0137 67.9223 27.4947 68.1827 27.7655C68.4432 28.0342 68.7913 28.1697 69.2287 28.1697C69.6656 28.1697 70.0142 28.0342 70.2748 27.7655C70.5351 27.4948 70.6654 27.0187 70.6654 26.335V23.6364H73.2871ZM78.8739 19.7234H82.6804V22.4223H78.8739V27.9535H83.6632V30.6522H76.101V11.7634H83.6632V14.4611H78.8739V19.7234ZM89.3765 30.6522H86.6038V11.7634H89.3765V19.8589H92.528V11.7634H95.3509V30.652H92.528V22.5564H89.3765V30.6522ZM107.744 30.6522H104.946L104.467 27.2256H101.064L100.585 30.6522H98.0394L100.862 11.7636H104.92L107.744 30.6522ZM101.417 24.6617H104.089L102.753 15.1096L101.417 24.6617ZM115.424 21.8826C115.424 23.3936 115.356 24.702 115.221 25.8078C115.087 26.9145 114.835 27.8275 114.465 28.5472C114.096 29.2663 113.588 29.7974 112.941 30.139C112.294 30.4814 111.466 30.652 110.458 30.652H110.155V27.9534H110.486C110.995 27.9534 111.406 27.8098 111.719 27.5219C112.033 27.234 112.277 26.8243 112.445 26.2944C112.612 25.7631 112.726 25.12 112.776 24.3646C112.827 23.6091 112.852 22.7635 112.852 21.8277V11.7632H120.541V30.6518H117.768V14.4611H115.424V21.8826ZM128.321 19.4538H129.984C131.379 19.4538 132.417 19.8495 133.097 20.641C133.777 21.4325 134.119 22.5929 134.119 24.122V25.9842C134.119 27.5129 133.778 28.6735 133.097 29.4651C132.417 30.2566 131.379 30.6524 129.984 30.6524H125.548V14.4611H123.254V11.7634H128.321V19.4538ZM129.984 27.9535C130.421 27.9535 130.758 27.823 130.993 27.5628C131.228 27.3016 131.346 26.8387 131.346 26.1731V23.9329C131.346 23.2673 131.228 22.8044 130.993 22.5432C130.758 22.2826 130.421 22.1524 129.984 22.1524H128.321V27.9537H129.984V27.9535Z" fill="url(#paint0_linear_726_17242)"/>
<path fill-rule="evenodd" clip-rule="evenodd" d="M19.87 13.516C19.4909 12.8981 18.9924 12.4265 18.4298 12.1002C17.7915 11.7293 17.0709 11.5454 16.3508 11.5469C15.6302 11.5472 14.9101 11.7328 14.2726 12.1012C13.7048 12.4293 13.2025 12.9016 12.823 13.5171L15.3683 17.9257L16.3458 19.6194L19.87 13.516Z" fill="#B8B9B8"/>
<path fill-rule="evenodd" clip-rule="evenodd" d="M12.5902 26.929L15.9981 32.8309H9.1825L12.5902 26.929Z" fill="url(#paint1_linear_726_17242)"/>
<path fill-rule="evenodd" clip-rule="evenodd" d="M1.67041 32.8309L5.07783 26.9297V30.8639L1.67041 32.8309Z" fill="#A7AAAB"/>
<path fill-rule="evenodd" clip-rule="evenodd" d="M5.07788 26.9297L8.48559 32.8309L5.07788 30.8639V26.9297Z" fill="#8B8E90"/>
<path fill-rule="evenodd" clip-rule="evenodd" d="M8.48555 32.8313H1.67041L5.07783 30.8643L8.48555 32.8313Z" fill="#959798"/>
<path fill-rule="evenodd" clip-rule="evenodd" d="M5.42651 26.7278H12.2411L8.83364 28.6952L5.42651 26.7278Z" fill="#A7A8AA"/>
<path fill-rule="evenodd" clip-rule="evenodd" d="M12.241 26.7278L8.83362 32.63V28.6952L12.241 26.7278Z" fill="#8A8C8D"/>
<path fill-rule="evenodd" clip-rule="evenodd" d="M8.83364 32.63L5.42651 26.7278L8.83364 28.6952V32.63Z" fill="#989A9B"/>
<path fill-rule="evenodd" clip-rule="evenodd" d="M5.42651 26.3258L8.83364 20.4238V24.3586L5.42651 26.3258Z" fill="#ACAEB0"/>
<path fill-rule="evenodd" clip-rule="evenodd" d="M8.83362 20.4238L12.2416 26.3258L8.83362 24.3586V20.4238Z" fill="#929395"/>
<path fill-rule="evenodd" clip-rule="evenodd" d="M12.2416 26.3263H5.42651L8.83364 24.3591L12.2416 26.3263Z" fill="#9B9D9F"/>
<path fill-rule="evenodd" clip-rule="evenodd" d="M20.452 26.3258L23.8592 20.4238V24.3586L20.452 26.3258Z" fill="#9EA2A3"/>
<path fill-rule="evenodd" clip-rule="evenodd" d="M23.8591 20.4238L27.2666 26.3258L23.8591 24.3586V20.4238Z" fill="#828586"/>
<path fill-rule="evenodd" clip-rule="evenodd" d="M27.2666 26.3263H20.452L23.8592 24.3591L27.2666 26.3263Z" fill="#8F9091"/>
<path fill-rule="evenodd" clip-rule="evenodd" d="M16.6958 19.8189L20.1031 13.917V17.8512L16.6958 19.8189Z" fill="#ACAEAE"/>
<path fill-rule="evenodd" clip-rule="evenodd" d="M20.1031 13.917L23.5106 19.8189L20.1031 17.8512V13.917Z" fill="#929395"/>
<path fill-rule="evenodd" clip-rule="evenodd" d="M23.5105 19.8186H16.6958L20.1031 17.8508L23.5105 19.8186Z" fill="#9B9D9F"/>
<path fill-rule="evenodd" clip-rule="evenodd" d="M9.18311 19.8189L12.5902 13.917V17.8512L9.18311 19.8189Z" fill="#B2B4B6"/>
<path fill-rule="evenodd" clip-rule="evenodd" d="M12.5902 13.917L15.9981 19.8189L12.5902 17.8512V13.917Z" fill="#989A9B"/>
<path fill-rule="evenodd" clip-rule="evenodd" d="M15.9981 19.8186H9.18311L12.5902 17.8508L15.9981 19.8186Z" fill="#A0A3A5"/>
<path fill-rule="evenodd" clip-rule="evenodd" d="M9.18311 20.2231H15.9977L12.5902 22.1902L9.18311 20.2231Z" fill="#ACAEB0"/>
<path fill-rule="evenodd" clip-rule="evenodd" d="M15.9976 20.2231L12.5902 26.1251V22.1902L15.9976 20.2231Z" fill="#929395"/>
<path fill-rule="evenodd" clip-rule="evenodd" d="M12.5902 26.1251L9.18311 20.2231L12.5902 22.1902V26.1251Z" fill="#9B9FA0"/>
<path fill-rule="evenodd" clip-rule="evenodd" d="M16.6953 20.2231H23.5099L20.1024 22.1902L16.6953 20.2231Z" fill="#A5A8AA"/>
<path fill-rule="evenodd" clip-rule="evenodd" d="M23.5098 20.2231L20.1024 26.1251V22.1902L23.5098 20.2231Z" fill="#8A8C8D"/>
<path fill-rule="evenodd" clip-rule="evenodd" d="M20.1024 26.1251L16.6953 20.2231L20.1024 22.1902V26.1251Z" fill="#979999"/>
<path fill-rule="evenodd" clip-rule="evenodd" d="M20.4513 26.7278H27.266L23.8586 28.6952L20.4513 26.7278Z" fill="#989A9B"/>
<path fill-rule="evenodd" clip-rule="evenodd" d="M27.2659 26.7278L23.8585 32.63V28.6952L27.2659 26.7278Z" fill="#7D7F81"/>
<path fill-rule="evenodd" clip-rule="evenodd" d="M23.8586 32.63L20.4513 26.7278L23.8586 28.6952V32.63Z" fill="#898A8B"/>
<path fill-rule="evenodd" clip-rule="evenodd" d="M16.6954 33.2346H23.51L20.1026 35.2021L16.6954 33.2346Z" fill="#959798"/>
<path fill-rule="evenodd" clip-rule="evenodd" d="M23.5098 33.2349L20.1024 39.1364V35.2023L23.5098 33.2349Z" fill="#76787A"/>
<path fill-rule="evenodd" clip-rule="evenodd" d="M20.1026 39.1361L16.6954 33.2346L20.1026 35.2021V39.1361Z" fill="#858889"/>
<path fill-rule="evenodd" clip-rule="evenodd" d="M20.4513 39.3365L23.859 33.4346V37.3695L20.4513 39.3365Z" fill="#8B8E90"/>
<path fill-rule="evenodd" clip-rule="evenodd" d="M23.8589 33.4346L27.2663 39.3365L23.8589 37.3695V33.4346Z" fill="#727476"/>
<path fill-rule="evenodd" clip-rule="evenodd" d="M27.2663 39.3362H20.4512L23.8589 37.3691L27.2663 39.3362Z" fill="#7B7E7F"/>
<path fill-rule="evenodd" clip-rule="evenodd" d="M24.2078 32.8309L27.6158 26.9297V30.8639L24.2078 32.8309Z" fill="#919595"/>
<path fill-rule="evenodd" clip-rule="evenodd" d="M27.6158 26.9297L31.0227 32.8309L27.6158 30.8639V26.9297Z" fill="#76787A"/>
<path fill-rule="evenodd" clip-rule="evenodd" d="M31.0226 32.8313H24.2078L27.6158 30.8643L31.0226 32.8313Z" fill="#818284"/>
<path fill-rule="evenodd" clip-rule="evenodd" d="M1.43921 33.2346H8.48548L4.66904 35.4383L1.43921 33.2346Z" fill="#A1A4A6"/>
<path fill-rule="evenodd" clip-rule="evenodd" d="M8.48551 33.2346L4.96266 39.3358L4.66907 35.4383L8.48551 33.2346Z" fill="#858889"/>
<path fill-rule="evenodd" clip-rule="evenodd" d="M19.87 13.5156L16.3458 19.619V14.6958L19.87 13.5156Z" fill="#989A9B"/>
<path fill-rule="evenodd" clip-rule="evenodd" d="M16.3458 19.6194L12.823 13.5178L16.3458 14.6963V19.6194Z" fill="#A3A6A7"/>
<path fill-rule="evenodd" clip-rule="evenodd" d="M1.43923 33.2346L4.66892 35.4385L4.96252 39.3359C1.84811 39.3458 0.00744939 35.8339 1.43923 33.2346Z" fill="#919595"/>
<path fill-rule="evenodd" clip-rule="evenodd" d="M31.2537 33.2346H24.2074L28.024 35.4383L31.2537 33.2346Z" fill="#8B8D8F"/>
<path fill-rule="evenodd" clip-rule="evenodd" d="M24.2074 33.2346L27.7301 39.3358L28.024 35.4383L24.2074 33.2346Z" fill="#7B7E7F"/>
<path fill-rule="evenodd" clip-rule="evenodd" d="M31.2537 33.2346L28.024 35.4385L27.7301 39.3359C30.845 39.3458 32.6856 35.8339 31.2537 33.2346Z" fill="#6D6F70"/>
<path fill-rule="evenodd" clip-rule="evenodd" d="M9.1825 32.8309L12.5896 26.9297V30.8639L9.1825 32.8309Z" fill="#A3CE40"/>
<path fill-rule="evenodd" clip-rule="evenodd" d="M12.5898 26.9297L15.9978 32.8309L12.5898 30.8639V26.9297Z" fill="#8FC740"/>
<path fill-rule="evenodd" clip-rule="evenodd" d="M15.9976 32.8306H9.1825L12.5896 30.8635L15.9976 32.8306Z" fill="#7DB13B"/>
</g>
<defs>
<linearGradient id="paint0_linear_726_17242" x1="87.9316" y1="-0.23881" x2="87.9316" y2="39.6609" gradientUnits="userSpaceOnUse">
<stop stop-color="#CCCECF"/>
<stop offset="1" stop-color="#6D6F70"/>
</linearGradient>
<linearGradient id="paint1_linear_726_17242" x1="11.1697" y1="30.287" x2="13.2924" y2="34.0882" gradientUnits="userSpaceOnUse">
<stop stop-color="#A3CE42"/>
<stop offset="1" stop-color="#7FC349"/>
</linearGradient>
<clipPath id="clip0_726_17242">
<rect width="141.64" height="51.5755" fill="white" transform="translate(0.946045)"/>
</clipPath>
</defs>
</svg>
