<svg width="143" height="52" viewBox="0 0 143 52" fill="none" xmlns="http://www.w3.org/2000/svg">
<g clip-path="url(#clip0_726_17199)">
<path d="M12.7567 37.8545V22.9333H15.7862V28.8126H21.7786V22.9333H24.8081V37.8545H21.7786V31.6956H15.7862V37.8545H12.7567ZM26.9121 22.9333H36.0673V25.8163H29.935V28.7393H34.8821V31.6224H29.9417V34.9515H36.0673V37.8545H26.9121V22.9333ZM41.7002 25.8163H41.0343V30.2774H41.334C42.7655 30.2774 44.3102 29.6915 44.3102 28.0269C44.3102 26.5621 43.0585 25.8163 41.7201 25.8163H41.7002ZM37.9915 37.8545V22.9333H41.7002C44.7097 22.9333 47.3131 24.8576 47.3131 28.0469C47.3131 31.2961 44.5299 33.1937 41.5404 33.1937H41.0144V37.8545H37.9915ZM51.8873 25.8163V37.8545H48.8645V22.9333H56.5681V25.8163H51.8873ZM59.4445 30.4172C59.4418 31.0656 59.5674 31.7081 59.8139 32.3079C60.0604 32.9076 60.423 33.4527 60.8809 33.9118C61.3388 34.3709 61.8829 34.735 62.482 34.9831C63.081 35.2313 63.7232 35.3585 64.3716 35.3577C65.0218 35.3583 65.6657 35.2297 66.2658 34.9794C66.8658 34.7291 67.4102 34.362 67.8672 33.8995C68.7835 32.972 69.2977 31.721 69.2987 30.4172C69.3055 29.1388 68.8299 27.9049 67.9671 26.9616C67.5108 26.4733 66.9578 26.0856 66.3434 25.8231C65.7289 25.5605 65.0664 25.429 64.3982 25.4368C63.7291 25.4289 63.0656 25.5603 62.45 25.8228C61.8344 26.0853 61.2802 26.4732 60.8227 26.9616C59.9621 27.9063 59.487 29.1393 59.4911 30.4172M56.4682 30.4172C56.4563 29.3316 56.6779 28.2561 57.1179 27.2636C57.5578 26.2711 58.206 25.3847 59.0184 24.6645C60.49 23.3369 62.3901 22.583 64.3716 22.5405C66.3641 22.5608 68.282 23.301 69.7715 24.6245C70.5839 25.3447 71.232 26.2311 71.672 27.2236C72.1119 28.2162 72.3335 29.2917 72.3216 30.3773C72.3273 31.4357 72.1137 32.4838 71.6943 33.4555C71.2749 34.4273 70.6587 35.3016 69.8847 36.0235C68.3917 37.4279 66.4213 38.2132 64.3716 38.2207C62.3219 38.2132 60.3515 37.4279 58.8585 36.0235C58.0838 35.3021 57.4672 34.4279 57.0478 33.456C56.6283 32.4841 56.4151 31.4358 56.4216 30.3773M76.5895 25.7897V37.8545H73.56V22.9333H81.8895V25.8163L76.5895 25.7897ZM88.2682 30.6503L87.0164 28.0335L85.7513 30.6503H88.2682ZM89.5399 33.4068H84.4796L82.3356 37.8545H79.0797L87.0697 21.7881L94.9797 37.8545H91.6506L89.5399 33.4068ZM99.201 25.7431H98.5352V30.2041H98.8348C100.266 30.2041 101.804 29.6249 101.804 27.9536C101.804 26.4888 100.559 25.7431 99.221 25.7431H99.201ZM95.4924 37.8545V22.8867H99.2077C102.211 22.8867 104.821 24.8176 104.821 28.0003C104.821 31.2428 102.044 33.1138 99.0412 33.1138C98.8681 33.1138 98.695 33.1138 98.5219 33.1138V37.8545H95.4924ZM111.898 30.6902L110.647 28.0735L109.382 30.6902H111.898ZM113.17 33.4467H108.103L105.966 37.8545H102.71L110.7 21.7881L118.63 37.8545H115.301L113.17 33.4467ZM119.103 37.8545V22.9333H122.132V28.8126H128.125V22.9333H131.154V37.8545H128.125V31.6956H122.132V37.8545H119.103ZM136.048 37.8545V25.8097H132.945V22.9333H142.214V25.8163H139.077V37.8545H136.048ZM0.585327 26.8018V23.3062C1.64784 22.7995 2.81056 22.5378 3.98771 22.5405C5.89082 22.5495 7.72363 23.2608 9.13455 24.538C9.92687 25.284 10.552 26.1897 10.9686 27.1951C11.3852 28.2005 11.5839 29.2828 11.5515 30.3706C11.5847 31.447 11.3967 32.5188 10.9994 33.5197C10.602 34.5206 10.0036 35.4294 9.24109 36.1899C7.85875 37.5113 6.01984 38.2483 4.10755 38.2473C2.88453 38.2561 1.67705 37.9731 0.585327 37.4217L0.585327 33.9528C1.56097 34.7997 2.79651 35.2883 4.08758 35.3377C5.11993 35.3182 6.11268 34.937 6.89267 34.2604C7.67267 33.5838 8.19039 32.6549 8.35553 31.6357H2.2965V28.8126H8.35553C8.12729 27.8277 7.56598 26.9519 6.76648 26.3332C5.96698 25.7144 4.97835 25.3907 3.96773 25.4168C2.70683 25.4397 1.50017 25.9338 0.585327 26.8018" fill="#ED4330"/>
<path d="M4.06092 18.1458C3.65234 18.3669 3.19378 18.4793 2.72927 18.4721C2.43511 18.4826 2.14206 18.4306 1.86955 18.3193C1.59704 18.208 1.35128 18.0401 1.14856 17.8267C0.945846 17.6133 0.790798 17.3592 0.693692 17.0814C0.596587 16.8035 0.559641 16.5082 0.585303 16.2149C0.570654 15.9107 0.618674 15.6066 0.726386 15.3217C0.834097 15.0367 0.999202 14.7769 1.21146 14.5584C1.42372 14.3399 1.67861 14.1674 1.96032 14.0514C2.24202 13.9355 2.54454 13.8787 2.84912 13.8845C3.23795 13.8735 3.62379 13.9557 3.97436 14.1242V14.6902C3.63494 14.4996 3.25167 14.401 2.86243 14.4039C2.63729 14.4086 2.41549 14.4593 2.21068 14.5529C2.00586 14.6465 1.82235 14.781 1.67143 14.9481C1.52051 15.1153 1.40537 15.3115 1.33309 15.5248C1.26081 15.738 1.23292 15.9638 1.25113 16.1883C1.22563 16.4124 1.24808 16.6394 1.31698 16.8542C1.38588 17.069 1.49965 17.2667 1.65076 17.4342C1.80187 17.6016 1.98686 17.7351 2.19346 17.8256C2.40006 17.9162 2.62355 17.9618 2.84912 17.9594C3.22355 17.9553 3.59055 17.8543 3.91444 17.6664L4.06092 18.1458Z" fill="#ED4330"/>
<path d="M6.37129 14.4434H5.07959V13.9241H8.38875L8.20232 14.4434H6.97054V18.4051H6.37129V14.4434Z" fill="#ED4330"/>
<path d="M9.68719 13.9242H10.606C10.9448 13.9049 11.2827 13.9762 11.5848 14.1307C11.7992 14.2539 11.9751 14.4344 12.0927 14.652C12.2103 14.8695 12.265 15.1155 12.2506 15.3624C12.2606 15.6276 12.1911 15.8897 12.0512 16.1151C11.9112 16.3405 11.707 16.5189 11.465 16.6275C11.181 16.7392 10.8778 16.7935 10.5727 16.7873H10.3197V18.4053H9.71383L9.68719 13.9242ZM10.5727 16.2946C10.7818 16.3006 10.9894 16.2573 11.1786 16.1681C11.3215 16.0911 11.4383 15.9734 11.5141 15.83C11.59 15.6866 11.6216 15.5238 11.6048 15.3624C11.6217 15.2067 11.5966 15.0492 11.5322 14.9064C11.4679 14.7636 11.3665 14.6406 11.2386 14.5501C11.0332 14.4455 10.8022 14.4016 10.5727 14.4236H10.2665V16.2946H10.5727Z" fill="#ED4330"/>
<path d="M15.0603 13.8843H15.5065L17.2309 18.4052H16.5651L16.159 17.2134H14.4212L13.995 18.3919H13.3625L15.0603 13.8843ZM15.9659 16.734L15.5464 15.5622C15.4199 15.1826 15.3533 14.9762 15.2934 14.8164L15.0337 15.5688L14.6142 16.734H15.9659Z" fill="#ED4330"/>
<path d="M19.7478 16.1546L18.2763 13.9241H18.9754L20.1273 15.6952L21.3391 13.9241H22.0183L20.4802 16.1346L21.9783 18.4051H21.2925L20.1007 16.6007L18.8489 18.4051H18.1765L19.7478 16.1546Z" fill="#ED4330"/>
<path d="M23.2234 16.1814C23.2234 15.5986 23.4549 15.0397 23.867 14.6277C24.2791 14.2156 24.8379 13.9841 25.4207 13.9841C26.0034 13.9841 26.5623 14.2156 26.9744 14.6277C27.3864 15.0397 27.6179 15.5986 27.6179 16.1814C27.6179 16.7641 27.3864 17.323 26.9744 17.735C26.5623 18.1471 26.0034 18.3786 25.4207 18.3786C24.8379 18.3786 24.2791 18.1471 23.867 17.735C23.4549 17.323 23.2234 16.7641 23.2234 16.1814ZM26.9787 16.1814C27.0036 15.9615 26.9818 15.7388 26.9147 15.528C26.8476 15.3171 26.7367 15.1228 26.5893 14.9578C26.4419 14.7927 26.2613 14.6607 26.0594 14.5703C25.8574 14.4799 25.6386 14.4331 25.4174 14.4331C25.1961 14.4331 24.9773 14.4799 24.7753 14.5703C24.5734 14.6607 24.3928 14.7927 24.2454 14.9578C24.098 15.1228 23.9871 15.3171 23.92 15.528C23.8529 15.7388 23.8311 15.9615 23.856 16.1814C23.8311 16.4012 23.8529 16.6239 23.92 16.8347C23.9871 17.0456 24.098 17.2399 24.2454 17.405C24.3928 17.57 24.5734 17.702 24.7753 17.7925C24.9773 17.8829 25.1961 17.9296 25.4174 17.9296C25.6386 17.9296 25.8574 17.8829 26.0594 17.7925C26.2613 17.702 26.4419 17.57 26.5893 17.405C26.7367 17.2399 26.8476 17.0456 26.9147 16.8347C26.9818 16.6239 27.0036 16.4012 26.9787 16.1814Z" fill="#ED4330"/>
<path d="M29.2493 13.9241H30.3745C31.32 13.9241 31.7461 14.4567 31.7461 15.0626C31.7544 15.2608 31.7046 15.4572 31.6029 15.6275C31.5012 15.7978 31.3519 15.9347 31.1735 16.0214C31.4212 16.0729 31.643 16.2098 31.8 16.4082C31.957 16.6065 32.0393 16.8538 32.0324 17.1067C32.0324 17.8391 31.5064 18.3918 30.501 18.3918H29.2493V13.9241ZM30.3079 15.8816C30.8539 15.8816 31.1469 15.602 31.1469 15.1559C31.1469 14.7097 30.9005 14.4301 30.3213 14.4301H29.8818V15.8816H30.3079ZM30.4677 17.8791C31.0537 17.8791 31.4199 17.6527 31.4199 17.1001C31.4199 16.5474 31.0736 16.3743 30.5476 16.3743H29.8818V17.8791H30.4677Z" fill="#ED4330"/>
<path d="M34.8755 13.8843H35.3283L37.0594 18.3786H36.3936L35.9741 17.2134H34.243L33.8168 18.3919H33.2109L34.8755 13.8843ZM35.7877 16.7074L35.3682 15.5355C35.2351 15.156 35.1685 14.9496 35.1152 14.7898C35.0686 14.9496 34.9954 15.1627 34.8555 15.5422L34.4361 16.7074H35.7877Z" fill="#ED4330"/>
<path d="M38.7772 16.9802C38.957 16.6473 39.0702 16.4609 39.2566 16.361C39.0131 16.2909 38.8016 16.1383 38.6582 15.9294C38.5149 15.7205 38.4487 15.4682 38.4709 15.2158C38.47 15.0291 38.5083 14.8443 38.5834 14.6734C38.6585 14.5025 38.7687 14.3493 38.9068 14.2238C39.0449 14.0982 39.2079 14.0031 39.3852 13.9445C39.5624 13.886 39.75 13.8654 39.9358 13.8841H41.1542V18.4051H40.535V16.5474H39.8692C39.736 16.5474 39.5695 16.6939 39.3765 17.0934L38.7106 18.4251H38.0448L38.7772 16.9802ZM39.9957 16.0547H40.535V14.4234H40.0023C39.884 14.4069 39.7634 14.4164 39.6492 14.4513C39.5349 14.4863 39.4296 14.5458 39.3408 14.6257C39.252 14.7057 39.1817 14.8041 39.135 14.9141C39.0882 15.0241 39.0661 15.1429 39.0702 15.2624C39.0702 15.815 39.463 16.0547 39.9757 16.0547" fill="#ED4330"/>
<path d="M46.4209 13.8843H46.867L48.5982 18.3786H47.9324L47.5196 17.2134H45.7817L45.3556 18.3919H44.7231L46.4209 13.8843ZM47.3265 16.734L46.907 15.5622C46.7805 15.1826 46.7139 14.9762 46.654 14.8164L46.3943 15.5688L45.9748 16.734H47.3265Z" fill="#ED4330"/>
<path d="M49.9829 13.9245H50.5822V15.882H51.0216C51.6874 15.882 51.774 14.9632 52.067 14.3439C52.1258 14.2046 52.2252 14.0863 52.3523 14.0043C52.4794 13.9224 52.6282 13.8806 52.7794 13.8845C52.8927 13.8822 53.0054 13.9002 53.1123 13.9378V14.4838C53.0376 14.4567 52.9587 14.4431 52.8793 14.4438C52.8104 14.441 52.7422 14.4593 52.684 14.4961C52.6257 14.533 52.58 14.5868 52.553 14.6502C52.3333 15.0564 52.2334 15.8421 51.754 16.1217C51.9737 16.1949 52.1335 16.4213 52.3266 16.7875L53.1855 18.4055H52.5197L51.754 16.9473C51.5476 16.5478 51.3812 16.408 51.2413 16.408H50.5755V18.4055H49.9763L49.9829 13.9245Z" fill="#ED4330"/>
<path d="M54.6505 13.9241H55.243V17.8924H57.367V13.9241H57.9663V17.8924H58.5123V19.6568H57.9197V18.4051H54.6505V13.9241Z" fill="#ED4330"/>
<path d="M59.9836 13.9238H60.5762V16.6337C60.5762 16.9466 60.5762 17.1664 60.5762 17.4061C60.7227 17.1863 60.9158 16.9067 61.1821 16.5671L63.1796 13.9038H63.7589V18.4048H63.173V15.595C63.173 15.2688 63.173 15.0623 63.173 14.8493C63.0198 15.069 62.8334 15.3353 62.587 15.6616L60.5096 18.4048H59.997L59.9836 13.9238Z" fill="#ED4330"/>
<path d="M65.3836 16.1814C65.3671 15.8823 65.4118 15.5829 65.515 15.3016C65.6181 15.0203 65.7776 14.763 65.9835 14.5454C66.1895 14.3278 66.4376 14.1544 66.7128 14.036C66.9881 13.9175 67.2845 13.8564 67.5841 13.8564C67.8838 13.8564 68.1802 13.9175 68.4554 14.036C68.7306 14.1544 68.9788 14.3278 69.1848 14.5454C69.3907 14.763 69.5501 15.0203 69.6533 15.3016C69.7564 15.5829 69.8012 15.8823 69.7847 16.1814C69.8012 16.4806 69.7564 16.78 69.6533 17.0613C69.5501 17.3426 69.3907 17.5999 69.1848 17.8175C68.9788 18.0351 68.7306 18.2084 68.4554 18.3269C68.1802 18.4453 67.8838 18.5064 67.5841 18.5064C67.2845 18.5064 66.9881 18.4453 66.7128 18.3269C66.4376 18.2084 66.1895 18.0351 65.9835 17.8175C65.7776 17.5999 65.6181 17.3426 65.515 17.0613C65.4118 16.78 65.3671 16.4806 65.3836 16.1814ZM69.1455 16.1814C69.1704 15.9616 69.1486 15.7389 69.0815 15.528C69.0144 15.3172 68.9035 15.1229 68.7561 14.9578C68.6087 14.7928 68.4281 14.6607 68.2262 14.5703C68.0242 14.4799 67.8054 14.4332 67.5841 14.4332C67.3629 14.4332 67.1441 14.4799 66.9421 14.5703C66.7401 14.6607 66.5596 14.7928 66.4122 14.9578C66.2648 15.1229 66.1539 15.3172 66.0868 15.528C66.0197 15.7389 65.9979 15.9616 66.0228 16.1814C65.9979 16.4013 66.0197 16.624 66.0868 16.8348C66.1539 17.0457 66.2648 17.24 66.4122 17.405C66.5596 17.5701 66.7401 17.7021 66.9421 17.7925C67.1441 17.8829 67.3629 17.9297 67.5841 17.9297C67.8054 17.9297 68.0242 17.8829 68.2262 17.7925C68.4281 17.7021 68.6087 17.5701 68.7561 17.405C68.9035 17.24 69.0144 17.0457 69.0815 16.8348C69.1486 16.624 69.1704 16.4013 69.1455 16.1814Z" fill="#ED4330"/>
<path d="M71.4295 13.9241H72.0288V15.855H74.3725V13.9241H74.9717V18.4051H74.3725V16.3743H72.0288V18.4051H71.4295V13.9241Z" fill="#ED4330"/>
<path d="M76.8225 13.9241H79.0797L78.8999 14.4434H77.4284V15.8616H78.8866V16.381H77.4284V17.8924H79.1063V18.4051H76.8225V13.9241Z" fill="#ED4330"/>
<path d="M80.7842 13.9244H81.6964C82.0353 13.9045 82.3733 13.9757 82.6752 14.1308C82.8896 14.2541 83.0655 14.4346 83.1831 14.6522C83.3007 14.8697 83.3554 15.1157 83.341 15.3626C83.351 15.6278 83.2815 15.8898 83.1416 16.1152C83.0016 16.3406 82.7974 16.5191 82.5553 16.6277C82.2635 16.7443 81.9506 16.7988 81.6365 16.7875H81.3768V18.4055H80.7776L80.7842 13.9244ZM81.6831 16.2948C81.8924 16.3026 82.1004 16.2592 82.289 16.1683C82.4319 16.0913 82.5486 15.9736 82.6245 15.8302C82.7004 15.6868 82.7319 15.524 82.7151 15.3626C82.726 15.2066 82.6954 15.0505 82.6264 14.9102C82.5574 14.7698 82.4525 14.6503 82.3223 14.5636C82.1178 14.4558 81.8871 14.4073 81.6565 14.4238H81.3502V16.2948H81.6831Z" fill="#ED4330"/>
<path d="M84.9255 13.9241H85.5314V15.855H87.8752V13.9241H88.4677V18.4051H87.8752V16.3743H85.5314V18.4051H84.9255V13.9241Z" fill="#ED4330"/>
<path d="M91.5507 13.8843H91.9968L93.7346 18.3786H93.0688L92.6493 17.2134H90.9115L90.472 18.4052H89.8062L91.5507 13.8843ZM92.4695 16.734L92.05 15.5622L91.8037 14.8164C91.7571 14.9762 91.6772 15.1893 91.544 15.5688L91.1245 16.734H92.4695Z" fill="#ED4330"/>
<path d="M95.4525 16.9802C95.5488 16.7335 95.7126 16.5189 95.9252 16.361C95.6811 16.291 95.4688 16.1387 95.3244 15.9299C95.1799 15.7211 95.1123 15.4688 95.1329 15.2157C95.1318 15.0284 95.1703 14.843 95.2458 14.6716C95.3213 14.5002 95.4321 14.3467 95.571 14.221C95.7098 14.0953 95.8736 14.0004 96.0517 13.9423C96.2298 13.8842 96.4181 13.8644 96.6043 13.8841H97.8228V18.405H97.2236V16.5474H96.5577C96.4179 16.5474 96.2581 16.6939 96.065 17.0934L95.3992 18.425H94.7001L95.4525 16.9802ZM96.6709 16.0547H97.2302V14.4234H96.6909C96.5754 14.4119 96.4588 14.4253 96.349 14.4626C96.2391 14.5 96.1385 14.5604 96.054 14.6399C95.9694 14.7194 95.9029 14.8161 95.8589 14.9235C95.8148 15.0308 95.7943 15.1464 95.7987 15.2623C95.7987 15.815 96.1915 16.0547 96.7042 16.0547" fill="#ED4330"/>
<path d="M101.864 13.9245H102.464V15.8821H102.903C103.569 15.8821 103.655 14.9632 103.955 14.344C104.013 14.2052 104.111 14.0871 104.237 14.0051C104.363 13.9232 104.511 13.8811 104.661 13.8846C104.774 13.8817 104.887 13.8997 104.994 13.9379V14.4838C104.922 14.456 104.845 14.4425 104.767 14.4439C104.698 14.4406 104.628 14.4586 104.569 14.4955C104.51 14.5323 104.463 14.5863 104.434 14.6503C104.215 15.0564 104.115 15.8421 103.642 16.1218C103.855 16.195 104.022 16.4214 104.208 16.7876L105.074 18.3989H104.408L103.635 16.9474C103.429 16.5479 103.263 16.4081 103.129 16.4081H102.464V18.4056H101.864V13.9245Z" fill="#ED4330"/>
<path d="M106.325 16.1814C106.325 15.5986 106.557 15.0397 106.969 14.6277C107.381 14.2156 107.94 13.9841 108.523 13.9841C109.105 13.9841 109.664 14.2156 110.076 14.6277C110.488 15.0397 110.72 15.5986 110.72 16.1814C110.72 16.7641 110.488 17.323 110.076 17.735C109.664 18.1471 109.105 18.3786 108.523 18.3786C107.94 18.3786 107.381 18.1471 106.969 17.735C106.557 17.323 106.325 16.7641 106.325 16.1814ZM110.081 16.1814C110.106 15.9615 110.084 15.7388 110.017 15.528C109.95 15.3171 109.839 15.1228 109.691 14.9578C109.544 14.7927 109.363 14.6607 109.161 14.5703C108.959 14.4799 108.741 14.4331 108.519 14.4331C108.298 14.4331 108.079 14.4799 107.877 14.5703C107.675 14.6607 107.495 14.7927 107.347 14.9578C107.2 15.1228 107.089 15.3171 107.022 15.528C106.955 15.7388 106.933 15.9615 106.958 16.1814C106.933 16.4012 106.955 16.6239 107.022 16.8347C107.089 17.0456 107.2 17.2399 107.347 17.405C107.495 17.57 107.675 17.702 107.877 17.7925C108.079 17.8829 108.298 17.9296 108.519 17.9296C108.741 17.9296 108.959 17.8829 109.161 17.7925C109.363 17.702 109.544 17.57 109.691 17.405C109.839 17.2399 109.95 17.0456 110.017 16.8347C110.084 16.6239 110.106 16.4012 110.081 16.1814Z" fill="#ED4330"/>
<path d="M112.365 13.9244H112.924L114.142 15.7488C114.322 16.0218 114.435 16.1883 114.548 16.3747C114.648 16.1949 114.768 15.9952 114.941 15.7089L116.08 13.9111H116.632V18.4055H116.04V15.6423C116.04 15.4292 116.04 15.1562 116.04 14.9298C115.947 15.103 115.8 15.336 115.72 15.4625L114.688 17.1071H114.389L113.257 15.4292C113.147 15.2734 113.047 15.1111 112.957 14.9432C112.957 15.1429 112.957 15.4359 112.957 15.609V18.4055H112.351L112.365 13.9244Z" fill="#ED4330"/>
<path d="M118.503 13.9241H121.859V18.4051H121.26V14.4434H119.096V18.4051H118.503V13.9241Z" fill="#ED4330"/>
<path d="M124.935 13.8843H125.381L127.092 18.4052H126.427L126.034 17.2134H124.303L123.876 18.3919H123.211L124.935 13.8843ZM125.841 16.7074L125.421 15.5355L125.175 14.7898C125.128 14.9496 125.048 15.1627 124.915 15.5422L124.496 16.7074H125.841Z" fill="#ED4330"/>
<path d="M128.497 13.9241H129.103V15.855H131.447V13.9241H132.04V18.4051H131.447V16.3743H129.103V18.4051H128.497V13.9241Z" fill="#ED4330"/>
<path d="M133.897 13.9238H134.496V16.6337C134.496 16.9466 134.496 17.1664 134.496 17.4061C134.643 17.1863 134.829 16.9067 135.096 16.5671L137.093 13.9038H137.679V18.4048H137.08V15.595C137.08 15.2688 137.08 15.0623 137.08 14.8493C136.933 15.069 136.74 15.3353 136.501 15.6616L134.417 18.4048H133.904L133.897 13.9238Z" fill="#ED4330"/>
<path d="M139.85 16.9802C139.946 16.7336 140.11 16.519 140.322 16.361C140.081 16.2885 139.872 16.1352 139.73 15.9266C139.588 15.7181 139.522 15.4671 139.543 15.2158C139.543 15.0291 139.581 14.8443 139.656 14.6734C139.731 14.5025 139.841 14.3493 139.979 14.2238C140.117 14.0982 140.28 14.0031 140.458 13.9445C140.635 13.886 140.823 13.8654 141.008 13.8841H142.227V18.4051H141.627V16.5474H140.962C140.829 16.5474 140.662 16.6939 140.469 17.0934L139.803 18.4251H139.104L139.85 16.9802ZM141.075 16.0547H141.634V14.4234H141.075C140.957 14.4067 140.837 14.4162 140.723 14.4512C140.609 14.4862 140.504 14.5458 140.415 14.6259C140.327 14.7059 140.257 14.8045 140.211 14.9145C140.165 15.0245 140.144 15.1433 140.149 15.2624C140.149 15.815 140.542 16.0547 141.055 16.0547" fill="#ED4330"/>
</g>
<defs>
<clipPath id="clip0_726_17199">
<rect width="141.64" height="51.5755" fill="white" transform="translate(0.586304)"/>
</clipPath>
</defs>
</svg>
