<svg width="142" height="53" viewBox="0 0 142 53" fill="none" xmlns="http://www.w3.org/2000/svg">
<mask id="mask0_726_16937" style="mask-type:alpha" maskUnits="userSpaceOnUse" x="0" y="12" width="134" height="30">
<path d="M0 12.1226H133.013V41.3744H0V12.1226Z" fill="white"/>
</mask>
<g mask="url(#mask0_726_16937)">
<path fill-rule="evenodd" clip-rule="evenodd" d="M19.0979 28.1852C17.9959 30.6547 15.5715 32.3677 12.7566 32.3677C8.90286 32.3677 5.78119 29.1648 5.78119 25.2144C5.78119 21.2607 8.9035 18.0566 12.7566 18.0566C15.5715 18.0566 17.9959 19.7714 19.0979 22.2358V13.8567C17.1776 12.7213 14.9875 12.1224 12.7566 12.1226C5.71159 12.1226 -0.000732422 17.9831 -0.000732422 25.2137C-0.000732422 32.4411 5.71159 38.3023 12.7566 38.3023C15.0669 38.3023 17.229 37.6708 19.0979 36.5688V28.1852Z" fill="#3CB3E7"/>
<path fill-rule="evenodd" clip-rule="evenodd" d="M101.774 34.3613C101.774 36.0381 102.904 37.0744 104.285 37.0744C105.563 37.0744 106.513 36.2211 106.913 35.2764V33.4475C106.513 32.5014 105.563 31.6488 104.285 31.6488C102.904 31.6488 101.774 32.6845 101.774 34.3619V34.3613ZM107.032 31.9221V30.7022H108.101V38.0198H106.913V36.921C106.393 37.5474 105.517 38.2021 104.15 38.2021C102.113 38.2021 100.586 36.5569 100.586 34.3613C100.586 32.1663 102.113 30.5204 104.15 30.5204C105.517 30.5204 106.393 31.1758 107.032 31.9221ZM84.2522 30.7022L81.637 34.255L84.4004 38.0198H83.0342L80.9533 35.123L78.8588 38.0198H77.4913L80.2702 34.255L77.6408 30.7022H79.0064L80.9533 33.4011L82.8866 30.7022H84.2522ZM88.2367 31.6785C86.7816 31.6785 85.6235 32.669 85.6235 34.3613C85.6235 36.0536 86.7816 37.0441 88.2367 37.0441C89.6925 37.0441 90.8519 36.0536 90.8519 34.3613C90.8519 32.669 89.6925 31.6785 88.2367 31.6785ZM88.2367 30.5198C90.1836 30.5198 92.0409 31.8615 92.0409 34.3613C92.0409 36.8617 90.1836 38.2021 88.2367 38.2021C86.3073 38.2021 84.4345 36.8617 84.4345 34.3613C84.4345 31.8615 86.3073 30.5204 88.2367 30.5204V30.5198ZM94.5645 36.9532H97.2402C97.982 36.9532 98.5175 36.7251 98.5175 35.917C98.5175 35.0457 97.8776 34.8504 97.2827 34.8504H94.5645V36.9532ZM94.5645 33.798H97.1635C97.7873 33.798 98.2784 33.5538 98.2784 32.8069C98.2784 31.9827 97.6675 31.7681 97.1635 31.7681H94.5645V33.798ZM93.3768 38.0204V30.7022H97.2827C98.531 30.7022 99.4816 31.3878 99.4816 32.6845C99.4816 33.4475 99.0672 34.0571 98.531 34.2994C99.1104 34.4979 99.7045 35.0779 99.7045 35.9924C99.7045 37.1955 98.9473 38.0204 97.4026 38.0204H93.3768ZM109.898 38.0204V30.7022H111.087V33.7974H115.216V30.7022H116.404V38.0204H115.216V34.9252H111.087V38.0204H109.898ZM118.077 38.0204V30.7022H119.263V36.0529L123.631 30.7022H124.641V38.0204H123.453V32.6677L119.087 38.0198H118.077V38.0204Z" fill="#3CB3E7"/>
</g>
<mask id="mask1_726_16937" style="mask-type:alpha" maskUnits="userSpaceOnUse" x="0" y="12" width="134" height="30">
<path d="M0 12.1226H133.013V41.3744H0" fill="white"/>
</mask>
<g mask="url(#mask1_726_16937)">
<path fill-rule="evenodd" clip-rule="evenodd" d="M129.674 31.6475C128.455 31.6475 127.327 32.3951 127.238 33.8264H131.857C131.961 33.0498 131.486 31.6482 129.674 31.6482V31.6475ZM129.599 30.5198C132.347 30.5198 133.358 32.8217 132.911 34.8968H127.238C127.385 36.4357 128.738 37.075 130.178 37.075C131.056 37.075 131.916 36.8301 132.527 36.4802V37.6692C131.873 38.0204 130.938 38.2028 130 38.2028C127.891 38.2028 126.049 36.968 126.049 34.3613C126.049 31.8003 127.906 30.5198 129.599 30.5198Z" fill="#3CB3E7"/>
<path fill-rule="evenodd" clip-rule="evenodd" d="M104.588 23.3995V17.6492H102.227V15.7964H109.079V17.6492H106.717V23.3995H104.588ZM97.7609 21.8825C96.541 21.8825 95.8611 20.7695 95.8611 19.5973C95.8611 18.4257 96.541 17.3121 97.7609 17.3121C98.9957 17.3121 99.6723 18.4257 99.6723 19.5973C99.6723 20.7695 98.9957 21.8825 97.7609 21.8825ZM97.7609 15.5754C95.8804 15.5754 94.1546 16.6206 93.7564 18.6712H92.5861V15.797H90.4407V23.3989H92.5861V20.5234H93.7564C94.1546 22.574 95.8804 23.6218 97.7609 23.6218C99.9217 23.6218 101.851 22.2582 101.851 19.5973C101.851 16.9358 99.9217 15.576 97.7609 15.576V15.5754ZM86.556 15.7964H82.8627L82.0391 20.6013C81.9257 21.2587 81.4714 21.6434 80.8637 21.5339V23.4214C80.9004 23.4298 80.9365 23.4388 80.9752 23.4446C82.6971 23.7578 83.8378 22.8034 84.1458 21.0009L84.722 17.6498H86.556V23.3995H88.7027V15.7964H86.556ZM19.125 37.9104H25.541V11.73H19.125V37.9104ZM36.5507 34.4729C36.5507 36.5661 34.8964 38.2622 32.8593 38.2622C30.819 38.2622 29.1667 36.5661 29.1667 34.4729C29.1667 32.3804 30.8184 30.683 32.8593 30.683C34.8957 30.683 36.5507 32.3804 36.5507 34.4729ZM76.2882 17.3547C75.0702 17.3547 74.3903 18.4683 74.3903 19.6398C74.3903 20.8114 75.0702 21.925 76.2882 21.925C77.5229 21.925 78.2021 20.8114 78.2021 19.6398C78.2021 18.4683 77.5229 17.3547 76.2882 17.3547ZM76.2882 15.6179C78.4509 15.6179 80.3797 16.9777 80.3797 19.6392C80.3797 22.3007 78.4509 23.6644 76.2882 23.6644C74.1428 23.6644 72.1979 22.3007 72.1979 19.6398C72.1979 16.9783 74.1428 15.6179 76.2882 15.6179Z" fill="#1D4382"/>
<path fill-rule="evenodd" clip-rule="evenodd" d="M49.455 26.7949C50.4958 26.7949 51.5063 27.0392 52.384 27.5102V28.7914C51.6261 28.2739 50.6427 28.0136 49.6644 28.0136C47.5088 28.0136 45.2661 29.3398 45.252 32.3893C45.2365 35.2403 47.5533 36.613 49.7089 36.613C50.778 36.613 51.7415 36.3546 52.4568 35.8345V37.1143C51.5945 37.5719 50.5557 37.8316 49.4402 37.8316C46.8263 37.8316 43.974 35.9421 43.9882 32.39C44.0037 28.6864 46.7516 26.7949 49.455 26.7949Z" fill="#3CB3E7"/>
<path fill-rule="evenodd" clip-rule="evenodd" d="M54.7452 38.0001V31.8102H52.1158V30.6824H58.5512V31.8102H55.9348V38.0007H54.7452V38.0001ZM64.0612 31.3243C62.7833 31.3243 61.8347 32.1782 61.4325 33.1242V34.9531C61.8347 35.8979 62.7833 36.7518 64.0618 36.7518C65.4442 36.7518 66.5726 35.7142 66.5726 34.038C66.5726 32.3612 65.4442 31.3249 64.0612 31.3249V31.3243ZM64.1959 30.1965C66.2304 30.1965 67.7616 31.8431 67.7616 34.0374C67.7616 36.233 66.2304 37.8796 64.1959 37.8796C62.8303 37.8796 61.9545 37.2248 61.4325 36.5984V41.0502H60.2448V30.3783H61.3152V31.5982C61.9545 30.8519 62.8303 30.1965 64.1959 30.1965ZM69.5609 34.038C69.5609 35.7149 70.6912 36.7511 72.0735 36.7511C73.3495 36.7511 74.3001 35.8979 74.7022 34.9531V33.1229C74.3001 32.1775 73.3495 31.3249 72.0735 31.3249C70.6912 31.3249 69.5609 32.3606 69.5609 34.038ZM74.8214 31.5982V30.3796H75.8899V37.6972H74.7022V36.5984C74.1821 37.2242 73.3044 37.8796 71.9388 37.8796C69.9024 37.8796 68.3731 36.2343 68.3731 34.0387C68.3731 31.8431 69.9024 30.1972 71.9388 30.1972C73.3044 30.1972 74.1821 30.8526 74.8214 31.5988V31.5982Z" fill="#3CB3E7"/>
<path fill-rule="evenodd" clip-rule="evenodd" d="M59.8943 21.8203C58.6596 21.8203 57.9739 20.9129 57.9739 19.8342C57.9739 18.7547 58.6596 17.7526 59.8943 17.7526C61.1446 17.7526 61.8309 18.7547 61.8309 19.8342C61.8309 20.9129 61.1446 21.8203 59.8943 21.8203ZM59.971 16.1325C59.2557 16.1325 58.5591 16.3458 57.9514 16.6873C58.1621 16.1061 58.6061 15.5402 59.4716 15.2212C60.814 14.7276 62.9941 14.6367 63.3144 14.087V12.2162C62.5862 12.9419 59.8093 12.7672 58.0557 13.9208C56.781 14.7605 55.8273 16.7196 55.9529 19.5467C55.9529 22.1361 57.7857 23.5384 59.971 23.5384C62.0706 23.5384 63.944 22.2837 63.944 19.8348C63.944 17.3846 62.0706 16.1325 59.971 16.1325ZM48.5109 18.9049C49.3062 16.775 50.0937 14.6271 50.1324 14.4183C50.1704 14.6271 50.9553 16.775 51.7454 18.9049H48.5103H48.5109ZM53.3881 23.3045H55.7815L51.3839 12.2156H48.8821L44.4664 23.3045H46.8599C46.8599 23.3045 47.2794 22.1928 47.8175 20.7589H52.4375C52.9698 22.1928 53.3881 23.3045 53.3881 23.3045ZM69.2097 15.6176C70.0262 15.6176 70.7544 15.8083 71.4189 16.1731V17.964C70.8924 17.5825 70.2286 17.3711 69.5165 17.3711C68.3449 17.3711 67.2165 18.1206 67.2165 19.6569C67.2165 21.1147 68.3307 21.9421 69.4855 21.9421C70.2737 21.9421 70.9562 21.7301 71.4949 21.3673V23.1743C70.7324 23.5148 69.9056 23.6877 69.0705 23.6815C67.0476 23.6815 65.026 22.4764 65.026 19.7684C65.026 16.8536 67.154 15.6176 69.2097 15.6176Z" fill="#1D4382"/>
</g>
</svg>
