<svg width="143" height="53" viewBox="0 0 143 53" fill="none" xmlns="http://www.w3.org/2000/svg">
<g clip-path="url(#clip0_726_16918)">
<path d="M58.0749 17.6369L60.1446 15.9709H53.2166V25.9781H60.1446V24.3121H55.1937V21.7496H59.4173V20.0836H55.1937V17.6369H58.0749Z" fill="#2A9F3E"/>
<path d="M46.7751 24.3087H44.5621V21.5348H46.7751C48.1223 21.5348 48.7501 21.9984 48.7501 22.9212C48.7501 23.8644 48.0854 24.3087 46.7751 24.3087ZM47.1448 19.8688H44.5621V17.6369H48.6853L50.9072 15.9709H42.4396V25.9781H46.8711C49.3567 25.9781 50.781 24.8327 50.781 22.8348C50.781 20.9245 49.4896 19.8722 47.1437 19.8722" fill="#2A9F3E"/>
<path d="M66.1739 21.475H64.0637V17.6398H66.1739C67.698 17.6398 68.5384 18.3214 68.5384 19.5596C68.5384 20.7979 67.698 21.4784 66.1739 21.4784V21.475ZM66.224 15.9744H61.6842V25.9781H64.0637V23.1415H66.224C69.122 23.1415 70.9216 21.7589 70.9216 19.5517C70.9216 17.3444 69.122 15.9709 66.224 15.9709" fill="#2A9F3E"/>
<path d="M39.0095 23.7386C38.4331 24.0411 37.7872 24.1977 37.1316 24.1941C35.17 24.1941 33.7456 22.84 33.7456 20.9729C33.7456 19.1058 35.17 17.7517 37.1316 17.7517C37.8402 17.7417 38.5335 17.9513 39.1103 18.35L40.671 17.2419L40.5679 17.1544C39.6519 16.3787 38.4392 15.9709 37.0468 15.9709C35.5376 15.9709 34.1669 16.4629 33.189 17.3583C32.2111 18.2536 31.6626 19.5202 31.6626 20.9186C31.6626 22.317 32.202 23.6102 33.1833 24.5376C34.1646 25.4651 35.5342 25.9781 37.0331 25.9781C38.6018 25.9781 39.9713 25.4485 40.9 24.4855L39.4915 23.4838L39.0095 23.7386Z" fill="#2A9F3E"/>
<path d="M40.9 38.6122C40.7459 38.7835 40.5645 38.9319 40.3631 39.0524C40.106 39.2085 39.8316 39.3383 39.5452 39.4398C39.2043 39.5631 38.8522 39.6582 38.494 39.7237C38.0847 39.7997 37.6681 39.8367 37.2508 39.8338C36.4714 39.8433 35.6953 39.7264 34.9578 39.4882C34.3053 39.2763 33.7066 38.939 33.1996 38.4977C32.7066 38.0563 32.3205 37.5198 32.0674 36.925C31.7883 36.2549 31.6508 35.5396 31.6634 34.8197C31.6548 34.1318 31.7896 33.449 32.0607 32.8101C32.3139 32.2132 32.6993 31.6738 33.1903 31.2275C33.7 30.7734 34.3033 30.4225 34.9624 30.1962C35.7046 29.9426 36.4893 29.818 37.2787 29.8287C37.987 29.8137 38.6927 29.9097 39.3678 30.1126C39.8349 30.252 40.2801 30.4501 40.6914 30.7014V33.1116C40.5199 32.8856 40.3239 32.6768 40.1073 32.4887C39.8701 32.2808 39.609 32.0995 39.3279 31.9483C39.0262 31.7861 38.706 31.6582 38.3724 31.5675C38.0163 31.4696 37.6475 31.4207 37.2767 31.4223C36.7584 31.4145 36.2428 31.4989 35.7578 31.671C35.3285 31.824 34.9372 32.0602 34.6109 32.3643C34.2907 32.6685 34.0448 33.0347 33.89 33.4374C33.7186 33.8835 33.6335 34.3552 33.6402 34.8296C33.6382 35.279 33.7172 35.7255 33.8734 36.1502C34.0169 36.5557 34.2528 36.9269 34.5637 37.238C34.8747 37.5492 35.2541 37.7928 35.6747 37.9519C36.1711 38.1396 36.7 38.236 37.2342 38.2358C37.6528 38.2393 38.0694 38.1927 38.4754 38.0971C38.8329 38.012 39.1784 37.8864 39.504 37.7229C39.8023 37.5756 40.0774 37.3904 40.3219 37.1726C40.5492 36.9705 40.7425 36.7371 40.8954 36.4804L40.9 38.6122Z" fill="#2A9F3E"/>
<path d="M50.1374 31.4706H46.7667V39.8343H44.982V31.4706H41.6698V29.8271H50.1374V31.4706Z" fill="#2A9F3E"/>
<path d="M52.6617 36.7178V39.8343H50.9072V29.8271H54.1797C55.7349 29.8271 56.8612 30.1107 57.5592 30.6778C58.2573 31.2449 58.6057 32.0907 58.6051 33.2151C58.6051 34.3872 58.2307 35.264 57.4812 35.8455C56.7318 36.4271 55.6315 36.7178 54.1797 36.7178H52.6617ZM52.6617 31.4706V35.0732H54.3059C55.1296 35.0732 55.7479 34.9278 56.16 34.6371C56.5722 34.3463 56.7782 33.858 56.7782 33.172C56.7782 32.5533 56.5864 32.1149 56.2021 31.8567C55.8184 31.5985 55.1952 31.4698 54.3338 31.4706H52.6617Z" fill="#2A9F3E"/>
<path d="M69.382 39.8343H67.3736L66.3627 37.4606H61.5198L60.523 39.8343H58.605L62.8956 29.8271H65.0385L69.382 39.8343ZM65.6651 35.8172L63.9305 31.7136L62.198 35.8172H65.6651Z" fill="#2A9F3E"/>
<path d="M72.747 34.745L69.5574 29.8271H71.5761L73.9854 33.6149L76.5471 29.8271H78.4988L75.1332 34.6451L78.6194 39.8343H76.6108L73.9374 35.8024L71.3526 39.8343H69.382L72.747 34.745Z" fill="#2A9F3E"/>
<path d="M79.3899 34.8187C79.3825 34.1311 79.5018 33.4484 79.743 32.8078C79.9693 32.2139 80.3125 31.6757 80.7508 31.2275C81.2015 30.7746 81.738 30.4233 82.3254 30.1956C82.9869 29.9415 83.6881 29.8168 84.3937 29.8278C85.09 29.8187 85.7819 29.9353 86.4396 30.1725C87.0277 30.3847 87.5667 30.7223 88.0217 31.1637C88.4656 31.6054 88.8112 32.1425 89.035 32.7374C89.2849 33.4089 89.4074 34.1242 89.3956 34.8441C89.403 35.5313 89.2831 36.2137 89.0425 36.8539C88.8168 37.4481 88.473 37.9865 88.0341 38.4341C87.5822 38.8885 87.0438 39.2403 86.4539 39.4671C85.7937 39.7191 85.0949 39.8435 84.3918 39.8338C83.6956 39.8422 83.0024 39.7275 82.3435 39.4946C81.7547 39.2866 81.2158 38.951 80.7613 38.5101C80.3168 38.0667 79.9706 37.5273 79.748 36.9298C79.5 36.2564 79.3781 35.5397 79.3899 34.8187ZM81.1505 34.832C81.1492 35.285 81.2207 35.7351 81.3625 36.1633C81.493 36.5653 81.7044 36.9336 81.9829 37.2437C82.2707 37.5577 82.6182 37.8057 83.0037 37.9716C83.887 38.3255 84.8643 38.3329 85.7526 37.9925C86.1331 37.8366 86.4781 37.6008 86.7666 37.2998C87.0532 36.9934 87.2738 36.627 87.4143 36.225C87.5691 35.7785 87.6462 35.3067 87.6412 34.832C87.6425 34.3793 87.5704 33.9296 87.4286 33.5016C87.2987 33.0992 87.0867 32.7305 86.8076 32.4202C86.5198 32.1068 86.1729 31.8589 85.7881 31.6922C85.3411 31.5038 84.8618 31.412 84.38 31.4224C83.9194 31.4151 83.4612 31.4996 83.0316 31.6713C82.6474 31.8246 82.2999 32.0625 82.0134 32.3688C81.7261 32.6752 81.5067 33.0425 81.3699 33.4455C81.2195 33.8906 81.1449 34.36 81.1505 34.832Z" fill="#2A9F3E"/>
<path d="M91.7058 39.8327V29.8271H95.8745C98.0311 29.8271 99.1095 30.6561 99.1095 32.3141C99.1272 32.8147 99.0082 33.3103 98.7676 33.7437C98.5387 34.1223 98.1778 34.4126 97.684 34.6147C98.2784 34.7207 98.7143 34.9664 98.9911 35.3517C99.2673 35.7371 99.4047 36.2587 99.4027 36.9165C99.4139 37.3746 99.3245 37.8294 99.1423 38.2463C98.9734 38.6116 98.7156 38.9247 98.3947 39.1547C98.0371 39.4035 97.6366 39.5781 97.2152 39.6692C96.6997 39.785 96.173 39.8402 95.6457 39.8339L91.7058 39.8327ZM95.6272 34.0572C96.1763 34.0572 96.6083 33.9384 96.9232 33.7006C97.0758 33.5882 97.1994 33.4378 97.2816 33.2631C97.3644 33.0883 97.4039 32.8948 97.396 32.7002C97.4058 32.5248 97.3743 32.3496 97.3033 32.19C97.2329 32.0304 97.1264 31.8913 96.9923 31.7849C96.722 31.576 96.2808 31.4711 95.6687 31.4703H93.4206V34.0572H95.6272ZM95.7515 38.1884C96.409 38.1884 96.8936 38.0749 97.2046 37.8477C97.515 37.6206 97.6708 37.2659 97.6708 36.7837C97.6708 36.2977 97.5064 35.9543 97.177 35.7537C96.8483 35.5531 96.3821 35.4532 95.7785 35.4539H93.4206V38.1793L95.7515 38.1884Z" fill="#2A9F3E"/>
<path d="M110.181 39.8343H108.46L107.593 37.4606H103.441L102.587 39.8343H100.943L104.616 29.8271H106.453L110.181 39.8343ZM106.995 35.8172L105.511 31.7136L104.023 35.8172H106.995Z" fill="#2A9F3E"/>
<path d="M118.515 35.5025H113.392V39.8343H111.72V29.8271H113.392V33.858H118.515V29.8271H120.188V39.8343H118.515V35.5025Z" fill="#2A9F3E"/>
<path d="M124.909 37.3039L129.943 29.8271H131.734V39.8343H130.093V32.2429L125.032 39.8343H123.267V29.8271H124.914L124.909 37.3039Z" fill="#2A9F3E"/>
<path d="M141.139 35.5025H137.138V38.1897H141.742V39.8343H135.583V29.8271H141.604V31.4706H137.138V33.8557H141.144L141.139 35.5025Z" fill="#2A9F3E"/>
<path d="M26.3669 17.5105C26.9402 18.3458 27.4257 19.2532 27.8137 20.2145L16.2449 29.827L11.6482 26.5763V22.6705L16.2449 25.9194L26.3669 17.5105Z" fill="#2A9F3E"/>
<path d="M25.724 15.4253C23.2025 12.9083 20.0077 11.6064 16.4488 11.3815C12.89 11.1567 9.37106 12.2351 6.5517 14.4147C3.73236 16.5943 1.80608 19.7255 1.1339 23.2213C0.461726 26.7171 1.08979 30.3377 2.90039 33.4043C4.71099 36.471 7.57983 38.7733 10.9692 39.8797C14.3585 40.9861 18.0358 40.8206 21.3118 39.4143C24.5877 38.0081 27.2373 35.4574 28.7643 32.2406C30.2911 29.0237 30.5106 25.2339 29.5262 21.8126L26.1878 24.2194C26.9101 26.7296 26.3584 28.2127 25.2381 30.5729C24.1179 32.9331 22.1738 34.8045 19.7703 35.8362C17.3667 36.868 14.6687 36.9894 12.1819 36.1776C9.69521 35.3659 7.59036 33.6767 6.26193 31.4267C4.9335 29.1767 4.4727 26.5204 4.96587 23.9555C5.45904 21.3906 6.87234 19.0933 8.94088 17.4941C11.0094 15.895 13.5912 15.1037 16.2024 15.2687C18.8134 15.4337 20.721 15.8928 22.5711 17.7395L25.724 15.4253Z" fill="#2A9F3E"/>
</g>
<defs>
<clipPath id="clip0_726_16918">
<rect width="141.64" height="51.5755" fill="white" transform="translate(0.640259 0.575684)"/>
</clipPath>
</defs>
</svg>
