<svg width="143" height="53" viewBox="0 0 143 53" fill="none" xmlns="http://www.w3.org/2000/svg">
<g clip-path="url(#clip0_726_16873)">
<path d="M13.4605 20.2932C12.2287 20.2932 11.3153 20.8311 10.5863 21.9832C9.81106 23.2105 9.41736 24.9287 9.41736 27.091C9.41736 29.4492 9.78897 31.2555 10.5218 32.4608C11.2213 33.612 12.1702 34.1692 13.4258 34.1692C14.5034 34.1692 15.4602 33.6086 16.1926 32.5461C16.9125 31.5034 17.5053 29.6929 18.1113 26.698C17.6283 24.4831 16.9544 22.7596 16.157 21.7164C15.4125 20.7449 14.5562 20.2932 13.4605 20.2932Z" fill="#CF0A2C"/>
<path fill-rule="evenodd" clip-rule="evenodd" d="M9.04009 12.6089H20.9616C25.7891 12.6089 29.7187 16.5002 29.7187 21.2823V33.0895C29.7187 37.8703 25.7891 41.7629 20.9616 41.7629H9.04009C4.20869 41.7629 0.280762 37.8703 0.280762 33.0895V21.2823C0.280762 16.5002 4.20869 12.6089 9.04009 12.6089ZM25.7657 34.9026C26.1944 34.1536 26.3694 33.2246 26.3694 31.6963V30.769H24.2927L24.2823 30.8989C24.2408 31.4046 23.9202 31.9168 23.3893 31.9168C22.983 31.9168 22.6564 31.7675 22.3896 31.4616C22.07 31.0966 21.781 30.6583 21.49 29.8634C22.3155 27.0888 24.8623 18.2009 24.8623 18.2009H20.0295C20.0295 18.2009 19.583 20.2851 19.1802 22.1809C19.1598 22.135 19.139 22.0891 19.1183 22.0454C18.7159 21.1935 18.0727 20.246 17.3576 19.5799C16.1128 18.4205 14.6485 17.8556 12.881 17.8556C10.4408 17.8556 8.37613 18.7494 6.74502 20.5132C5.12126 22.2658 4.26413 24.5152 4.26413 27.0158C4.26413 29.8013 5.07838 32.0892 6.68438 33.8131C8.35966 35.6146 10.3624 36.4531 12.9862 36.4531C14.5147 36.4531 15.9742 36.0032 17.3264 35.118C18.2005 34.5461 18.9982 33.7548 19.7515 32.7266C20.068 33.7414 20.3869 34.4351 20.7684 34.9536C21.3857 35.7913 22.3099 36.2722 23.3039 36.2722C24.3381 36.2722 25.2819 35.7467 25.7657 34.9026Z" fill="#CF0A2C"/>
<path fill-rule="evenodd" clip-rule="evenodd" d="M41.0911 16.0933C43.1735 16.0933 44.122 17.1334 44.4559 18.6232L45.9693 25.3672H44.3524C43.9839 25.3672 43.6179 25.0755 43.5386 24.7195L43.2328 23.3474H38.9497L38.644 24.7195C38.5652 25.0755 38.1988 25.3672 37.8297 25.3672H36.2137L37.7253 18.6232C38.0596 17.1334 39.1334 16.0933 41.0911 16.0933ZM39.9051 19.0581L39.3729 21.4464H42.8092L42.2779 19.0581C42.1907 18.6717 41.8876 18.0819 41.0911 18.0819C40.295 18.0819 39.9914 18.6717 39.9051 19.0581Z" fill="#CF0A2C"/>
<path d="M49.9523 18.3451H53.5576V25.3673H55.7894V16.312H49.0597C48.3233 16.312 47.72 16.9082 47.72 17.6383V22.2142C47.72 22.8263 47.4354 23.2157 46.9404 23.3139L46.4822 23.422L46.8971 25.3673H47.3216C48.8487 25.3673 49.9523 24.2421 49.9523 22.3278V18.3451Z" fill="#CF0A2C"/>
<path fill-rule="evenodd" clip-rule="evenodd" d="M74.3726 16.3117H75.1855C77.9441 16.3117 79.6688 18.1741 79.6688 20.8386C79.6688 23.5044 77.9441 25.3668 75.1855 25.3668H74.3726V25.8026C74.3726 26.1659 74.0717 26.4644 73.7026 26.4644H72.1403V25.3668H71.3273C68.5689 25.3668 66.8442 23.5044 66.8442 20.8386C66.8442 18.1741 68.5689 16.3117 71.3273 16.3117H72.1403V15.9214C72.1403 15.556 72.4413 15.2595 72.8104 15.2595H74.3726V16.3117ZM71.3273 23.3672C69.7998 23.3672 69.0769 22.4098 69.0769 20.8386C69.0769 19.2695 69.7998 18.3121 71.3273 18.3121H72.1403V23.3672H71.3273ZM75.1855 23.3672H74.3726V18.3121H75.1855C76.714 18.3121 77.4351 19.2695 77.4351 20.8386C77.4351 22.4098 76.714 23.3672 75.1855 23.3672Z" fill="#CF0A2C"/>
<path fill-rule="evenodd" clip-rule="evenodd" d="M59.5125 18.608H62.7155C64.8971 18.608 66.1263 20.0607 66.1263 21.9876C66.1263 23.9156 64.6614 25.3671 62.7155 25.3671H57.9503C57.5818 25.3671 57.2798 25.069 57.2798 24.7043V16.3127H59.5125V18.608ZM59.5125 23.3349H62.7155C63.2595 23.3349 63.8952 22.8506 63.8952 21.9876C63.8952 21.1241 63.2595 20.6416 62.7155 20.6416H59.5125V23.3349Z" fill="#CF0A2C"/>
<path fill-rule="evenodd" clip-rule="evenodd" d="M84.627 16.0933C86.7099 16.0933 87.658 17.1334 87.9928 18.6232L89.504 25.3672H87.8884C87.5207 25.3672 87.1535 25.0755 87.0742 24.7195L86.7688 23.3474H82.4857L82.18 24.7195C82.102 25.0755 81.7348 25.3672 81.3665 25.3672H79.7494L81.2613 18.6232C81.5962 17.1334 82.6702 16.0933 84.627 16.0933ZM83.4404 19.0581L82.9098 21.4464H86.3453L85.8138 19.0581C85.7264 18.6717 85.424 18.0819 84.627 18.0819C83.8315 18.0819 83.5283 18.6717 83.4404 19.0581Z" fill="#CF0A2C"/>
<path fill-rule="evenodd" clip-rule="evenodd" d="M101.578 31.7438C101.578 32.4683 101.325 32.9911 100.931 33.3751C101.503 33.8165 101.891 34.449 101.891 35.2572C101.891 36.8619 100.755 38.0731 99.0464 38.0731L93.2448 38.0722C92.877 38.0722 92.5752 37.7741 92.5752 37.4096V29.6793C92.5752 29.3143 92.877 29.0171 93.2448 29.0171H98.7016C100.323 29.0171 101.578 30.1387 101.578 31.7438ZM98.6995 30.8959C98.9957 30.8959 99.402 31.2261 99.402 31.7889C99.402 32.3563 98.9957 32.6454 98.6995 32.6814H94.7625V30.8959H98.6995ZM98.8784 36.194H94.7625V34.4079H98.8784C99.1755 34.444 99.5804 34.7331 99.5804 35.3009C99.5804 35.8632 99.1755 36.194 98.8784 36.194Z" fill="#CF0A2C"/>
<path fill-rule="evenodd" clip-rule="evenodd" d="M81.5 33.5446C81.5 30.7549 83.4287 28.8088 86.1881 28.8088H86.9517C89.7124 28.8088 91.6401 30.7549 91.6401 33.5446C91.6401 36.3336 89.7124 38.2813 86.9517 38.2813H86.1881C83.4287 38.2813 81.5 36.3336 81.5 33.5446ZM86.3223 30.6794C84.7843 30.6794 83.9108 31.9212 83.9108 33.5446C83.9108 35.169 84.7843 36.4116 86.3223 36.4116H86.8182C88.3554 36.4116 89.2286 35.169 89.2286 33.5446C89.2286 31.9212 88.3554 30.6794 86.8182 30.6794H86.3223Z" fill="#CF0A2C"/>
<path d="M44.5328 29.0171L44.8268 30.3867C44.9052 30.7521 45.2708 31.0493 45.6394 31.0493H47.7201V38.0722H49.9528V31.0493H51.9681C52.3358 31.0493 52.7005 30.7521 52.7789 30.3867L53.0734 29.0171H44.5328Z" fill="#CF0A2C"/>
<path d="M119.72 29.0171V32.6128H115.377V29.0171H113.145V38.0722H115.377V34.5546H119.72V38.0722H121.953V29.0171H119.72Z" fill="#CF0A2C"/>
<path fill-rule="evenodd" clip-rule="evenodd" d="M67.1458 28.7991C69.2296 28.7991 70.1759 29.8387 70.5111 31.3292L72.0236 38.0725H70.4081C70.0391 38.0725 69.6714 37.7817 69.5933 37.4257L69.2876 36.0527H65.0062L64.7009 37.4257C64.6212 37.7817 64.2557 38.0725 63.8866 38.0725H62.2703L63.7827 31.3292C64.1158 29.8387 65.19 28.7991 67.1458 28.7991ZM65.9604 31.7634L65.4285 34.1517H68.8641L68.333 31.7651C68.2455 31.3777 67.9424 30.7871 67.1458 30.7871C66.3489 30.7871 66.0466 31.3777 65.9604 31.7634Z" fill="#CF0A2C"/>
<path fill-rule="evenodd" clip-rule="evenodd" d="M107.281 28.7991C109.364 28.7991 110.312 29.8387 110.647 31.3292L112.16 38.0725H110.542C110.175 38.0725 109.809 37.7817 109.729 37.4257L109.423 36.0527H105.141L104.834 37.4257C104.757 37.7817 104.39 38.0725 104.021 38.0725H102.404L103.916 31.3292C104.251 29.8387 105.323 28.7991 107.281 28.7991ZM106.095 31.7634L105.563 34.1517H108.999L108.468 31.7651C108.381 31.3777 108.077 30.7871 107.281 30.7871C106.485 30.7871 106.183 31.3777 106.095 31.7634Z" fill="#CF0A2C"/>
<path d="M45.2269 38.0473V38.0735H40.8659C38.226 38.0735 36.3823 36.2119 36.3823 33.5444C36.3823 30.8786 38.226 29.0171 40.8659 29.0171H44.174L43.8505 30.4046C43.7682 30.7606 43.3992 31.0498 43.0307 31.0498H40.8659C39.4552 31.0498 38.6141 32.0925 38.6141 33.5444C38.6141 34.9964 39.4552 36.0399 40.8659 36.0399H44.0895C44.4569 36.0399 44.8268 36.3299 44.9094 36.6859L45.2269 38.0473Z" fill="#CF0A2C"/>
<path fill-rule="evenodd" clip-rule="evenodd" d="M54.2907 29.018L59.0554 29.0171C61.0014 29.0171 62.4679 30.4707 62.4679 32.3975C62.4679 34.3238 61.2392 35.7762 59.0554 35.7762H55.8534V38.0735H53.6207V29.6806C53.6207 29.3165 53.9217 29.018 54.2907 29.018ZM55.8534 33.7431H59.0554C59.6003 33.7431 60.2365 33.2605 60.2365 32.3975C60.2365 31.5341 59.6003 31.0524 59.0554 31.0524H55.8534V33.7431Z" fill="#CF0A2C"/>
<path d="M140.875 36.1606H136.067V34.4221H141.294V32.6755H136.067V30.9281H140.875C141.271 30.9281 141.585 30.7561 141.694 30.2821L141.992 29.0171H134.505C134.137 29.0171 133.835 29.3144 133.835 29.6798V37.4096C133.835 37.7742 134.137 38.0731 134.505 38.0731H141.992L141.694 36.8082C141.585 36.3339 141.271 36.1606 140.875 36.1606Z" fill="#CF0A2C"/>
<path d="M123.484 38.0723V29.0171H125.716V34.9908L129.583 29.5508C129.802 29.2573 130.279 29.0171 130.651 29.0171H132.305V38.0723H130.073V32.0982L126.203 37.5379C125.987 37.8317 125.507 38.0723 125.139 38.0723H123.484Z" fill="#CF0A2C"/>
<path d="M78.7565 33.4964L81.8719 29.0171H79.8219C79.3785 29.0171 79.067 29.1502 78.7933 29.5757L77.1332 32.1569H76.8361L75.1751 29.5757C74.9027 29.1502 74.5917 29.0171 74.1459 29.0171H72.0302L75.2118 33.5921L72.0964 38.0723H74.1459C74.5917 38.0723 74.9027 37.9398 75.1751 37.5134L76.8361 34.9316H77.1332L78.7933 37.5134C79.067 37.9398 79.3785 38.0723 79.8219 38.0723H81.9382L78.7565 33.4964Z" fill="#CF0A2C"/>
</g>
<defs>
<clipPath id="clip0_726_16873">
<rect width="141.833" height="51.5755" fill="white" transform="translate(0.280518 0.575684)"/>
</clipPath>
</defs>
</svg>
