<svg width="140" height="40" viewBox="0 0 140 40" fill="none" xmlns="http://www.w3.org/2000/svg">
<path d="M16.5443 2.46957C16.7391 2.10098 17.0678 1.84297 17.5304 1.69553C17.993 1.54809 18.5774 1.47437 19.2835 1.47437C19.9896 1.47437 20.5496 1.5358 20.9635 1.65867C21.3774 1.78153 21.6939 1.92897 21.913 2.10098C22.1322 2.27299 22.3026 2.51872 22.4243 2.83817C22.5461 3.2559 22.607 3.8948 22.607 4.75485V25.2118C22.607 25.7769 22.5826 26.207 22.5339 26.5018C22.5096 26.7721 22.4 27.0916 22.2052 27.4602C21.8643 28.1236 20.9148 28.4554 19.3565 28.4554C17.6522 28.4554 16.6539 28.0008 16.3617 27.0916C16.2157 26.6738 16.1426 26.0349 16.1426 25.1749V17.6925H6.46435V25.2118C6.46435 25.7769 6.44 26.207 6.3913 26.5018C6.36696 26.7721 6.25739 27.0916 6.06261 27.4602C5.72174 28.1236 4.77217 28.4554 3.21391 28.4554C1.50956 28.4554 0.511304 28.0008 0.21913 27.0916C0.0730435 26.6738 0 26.0349 0 25.1749V4.71799C0 4.15281 0.0121739 3.73507 0.0365217 3.46477C0.0852173 3.1699 0.206956 2.83817 0.401739 2.46957C0.742609 1.80611 1.69217 1.47437 3.25043 1.47437C4.95478 1.47437 5.96522 1.92897 6.28174 2.83817C6.40348 3.2559 6.46435 3.8948 6.46435 4.75485V12.2741H16.1426V4.71799C16.1426 4.15281 16.1548 3.73507 16.1791 3.46477C16.2278 3.1699 16.3496 2.83817 16.5443 2.46957Z" fill="#3E3F58"/>
<path d="M24.9889 18.7982C24.9889 15.8495 26.0115 13.4168 28.0567 11.5001C30.1019 9.58342 32.4393 8.62507 35.0689 8.62507C37.6984 8.62507 40.0236 9.58342 42.0445 11.5001C44.0654 13.3922 45.0758 15.8126 45.0758 18.7614C45.0758 20.8009 44.5523 22.6193 43.5054 24.2166C42.4584 25.7892 41.1802 26.9564 39.6706 27.7182C38.1854 28.4554 36.6393 28.824 35.0323 28.824C33.4254 28.824 31.8671 28.4308 30.3576 27.6445C28.848 26.8336 27.5697 25.6541 26.5228 24.106C25.5002 22.5333 24.9889 20.7641 24.9889 18.7982ZM32.6219 21.4521C33.401 22.0419 34.1923 22.3367 34.9958 22.3367C35.7993 22.3367 36.6028 22.0296 37.4062 21.4152C38.2097 20.8009 38.6115 19.8917 38.6115 18.6877C38.6115 17.4836 38.2341 16.5867 37.4793 15.9969C36.7245 15.4072 35.9089 15.1123 35.0323 15.1123C34.1558 15.1123 33.3402 15.4195 32.5854 16.0338C31.8306 16.6481 31.4532 17.5573 31.4532 18.7614C31.4532 19.9409 31.8428 20.8378 32.6219 21.4521Z" fill="#3E3F58"/>
<path d="M60.5102 9.28854C60.9728 9.43598 61.3502 9.69399 61.6424 10.0626C61.9589 10.4066 62.1172 10.9718 62.1172 11.7581C62.1172 12.5444 61.8859 13.4045 61.4233 14.3383C60.9607 15.272 60.2911 15.7389 59.4146 15.7389C58.9763 15.7389 58.5502 15.6406 58.1363 15.444C57.7468 15.2475 57.2233 15.1492 56.5659 15.1492C55.9085 15.1492 55.2876 15.3826 54.7033 15.8495C54.1433 16.3164 53.8633 16.8816 53.8633 17.545V25.2855C53.8633 25.8506 53.8389 26.2807 53.7902 26.5755C53.7659 26.8458 53.6563 27.1653 53.4615 27.5339C53.0963 28.1728 52.1468 28.4922 50.6129 28.4922C49.4442 28.4922 48.6042 28.2834 48.0928 27.8656C47.7033 27.5216 47.4842 26.9933 47.4355 26.2807C47.4355 26.0349 47.4355 25.6786 47.4355 25.2118V12.2741C47.4355 11.709 47.4476 11.2912 47.472 11.0209C47.5207 10.7261 47.6302 10.4066 47.8007 10.0626C48.1415 9.39912 49.0911 9.06739 50.6494 9.06739C52.1102 9.06739 53.0233 9.34997 53.3885 9.91515C53.6563 10.3083 53.7902 10.7138 53.7902 11.1315C53.912 10.9595 54.0824 10.7506 54.3015 10.5049C54.545 10.2592 55.0442 9.92743 55.7989 9.5097C56.5537 9.09196 57.2111 8.88309 57.7711 8.88309C58.3555 8.88309 58.8424 8.91995 59.232 8.99367C59.6215 9.04281 60.0476 9.1411 60.5102 9.28854Z" fill="#3E3F58"/>
<path d="M64.127 12.311C64.127 11.7458 64.1392 11.3281 64.1636 11.0578C64.2122 10.7629 64.3218 10.4312 64.4923 10.0626C64.8331 9.42369 65.7827 9.10424 67.3409 9.10424C68.5096 9.10424 69.3375 9.31311 69.8244 9.73085C70.2383 10.0749 70.4575 10.6032 70.4818 11.3158C70.5062 11.5615 70.5183 11.9178 70.5183 12.3847V25.2855C70.5183 25.8506 70.494 26.2807 70.4453 26.5755C70.4209 26.8458 70.3114 27.1653 70.1166 27.5339C69.8001 28.1728 68.8627 28.4922 67.3044 28.4922C65.7705 28.4922 64.8331 28.1605 64.4923 27.497C64.3218 27.1284 64.2122 26.809 64.1636 26.5387C64.1392 26.2684 64.127 25.8384 64.127 25.2486V12.311ZM70.1166 5.49203C69.9462 5.83605 69.6296 6.08178 69.167 6.22922C68.7044 6.37666 68.0836 6.45038 67.3044 6.45038C66.5496 6.45038 65.9409 6.37666 65.4783 6.22922C65.0157 6.08178 64.687 5.82377 64.4923 5.45518C64.3218 5.08658 64.2122 4.76713 64.1636 4.49683C64.1392 4.20196 64.127 3.77193 64.127 3.20676C64.127 2.64158 64.1392 2.22384 64.1636 1.95354C64.2122 1.65867 64.3218 1.33922 64.4923 0.995201C64.8331 0.331734 65.7827 0 67.3409 0C68.8749 0 69.8001 0.331734 70.1166 0.995201C70.3114 1.36379 70.4209 1.69553 70.4453 1.9904C70.494 2.2607 70.5183 2.67844 70.5183 3.24362C70.5183 3.80879 70.494 4.23882 70.4453 4.53369C70.4209 4.80399 70.3114 5.12344 70.1166 5.49203Z" fill="#3E3F58"/>
<path d="M83.9906 9.10424C86.1575 9.10424 88.1419 10.0749 89.9436 12.0161C91.7697 13.9574 92.6827 16.2181 92.6827 18.7982C92.6827 21.3538 91.7819 23.6022 89.9801 25.5435C88.1784 27.4602 86.2428 28.4185 84.1732 28.4185C82.1036 28.4185 80.6306 27.8288 79.7541 26.6493C79.5593 27.8533 78.5123 28.4554 76.6132 28.4554C75.0793 28.4554 74.1419 28.1236 73.801 27.4602C73.6306 27.0916 73.521 26.7721 73.4723 26.5018C73.448 26.207 73.4358 25.7769 73.4358 25.2118V3.20676C73.4358 2.64158 73.448 2.22384 73.4723 1.95354C73.521 1.65867 73.6306 1.33922 73.801 0.995201C74.1419 0.331734 75.0914 0 76.6497 0C78.1836 0 79.1088 0.331734 79.4254 0.995201C79.6201 1.36379 79.7297 1.69553 79.7541 1.9904C79.8027 2.2607 79.8271 2.67844 79.8271 3.24362V10.9103C80.801 9.70628 82.1888 9.10424 83.9906 9.10424ZM80.7767 21.0098C81.3854 21.6733 82.1401 22.005 83.041 22.005C83.9419 22.005 84.7088 21.6733 85.3419 21.0098C85.9749 20.3463 86.2915 19.6091 86.2915 18.7982C86.2915 17.9873 85.9993 17.2501 85.4149 16.5867C84.8306 15.8986 84.0514 15.5546 83.0775 15.5546C82.1036 15.5546 81.3245 15.8986 80.7401 16.5867C80.1801 17.2747 79.9001 18.0242 79.9001 18.8351C79.9001 19.6214 80.1923 20.3463 80.7767 21.0098Z" fill="#3E3F58"/>
<path d="M99.9968 22.4104C100.411 22.8282 100.618 23.6882 100.618 24.9906V25.138C100.618 25.7278 100.593 26.1701 100.545 26.465C100.52 26.7353 100.399 27.067 100.179 27.4602C99.8142 28.1728 98.889 28.5291 97.4038 28.5291C95.9429 28.5291 94.969 28.2956 94.482 27.8288C94.0194 27.3619 93.7881 26.4773 93.7881 25.1749V25.0275C93.7881 24.4623 93.8003 24.0323 93.8246 23.7374C93.8733 23.4425 93.9951 23.1108 94.1898 22.7422C94.5551 22.005 95.4681 21.6364 96.929 21.6364C98.4142 21.6364 99.4368 21.8944 99.9968 22.4104Z" fill="#3E3F58"/>
<path d="M116.077 9.28854C116.54 9.43598 116.917 9.69399 117.21 10.0626C117.526 10.4066 117.684 10.9718 117.684 11.7581C117.684 12.5444 117.453 13.4045 116.991 14.3383C116.528 15.272 115.858 15.7389 114.982 15.7389C114.544 15.7389 114.117 15.6406 113.704 15.444C113.314 15.2475 112.791 15.1492 112.133 15.1492C111.476 15.1492 110.855 15.3826 110.271 15.8495C109.711 16.3164 109.431 16.8816 109.431 17.545V25.2855C109.431 25.8506 109.406 26.2807 109.357 26.5755C109.333 26.8458 109.224 27.1653 109.029 27.5339C108.664 28.1728 107.714 28.4922 106.18 28.4922C105.011 28.4922 104.171 28.2834 103.66 27.8656C103.271 27.5216 103.051 26.9933 103.003 26.2807C103.003 26.0349 103.003 25.6786 103.003 25.2118V12.2741C103.003 11.709 103.015 11.2912 103.039 11.0209C103.088 10.7261 103.197 10.4066 103.368 10.0626C103.709 9.39912 104.658 9.06739 106.217 9.06739C107.677 9.06739 108.591 9.34997 108.956 9.91515C109.224 10.3083 109.357 10.7138 109.357 11.1315C109.479 10.9595 109.65 10.7506 109.869 10.5049C110.112 10.2592 110.611 9.92743 111.366 9.5097C112.121 9.09196 112.778 8.88309 113.338 8.88309C113.923 8.88309 114.41 8.91995 114.799 8.99367C115.189 9.04281 115.615 9.1411 116.077 9.28854Z" fill="#3E3F58"/>
<path d="M128.24 28.4185C125.781 28.4185 123.736 27.4847 122.105 25.6172C120.498 23.7251 119.694 21.4275 119.694 18.7245V12.2741C119.694 11.6844 119.706 11.2544 119.731 10.9841C119.78 10.7138 119.889 10.3943 120.059 10.0257C120.4 9.36226 121.35 9.03053 122.908 9.03053C124.613 9.03053 125.611 9.49741 125.903 10.4312C126.049 10.8243 126.122 11.451 126.122 12.311V18.7614C126.122 19.7689 126.402 20.5552 126.962 21.1204C127.546 21.6855 128.313 21.9681 129.263 21.9681C130.237 21.9681 131.016 21.6733 131.6 21.0835C132.209 20.4938 132.513 19.7197 132.513 18.7614V12.2373C132.513 11.6721 132.526 11.2544 132.55 10.9841C132.599 10.6892 132.72 10.3575 132.915 9.98887C133.232 9.34997 134.169 9.03053 135.727 9.03053C137.261 9.03053 138.199 9.36226 138.54 10.0257C138.71 10.3943 138.807 10.7261 138.832 11.0209C138.88 11.2912 138.905 11.709 138.905 12.2741V25.3223C138.905 25.8629 138.88 26.2807 138.832 26.5755C138.807 26.8458 138.698 27.153 138.503 27.497C138.138 28.1359 137.2 28.4554 135.691 28.4554C134.206 28.4554 133.293 28.1605 132.952 27.5707C132.708 27.153 132.586 26.6493 132.586 26.0595C132.489 26.2315 132.27 26.4773 131.929 26.7967C131.588 27.1161 131.259 27.3864 130.943 27.6076C130.115 28.1482 129.214 28.4185 128.24 28.4185Z" fill="#3E3F58"/>
<path d="M0.319565 37.1664C0.319565 36.8337 0.375362 36.5086 0.486957 36.1912C0.603623 35.8687 0.771014 35.5769 0.98913 35.3158C1.20725 35.0496 1.47609 34.8397 1.79565 34.6861C2.11522 34.5274 2.4779 34.4481 2.8837 34.4481C3.36558 34.4481 3.77645 34.5607 4.1163 34.7859C4.46123 35.0061 4.71485 35.2902 4.87717 35.6383L4.4587 35.8994C4.34203 35.6588 4.19493 35.4694 4.01739 35.3312C3.83985 35.1878 3.64964 35.0854 3.44674 35.024C3.24891 34.9626 3.05109 34.9318 2.85326 34.9318C2.52862 34.9318 2.24203 34.9984 1.99348 35.1315C1.74493 35.2595 1.53442 35.4335 1.36196 35.6537C1.19457 35.8687 1.06775 36.1119 0.981522 36.3832C0.89529 36.6494 0.852174 36.9207 0.852174 37.1972C0.852174 37.4992 0.902898 37.7884 1.00435 38.0649C1.1058 38.3413 1.24783 38.5871 1.43043 38.8021C1.61304 39.012 1.82609 39.1809 2.06957 39.3089C2.31812 39.4318 2.58696 39.4932 2.87609 39.4932C3.07899 39.4932 3.28696 39.4574 3.5 39.3857C3.71304 39.314 3.91087 39.2039 4.09348 39.0555C4.28116 38.907 4.4308 38.715 4.54239 38.4796L4.9837 38.7099C4.8721 38.9813 4.69964 39.2116 4.4663 39.401C4.23297 39.5905 3.97174 39.7338 3.68261 39.8311C3.39855 39.9283 3.11957 39.977 2.84565 39.977C2.47536 39.977 2.13551 39.8976 1.82609 39.7389C1.51667 39.5751 1.24783 39.3601 1.01957 39.0939C0.796377 38.8226 0.623913 38.5205 0.502174 38.1878C0.380435 37.8499 0.319565 37.5094 0.319565 37.1664Z" fill="#3E3F58"/>
<path d="M10.5121 34.9549H8.58713V39.9309H8.05452V34.9549H6.12952V34.4788H10.5121V34.9549Z" fill="#3E3F58"/>
<path d="M12.1202 39.9309V34.4788H14.3572C14.5905 34.4788 14.8036 34.5274 14.9963 34.6247C15.1941 34.722 15.3641 34.8551 15.5061 35.024C15.6481 35.1878 15.7597 35.3721 15.8409 35.5769C15.922 35.7765 15.9626 35.9813 15.9626 36.1912C15.9626 36.4881 15.8967 36.7697 15.7648 37.0359C15.638 37.297 15.4579 37.5094 15.2246 37.6733C14.9912 37.8371 14.7173 37.919 14.4028 37.919H12.6528V39.9309H12.1202ZM12.6528 37.4429H14.38C14.5931 37.4429 14.7782 37.384 14.9355 37.2663C15.0927 37.1485 15.2144 36.9949 15.3007 36.8055C15.3869 36.6161 15.43 36.4113 15.43 36.1912C15.43 35.966 15.3793 35.7586 15.2778 35.5692C15.1764 35.3798 15.042 35.2313 14.8746 35.1238C14.7123 35.0112 14.5322 34.9549 14.3344 34.9549H12.6528V37.4429Z" fill="#3E3F58"/>
<path d="M18.9547 34.4788H19.4036L21.6482 39.9309H21.0851L20.3851 38.2261H17.9579L17.2656 39.9309H16.6949L18.9547 34.4788ZM20.2634 37.8038L19.1753 35.1085L18.0721 37.8038H20.2634Z" fill="#3E3F58"/>
<path d="M23.1911 34.4788L24.9563 36.8516L26.7139 34.4788H27.315L25.2454 37.2432L27.2541 39.9309H26.653L24.9563 37.6349L23.2519 39.9309H22.6432L24.6519 37.2432L22.5824 34.4788H23.1911Z" fill="#3E3F58"/>
<path d="M31.0039 39.9693C30.6235 39.9693 30.2786 39.8925 29.9692 39.7389C29.6597 39.5853 29.3934 39.378 29.1702 39.1169C28.9471 38.8507 28.7746 38.5538 28.6529 38.2261C28.5311 37.8934 28.4702 37.553 28.4702 37.2048C28.4702 36.8414 28.5337 36.4958 28.6605 36.1682C28.7873 35.8354 28.9648 35.541 29.1931 35.2851C29.4264 35.024 29.6978 34.8192 30.0072 34.6708C30.3166 34.5172 30.6514 34.4404 31.0116 34.4404C31.392 34.4404 31.7369 34.5197 32.0463 34.6784C32.3558 34.8371 32.6195 35.0496 32.8376 35.3158C33.0608 35.582 33.2333 35.8789 33.355 36.2066C33.4768 36.5342 33.5376 36.8695 33.5376 37.2125C33.5376 37.576 33.4742 37.9241 33.3474 38.2569C33.2206 38.5845 33.0431 38.8789 32.8148 39.1399C32.5866 39.3959 32.3177 39.5981 32.0083 39.7466C31.6989 39.8951 31.3641 39.9693 31.0039 39.9693ZM29.0029 37.2048C29.0029 37.5018 29.051 37.7884 29.1474 38.0649C29.2438 38.3362 29.3808 38.5794 29.5583 38.7944C29.7358 39.0043 29.9463 39.1732 30.1898 39.3012C30.4384 39.4241 30.7097 39.4855 31.0039 39.4855C31.3134 39.4855 31.5898 39.4215 31.8333 39.2935C32.0818 39.1604 32.2924 38.9864 32.4648 38.7714C32.6424 38.5512 32.7768 38.3055 32.8681 38.0342C32.9594 37.7628 33.005 37.4864 33.005 37.2048C33.005 36.9079 32.9568 36.6238 32.8605 36.3525C32.7641 36.0811 32.6246 35.838 32.442 35.623C32.2645 35.4079 32.0539 35.239 31.8105 35.1161C31.567 34.9933 31.2981 34.9318 31.0039 34.9318C30.6996 34.9318 30.4231 34.9958 30.1746 35.1238C29.9311 35.2518 29.7206 35.4259 29.5431 35.646C29.3706 35.861 29.2362 36.1042 29.1398 36.3755C29.0485 36.6468 29.0029 36.9233 29.0029 37.2048Z" fill="#3E3F58"/>
<path d="M39.4038 38.5256C39.4038 38.797 39.3353 39.0401 39.1983 39.2551C39.0614 39.465 38.8762 39.6314 38.6429 39.7543C38.4146 39.872 38.1636 39.9309 37.8896 39.9309H35.3407V34.4788H37.9429C38.1965 34.4788 38.4146 34.5479 38.5972 34.6861C38.7849 34.8192 38.927 34.9933 39.0233 35.2083C39.1248 35.4182 39.1755 35.6383 39.1755 35.8687C39.1755 36.14 39.107 36.3909 38.9701 36.6212C38.8331 36.8516 38.6429 37.0231 38.3994 37.1357C38.7088 37.2279 38.9523 37.3994 39.1299 37.6502C39.3125 37.9011 39.4038 38.1929 39.4038 38.5256ZM38.8712 38.4335C38.8712 38.2492 38.8306 38.0802 38.7494 37.9267C38.6683 37.768 38.5567 37.64 38.4146 37.5427C38.2777 37.4454 38.1204 37.3968 37.9429 37.3968H35.8733V39.4625H37.8896C38.0722 39.4625 38.2371 39.4138 38.3842 39.3166C38.5313 39.2193 38.648 39.0939 38.7342 38.9403C38.8255 38.7816 38.8712 38.6127 38.8712 38.4335ZM35.8733 34.9472V36.9591H37.7299C37.9074 36.9591 38.0646 36.913 38.2016 36.8209C38.3386 36.7236 38.4476 36.5982 38.5288 36.4446C38.6099 36.291 38.6505 36.1272 38.6505 35.9532C38.6505 35.7689 38.6125 35.6025 38.5364 35.454C38.4603 35.3004 38.3563 35.1776 38.2244 35.0854C38.0925 34.9933 37.9429 34.9472 37.7755 34.9472H35.8733Z" fill="#3E3F58"/>
<path d="M43.3832 39.9693C43.0028 39.9693 42.6579 39.8925 42.3484 39.7389C42.039 39.5853 41.7727 39.378 41.5495 39.1169C41.3263 38.8507 41.1539 38.5538 41.0321 38.2261C40.9104 37.8934 40.8495 37.553 40.8495 37.2048C40.8495 36.8414 40.9129 36.4958 41.0398 36.1682C41.1666 35.8354 41.3441 35.541 41.5724 35.2851C41.8057 35.024 42.0771 34.8192 42.3865 34.6708C42.6959 34.5172 43.0307 34.4404 43.3908 34.4404C43.7713 34.4404 44.1162 34.5197 44.4256 34.6784C44.735 34.8371 44.9988 35.0496 45.2169 35.3158C45.4401 35.582 45.6126 35.8789 45.7343 36.2066C45.8561 36.5342 45.9169 36.8695 45.9169 37.2125C45.9169 37.576 45.8535 37.9241 45.7267 38.2569C45.5999 38.5845 45.4224 38.8789 45.1941 39.1399C44.9658 39.3959 44.697 39.5981 44.3876 39.7466C44.0782 39.8951 43.7434 39.9693 43.3832 39.9693ZM41.3821 37.2048C41.3821 37.5018 41.4303 37.7884 41.5267 38.0649C41.6231 38.3362 41.76 38.5794 41.9376 38.7944C42.1151 39.0043 42.3256 39.1732 42.5691 39.3012C42.8177 39.4241 43.089 39.4855 43.3832 39.4855C43.6927 39.4855 43.9691 39.4215 44.2126 39.2935C44.4611 39.1604 44.6716 38.9864 44.8441 38.7714C45.0216 38.5512 45.1561 38.3055 45.2474 38.0342C45.3387 37.7628 45.3843 37.4864 45.3843 37.2048C45.3843 36.9079 45.3361 36.6238 45.2398 36.3525C45.1434 36.0811 45.0039 35.838 44.8213 35.623C44.6437 35.4079 44.4332 35.239 44.1898 35.1161C43.9463 34.9933 43.6774 34.9318 43.3832 34.9318C43.0789 34.9318 42.8024 34.9958 42.5539 35.1238C42.3104 35.2518 42.0999 35.4259 41.9224 35.646C41.7499 35.861 41.6155 36.1042 41.5191 36.3755C41.4278 36.6468 41.3821 36.9233 41.3821 37.2048Z" fill="#3E3F58"/>
<path d="M47.7504 39.9309V34.4788H48.2754V39.1937L51.6233 34.4788H52.1178V39.9309H51.5928V35.3004L48.2831 39.9309H47.7504ZM49.9417 34.018C49.6932 34.018 49.4827 33.9822 49.3102 33.9105C49.1428 33.8337 49.016 33.7314 48.9298 33.6034C48.8436 33.4703 48.7979 33.3269 48.7928 33.1734H49.2113C49.2164 33.3065 49.2696 33.4268 49.3711 33.5343C49.4776 33.6418 49.6678 33.6955 49.9417 33.6955C50.2055 33.6955 50.3907 33.6469 50.4972 33.5496C50.6037 33.4472 50.6595 33.3218 50.6646 33.1734H51.0831C51.078 33.3269 51.0323 33.4703 50.9461 33.6034C50.8599 33.7314 50.7331 33.8337 50.5657 33.9105C50.4033 33.9822 50.1954 34.018 49.9417 34.018Z" fill="#3E3F58"/>
<path d="M57.038 39.9309V34.4788H60.6597V34.9549H57.5706V36.8516H59.351C59.9445 36.8516 60.3833 36.9924 60.6673 37.2739C60.9514 37.5504 61.0934 37.9113 61.0934 38.3567C61.0934 38.6485 61.03 38.9147 60.9032 39.1553C60.7815 39.3908 60.5938 39.5802 60.3402 39.7236C60.0916 39.8618 59.7771 39.9309 59.3967 39.9309H57.038ZM57.5706 39.4548H59.3358C59.63 39.4548 59.8659 39.401 60.0434 39.2935C60.221 39.186 60.3503 39.0478 60.4315 38.8789C60.5126 38.7048 60.5532 38.5256 60.5532 38.3413C60.5532 38.157 60.5177 37.9855 60.4467 37.8268C60.3757 37.663 60.2489 37.5325 60.0662 37.4352C59.8887 37.3328 59.6376 37.2816 59.313 37.2816H57.5706V39.4548Z" fill="#3E3F58"/>
<path d="M62.8004 39.9309V34.4788H65.0373C65.2707 34.4788 65.4837 34.5274 65.6765 34.6247C65.8743 34.722 66.0442 34.8551 66.1863 35.024C66.3283 35.1878 66.4399 35.3721 66.521 35.5769C66.6022 35.7765 66.6428 35.9813 66.6428 36.1912C66.6428 36.4881 66.5768 36.7697 66.445 37.0359C66.3181 37.297 66.1381 37.5094 65.9047 37.6733C65.6714 37.8371 65.3975 37.919 65.083 37.919H63.333V39.9309H62.8004ZM63.333 37.4429H65.0602C65.2732 37.4429 65.4584 37.384 65.6156 37.2663C65.7729 37.1485 65.8946 36.9949 65.9808 36.8055C66.0671 36.6161 66.1102 36.4113 66.1102 36.1912C66.1102 35.966 66.0594 35.7586 65.958 35.5692C65.8565 35.3798 65.7221 35.2313 65.5547 35.1238C65.3924 35.0112 65.2123 34.9549 65.0145 34.9549H63.333V37.4429Z" fill="#3E3F58"/>
<path d="M70.5085 39.9693C70.1281 39.9693 69.7832 39.8925 69.4737 39.7389C69.1643 39.5853 68.898 39.378 68.6748 39.1169C68.4516 38.8507 68.2792 38.5538 68.1574 38.2261C68.0357 37.8934 67.9748 37.553 67.9748 37.2048C67.9748 36.8414 68.0382 36.4958 68.165 36.1682C68.2919 35.8354 68.4694 35.541 68.6977 35.2851C68.931 35.024 69.2024 34.8192 69.5118 34.6708C69.8212 34.5172 70.156 34.4404 70.5161 34.4404C70.8966 34.4404 71.2415 34.5197 71.5509 34.6784C71.8603 34.8371 72.1241 35.0496 72.3422 35.3158C72.5654 35.582 72.7379 35.8789 72.8596 36.2066C72.9814 36.5342 73.0422 36.8695 73.0422 37.2125C73.0422 37.576 72.9788 37.9241 72.852 38.2569C72.7252 38.5845 72.5477 38.8789 72.3194 39.1399C72.0911 39.3959 71.8223 39.5981 71.5129 39.7466C71.2035 39.8951 70.8687 39.9693 70.5085 39.9693ZM68.5074 37.2048C68.5074 37.5018 68.5556 37.7884 68.652 38.0649C68.7484 38.3362 68.8853 38.5794 69.0629 38.7944C69.2404 39.0043 69.4509 39.1732 69.6944 39.3012C69.9429 39.4241 70.2143 39.4855 70.5085 39.4855C70.8179 39.4855 71.0944 39.4215 71.3379 39.2935C71.5864 39.1604 71.7969 38.9864 71.9694 38.7714C72.1469 38.5512 72.2813 38.3055 72.3727 38.0342C72.464 37.7628 72.5096 37.4864 72.5096 37.2048C72.5096 36.9079 72.4614 36.6238 72.3651 36.3525C72.2687 36.0811 72.1292 35.838 71.9466 35.623C71.769 35.4079 71.5585 35.239 71.315 35.1161C71.0716 34.9933 70.8027 34.9318 70.5085 34.9318C70.2042 34.9318 69.9277 34.9958 69.6792 35.1238C69.4357 35.2518 69.2252 35.4259 69.0477 35.646C68.8752 35.861 68.7408 36.1042 68.6444 36.3755C68.5531 36.6468 68.5074 36.9233 68.5074 37.2048Z" fill="#3E3F58"/>
<path d="M74.8453 39.9309V34.4788H75.3779V36.9054H76.192L78.0486 34.4788H78.6649L76.6333 37.1204L78.7942 39.9309H78.1399L76.2073 37.3968H75.3779V39.9309H74.8453Z" fill="#3E3F58"/>
<path d="M84.0959 39.4548V39.9309H80.4665V34.4788H84.0274V34.9549H80.9991V36.9207H83.6394V37.3738H80.9991V39.4548H84.0959Z" fill="#3E3F58"/>
<path d="M85.902 39.9309V34.4788H88.1389C88.3723 34.4788 88.5853 34.5274 88.7781 34.6247C88.9759 34.722 89.1458 34.8551 89.2879 35.024C89.4299 35.1878 89.5415 35.3721 89.6226 35.5769C89.7038 35.7765 89.7444 35.9813 89.7444 36.1912C89.7444 36.4881 89.6784 36.7697 89.5466 37.0359C89.4197 37.297 89.2397 37.5094 89.0063 37.6733C88.773 37.8371 88.4991 37.919 88.1846 37.919H86.4346V39.9309H85.902ZM86.4346 37.4429H88.1618C88.3748 37.4429 88.56 37.384 88.7172 37.2663C88.8745 37.1485 88.9962 36.9949 89.0824 36.8055C89.1687 36.6161 89.2118 36.4113 89.2118 36.1912C89.2118 35.966 89.161 35.7586 89.0596 35.5692C88.9581 35.3798 88.8237 35.2313 88.6563 35.1238C88.494 35.0112 88.3139 34.9549 88.1161 34.9549H86.4346V37.4429Z" fill="#3E3F58"/>
<path d="M94.1723 39.9309V34.4788H97.2386V34.9549H94.7049V39.9309H94.1723Z" fill="#3E3F58"/>
<path d="M101.071 39.9693C100.69 39.9693 100.345 39.8925 100.036 39.7389C99.7263 39.5853 99.46 39.378 99.2368 39.1169C99.0136 38.8507 98.8412 38.5538 98.7194 38.2261C98.5977 37.8934 98.5368 37.553 98.5368 37.2048C98.5368 36.8414 98.6002 36.4958 98.727 36.1682C98.8538 35.8354 99.0314 35.541 99.2596 35.2851C99.493 35.024 99.7644 34.8192 100.074 34.6708C100.383 34.5172 100.718 34.4404 101.078 34.4404C101.459 34.4404 101.803 34.5197 102.113 34.6784C102.422 34.8371 102.686 35.0496 102.904 35.3158C103.127 35.582 103.3 35.8789 103.422 36.2066C103.543 36.5342 103.604 36.8695 103.604 37.2125C103.604 37.576 103.541 37.9241 103.414 38.2569C103.287 38.5845 103.11 38.8789 102.881 39.1399C102.653 39.3959 102.384 39.5981 102.075 39.7466C101.765 39.8951 101.431 39.9693 101.071 39.9693ZM99.0694 37.2048C99.0694 37.5018 99.1176 37.7884 99.214 38.0649C99.3104 38.3362 99.4473 38.5794 99.6249 38.7944C99.8024 39.0043 100.013 39.1732 100.256 39.3012C100.505 39.4241 100.776 39.4855 101.071 39.4855C101.38 39.4855 101.656 39.4215 101.9 39.2935C102.148 39.1604 102.359 38.9864 102.531 38.7714C102.709 38.5512 102.843 38.3055 102.935 38.0342C103.026 37.7628 103.072 37.4864 103.072 37.2048C103.072 36.9079 103.023 36.6238 102.927 36.3525C102.831 36.0811 102.691 35.838 102.509 35.623C102.331 35.4079 102.121 35.239 101.877 35.1161C101.634 34.9933 101.365 34.9318 101.071 34.9318C100.766 34.9318 100.49 34.9958 100.241 35.1238C99.9977 35.2518 99.7872 35.4259 99.6096 35.646C99.4372 35.861 99.3028 36.1042 99.2064 36.3755C99.1151 36.6468 99.0694 36.9233 99.0694 37.2048Z" fill="#3E3F58"/>
<path d="M105.407 39.9309V34.4788H107.644C107.878 34.4788 108.091 34.5274 108.283 34.6247C108.481 34.722 108.651 34.8551 108.793 35.024C108.935 35.1878 109.047 35.3721 109.128 35.5769C109.209 35.7765 109.25 35.9813 109.25 36.1912C109.25 36.4881 109.184 36.7697 109.052 37.0359C108.925 37.297 108.745 37.5094 108.512 37.6733C108.278 37.8371 108.004 37.919 107.69 37.919H105.94V39.9309H105.407ZM105.94 37.4429H107.667C107.88 37.4429 108.065 37.384 108.223 37.2663C108.38 37.1485 108.502 36.9949 108.588 36.8055C108.674 36.6161 108.717 36.4113 108.717 36.1912C108.717 35.966 108.666 35.7586 108.565 35.5692C108.463 35.3798 108.329 35.2313 108.162 35.1238C107.999 35.0112 107.819 34.9549 107.621 34.9549H105.94V37.4429Z" fill="#3E3F58"/>
<path d="M110.97 39.9309V34.4788H111.495V39.1937L114.843 34.4788H115.337V39.9309H114.812V35.3004L111.502 39.9309H110.97Z" fill="#3E3F58"/>
<path d="M118.873 40C118.503 40 118.171 39.9207 117.877 39.762C117.582 39.5981 117.352 39.3729 117.184 39.0862L117.595 38.8328C117.722 39.058 117.894 39.2321 118.113 39.355C118.331 39.4778 118.582 39.5393 118.866 39.5393C119.251 39.5393 119.556 39.4394 119.779 39.2398C120.007 39.035 120.121 38.7637 120.121 38.4258C120.121 38.2108 120.073 38.0214 119.977 37.8576C119.885 37.6886 119.754 37.5581 119.581 37.4659C119.409 37.3738 119.201 37.3277 118.957 37.3277H118.44V36.8977H118.965C119.152 36.8977 119.317 36.8542 119.459 36.7671C119.601 36.675 119.713 36.5547 119.794 36.4062C119.875 36.2578 119.916 36.0914 119.916 35.9071C119.916 35.7074 119.87 35.5334 119.779 35.3849C119.693 35.2365 119.568 35.1187 119.406 35.0317C119.249 34.9446 119.064 34.9011 118.851 34.9011C118.592 34.9011 118.364 34.96 118.166 35.0778C117.968 35.1955 117.811 35.3593 117.694 35.5692L117.306 35.3081C117.463 35.0266 117.671 34.8064 117.93 34.6477C118.194 34.489 118.508 34.4097 118.873 34.4097C119.183 34.4097 119.452 34.4711 119.68 34.594C119.913 34.7117 120.096 34.8781 120.228 35.0931C120.365 35.303 120.433 35.5513 120.433 35.838C120.433 36.1144 120.365 36.3653 120.228 36.5905C120.096 36.8106 119.903 36.977 119.65 37.0897C119.969 37.1767 120.215 37.3456 120.388 37.5965C120.565 37.8473 120.654 38.1391 120.654 38.4719C120.654 38.7893 120.578 39.0632 120.426 39.2935C120.273 39.5188 120.063 39.6928 119.794 39.8157C119.53 39.9386 119.223 40 118.873 40Z" fill="#3E3F58"/>
<path d="M124.64 39.9693C124.26 39.9693 123.915 39.8925 123.605 39.7389C123.296 39.5853 123.03 39.378 122.807 39.1169C122.583 38.8507 122.411 38.5538 122.289 38.2261C122.167 37.8934 122.107 37.553 122.107 37.2048C122.107 36.8414 122.17 36.4958 122.297 36.1682C122.424 35.8354 122.601 35.541 122.829 35.2851C123.063 35.024 123.334 34.8192 123.644 34.6708C123.953 34.5172 124.288 34.4404 124.648 34.4404C125.028 34.4404 125.373 34.5197 125.683 34.6784C125.992 34.8371 126.256 35.0496 126.474 35.3158C126.697 35.582 126.87 35.8789 126.991 36.2066C127.113 36.5342 127.174 36.8695 127.174 37.2125C127.174 37.576 127.111 37.9241 126.984 38.2569C126.857 38.5845 126.679 38.8789 126.451 39.1399C126.223 39.3959 125.954 39.5981 125.645 39.7466C125.335 39.8951 125 39.9693 124.64 39.9693ZM122.639 37.2048C122.639 37.5018 122.687 37.7884 122.784 38.0649C122.88 38.3362 123.017 38.5794 123.195 38.7944C123.372 39.0043 123.583 39.1732 123.826 39.3012C124.075 39.4241 124.346 39.4855 124.64 39.4855C124.95 39.4855 125.226 39.4215 125.47 39.2935C125.718 39.1604 125.929 38.9864 126.101 38.7714C126.279 38.5512 126.413 38.3055 126.504 38.0342C126.596 37.7628 126.641 37.4864 126.641 37.2048C126.641 36.9079 126.593 36.6238 126.497 36.3525C126.4 36.0811 126.261 35.838 126.078 35.623C125.901 35.4079 125.69 35.239 125.447 35.1161C125.203 34.9933 124.934 34.9318 124.64 34.9318C124.336 34.9318 124.059 34.9958 123.811 35.1238C123.567 35.2518 123.357 35.4259 123.179 35.646C123.007 35.861 122.872 36.1042 122.776 36.3755C122.685 36.6468 122.639 36.9233 122.639 37.2048Z" fill="#3E3F58"/>
<path d="M133.238 34.4788V39.9309H132.713V37.3815H129.51V39.9309H128.977V34.4788H129.51V36.9054H132.713V34.4788H133.238Z" fill="#3E3F58"/>
<path d="M139.228 34.9549H137.303V39.9309H136.77V34.9549H134.845V34.4788H139.228V34.9549Z" fill="#3E3F58"/>
</svg>
