<svg width="23" height="27" viewBox="0 0 23 27" fill="none" xmlns="http://www.w3.org/2000/svg">
<path d="M16.5444 0.995201C16.7391 0.626608 17.0678 0.368593 17.5304 0.221155C17.993 0.0737182 18.5774 0 19.2835 0C19.9896 0 20.5496 0.061432 20.9635 0.184296C21.3774 0.30716 21.6939 0.454598 21.9131 0.626608C22.1322 0.798618 22.3026 1.04435 22.4243 1.36379C22.5461 1.78153 22.607 2.42043 22.607 3.28048V23.7374C22.607 24.3026 22.5826 24.7326 22.5339 25.0275C22.5096 25.2978 22.4 25.6172 22.2052 25.9858C21.8644 26.6493 20.9148 26.981 19.3565 26.981C17.6522 26.981 16.6539 26.5264 16.3617 25.6172C16.2157 25.1995 16.1426 24.5606 16.1426 23.7005V16.2181H6.46436V23.7374C6.46436 24.3026 6.44001 24.7326 6.39131 25.0275C6.36696 25.2978 6.2574 25.6172 6.06262 25.9858C5.72175 26.6493 4.77217 26.981 3.21391 26.981C1.50957 26.981 0.511305 26.5264 0.219131 25.6172C0.0730445 25.1995 0 24.5606 0 23.7005V3.24362C0 2.67844 0.0121818 2.2607 0.0365295 1.9904C0.0852252 1.69553 0.206966 1.36379 0.401749 0.995201C0.742618 0.331734 1.69218 0 3.25044 0C4.95479 0 5.96523 0.454598 6.28175 1.36379C6.40349 1.78153 6.46436 2.42043 6.46436 3.28048V10.7998H16.1426V3.24362C16.1426 2.67844 16.1548 2.2607 16.1791 1.9904C16.2278 1.69553 16.3496 1.36379 16.5444 0.995201Z" fill="#452C60"/>
</svg>
