<svg width="18" height="18" viewBox="0 0 18 18" fill="none" xmlns="http://www.w3.org/2000/svg">
<path  d="M2.24275 3.6544C2.47999 3.26159 3.78712 1.83282 4.71991 1.87596C4.99875 1.89906 5.24523 2.06774 5.4455 2.26338C5.90535 2.71242 7.22172 4.41076 7.29644 4.76814C7.47822 5.64466 6.43375 6.14993 6.7534 7.03337C7.56834 9.02748 8.97253 10.4316 10.9675 11.2457C11.8502 11.5654 12.3555 10.5209 13.2321 10.7035C13.5887 10.7782 15.2879 12.0945 15.737 12.5543C15.9319 12.7538 16.1013 13.0011 16.1244 13.2799C16.1591 14.2619 14.6417 15.5875 14.3459 15.7569C13.648 16.256 12.7376 16.2476 11.6276 15.7315C8.5304 14.4429 3.58069 9.58666 2.26817 6.37252C1.76596 5.26879 1.73129 4.35222 2.24275 3.6544Z" stroke="#3E3F58" stroke-width="1.5" stroke-linecap="round" stroke-linejoin="round"/>
</svg>
