<svg width="18" height="18" viewBox="0 0 18 18" fill="none" xmlns="http://www.w3.org/2000/svg">
<path fill-rule="evenodd" clip-rule="evenodd" d="M5.77145 10.0431C5.28788 10.0431 4.89502 9.65029 4.89502 9.16672C4.89502 8.68457 5.28788 8.29172 5.77145 8.29172C6.25502 8.29172 6.64788 8.68457 6.64788 9.16672C6.64788 9.65029 6.25502 10.0431 5.77145 10.0431ZM9.17859 10.0431C8.69502 10.0431 8.30216 9.65029 8.30216 9.16672C8.30216 8.68457 8.69502 8.29172 9.17859 8.29172C9.66216 8.29172 10.055 8.68457 10.055 9.16672C10.055 9.65029 9.66216 10.0431 9.17859 10.0431ZM11.7094 9.16672C11.7094 9.65029 12.1022 10.0431 12.5858 10.0431C13.0694 10.0431 13.4622 9.65029 13.4622 9.16672C13.4622 8.68457 13.0694 8.29172 12.5858 8.29172C12.1022 8.29172 11.7094 8.68457 11.7094 9.16672Z" fill="#3E3F58"/>
<path fill-rule="evenodd" clip-rule="evenodd" d="M9.015 1.5C4.6575 1.5 1.5 5.05959 1.5 9.01127C1.5 10.2732 1.8675 11.5719 2.5125 12.7586C2.6325 12.9547 2.6475 13.2018 2.565 13.4354L2.0625 15.1179C1.95 15.5235 2.295 15.8232 2.6775 15.7031L4.1925 15.2531C4.605 15.1179 4.9275 15.2899 5.31 15.5235C6.405 16.1688 7.77 16.5 9 16.5C12.72 16.5 16.5 13.6232 16.5 8.98873C16.5 4.99199 13.275 1.5 9.015 1.5Z" stroke="#3E3F58" stroke-width="1.5" stroke-linecap="round" stroke-linejoin="round"/>
</svg>
