<svg width="185" height="67" viewBox="0 0 185 67" fill="none" xmlns="http://www.w3.org/2000/svg">
<g clip-path="url(#clip0_429_7233)">
<path d="M17.6217 25.614C16.0215 25.614 14.8349 26.3128 13.888 27.8094C12.8808 29.4037 12.3694 31.6358 12.3694 34.4448C12.3694 37.5082 12.8521 39.8547 13.8041 41.4205C14.7128 42.9159 15.9456 43.6399 17.5767 43.6399C18.9765 43.6399 20.2195 42.9116 21.1709 41.5314C22.106 40.1768 22.8762 37.8248 23.6634 33.9342C23.036 31.0569 22.1605 28.818 21.1246 27.4629C20.1575 26.2008 19.0451 25.614 17.6217 25.614Z" fill="#CF0A2C"/>
<path fill-rule="evenodd" clip-rule="evenodd" d="M11.8794 15.6321H27.3662C33.6374 15.6321 38.7423 20.6872 38.7423 26.8994V42.2377C38.7423 48.4483 33.6374 53.5051 27.3662 53.5051H11.8794C5.60312 53.5051 0.500488 48.4483 0.500488 42.2377V26.8994C0.500488 20.6872 5.60312 15.6321 11.8794 15.6321ZM33.6071 44.5931C34.1641 43.6201 34.3914 42.4133 34.3914 40.4279V39.2232H31.6936L31.68 39.3921C31.6261 40.049 31.2097 40.7143 30.5199 40.7143C29.9921 40.7143 29.5679 40.5203 29.2213 40.123C28.8061 39.6488 28.4307 39.0795 28.0527 38.0469C29.125 34.4424 32.4335 22.8965 32.4335 22.8965H26.1554C26.1554 22.8965 25.5753 25.604 25.0521 28.0667C25.0256 28.0071 24.9986 27.9475 24.9717 27.8907C24.4489 26.784 23.6134 25.5532 22.6845 24.6879C21.0674 23.1817 19.1651 22.4479 16.869 22.4479C13.699 22.4479 11.0169 23.609 8.89798 25.9003C6.78862 28.1771 5.67514 31.0991 5.67514 34.3476C5.67514 37.9661 6.73291 40.9382 8.8192 43.1777C10.9955 45.518 13.5972 46.6073 17.0057 46.6073C18.9912 46.6073 20.8873 46.0229 22.6439 44.8728C23.7794 44.13 24.8157 43.102 25.7943 41.7664C26.2055 43.0846 26.6197 43.9857 27.1153 44.6593C27.9172 45.7475 29.1178 46.3723 30.409 46.3723C31.7526 46.3723 32.9787 45.6896 33.6071 44.5931Z" fill="#CF0A2C"/>
<path fill-rule="evenodd" clip-rule="evenodd" d="M53.5157 20.1584C56.2208 20.1584 57.453 21.5097 57.8868 23.445L59.8527 32.2059H57.7523C57.2736 32.2059 56.7982 31.827 56.6952 31.3645L56.2979 29.582H50.7339L50.3367 31.3645C50.2344 31.827 49.7583 32.2059 49.279 32.2059H47.1797L49.1433 23.445C49.5776 21.5097 50.9726 20.1584 53.5157 20.1584ZM51.975 24.0099L51.2836 27.1125H55.7476L55.0574 24.0099C54.9441 23.5079 54.5504 22.7418 53.5157 22.7418C52.4816 22.7418 52.0871 23.5079 51.975 24.0099Z" fill="#CF0A2C"/>
<path d="M65.027 23.0838H69.7104V32.206H72.6097V20.4426H63.8674C62.9108 20.4426 62.127 21.2171 62.127 22.1655V28.1099C62.127 28.9051 61.7574 29.4109 61.1143 29.5385L60.519 29.6789L61.0581 32.206H61.6095C63.5933 32.206 65.027 30.7444 65.027 28.2575V23.0838Z" fill="#CF0A2C"/>
<path fill-rule="evenodd" clip-rule="evenodd" d="M96.7505 20.4425H97.8066C101.39 20.4425 103.631 22.8619 103.631 26.3232C103.631 29.7863 101.39 32.2057 97.8066 32.2057H96.7505V32.7718C96.7505 33.2438 96.3596 33.6316 95.8802 33.6316H93.8506V32.2057H92.7945C89.2112 32.2057 86.9707 29.7863 86.9707 26.3232C86.9707 22.8619 89.2112 20.4425 92.7945 20.4425H93.8506V19.9355C93.8506 19.4608 94.2417 19.0757 94.7211 19.0757H96.7505V20.4425ZM92.7945 29.6081C90.8101 29.6081 89.8711 28.3644 89.8711 26.3232C89.8711 24.2849 90.8101 23.0412 92.7945 23.0412H93.8506V29.6081H92.7945ZM97.8066 29.6081H96.7505V23.0412H97.8066C99.7922 23.0412 100.729 24.2849 100.729 26.3232C100.729 28.3644 99.7922 29.6081 97.8066 29.6081Z" fill="#CF0A2C"/>
<path fill-rule="evenodd" clip-rule="evenodd" d="M77.4463 23.4253H81.6072C84.4413 23.4253 86.0381 25.3125 86.0381 27.8156C86.0381 30.3202 84.1351 32.2058 81.6072 32.2058H75.4169C74.9382 32.2058 74.5459 31.8185 74.5459 31.3448V20.4436H77.4463V23.4253ZM77.4463 29.5658H81.6072C82.3139 29.5658 83.1398 28.9367 83.1398 27.8156C83.1398 26.6939 82.3139 26.0671 81.6072 26.0671H77.4463V29.5658Z" fill="#CF0A2C"/>
<path fill-rule="evenodd" clip-rule="evenodd" d="M110.072 20.1584C112.778 20.1584 114.009 21.5097 114.444 23.445L116.407 32.2059H114.308C113.831 32.2059 113.354 31.827 113.251 31.3645L112.854 29.582H107.29L106.893 31.3645C106.792 31.827 106.315 32.2059 105.836 32.2059H103.735L105.699 23.445C106.134 21.5097 107.53 20.1584 110.072 20.1584ZM108.53 24.0099L107.841 27.1125H112.304L111.613 24.0099C111.5 23.5079 111.107 22.7418 110.072 22.7418C109.038 22.7418 108.644 23.5079 108.53 24.0099Z" fill="#CF0A2C"/>
<path fill-rule="evenodd" clip-rule="evenodd" d="M132.093 40.4899C132.093 41.4311 131.764 42.1103 131.252 42.6091C131.995 43.1824 132.499 44.0042 132.499 45.0541C132.499 47.1386 131.024 48.7121 128.804 48.7121L121.267 48.7109C120.789 48.7109 120.397 48.3237 120.397 47.8502V37.808C120.397 37.3338 120.789 36.9478 121.267 36.9478H128.356C130.462 36.9478 132.093 38.4048 132.093 40.4899ZM128.353 39.3884C128.738 39.3884 129.266 39.8174 129.266 40.5485C129.266 41.2857 128.738 41.6612 128.353 41.7079H123.239V39.3884H128.353ZM128.585 46.271H123.239V43.9508H128.585C128.971 43.9977 129.497 44.3732 129.497 45.1109C129.497 45.8413 128.971 46.271 128.585 46.271Z" fill="#CF0A2C"/>
<path fill-rule="evenodd" clip-rule="evenodd" d="M106.01 42.8286C106.01 39.2046 108.515 36.6765 112.1 36.6765H113.092C116.678 36.6765 119.182 39.2046 119.182 42.8286C119.182 46.4516 116.678 48.9819 113.092 48.9819H112.1C108.515 48.9819 106.01 46.4516 106.01 42.8286ZM112.274 39.1064C110.276 39.1064 109.141 40.7196 109.141 42.8286C109.141 44.9388 110.276 46.553 112.274 46.553H112.918C114.915 46.553 116.049 44.9388 116.049 42.8286C116.049 40.7196 114.915 39.1064 112.918 39.1064H112.274Z" fill="#CF0A2C"/>
<path d="M57.9869 36.9478L58.3688 38.7269C58.4707 39.2016 58.9455 39.5877 59.4244 39.5877H62.1274V48.7109H65.0278V39.5877H67.6458C68.1235 39.5877 68.5972 39.2016 68.6991 38.7269L69.0816 36.9478H57.9869Z" fill="#CF0A2C"/>
<path d="M155.66 36.9478V41.6188H150.019V36.9478H147.118V48.7109H150.019V44.1414H155.66V48.7109H158.56V36.9478H155.66Z" fill="#CF0A2C"/>
<path fill-rule="evenodd" clip-rule="evenodd" d="M87.3625 36.6643C90.0695 36.6643 91.2987 38.0149 91.7342 39.9512L93.699 48.7111H91.6004C91.121 48.7111 90.6433 48.3334 90.542 47.8709L90.1448 46.0872H84.583L84.1864 47.8709C84.0828 48.3334 83.608 48.7111 83.1286 48.7111H81.0288L82.9936 39.9512C83.4262 38.0149 84.8217 36.6643 87.3625 36.6643ZM85.8225 40.5151L85.1316 43.6177H89.5946L88.9047 40.5173C88.7911 40.0141 88.3973 39.2468 87.3625 39.2468C86.3272 39.2468 85.9345 40.0141 85.8225 40.5151Z" fill="#CF0A2C"/>
<path fill-rule="evenodd" clip-rule="evenodd" d="M139.501 36.6643C142.207 36.6643 143.438 38.0149 143.873 39.9512L145.839 48.7111H143.737C143.26 48.7111 142.785 48.3334 142.681 47.8709L142.283 46.0872H136.72L136.323 47.8709C136.221 48.3334 135.745 48.7111 135.266 48.7111H133.166L135.129 39.9512C135.565 38.0149 136.958 36.6643 139.501 36.6643ZM137.961 40.5151L137.269 43.6177H141.733L141.043 40.5173C140.93 40.0141 140.535 39.2468 139.501 39.2468C138.467 39.2468 138.075 40.0141 137.961 40.5151Z" fill="#CF0A2C"/>
<path d="M58.8883 48.6781V48.7121H53.2232C49.7938 48.7121 47.3987 46.2938 47.3987 42.8285C47.3987 39.3655 49.7938 36.9473 53.2232 36.9473H57.5205L57.1003 38.7497C56.9934 39.2122 56.514 39.5879 56.0353 39.5879H53.2232C51.3905 39.5879 50.2979 40.9425 50.2979 42.8285C50.2979 44.7147 51.3905 46.0703 53.2232 46.0703H57.4108C57.888 46.0703 58.3686 46.447 58.476 46.9095L58.8883 48.6781Z" fill="#CF0A2C"/>
<path fill-rule="evenodd" clip-rule="evenodd" d="M70.6628 36.9484L76.8524 36.9473C79.3805 36.9473 81.2855 38.8357 81.2855 41.3386C81.2855 43.8411 79.6894 45.7278 76.8524 45.7278H72.6929V48.7121H69.7925V37.8092C69.7925 37.3362 70.1834 36.9484 70.6628 36.9484ZM72.6929 43.0866H76.8524C77.5603 43.0866 78.3867 42.4597 78.3867 41.3386C78.3867 40.217 77.5603 39.5913 76.8524 39.5913H72.6929V43.0866Z" fill="#CF0A2C"/>
<path d="M183.142 46.2276H176.896V43.9692H183.686V41.7002H176.896V39.4303H183.142C183.656 39.4303 184.063 39.2068 184.206 38.5911L184.593 36.9478H174.866C174.389 36.9478 173.997 37.334 173.997 37.8087V47.8502C173.997 48.3239 174.389 48.7121 174.866 48.7121H184.593L184.206 47.0689C184.063 46.4527 183.656 46.2276 183.142 46.2276Z" fill="#CF0A2C"/>
<path d="M160.549 48.7111V36.9478H163.449V44.708L168.472 37.641C168.757 37.2598 169.377 36.9478 169.859 36.9478H172.008V48.7111H169.109V40.9503L164.082 48.0168C163.801 48.3986 163.178 48.7111 162.699 48.7111H160.549Z" fill="#CF0A2C"/>
<path d="M102.445 42.7667L106.493 36.9478H103.829C103.253 36.9478 102.849 37.1206 102.493 37.6734L100.337 41.0265H99.9506L97.7929 37.6734C97.439 37.1206 97.035 36.9478 96.4559 36.9478H93.7074L97.8406 42.891L93.7935 48.7111H96.4559C97.035 48.7111 97.439 48.5389 97.7929 47.985L99.9506 44.6311H100.337L102.493 47.985C102.849 48.5389 103.253 48.7111 103.829 48.7111H106.579L102.445 42.7667Z" fill="#CF0A2C"/>
</g>
<defs>
<clipPath id="clip0_429_7233">
<rect width="184.25" height="67" fill="white" transform="translate(0.5)"/>
</clipPath>
</defs>
</svg>
