<svg width="185" height="67" viewBox="0 0 185 67" fill="none" xmlns="http://www.w3.org/2000/svg">
<g clip-path="url(#clip0_429_7252)">
<path d="M20.194 39.5961C18.7266 39.6254 17.2944 39.1432 16.1436 38.232C14.9927 37.3208 14.1948 36.0376 13.8866 34.6024V34.5581C13.7816 33.9071 13.7257 33.2494 13.7194 32.5901V26.632H18.0194V32.5901C18.0232 33.0018 18.0561 33.4129 18.1179 33.82C18.2663 34.2478 18.5445 34.6189 18.9135 34.8813C19.2825 35.1438 19.724 35.2848 20.177 35.2848C20.6297 35.2848 21.0714 35.1438 21.4402 34.8813C21.8092 34.6189 22.0875 34.2478 22.2359 33.82C22.3029 33.4083 22.3407 32.9924 22.3491 32.5754V26.6221H26.6688V32.5802C26.6627 33.2393 26.6085 33.8971 26.5064 34.5482V34.5974C26.2001 36.0349 25.4021 37.3205 24.2499 38.2328C23.0977 39.1452 21.6635 39.6273 20.194 39.5961Z" fill="#034991"/>
<path d="M20.1791 46.0611C17.2558 46.0616 14.413 45.1042 12.0856 43.3356C9.75965 41.592 8.15848 39.0519 7.58873 36.2016V36.1572C7.35693 34.6922 7.2336 33.2122 7.21973 31.7291V20.8462H11.5247V31.7489C11.5391 32.9763 11.6411 34.2013 11.8298 35.4143C12.5284 39.0256 16.1102 41.7415 20.1642 41.7415C24.2184 41.7415 27.7952 39.0256 28.4938 35.4192C28.6848 34.2048 28.7868 32.9782 28.7988 31.7489V15.075H33.1187V31.7489C33.1046 33.232 32.9813 34.712 32.7497 36.1769V36.2212C32.1825 39.0702 30.5849 41.6101 28.2627 43.3551C25.9364 45.1167 23.097 46.0673 20.1791 46.0611Z" fill="#034991"/>
<path d="M20.184 52.5408C15.7921 52.5435 11.5203 51.1074 8.02178 48.4523C4.5592 45.8536 2.17537 42.0703 1.32564 37.8251V37.7807C0.964417 35.5187 0.772005 33.2328 0.75 30.9421V15.075H5.06977V30.9421C5.08599 32.9832 5.25042 35.0205 5.56177 37.0379C6.79178 43.4339 13.0648 48.221 20.1741 48.221C27.2837 48.221 33.5468 43.4143 34.7768 37.0379C35.0842 35.0183 35.2486 32.9797 35.2687 30.937V20.8462H39.5886V30.9421C39.5666 33.2309 39.3758 35.5151 39.0179 37.7759V37.8251C38.1673 42.0699 35.7836 45.8529 32.3217 48.4523C28.831 51.1042 24.5678 52.5403 20.184 52.5408ZM54.0386 47.5175C54.4051 47.3177 54.817 47.216 55.2342 47.2224C55.5615 47.2172 55.886 47.2827 56.1858 47.4142C56.4855 47.5458 56.7533 47.7405 56.971 47.9848L57.773 47.2371C57.4704 46.8862 57.0895 46.6115 56.661 46.4351C56.1937 46.241 55.691 46.1455 55.185 46.1547C54.5657 46.1449 53.9542 46.2939 53.4088 46.5876C52.8923 46.8619 52.4603 47.272 52.1593 47.7733C51.8569 48.2969 51.6978 48.8909 51.6978 49.4954C51.6978 50.0999 51.8569 50.6938 52.1593 51.2174C52.4551 51.7208 52.884 52.1328 53.3991 52.408C53.9458 52.6973 54.5567 52.8445 55.1751 52.836C55.6806 52.843 56.1823 52.7494 56.6511 52.5606C57.0819 52.3834 57.4647 52.107 57.768 51.7536L56.9906 51.0156C56.7739 51.2615 56.5062 51.4575 56.2064 51.59C55.9066 51.7224 55.5816 51.7883 55.2538 51.7832C54.8366 51.7894 54.4247 51.6878 54.0584 51.4879C53.714 51.3 53.4279 51.021 53.2318 50.6811C53.038 50.3195 52.9366 49.9155 52.9366 49.5052C52.9366 49.0949 53.038 48.691 53.2318 48.3294C53.4219 47.9904 53.7008 47.7096 54.0386 47.5175ZM60.5282 47.2813H62.6732V52.7377H63.8689V47.2813H66.0189V46.2629H60.5282V47.2813ZM73.6105 46.5385C73.1428 46.3454 72.6402 46.2516 72.1345 46.2629H69.4679V52.7377H70.6732V50.868H72.1492C72.6552 50.8819 73.1584 50.7881 73.6252 50.5925C74.0182 50.4275 74.3525 50.1481 74.5847 49.7905C74.8044 49.418 74.9203 48.9932 74.9203 48.5605C74.9203 48.1279 74.8044 47.7031 74.5847 47.3306C74.3462 46.9753 74.007 46.6995 73.6105 46.5385ZM73.2809 49.52C72.9328 49.7659 72.5104 49.8841 72.0852 49.8545H70.6781V47.2813H72.0852C72.5098 47.2504 72.9321 47.3668 73.2809 47.611C73.41 47.7341 73.5128 47.8822 73.5832 48.0463C73.6534 48.2103 73.6897 48.387 73.6897 48.5656C73.6897 48.744 73.6534 48.9207 73.5832 49.0847C73.5128 49.2488 73.41 49.3969 73.2809 49.52ZM80.405 46.2531L77.4826 52.7278H78.7273L79.367 51.2518H82.6141L83.2635 52.7278H84.5231L81.5711 46.2531H80.405ZM79.7752 50.2875L80.9905 47.4535L82.2156 50.2875H79.7752ZM93.1626 46.2629H91.7554L90.2253 48.4277L88.6952 46.2629H87.3029L89.5021 49.4166L87.1552 52.7377H88.5428L90.2253 50.3809L91.9129 52.7377H93.3397L90.9831 49.3724L93.1626 46.2629ZM101.409 46.6025C100.854 46.3191 100.24 46.1713 99.6177 46.1713C98.995 46.1713 98.3812 46.3191 97.8268 46.6025C97.3079 46.8758 96.8752 47.288 96.5771 47.7931C96.2774 48.3121 96.1196 48.9009 96.1196 49.5002C96.1196 50.0997 96.2774 50.6885 96.5771 51.2075C96.8766 51.7127 97.3087 52.1263 97.8268 52.4032C98.3812 52.6864 98.995 52.8341 99.6177 52.8341C100.24 52.8341 100.854 52.6864 101.409 52.4032C101.926 52.1283 102.359 51.7164 102.658 51.2124C102.961 50.689 103.12 50.095 103.12 49.4905C103.12 48.8858 102.961 48.292 102.658 47.7684C102.357 47.2721 101.925 46.8686 101.409 46.6025ZM101.6 50.6712C101.411 51.0127 101.13 51.2941 100.789 51.4831C100.429 51.6777 100.027 51.7796 99.6177 51.7796C99.2087 51.7796 98.8064 51.6777 98.4467 51.4831C98.1028 51.2983 97.8181 51.0203 97.625 50.6811C97.4283 50.3221 97.3251 49.9195 97.3251 49.5101C97.3251 49.1007 97.4283 48.6981 97.625 48.3391C97.8139 47.9976 98.0953 47.7163 98.4368 47.5274C98.7965 47.3328 99.199 47.2308 99.6078 47.2308C100.017 47.2308 100.419 47.3328 100.779 47.5274C101.12 47.7163 101.402 47.9976 101.591 48.3391C101.787 48.6981 101.891 49.1007 101.891 49.5101C101.891 49.9195 101.787 50.3221 101.591 50.6811L101.6 50.6712ZM110.909 49.3724C111.195 49.2558 111.441 49.0594 111.618 48.8066C111.785 48.544 111.871 48.2374 111.864 47.9259C111.873 47.6857 111.822 47.447 111.714 47.2319C111.607 47.0169 111.446 46.8324 111.249 46.6959C110.738 46.3782 110.142 46.2269 109.541 46.2629H106.638V52.7377H109.718C110.365 52.7735 111.007 52.6011 111.549 52.2457C111.887 51.9703 112.108 51.5757 112.164 51.1427C112.221 50.7099 112.11 50.2719 111.854 49.9185C111.605 49.6406 111.274 49.4491 110.909 49.3724ZM107.829 47.1879H109.433C109.748 47.1671 110.061 47.25 110.324 47.4241C110.425 47.5065 110.506 47.612 110.559 47.7318C110.612 47.8515 110.636 47.982 110.629 48.1128C110.637 48.243 110.613 48.3733 110.56 48.4924C110.507 48.6115 110.426 48.7158 110.324 48.7967C110.059 48.9667 109.747 49.0478 109.433 49.028H107.819L107.829 47.1879ZM109.684 51.8127H107.829V49.9086H109.684C110.535 49.9086 110.963 50.2235 110.963 50.8533C110.963 51.4831 110.53 51.8127 109.679 51.8127H109.684ZM117.797 46.2531L114.845 52.7377H116.085L116.73 51.2617H119.972L120.621 52.7377H121.886L118.934 46.2629L117.797 46.2531ZM117.162 50.2875L118.378 47.4535L119.603 50.2875H117.162ZM129.827 48.9344H126.466V46.2629H125.261V52.7377H126.466V49.9627H129.827V52.7377H131.032V46.2629H129.827V48.9344ZM136.592 50.8632V46.2629H135.406V52.7377H136.523L140.011 48.1522V52.7377H141.202V46.2629H140.08L136.592 50.8632ZM146.776 47.2715V48.9542H149.915V49.9431H146.776V51.7291H149.935V52.7377H145.571V46.2629H149.935V47.2715H146.776ZM74.1418 21.781C72.5834 20.9286 70.8307 20.4946 69.0545 20.5214C67.4899 20.5097 65.942 20.8457 64.5233 21.5054C63.1721 22.1182 61.99 23.0501 61.0791 24.2213C60.1772 25.3948 59.5668 26.7658 59.2981 28.2212H56.789V20.8411H52.4691V39.5815H56.789V31.9506H59.2489C59.475 33.4445 60.0653 34.8599 60.9681 36.0714C61.8708 37.2831 63.058 38.2538 64.4248 38.8976C65.8691 39.57 67.4468 39.9063 69.0398 39.8817C70.8159 39.9085 72.5686 39.4745 74.1271 38.6221C75.6046 37.8199 76.8347 36.629 77.6843 35.1781C78.5265 33.6582 78.9681 31.9491 78.9681 30.2114C78.9681 28.4738 78.5265 26.7646 77.6843 25.2445C76.8416 23.7885 75.6165 22.5907 74.1418 21.781ZM73.8614 33.343C73.4145 34.2172 72.733 34.9497 71.8935 35.4585C71.0355 35.9486 70.0647 36.2066 69.0766 36.2066C68.0887 36.2066 67.1179 35.9486 66.2599 35.4585C65.4202 34.9497 64.7389 34.2172 64.292 33.343C63.8163 32.3675 63.569 31.2967 63.569 30.2114C63.569 29.1262 63.8163 28.0552 64.292 27.0798C64.7389 26.2057 65.4202 25.473 66.2599 24.9642C67.1179 24.474 68.0887 24.2163 69.0766 24.2163C70.0647 24.2163 71.0355 24.474 71.8935 24.9642C72.733 25.473 73.4145 26.2057 73.8614 27.0798C74.3371 28.0552 74.5843 29.1262 74.5843 30.2114C74.5843 31.2967 74.3371 32.3675 73.8614 33.343ZM87.8244 24.3737H96.764L96.7886 20.8411H83.5342V39.5815H87.8539L87.8244 24.3737ZM109.64 39.9013C111.471 39.9303 113.28 39.4971 114.899 38.6419C116.413 37.8466 117.683 36.6565 118.575 35.1977C119.456 33.6909 119.92 31.9767 119.92 30.231C119.92 28.4855 119.456 26.7713 118.575 25.2643C117.683 23.8056 116.413 22.6155 114.899 21.8203C113.267 20.9922 111.463 20.5606 109.632 20.5606C107.802 20.5606 105.998 20.9922 104.366 21.8203C102.848 22.6104 101.577 23.8017 100.69 25.2643C99.8199 26.7748 99.3616 28.4877 99.3616 30.231C99.3616 31.9745 99.8199 33.6872 100.69 35.1977C101.577 36.6605 102.848 37.8518 104.366 38.6419C105.99 39.4971 107.804 39.9303 109.64 39.9013ZM104.513 27.1045C105.001 26.212 105.731 25.4755 106.619 24.9789C107.542 24.4786 108.575 24.2164 109.625 24.2164C110.675 24.2164 111.708 24.4786 112.631 24.9789C113.516 25.4792 114.245 26.2149 114.737 27.1045C115.238 28.0634 115.499 29.1294 115.499 30.2114C115.499 31.2933 115.238 32.3593 114.737 33.3184C114.245 34.2078 113.516 34.9435 112.631 35.4438C111.708 35.9441 110.675 36.2062 109.625 36.2062C108.575 36.2062 107.542 35.9441 106.619 35.4438C105.731 34.9473 105.001 34.2107 104.513 33.3184C104.009 32.3603 103.745 31.294 103.745 30.2114C103.745 29.1287 104.009 28.0624 104.513 27.1045ZM139.622 31.2421C140.27 30.1506 140.611 28.9049 140.611 27.6358C140.611 26.3666 140.27 25.1209 139.622 24.0293C138.93 22.9771 137.945 22.1508 136.788 21.653C135.419 21.0713 133.941 20.7879 132.454 20.8215H124.326V39.5619H128.67V34.4155H132.454C133.94 34.4488 135.416 34.1706 136.788 33.5988C137.945 33.1112 138.932 32.2909 139.622 31.2421ZM135.194 30.0367C134.329 30.656 133.275 30.9551 132.213 30.8829H128.67V24.3737H132.213C133.275 24.3017 134.329 24.6008 135.194 25.2201C135.539 25.5176 135.811 25.8909 135.988 26.3109C136.164 26.7308 136.241 27.186 136.213 27.6406C136.234 28.088 136.154 28.5346 135.977 28.9463C135.801 29.358 135.533 29.7242 135.194 30.017V30.0367ZM162.973 39.5815V20.8411H158.894L149.93 33.0477V20.8411H145.61V39.5815H149.718L158.678 27.3996V39.5815H162.973ZM176.074 20.8411C174.598 20.8061 173.133 21.0949 171.779 21.6875C170.622 22.1997 169.642 23.0439 168.965 24.1131C168.31 25.2548 167.967 26.549 167.971 27.8654C167.976 29.1818 168.327 30.4737 168.99 31.6111C169.699 32.6774 170.722 33.4961 171.917 33.953L167.981 39.6013H172.572L175.898 34.6222H179.868V39.6013H184.163V20.8411H176.074ZM179.883 31.1732H176.074C175.074 31.2466 174.084 30.9312 173.31 30.2925C172.985 29.9624 172.734 29.5672 172.572 29.1332C172.409 28.6991 172.34 28.2359 172.37 27.7735C172.337 27.3041 172.409 26.8331 172.578 26.3944C172.749 25.9556 173.014 25.5596 173.354 25.2348C174.161 24.6101 175.169 24.3035 176.188 24.3737H179.888L179.883 31.1732Z" fill="#034991"/>
</g>
<defs>
<clipPath id="clip0_429_7252">
<rect width="184.25" height="67" fill="white" transform="translate(0.75)"/>
</clipPath>
</defs>
</svg>
