<svg width="185" height="67" viewBox="0 0 185 67" fill="none" xmlns="http://www.w3.org/2000/svg">
<path fill-rule="evenodd" clip-rule="evenodd" d="M177.179 26.4429C177.179 20.9086 172.454 16.4554 162.868 16.4554C152.666 16.4554 147.419 22.1346 147.419 29.1526H156.788C156.788 25.5079 158.827 23.6076 162.732 23.6076C166.428 23.6076 168.003 24.93 168.003 27.0219C168.003 29.1128 166.838 30.5371 163.964 30.5371L158.663 30.5411V36.5395L163.825 36.5355C167.113 36.5355 168.483 37.9531 168.483 40.2475C168.483 42.4065 167.046 44.4585 162.868 44.4585C158.349 44.4585 156.295 42.1651 156.295 38.3861H146.95C146.95 46.9561 153.009 51.5446 162.868 51.5446C172.59 51.5446 178 47.4951 178 41.0171C178 37.6439 176.22 35.2143 172.797 33.7976C175.74 32.2457 177.179 29.4115 177.179 26.442V26.4429ZM131.976 50.633H141.592V17.368H131.976V21.0069C129.499 17.942 126.234 16.684 122.683 16.684C113.647 16.684 106.45 23.6096 106.45 34C106.45 44.3904 113.647 51.316 122.683 51.316C126.234 51.316 129.499 50.057 131.976 46.9931V50.632V50.633ZM132.646 34C132.646 39.2619 128.686 43.1139 123.943 43.1139C119.27 43.1139 115.242 39.2619 115.242 34C115.242 28.7381 119.27 24.8861 123.944 24.8861C128.686 24.8861 132.646 28.7381 132.646 34ZM90.2321 25.3503H104.205V17.367H80.6221V50.633H90.2331V25.3503H90.2321ZM75.8755 34C75.8755 24.0591 67.7765 16 57.7866 16C47.7959 16 39.6979 24.0591 39.6979 34C39.6979 43.9409 47.7969 52 57.7866 52C67.7775 52 75.8755 43.9409 75.8755 34ZM68.085 35.7221C62.5402 37.0319 58.6788 41.7254 57.7866 49.2854C56.8947 41.7254 53.0331 37.0319 47.4884 35.7221C46.5351 29.8045 51.7851 24.6294 57.7866 24.6205C63.7883 24.6294 69.0384 29.8045 68.085 35.7221ZM8.7853 34C8.7853 28.6 12.4491 24.2021 17.7149 24.2021C21.7604 24.2021 25.1187 26.405 25.9583 29.6703H35.1174C34.6427 22.0946 27.689 16 17.9266 16C7.6995 16 0 23.4111 0 34.0029C0 44.5956 7.6995 52 17.9266 52C27.8599 52 34.8802 45.9335 35.1174 37.6457H25.9583C25.2443 41.4345 22.0661 43.7969 17.7159 43.7969C12.907 43.7969 8.7853 39.5391 8.7853 34Z" fill="#000078"/>
</svg>
