<svg width="185" height="67" viewBox="0 0 185 67" fill="none" xmlns="http://www.w3.org/2000/svg">
<g clip-path="url(#clip0_429_7258)">
<path d="M63.2091 24.8843L57.596 34.0244V24.8843H47.4587V50.2731H57.596V40.6266L62.9173 50.2731H74.5748L65.7072 36.9252L74.3239 24.8843H63.2091Z" fill="#2E6EB4"/>
<path d="M44.8985 49.4769C43.3056 50.3092 41.1328 51.0353 38.0922 51.0353C29.8378 51.0353 23.9719 45.7046 23.9719 37.5793C23.9719 28.3685 31.5032 24.1252 37.9471 24.1252C40.0121 24.1252 42.8708 24.6318 44.8985 26.0468V34.9337C43.3428 33.0103 41.0604 32.2488 39.2873 32.2488C35.5216 32.2488 33.7112 34.7511 33.7112 37.8344C33.7112 41.063 36.0643 42.9119 39.2501 42.9119C41.4953 42.9119 43.4507 41.8972 44.8985 40.5918V49.4769Z" fill="#2E6EB4"/>
<path fill-rule="evenodd" clip-rule="evenodd" d="M0.25 24.7231V50.1101H15.2383C22.2622 50.1101 23.7826 45.6137 23.7826 43.0386C23.7826 39.5923 21.4295 37.0918 18.1712 36.5481V36.4754C20.2696 35.8592 22.5875 34.0438 22.5875 31.1784C22.5875 29.2215 21.8272 24.7231 14.5505 24.7231H0.25ZM10.3871 44.02V40.2105H11.6176C12.5952 40.2105 14.1509 40.3911 14.1509 42.0947C14.1509 43.8709 12.5599 44.02 11.6176 44.02H10.3871ZM10.3871 30.8171V34.3716H11.3276C13.1026 34.3716 13.5729 33.463 13.5729 32.5935C13.5729 31.724 13.1026 30.8171 11.3276 30.8171H10.3871Z" fill="#2E6EB4"/>
<path d="M119.274 21.2377L117.159 21.3456L116.962 20.6928L114.927 20.5135L114.912 20.0401L112.725 20L113.086 20.9836L114.061 21.1245L113.94 20.8025L114.825 21.5457L116.294 21.9583L117.268 22L119.725 21.5927L119.274 21.2377Z" fill="#6EB7E4"/>
<path d="M113.725 19.4929L112.655 19.3539C112.655 19.3539 112.684 18.9986 112.268 18.7995C111.85 18.6004 111.944 18.7838 111.944 18.7838L111.537 18.4973L110.789 18.3741L110.727 17.834L109.757 17.7896L109.781 17.5217L109.018 17.4329L108.698 17.1549L108.8 16.847L108.609 16.5691L107.701 16.1551L106.938 15.8642L106.435 15.3098L105.839 14.8099L105.067 14.085L103.145 13.4389L101.323 12.1468L100.584 11.8445L99.8009 11.4748L98.1431 10.6154L95.6994 9.30456L90.2969 6.78467L88.7571 6.1257C87.8823 5.76039 87.7411 5.567 87.7208 5.45812C86.9291 5.28049 86.6656 5.14869 86.2523 4.74901C85.8316 4.7662 84.8987 4.25048 84.6425 4.00837C84.6425 3.99691 83.0518 3.54853 82.9499 3.46114C82.947 3.36945 78.8193 1.9684 78.3113 1.85094C77.9518 1.82228 76.9534 1.64322 76.8166 1.58162C76.6493 1.58305 76.0133 1.39252 75.7571 1.36673C74.8984 1.27076 74.079 1.14326 73.1941 1.13179C72.5624 1.12319 72.2014 1.13036 71.6469 1C71.4504 1.11747 70.1595 0.895417 69.6967 1.22204C69.1786 1.24209 67.9982 1.49423 67.6707 1.64608C66.9648 1.6733 65.7612 2.4168 65.3565 2.60876C65.1528 2.70187 64.9375 2.80072 64.725 2.901C66.0159 3.33793 67.48 3.85653 67.4829 3.91097C67.5863 3.99977 69.1757 4.4453 69.1757 4.45677C69.4318 4.69886 70.3647 5.21459 70.7853 5.20027C71.1987 5.59852 71.4621 5.73031 72.2525 5.90795C72.2742 6.01826 72.4154 6.21022 73.2886 6.57695L74.8301 7.23307L80.2326 9.75434L82.6763 11.0651L84.334 11.9247L85.1171 12.2944L85.8564 12.5966L86.4619 13.0264L87.6524 13.4719L90.3377 14.3114L93.5804 15.5262L94.7913 15.9244L96.0095 16.2854L96.5829 16.1851L97.2146 16.3929L97.9161 16.996L98.6292 16.7696L99.1138 16.8499L99.4953 17.3326L99.7485 17.622L100.358 17.7953L100.964 17.8698L101.681 17.7452L102.527 17.8096L102.824 18.2954L104.001 18.4931L104.847 18.5547L105.693 18.6177L106.343 18.907L106.935 19.5273L107.784 19.692L109.982 20L111.968 19.7709L113.262 19.8296L113.725 19.4929Z" fill="#6EB7E4"/>
<path d="M96.725 22L98.9123 22.0601L98.9259 22.7669L100.961 23.0382L101.158 24.0139L103.272 23.8522L103.725 24.3842L101.268 25L100.293 24.9322L98.828 24.319L97.9424 23.2027L98.0622 23.6852L97.0881 23.474L96.725 22Z" fill="#2E6EB4"/>
<path d="M96.6629 21.3892C96.6629 21.3892 96.6932 21.0527 96.2786 20.8626C95.8653 20.6754 95.9577 20.8477 95.9577 20.8477L95.5531 20.5763L94.8104 20.4596L94.7496 19.9465L93.7858 19.9045L93.809 19.652L93.0532 19.5679L92.7339 19.306L92.8365 19.0142L92.6457 18.7495L91.7441 18.356L90.9868 18.0818L90.4869 17.558L89.8944 17.0816L89.13 16.3962L87.2226 15.7841L85.4134 14.5614L84.6779 14.275L83.9005 13.9235L82.2546 13.1092L79.8298 11.8674L74.4645 9.4788L72.9342 8.85589C72.0672 8.50988 71.9269 8.32796 71.9067 8.22345C71.1207 8.0552 70.8591 7.9303 70.4488 7.55303C70.0326 7.56796 69.1049 7.07938 68.852 6.85003C68.8505 6.83916 67.2726 6.41573 67.17 6.33159C67.1657 6.24745 63.069 4.91744 62.5646 4.80615C62.2077 4.78037 61.2164 4.61072 61.0806 4.55236C60.9145 4.55371 60.2844 4.37321 60.0301 4.34743C59.1775 4.25786 58.3626 4.13436 57.484 4.12486C56.8568 4.11535 56.4999 4.12214 55.9479 4C55.7528 4.11129 54.4711 3.89957 54.0116 4.21037C53.4986 4.22936 52.3253 4.46822 52.0001 4.61207C51.2993 4.63786 50.1042 5.34358 49.7025 5.52273C49.3485 5.68152 48.9468 5.8403 48.6173 6.02894C48.4613 6.14159 46.2172 7.15946 46.0669 7.28567C46.103 7.35761 43.8719 8.56958 43.6609 8.75003C43.5684 8.84368 42.9745 9.06625 42.8256 9.19518C42.6653 9.32814 42.0743 9.81944 41.8734 9.9104C41.7839 10.0815 41.2159 10.2701 41.1249 10.4397C40.9891 10.6134 40.3127 10.9106 40.2029 11.0286C40.1885 11.0423 39.8128 11.3246 39.5108 11.5499L39.1337 12.0059C38.9891 12.0574 38.3894 12.3736 38.2349 12.4808C38.2493 12.8066 38.2752 13.3236 37.7132 13.2246C37.6987 13.2137 37.0702 13.5923 37.0557 13.5815C37.1366 13.5774 36.7089 14.1529 36.3548 14.56C36.1453 14.7935 35.1801 15.1151 34.9936 15.3567C34.6079 15.8493 34.1107 16.3026 33.725 16.783C33.725 16.7967 33.7264 16.8075 33.7264 16.8211C33.7423 16.8197 33.7568 16.8197 33.7726 16.8197C33.7769 16.8835 34.144 16.8739 34.1974 17.007C34.2711 17.1957 34.0443 17.3652 33.9879 17.535C34.0024 17.535 34.0182 17.535 34.0327 17.5335C34.0341 17.5472 34.0341 17.5594 34.0356 17.5716C34.3318 17.5607 34.6252 17.2771 34.8636 17.1589C35.063 17.0883 35.2638 17.0164 35.4648 16.9459C35.8187 16.7532 36.1742 16.5591 36.5283 16.3678C39.1856 15.0459 41.8401 13.7226 44.4961 12.4035C45.7692 11.7793 46.7792 11.1929 48.1824 10.4831C48.5161 10.3149 49.7936 9.52764 50.7589 9.47075C51.9784 9.39468 53.4451 9.67965 53.8368 9.83299C54.2125 9.95387 55.1358 10.3827 55.6011 10.4858C55.7456 10.5347 56.0101 10.7111 56.0737 10.7084C56.1185 10.7681 56.9955 10.893 57.4565 11.0463C57.6169 11.1346 57.7729 11.2214 57.9305 11.3082C58.6935 11.5119 60.5893 11.9204 61.2757 12.1144C61.8595 12.2759 62.2048 12.5758 62.4939 12.6342C62.8941 12.888 62.9737 12.7591 63.4664 12.9749C64.2005 13.044 64.6528 13.2856 64.6758 13.306C64.9042 13.3915 65.0574 13.4811 65.2857 13.5652C65.4764 13.5897 65.8406 13.8448 65.9837 13.9113C66.1541 13.9425 67.3506 14.2778 67.4706 14.332C67.6671 14.3144 68.5153 14.651 68.6208 14.7338C68.8621 14.8368 69.1309 14.8925 69.4025 14.9442L71.8403 15.8154L74.505 16.6121L77.7245 17.7616L78.9267 18.1375L80.1377 18.4808L80.7056 18.3845L81.3341 18.5813L82.0291 19.154L82.7372 18.9395L83.2183 19.0169L83.5985 19.4729L83.8485 19.7457L84.4539 19.9126L85.055 19.9846L85.7689 19.8624L86.6085 19.9263L86.9033 20.3863L88.0709 20.5709L88.9104 20.6306L89.75 20.6903L90.3973 20.9644L90.9825 21.552L91.8264 21.7082L94.0084 22L95.9809 21.7828L97.267 21.8398L97.725 21.5209L96.6629 21.3892Z" fill="#2E6EB4"/>
<path d="M83.0254 49.2384C82.5385 49.4879 81.8934 49.7021 81.0181 49.7021C79.5925 49.7021 78.73 49.2272 78.0461 48.5961C77.1093 47.7191 76.745 46.7323 76.745 45.5705C76.745 44.133 77.3528 43.0979 78.0461 42.4686C78.862 41.72 79.8731 41.4241 81.0291 41.4241C81.6017 41.4241 82.2819 41.5209 83.0254 41.9118V43.716C82.2819 42.8857 81.3583 42.826 81.0645 42.826C79.4345 42.826 78.3751 44.133 78.3751 45.5928C78.3751 47.3485 79.7635 48.2999 81.1258 48.2999C81.8805 48.2999 82.5495 47.9797 83.0254 47.4323V49.2384Z" fill="#2E6EB4"/>
<path d="M87.6517 49.5235H86.0682V42.9342H84.2429V41.6047H89.477V42.9342H87.6517V49.5235Z" fill="#2E6EB4"/>
<path fill-rule="evenodd" clip-rule="evenodd" d="M91.0811 49.5235V41.6047H93.4453C94.356 41.6047 94.9917 41.6979 95.5865 42.2081C96.2426 42.7777 96.4136 43.5523 96.4136 44.1203C96.4136 44.4293 96.3653 45.2839 95.7426 45.8909C95.2928 46.3302 94.6255 46.5909 93.6889 46.5909H92.6648V49.5235H91.0811ZM93.213 42.9342H92.6648V45.2598H93.3096C93.6145 45.2598 94.0029 45.2598 94.345 45.012C94.6367 44.7867 94.7818 44.4293 94.7818 44.0847C94.7818 43.6454 94.5624 43.3494 94.3319 43.1817C94.0029 42.9565 93.5885 42.9342 93.213 42.9342Z" fill="#2E6EB4"/>
<path fill-rule="evenodd" clip-rule="evenodd" d="M104.898 49.5235H103.194L102.475 47.8607H99.1996L98.4839 49.5235H96.7665L100.283 41.4373H101.476L104.898 49.5235ZM100.869 43.7534L99.6996 46.6021H102.012L100.869 43.7534Z" fill="#2E6EB4"/>
<path d="M108.502 45.3435L106.078 41.6047H107.978L109.402 44.0606L110.9 41.6047H112.799L110.301 45.3435L113.08 49.5235H111.178L109.402 46.6264L107.528 49.5235H105.629L108.502 45.3435Z" fill="#2E6EB4"/>
<path fill-rule="evenodd" clip-rule="evenodd" d="M114.465 45.5705C114.465 43.1594 116.242 41.4241 118.797 41.4241C121.353 41.4241 123.13 43.1594 123.13 45.5705C123.13 47.9797 121.353 49.7021 118.797 49.7021C116.242 49.7021 114.465 47.9797 114.465 45.5705ZM116.095 45.5705C116.095 47.1735 117.216 48.2999 118.797 48.2999C120.379 48.2999 121.5 47.1735 121.5 45.5705C121.5 43.9655 120.379 42.826 118.797 42.826C117.216 42.826 116.095 43.9655 116.095 45.5705Z" fill="#2E6EB4"/>
<path fill-rule="evenodd" clip-rule="evenodd" d="M125.202 41.6047V49.5235H127.927C128.633 49.5235 129.375 49.406 129.985 48.8829C130.546 48.3952 130.678 47.7416 130.678 47.2798C130.678 46.8646 130.581 46.2465 130.094 45.7959C129.888 45.6041 129.572 45.3807 129.035 45.2969C129.254 45.1777 129.947 44.7606 129.947 43.7422C129.947 43.0757 129.669 42.4575 129.193 42.1019C128.537 41.6047 127.659 41.6047 127.21 41.6047H125.202ZM126.784 46.0808H127.368C127.708 46.0808 128.111 46.0808 128.451 46.2353C128.962 46.4587 129.048 46.887 129.048 47.1364C129.048 47.4455 128.938 47.8254 128.548 48.0506C128.197 48.2537 127.758 48.2667 127.466 48.2667H126.784V46.0808ZM127.245 42.8615H126.784V44.8929H127.234C127.477 44.8929 128.464 44.8686 128.464 43.8576C128.464 43.1352 127.892 42.8615 127.245 42.8615Z" fill="#2E6EB4"/>
<path fill-rule="evenodd" clip-rule="evenodd" d="M132.358 45.5705C132.358 43.1594 134.137 41.4241 136.693 41.4241C139.25 41.4241 141.027 43.1594 141.027 45.5705C141.027 47.9797 139.25 49.7021 136.693 49.7021C134.137 49.7021 132.358 47.9797 132.358 45.5705ZM133.99 45.5705C133.99 47.1735 135.111 48.2999 136.693 48.2999C138.274 48.2999 139.393 47.1735 139.393 45.5705C139.393 43.9655 138.274 42.826 136.693 42.826C135.111 42.826 133.99 43.9655 133.99 45.5705Z" fill="#2E6EB4"/>
<path fill-rule="evenodd" clip-rule="evenodd" d="M146.674 39.7617C146.518 39.7617 145.835 39.7392 145.579 39.0728L144.484 39.5011C144.8 40.3072 145.555 40.8303 146.674 40.8303C147.794 40.8303 148.549 40.3072 148.865 39.5011L147.77 39.0728C147.514 39.7392 146.832 39.7617 146.674 39.7617ZM144.677 46.9243V41.605H143.096V49.68H144.19L148.672 44.18V49.5236H150.253V41.4243H149.159L144.677 46.9243Z" fill="#2E6EB4"/>
<path fill-rule="evenodd" clip-rule="evenodd" d="M156.935 45.0455V41.6047H162.413V48.194H163.264V51.3052H161.803V49.5235H156.812V51.3052H155.351V48.194C155.935 48.2183 156.398 47.7192 156.641 47.1254C156.801 46.7324 156.935 46.1385 156.935 45.0455ZM160.829 42.9342H158.468V45.0455C158.468 46.2688 158.335 46.8776 158.188 47.2557C158.017 47.695 157.784 47.98 157.554 48.194H160.829V42.9342Z" fill="#2E6EB4"/>
<path fill-rule="evenodd" clip-rule="evenodd" d="M164.528 45.5705C164.528 43.1594 166.305 41.4241 168.862 41.4241C171.418 41.4241 173.195 43.1594 173.195 45.5705C173.195 47.9797 171.418 49.7021 168.862 49.7021C166.305 49.7021 164.528 47.9797 164.528 45.5705ZM166.16 45.5705C166.16 47.1735 167.281 48.2999 168.862 48.2999C170.447 48.2999 171.562 47.1735 171.562 45.5705C171.562 43.9655 170.447 42.826 168.862 42.826C167.281 42.826 166.16 43.9655 166.16 45.5705Z" fill="#2E6EB4"/>
<path d="M174.85 49.5236L176.36 41.4617H177.455L179.661 46.6396L181.961 41.4617H183.056L184.42 49.5236H182.812L182.083 44.6435L179.854 49.6296H179.416L177.284 44.6435L176.458 49.5236H174.85Z" fill="#2E6EB4"/>
</g>
<defs>
<clipPath id="clip0_429_7258">
<rect width="184.25" height="67" fill="white" transform="translate(0.25)"/>
</clipPath>
</defs>
</svg>
