<svg width="185" height="67" viewBox="0 0 185 67" fill="none" xmlns="http://www.w3.org/2000/svg">
<g clip-path="url(#clip0_429_7399)">
<path d="M75.1114 22.1642L77.8 20H68.8V33H77.8V30.8358H71.3684V27.5068H76.8552V25.3426H71.3684V22.1642H75.1114Z" fill="#2A9F3E"/>
<path d="M60.4321 30.8313H57.5573V27.2278H60.4321C62.1823 27.2278 62.9978 27.8301 62.9978 29.0288C62.9978 30.2542 62.1343 30.8313 60.4321 30.8313ZM60.9124 25.0635H57.5573V22.1642H62.9136L65.8 20H54.8V33H60.5569C63.7858 33 65.6361 31.512 65.6361 28.9166C65.6361 26.435 63.9585 25.068 60.911 25.068" fill="#2A9F3E"/>
<path d="M85.6325 27.1501H82.8912V22.1679H85.6325C87.6124 22.1679 88.7041 23.0533 88.7041 24.6619C88.7041 26.2705 87.6124 27.1545 85.6325 27.1545V27.1501ZM85.6976 20.0044H79.8V33H82.8912V29.315H85.6976C89.4622 29.315 91.8 27.519 91.8 24.6516C91.8 21.7842 89.4622 20 85.6976 20" fill="#2A9F3E"/>
<path d="M50.3441 30.0908C49.5954 30.4836 48.7563 30.6871 47.9046 30.6824C45.3564 30.6824 43.5059 28.9234 43.5059 26.4978C43.5059 24.0723 45.3564 22.3133 47.9046 22.3133C48.8251 22.3003 49.7258 22.5727 50.4751 23.0906L52.5025 21.6511L52.3686 21.5374C51.1786 20.5297 49.6034 20 47.7944 20C45.8339 20 44.0534 20.6391 42.783 21.8022C41.5126 22.9653 40.8 24.6107 40.8 26.4273C40.8 28.2439 41.5008 29.9238 42.7755 31.1287C44.0503 32.3335 45.8295 33 47.7767 33C49.8146 33 51.5936 32.3119 52.8 31.061L50.9703 29.7597L50.3441 30.0908Z" fill="#2A9F3E"/>
<path d="M52.8 49.4123C52.5998 49.6349 52.3641 49.8277 52.1026 49.9842C51.7686 50.1869 51.4121 50.3556 51.04 50.4875C50.5972 50.6477 50.1398 50.7711 49.6745 50.8563C49.1428 50.9551 48.6016 51.003 48.0595 50.9993C47.047 51.0117 46.0388 50.8598 45.0807 50.5503C44.2331 50.2751 43.4553 49.8369 42.7967 49.2636C42.1563 48.6902 41.6548 47.9933 41.3259 47.2206C40.9634 46.3501 40.7847 45.4209 40.8011 44.4857C40.7899 43.592 40.9651 42.705 41.3173 41.875C41.6461 41.0996 42.1468 40.3989 42.7847 39.8191C43.4467 39.2292 44.2305 38.7734 45.0867 38.4795C46.0509 38.1499 47.0703 37.9882 48.0958 38.002C49.0159 37.9826 49.9326 38.1072 50.8096 38.3708C51.4164 38.552 51.9947 38.8092 52.529 39.1357V42.2668C52.3063 41.9731 52.0517 41.7019 51.7703 41.4576C51.4621 41.1874 51.1229 40.9519 50.7578 40.7555C50.3659 40.5448 49.9499 40.3787 49.5165 40.2608C49.0539 40.1337 48.5748 40.0701 48.0932 40.0722C47.4199 40.0621 46.7501 40.1718 46.12 40.3953C45.5623 40.594 45.0539 40.9009 44.6301 41.296C44.2141 41.6911 43.8947 42.1668 43.6936 42.69C43.4709 43.2695 43.3604 43.8822 43.369 44.4985C43.3664 45.0824 43.4692 45.6624 43.672 46.2141C43.8584 46.7408 44.1649 47.2231 44.5688 47.6272C44.9728 48.0314 45.4657 48.3479 46.0121 48.5545C46.6568 48.7984 47.3439 48.9237 48.0379 48.9234C48.5817 48.9279 49.1229 48.8674 49.6503 48.7432C50.1147 48.6327 50.5636 48.4695 50.9865 48.2572C51.3741 48.0657 51.7314 47.8252 52.0491 47.5423C52.3443 47.2797 52.5955 46.9765 52.794 46.643L52.8 49.4123Z" fill="#2A9F3E"/>
<path d="M64.8 40.1349H60.4213V51H58.1028V40.1349H53.8V38H64.8V40.1349Z" fill="#2A9F3E"/>
<path d="M68.0792 46.9514V51H65.8V38H70.0512C72.0715 38 73.5346 38.3684 74.4414 39.1051C75.3482 39.8418 75.8009 40.9406 75.8 42.4012C75.8 43.9238 75.3137 45.0628 74.3401 45.8183C73.3666 46.5737 71.9372 46.9514 70.0512 46.9514H68.0792ZM68.0792 40.1349V44.815H70.2152C71.2852 44.815 72.0883 44.6261 72.6237 44.2484C73.1592 43.8707 73.4269 43.2363 73.4269 42.3452C73.4269 41.5415 73.1777 40.972 72.6784 40.6366C72.18 40.3011 71.3704 40.1339 70.2514 40.1349H68.0792Z" fill="#2A9F3E"/>
<path d="M89.8 51H87.191L85.8778 47.9163H79.5866L78.2917 51H75.8L81.3738 38H84.1576L89.8 51ZM84.9716 45.7814L82.7183 40.4506L80.4676 45.7814H84.9716Z" fill="#2A9F3E"/>
<path d="M94.1714 44.3886L90.028 38H92.6503L95.7802 42.9205L99.108 38H101.643L97.2712 44.2588L101.8 51H99.1908L95.7179 45.7622L92.3601 51H89.8L94.1714 44.3886Z" fill="#2A9F3E"/>
<path d="M102.801 44.4844C102.791 43.5912 102.946 42.7043 103.26 41.8721C103.554 41.1005 104 40.4014 104.569 39.8192C105.154 39.2307 105.851 38.7744 106.614 38.4787C107.474 38.1486 108.385 37.9866 109.301 38.0009C110.206 37.989 111.105 38.1405 111.959 38.4487C112.723 38.7243 113.423 39.1629 114.014 39.7362C114.591 40.3101 115.04 41.0077 115.331 41.7806C115.655 42.6529 115.814 43.5822 115.799 44.5173C115.809 45.41 115.653 46.2965 115.34 47.1282C115.047 47.9001 114.601 48.5995 114.03 49.181C113.443 49.7712 112.744 50.2283 111.978 50.5229C111.12 50.8503 110.212 51.0118 109.299 50.9993C108.394 51.0102 107.494 50.8613 106.638 50.5587C105.873 50.2884 105.173 49.8524 104.583 49.2798C104.005 48.7037 103.555 48.0029 103.266 47.2268C102.944 46.352 102.786 45.421 102.801 44.4844ZM105.088 44.5016C105.087 45.0901 105.179 45.6748 105.364 46.2311C105.533 46.7533 105.808 47.2318 106.169 47.6346C106.543 48.0425 106.995 48.3646 107.496 48.5802C108.643 49.0399 109.913 49.0496 111.067 48.6073C111.561 48.4048 112.009 48.0985 112.384 47.7075C112.756 47.3094 113.043 46.8334 113.225 46.3112C113.426 45.7312 113.527 45.1182 113.52 44.5016C113.522 43.9136 113.428 43.3294 113.244 42.7734C113.075 42.2506 112.8 41.7716 112.437 41.3685C112.063 40.9614 111.613 40.6394 111.113 40.4229C110.532 40.1781 109.909 40.0588 109.283 40.0724C108.685 40.0629 108.09 40.1726 107.532 40.3957C107.033 40.5948 106.581 40.9039 106.209 41.3018C105.836 41.6998 105.551 42.1769 105.373 42.7005C105.178 43.2787 105.081 43.8885 105.088 44.5016Z" fill="#2A9F3E"/>
<path d="M118.8 50.9979V38H124.215C127.017 38 128.418 39.0768 128.418 41.2307C128.441 41.881 128.286 42.5248 127.974 43.0879C127.676 43.5797 127.208 43.9568 126.566 44.2194C127.338 44.3571 127.905 44.6762 128.264 45.1768C128.623 45.6774 128.801 46.355 128.799 47.2096C128.813 47.8047 128.697 48.3954 128.461 48.937C128.241 49.4116 127.906 49.8183 127.489 50.1172C127.025 50.4402 126.505 50.6671 125.957 50.7855C125.287 50.9358 124.603 51.0076 123.918 50.9994L118.8 50.9979ZM123.894 43.4951C124.607 43.4951 125.169 43.3407 125.578 43.0318C125.776 42.8859 125.937 42.6905 126.043 42.4635C126.151 42.2364 126.202 41.985 126.192 41.7322C126.205 41.5044 126.164 41.2768 126.071 41.0694C125.98 40.8622 125.842 40.6814 125.667 40.5432C125.316 40.2718 124.743 40.1355 123.948 40.1346H121.028V43.4951H123.894ZM124.056 48.8618C124.91 48.8618 125.539 48.7143 125.943 48.4192C126.347 48.1242 126.549 47.6634 126.549 47.037C126.549 46.4056 126.335 45.9596 125.908 45.699C125.48 45.4384 124.875 45.3085 124.091 45.3095H121.028V48.85L124.056 48.8618Z" fill="#2A9F3E"/>
<path d="M142.8 51H140.565L139.438 47.9163H134.045L132.936 51H130.8L135.571 38H137.958L142.8 51ZM138.662 45.7814L136.734 40.4506L134.801 45.7814H138.662Z" fill="#2A9F3E"/>
<path d="M153.627 45.3727H146.972V51H144.8V38H146.972V43.2364H153.627V38H155.8V51H153.627V45.3727Z" fill="#2A9F3E"/>
<path d="M161.933 47.7127L168.472 38H170.8V51H168.668V41.1382L162.094 51H159.8V38H161.94L161.933 47.7127Z" fill="#2A9F3E"/>
<path d="M183.017 45.3727H177.82V48.8636H183.8V51H175.8V38H183.621V40.1349H177.82V43.2333H183.023L183.017 45.3727Z" fill="#2A9F3E"/>
<path d="M33.9206 22C34.6653 23.0851 35.296 24.2639 35.8 25.5127L20.7715 38L14.8 33.7771V28.7031L20.7715 32.9237L33.9206 22Z" fill="#2A9F3E"/>
<path d="M33.0855 19.2911C29.8099 16.0213 25.6596 14.3301 21.0364 14.038C16.4132 13.7459 11.8419 15.1468 8.17937 17.9783C4.51686 20.8097 2.0145 24.8773 1.1413 29.4186C0.268094 33.9599 1.084 38.6633 3.43607 42.647C5.78817 46.6308 9.51497 49.6216 13.918 51.0589C18.321 52.4962 23.098 52.2813 27.3537 50.4544C31.6093 48.6276 35.0514 45.3141 37.0349 41.1353C39.0184 36.9563 39.3036 32.0331 38.0248 27.5886L33.6879 30.7152C34.6262 33.9761 33.9095 35.9028 32.4543 38.9688C30.999 42.0349 28.4735 44.4659 25.3512 45.8062C22.2287 47.1465 18.7239 47.3043 15.4934 46.2497C12.263 45.1952 9.52866 43.0008 7.80294 40.078C6.07722 37.1551 5.47861 33.7043 6.11928 30.3723C6.75994 27.0404 8.59591 24.0561 11.2831 21.9786C13.9702 19.9012 17.3241 18.8733 20.7162 19.0877C24.1082 19.302 26.5862 19.8984 28.9896 22.2975L33.0855 19.2911Z" fill="#2A9F3E"/>
</g>
<defs>
<clipPath id="clip0_429_7399">
<rect width="184" height="67" fill="white" transform="translate(0.5)"/>
</clipPath>
</defs>
</svg>
