<svg width="185" height="67" viewBox="0 0 185 67" fill="none" xmlns="http://www.w3.org/2000/svg">
<g clip-path="url(#clip0_429_7418)">
<path d="M45.925 53.6089C44.7544 54.0043 43.5275 54.2081 42.2918 54.2123C38.7897 54.2123 35.0122 52.2186 35.0122 47.1032C35.0122 42.2633 38.4225 39.8236 42.882 39.8236C43.9378 39.8141 44.988 39.978 45.9906 40.3089L45.8726 42.7224C44.9827 42.3725 44.0348 42.1945 43.0788 42.1977C42.4176 42.1381 41.7514 42.2218 41.1255 42.4431C40.4997 42.6644 39.9289 43.018 39.4521 43.4798C38.9753 43.9417 38.6036 44.5009 38.3627 45.1194C38.1216 45.7379 38.0166 46.4011 38.0552 47.0639C38.0006 47.7097 38.0884 48.3598 38.3123 48.968C38.5361 49.5763 38.8906 50.1281 39.3508 50.5846C39.8111 51.041 40.3658 51.391 40.9758 51.6099C41.586 51.8288 42.2366 51.9112 42.882 51.8513C43.8942 51.859 44.8963 51.6487 45.8201 51.2349L45.925 53.6089Z" fill="#0016E0"/>
<path d="M57.4932 39.9936V42.4857H53.3746V54.0806H50.5808V42.4726H46.5148V39.9805L57.4932 39.9936Z" fill="#0016E0"/>
<path d="M63.3561 39.9939C68.4584 39.9939 68.7601 43.5091 68.7601 44.3879C68.756 45.0063 68.6226 45.6171 68.3684 46.181C68.1144 46.7449 67.745 47.2493 67.2842 47.662C66.8234 48.0746 66.2813 48.3861 65.6929 48.5768C65.1045 48.7674 64.4828 48.8328 63.8677 48.7687H62.0576V54.0153H59.1982V39.9939H63.3561ZM63.3561 46.5521C63.6665 46.5821 63.9797 46.5455 64.2748 46.4448C64.5699 46.3441 64.8401 46.1815 65.0674 45.9679C65.2946 45.7543 65.4736 45.4948 65.5925 45.2063C65.7113 44.918 65.7672 44.6077 65.7564 44.2961C65.7564 43.1287 65.0088 42.1843 63.3561 42.1843H62.0445V46.5521H63.3561Z" fill="#0016E0"/>
<path d="M76.9847 39.9939L82.5853 54.0809H79.3718L78.1914 50.9067H72.3808L71.1872 54.0809H68.1311L73.7318 40.0201L76.9847 39.9939ZM77.3257 48.572L75.2533 42.827L73.2989 48.572H77.3257Z" fill="#0016E0"/>
<path d="M86.3883 39.9939L88.6443 43.9288L89.287 45.1093L89.9297 43.9288L92.2382 39.9939H95.3468L91.0708 46.7095L95.8321 54.0809H92.4612L89.7723 49.6213L89.169 48.5326L88.5656 49.6213L85.7062 54.0809H82.5977L87.2933 46.7226L83.0174 39.9939H86.3883Z" fill="#0016E0"/>
<path d="M109.776 47.0242C109.776 52.1265 106.352 54.212 102.89 54.212C99.4269 54.212 96.0035 52.1265 96.0035 47.0242C96.0035 41.9219 99.4138 39.8364 102.89 39.8364C106.365 39.8364 109.776 41.9088 109.776 47.0242ZM99.0072 47.0242C99.0072 51.7854 101.814 52.2707 102.942 52.2707C104.07 52.2707 106.877 51.851 106.877 47.0242C106.877 42.1974 104.057 41.7776 102.942 41.7776C101.827 41.7776 98.9678 42.2761 98.9678 47.0242H99.0072Z" fill="#0016E0"/>
<path d="M116.662 39.9939C119.391 39.9939 121.345 41.0957 121.345 43.4697C121.403 44.1931 121.205 44.9138 120.785 45.506C120.366 46.0983 119.751 46.5241 119.05 46.7095C119.89 46.7926 120.667 47.1957 121.218 47.8353C121.77 48.4749 122.055 49.3022 122.014 50.146C122.014 51.8904 120.991 54.0809 116.492 54.0809H112.045V39.9939H116.662ZM114.892 45.6995H116.334C118.184 45.6995 118.525 44.5715 118.525 43.955C118.525 43.5484 118.42 42.1974 116.216 42.1974H114.905L114.892 45.6995ZM114.892 51.8511H116.479C118.263 51.8511 118.997 50.8936 118.997 49.8836C118.997 48.8737 118.446 47.9162 116.479 47.9162H114.892V51.8511Z" fill="#0016E0"/>
<path d="M131.654 39.9939L137.241 54.0809H134.015L132.834 50.9067H127.024L125.843 54.0809H122.787L128.401 39.9939H131.654ZM131.995 48.572L129.922 42.827L127.968 48.572H131.995Z" fill="#0016E0"/>
<path d="M141.793 39.9939V45.6602H147.498V39.9939H150.358V54.0809H147.498V47.9555H141.793V54.0809H138.946V39.9939H141.793Z" fill="#0016E0"/>
<path d="M156.011 39.9939V47.221V50.6313L157.008 48.5851L161.926 39.9939H165.337V54.0809H162.504V46.7882V43.4041L161.533 45.529L156.575 54.0809H153.165V39.9939H156.011Z" fill="#0016E0"/>
<path d="M176.564 39.9939V42.486H171.016V45.6602H176.066V47.9686H171.016V51.5756H176.564V54.0809H168.17V39.9939H176.564Z" fill="#0016E0"/>
<path d="M51.99 35.9852C50.0578 36.6483 48.033 36.9909 45.9933 37C40.2565 37 34 33.6918 34 25.1372C34 17.0595 39.6069 13.0004 46.8729 13.0004C48.6131 12.9883 50.344 13.259 52 13.8021L51.7901 17.8612C50.3341 17.2729 48.7797 16.9765 47.2127 16.9885C42.0355 16.9885 38.9672 20.3068 38.9672 25.1067C38.9672 30.7692 42.7252 33.0829 46.8828 33.0829C48.5416 33.0985 50.1844 32.7524 51.7002 32.0682L51.99 35.9852Z" fill="#0016E0"/>
<path d="M107 13V37H102.454V16.9463H93.5559V37H89V13H107Z" fill="#0016E0"/>
<path d="M75.1597 13L69.4999 30.2289L63.8601 13H56V37H60.6486V16.4271H60.6883L67.3094 37H71.7204L78.3315 16.4271H78.3613V37H83V13H75.1597Z" fill="#0016E0"/>
<path d="M35.987 8.86379C35.7758 8.61424 33.0953 9.9951 33.0953 9.9951L33.2171 9.91191C33.7532 9.57086 34.5817 9.08007 34.2731 8.68078C34.1188 8.48114 33.7532 8.57264 32.7298 9.21316C32.2587 9.52095 29.7325 10.619 27.1333 11.7753C24.9808 12.7568 21.0901 14.5203 20.7327 14.928C20.7327 14.928 20.6677 15.0694 20.6271 15.1526C20.4506 15.607 20.3173 16.0778 20.2291 16.5584V16.6166C20.2247 16.6553 20.2247 16.6944 20.2291 16.7331C20.0666 17.5649 19.9285 18.5298 19.7742 19.6279C19.3031 22.9553 18.8401 27.8881 18.8401 27.8881C18.7847 29.5582 18.6438 31.2243 18.4177 32.8792C18.374 33.1061 18.3115 33.3287 18.2309 33.5447C18.2309 33.6196 18.1903 33.7111 18.1578 33.7859C18.0721 34.0925 17.9224 34.3763 17.7192 34.6178C17.1181 35.3082 15.6479 35.0836 15.2336 35.0337C14.4783 34.9066 13.7755 34.5568 13.2111 34.0272C12.8409 33.428 12.2588 32.9988 11.5866 32.8293C11.3348 32.8293 10.3032 32.9957 9.96204 32.979C9.62089 32.9624 9.14978 32.4799 8.62181 32.4134C8.12178 32.4529 7.64027 32.6248 7.22471 32.9125C8.05599 33.2115 8.8494 33.6108 9.5884 34.102C10.0074 34.7835 10.5781 35.3536 11.2535 35.7657C12.0252 36.1317 14.7057 39.3177 14.7057 39.3177C15.17 39.7955 15.6609 40.2455 16.1759 40.6653C15.3641 40.9634 14.5222 41.1671 13.666 41.2726C12.2632 41.4759 10.8347 41.3859 9.4668 41.0083C8.09887 40.6305 6.81988 39.9729 5.707 39.075C4.59412 38.1771 3.67049 37.0575 2.99185 35.7839C2.31312 34.5103 1.8935 33.1091 1.75818 31.6647C1.60807 30.3337 1.69897 28.9858 2.02623 27.6885C2.35065 26.119 3.01394 24.6439 3.96754 23.3712C4.83666 22.2078 5.92517 21.2349 7.16834 20.5105C8.41159 19.786 9.78424 19.3247 11.2048 19.1537C12.988 18.9627 14.7898 19.2225 16.452 19.9107C16.452 19.7111 16.452 19.5197 16.452 19.3201C14.8473 18.6799 13.1206 18.4253 11.4048 18.5758C9.68888 18.7264 8.02959 19.278 6.5546 20.1884C5.07961 21.0988 3.82823 22.3435 2.89673 23.827C1.96515 25.3103 1.37837 26.9928 1.18147 28.7449C1.13591 29.0397 1.10601 29.3369 1.09212 29.635C1.0373 30.5777 1.05362 31.5232 1.14086 32.4633C1.33605 34.2776 1.9541 36.0172 2.94311 37.5357C3.93204 39.0541 5.26294 40.3069 6.82362 41.1884C8.38422 42.0699 10.1289 42.5543 11.9106 42.6008C13.6923 42.6473 15.4588 42.2545 17.0612 41.4556C18.0338 42.1946 19.0792 42.8274 20.1803 43.3439C23.0476 44.6249 26.5728 44.783 27.3201 44.8745C28.9446 45.0991 30.4311 47.2452 30.8941 47.6778C31.3571 48.1103 34.4193 47.4282 34.4193 47.4282C34.2664 46.945 34.1523 46.4498 34.0781 45.9475C33.9401 45.1157 33.0547 44.7497 32.8922 44.5417C32.7298 44.3338 28.7497 42.4704 28.1243 42.0462C27.1776 41.3393 26.4046 40.4166 25.8662 39.351C25.5955 38.9453 25.4233 38.4793 25.364 37.9917C25.3046 37.504 25.3599 37.009 25.525 36.5477C25.6875 36.2815 25.9961 36.2232 26.1748 35.8572C26.3535 35.4912 26.2317 35.4663 26.1748 35.2916C26.118 35.1169 26.2317 34.9672 26.4023 34.6594C26.5728 34.3516 26.4997 34.3682 26.4997 34.3682V33.9856C26.5403 33.5946 26.4997 33.9856 26.5728 33.8525L26.6459 33.7111C26.6315 33.5995 26.6514 33.4861 26.7028 33.3866C26.7678 33.2535 26.6053 33.1121 26.6459 32.9541C26.6865 32.796 26.719 32.8127 26.7678 32.5049C26.7881 32.3392 26.7881 32.1715 26.7678 32.0058C26.7678 31.6564 26.8571 31.8145 27.0277 31.6231C27.1983 31.4318 26.8571 31.1739 26.8571 31.1739C26.935 30.9129 27.0356 30.6596 27.1577 30.4169C27.4176 29.8014 27.1577 30.4169 27.2226 30.1674C27.2876 29.9178 27.1333 29.7016 27.1008 29.4603C27.0683 29.2191 27.1008 29.294 27.1739 28.9779C27.247 28.6618 27.1739 28.9779 27.2795 28.6867C27.3438 28.5497 27.3637 28.3952 27.3364 28.2458L27.3201 27.6303L27.4095 27.4639C27.4612 27.2875 27.4612 27.0995 27.4095 26.9232L27.1658 26.2078C27.1524 26.0418 27.1524 25.8748 27.1658 25.7087C27.1287 25.4056 27.0607 25.1073 26.9627 24.8186L27.1252 24.0949L26.8896 23.0301L26.7434 22.1317C26.7434 22.1317 26.7434 20.7842 26.7434 20.2518C26.7337 19.6266 26.7636 19.0013 26.8328 18.3801C26.914 17.673 28.9122 16.8162 29.1233 16.392C29.3345 15.9678 27.9131 16.392 27.9131 16.392C27.9131 16.392 30.3742 15.6683 30.5692 15.3688C30.7641 15.0694 28.9446 15.4853 28.9446 15.4853C30.034 15.2871 31.0813 14.8959 32.0394 14.329C32.746 13.6968 30.8291 14.1793 30.5204 14.2625C30.8291 14.171 32.9572 13.5887 33.2253 12.9398C33.3958 12.5738 31.6495 12.84 31.6495 12.84C32.5205 12.645 33.3717 12.3665 34.1919 12.0082C35.4427 11.3261 35.4427 10.8519 35.2234 10.6772C34.4346 10.7765 33.6602 10.972 32.9166 11.2595H32.811H32.9166C33.4815 11.0497 34.0254 10.7851 34.5411 10.4693C35.3372 9.96183 36.32 9.28803 35.987 8.86379ZM32.7379 10.1698C32.8239 10.1186 32.9135 10.0741 33.006 10.0367C32.9225 10.0765 32.8411 10.1209 32.7623 10.1698H32.7379Z" fill="#0016E0"/>
<path d="M31.7392 8.63794C31.542 8.39888 30.1963 9.07337 30.1963 9.07337C30.1963 9.07337 21.9851 13.0093 18.3681 14.9645C17.8897 15.1558 17.4752 15.4776 17.172 15.8928C16.8688 16.3081 16.6892 16.8001 16.6538 17.3124C16.7936 21.7368 17.1884 26.1496 17.8367 30.5289C18.2395 33.6794 18.5138 34.9942 18.4967 35.0967C18.6126 34.7889 18.7128 34.4754 18.7966 34.1575C19.0352 32.4589 19.1839 30.7489 19.2423 29.0348C19.2423 29.0348 19.7309 23.9633 20.228 20.5567C20.5537 18.2857 20.8366 16.4586 21.2909 15.7158C21.5823 15.2548 28.2078 12.4202 29.3649 11.8823C30.7878 11.2249 30.9335 11.0285 30.9677 10.5846C31.002 10.1406 29.4849 10.6358 29.4849 10.6358C29.4849 10.6358 30.7449 9.9613 31.2077 9.65394C31.6706 9.34658 31.9534 8.86846 31.7392 8.63794ZM4.38846 23.4511L6.51411 20.4457L3.94275 23.0071L2.74279 18.687L2.94849 23.0925L0.797122 21.6581L2.7685 23.7072L0 24.4671L2.81135 24.3305L0.479988 27.5834L3.23134 24.8513L4.37131 28.864L4.2256 24.8257L6.29983 26.1832L4.2256 24.1085L7.01981 23.3145L4.38846 23.4511Z" fill="#0016E0" stroke="#0016E0" stroke-width="0.43"/>
</g>
<defs>
<clipPath id="clip0_429_7418">
<rect width="184" height="67" fill="white" transform="translate(0.5)"/>
</clipPath>
</defs>
</svg>
