<svg width="185" height="67" viewBox="0 0 185 67" fill="none" xmlns="http://www.w3.org/2000/svg">
<path d="M15.0616 23.4046C15.0673 24.3397 14.8899 25.2671 14.5391 26.1348C14.2135 26.9339 13.7196 27.6544 13.0908 28.248C12.4487 28.8463 11.6956 29.3143 10.8735 29.626C9.95797 29.9667 8.98594 30.1322 8.00861 30.1137H5.20632V38.535H1.72583V16.5454H7.98041C11.9833 16.5454 15.064 19.35 15.064 23.4046M5.20632 26.5006H8.4403C9.25061 26.5229 10.0368 26.2252 10.6269 25.6727C11.2119 25.1215 11.5198 24.3874 11.5198 23.468C11.5417 22.6626 11.2429 21.8812 10.6883 21.2938C10.1339 20.7097 9.39443 20.4036 8.50407 20.4036H5.20632V26.5006Z" fill="#50287D"/>
<path d="M38.4843 28.7636H45.9996V23.0056H49.3562V38.5323H45.9996V32.3158H38.4843V38.5323H35.1277V23.0056H38.4843V28.7636Z" fill="#50287D"/>
<path d="M61.4607 35.6231C64.2312 35.6231 65.8647 34.1232 66.2964 33.572L67.2775 36.1743C67.0617 36.5401 64.8419 39.0228 61.3908 39.0228C60.2769 39.0463 59.1687 38.8593 58.125 38.4716C57.1474 38.1198 56.2556 37.5668 55.5079 36.8486C54.751 36.1262 54.1621 35.248 53.7823 34.2756C53.3643 33.1914 53.1562 32.0383 53.1691 30.8772C53.1629 29.8111 53.3507 28.7526 53.7235 27.753C54.0824 26.7973 54.6149 25.9152 55.2945 25.1508C55.9763 24.3802 56.8165 23.7639 57.7583 23.3437C58.778 22.9017 59.8813 22.6825 60.9935 22.701C62.0215 22.6852 63.0408 22.8903 63.9816 23.3024C64.9225 23.7145 65.7627 24.3238 66.4448 25.0886C67.1027 25.8416 67.6052 26.7158 67.9238 27.6616C68.2692 28.6565 68.4462 29.7015 68.4475 30.754C68.4508 31.1623 68.4196 31.5702 68.3543 31.9734H56.5944C56.7477 33.1672 58.0943 35.617 61.4607 35.617M60.8476 26.1849C57.8625 26.1849 56.7588 28.3298 56.6079 29.2212H65.07C64.7119 27.703 63.277 26.1849 60.8427 26.1849" fill="#50287D"/>
<path d="M24.5034 35.6231C27.2738 35.6231 28.9074 34.1232 29.3391 33.572L30.3202 36.1743C30.1043 36.5401 27.8846 39.0228 24.4335 39.0228C23.32 39.0462 22.2122 38.8592 21.1689 38.4716C20.1941 38.1194 19.3051 37.5663 18.5604 36.8486C17.8035 36.1262 17.2146 35.248 16.8348 34.2756C16.4168 33.1914 16.2087 32.0383 16.2216 30.8772C16.2154 29.8111 16.4032 28.7526 16.776 27.753C17.1344 26.797 17.667 25.9149 18.347 25.1508C19.0285 24.3799 19.8688 23.7636 20.8108 23.3437C21.83 22.9016 22.9329 22.6824 24.0448 22.701C25.0727 22.6855 26.0919 22.8908 27.0327 23.3028C27.9735 23.7149 28.8138 24.324 29.4961 25.0886C30.1531 25.842 30.6552 26.7161 30.9739 27.6616C31.3199 28.6563 31.4969 29.7014 31.4975 30.754C31.5006 31.1623 31.4699 31.5701 31.4055 31.9734H19.6359C19.7904 33.1672 21.137 35.617 24.5034 35.617M23.8902 26.1849C20.9064 26.1849 19.8027 28.3298 19.6506 29.2212H28.1188C27.7595 27.703 26.3258 26.1849 23.8902 26.1849Z" fill="#50287D"/>
<path d="M95.9245 38.9922C92.1337 38.9922 87.8549 36.1302 87.8549 30.816C87.8549 26.1299 91.3795 22.6692 95.9551 22.6692C99.1756 22.6692 101.284 24.5995 101.684 25.3031L100.76 28.059C100.76 28.059 98.7893 26.2213 96.4481 26.2213C92.8315 26.2213 91.2434 28.7443 91.2434 30.7856C91.2434 32.1635 91.7339 33.2658 92.6905 34.1231C93.6471 34.9803 94.9078 35.4095 96.4788 35.4095C98.6704 35.4095 100.549 34.0975 100.981 33.6073L101.962 36.3631C101.962 36.3631 99.8109 38.9922 95.9208 38.9922" fill="#50287D"/>
<path d="M79.1672 38.9922C75.3764 38.9922 71.0975 36.1302 71.0975 30.816C71.0975 26.1299 74.6222 22.6692 79.1978 22.6692C82.4183 22.6692 84.5265 24.5995 84.9263 25.3031L84.0028 28.059C84.0028 28.059 82.032 26.2213 79.6908 26.2213C76.0779 26.2213 74.4836 28.7443 74.4836 30.7856C74.4836 32.1635 74.9741 33.2658 75.9307 34.1231C76.8873 34.9803 78.148 35.4095 79.719 35.4095C81.9106 35.4095 83.7894 34.0975 84.2211 33.6073L85.2022 36.3631C85.2022 36.3631 83.0511 38.9922 79.161 38.9922" fill="#50287D"/>
<path d="M150.877 38.9922C147.085 38.9922 142.807 36.1302 142.807 30.816C142.807 26.1299 146.332 22.6692 150.907 22.6692C154.128 22.6692 156.235 24.5995 156.636 25.3031L155.712 28.059C155.712 28.059 153.741 26.2213 151.4 26.2213C147.784 26.2213 146.194 28.7443 146.194 30.7856C146.194 32.1635 146.685 33.2658 147.641 34.1231C148.598 34.9803 149.86 35.4095 151.431 35.4095C153.621 35.4095 155.5 34.0975 155.932 33.6073L156.913 36.3631C156.913 36.3631 154.76 38.9922 150.872 38.9922" fill="#50287D"/>
<path d="M117.109 38.5326V36.9096C116.508 37.5555 115.779 38.0711 114.968 38.4242C114.157 38.7773 113.282 38.9603 112.396 38.9619C108.489 38.9619 104.389 36.1097 104.389 30.8162C104.389 24.8655 108.715 22.6084 112.157 22.6084C113.983 22.6195 115.735 23.3255 117.054 24.5814V23.0071H120.313V38.5326H117.109ZM107.719 30.8162C107.719 32.8465 109.292 35.3488 112.648 35.3488C115.63 35.3488 116.99 33.5026 116.99 33.5026V28.0152C115.939 26.8361 114.394 26.1861 112.648 26.1861C109.728 26.1861 107.719 28.1591 107.719 30.8113" fill="#50287D"/>
<path d="M128.597 28.7636H136.112V23.0056H139.469V38.5323H136.112V32.3158H128.597V38.5323H125.24V23.0056H128.597V28.7636Z" fill="#50287D"/>
<path d="M5.92862 57.4041C5.28204 57.407 4.64064 57.2895 4.03753 57.0578C3.45619 56.8348 2.92575 56.4981 2.47756 56.0676C2.00954 55.6085 1.63792 55.0616 1.38427 54.4585C1.13062 53.8554 1 53.2082 1 52.5545C1 51.9008 1.13062 51.2536 1.38427 50.6506C1.63792 50.0475 2.00954 49.5005 2.47756 49.0414C2.92546 48.6106 3.45598 48.2739 4.03753 48.0513C4.64578 47.8181 5.29268 47.7006 5.94456 47.7049C6.37503 47.7026 6.80416 47.7526 7.22245 47.8537C7.6009 47.9453 7.96814 48.0778 8.31762 48.2488C8.62475 48.3954 8.90961 48.5842 9.16383 48.8097C9.37865 49.0009 9.56308 49.2233 9.7108 49.4694L9.32939 50.6084C9.16245 50.3818 8.96757 50.1769 8.74931 49.9987C8.50878 49.8006 8.24724 49.6293 7.96933 49.4877C7.6807 49.3353 7.37423 49.219 7.0569 49.1414C6.72645 49.0559 6.38657 49.0117 6.04512 49.0097C5.52055 49.0017 4.99855 49.0842 4.50233 49.2536C4.05821 49.403 3.65106 49.6445 3.30783 49.9621C2.97823 50.2729 2.7183 50.6493 2.54501 51.0669C2.35914 51.5321 2.26866 52.0296 2.27889 52.5301C2.27466 53.0388 2.37048 53.5433 2.56096 54.0154C2.73216 54.4383 2.99906 54.8163 3.34094 55.1202C3.68911 55.4273 4.09512 55.6627 4.53544 55.8128C5.03166 55.9821 5.55366 56.0647 6.07824 56.0567C6.78636 56.0719 7.48732 55.9132 8.11894 55.5945C8.71619 55.2811 9.16383 54.919 9.46797 54.4897L9.83589 55.6116C9.35168 56.1711 8.75225 56.6207 8.07815 56.93C7.40404 57.2392 6.671 57.4009 5.92862 57.4041Z" fill="#50287D"/>
<path d="M18.5603 47.8694V49.1559H15.3753V57.2052H14.1477V49.1559H10.9297V47.8694H18.5603Z" fill="#50287D"/>
<path d="M26.3258 50.7228C26.333 51.1131 26.2595 51.5008 26.1099 51.8617C25.9704 52.194 25.7676 52.4962 25.5127 52.7519C25.2495 53.0098 24.9325 53.2071 24.5843 53.3299C24.2008 53.4647 23.7965 53.5315 23.3898 53.5274H21.6643V57.2052H20.4379V47.8694H23.391C25.7579 47.8694 26.327 49.8973 26.327 50.7228M25.0503 50.7399C25.0533 50.5354 25.0115 50.3328 24.9277 50.146C24.8522 49.9692 24.7454 49.8074 24.6125 49.668C24.4793 49.5304 24.3217 49.4184 24.1477 49.3376C23.9604 49.2516 23.7567 49.2067 23.5504 49.2059H21.6262V52.291H23.5504C24.637 52.291 25.0442 51.5081 25.0442 50.7399" fill="#50287D"/>
<path d="M28.8621 55.0349L27.9668 57.2115H26.6436L30.5091 47.8757H31.8692L35.7299 57.2054H34.4066L33.5224 55.0349H28.8621ZM32.9766 53.7484L31.1922 49.4366L29.3968 53.7423L32.9766 53.7484Z" fill="#50287D"/>
<path d="M36.5992 57.2052L39.9338 52.3726L36.782 47.8694H38.3235L40.6966 51.2179L43.0856 47.8694H44.6112L41.4594 52.3726L44.8271 57.2052H43.3174L40.7125 53.5262L38.158 57.2052H36.5992Z" fill="#50287D"/>
<path d="M50.7359 57.3869C50.0816 57.3933 49.4327 57.2689 48.8276 57.0211C48.2401 56.783 47.7001 56.4423 47.2333 56.0151C46.7668 55.5834 46.3941 55.0613 46.1382 54.4811C45.8752 53.8653 45.7396 53.2032 45.7396 52.5343C45.7396 51.8653 45.8752 51.2032 46.1382 50.5875C46.3953 50.0091 46.7689 49.4891 47.2358 49.0596C47.7026 48.6323 48.2425 48.2916 48.8301 48.0536C50.067 47.5691 51.4428 47.5691 52.6797 48.0536C53.267 48.2922 53.8068 48.6328 54.274 49.0596C54.7404 49.4914 55.1131 50.0134 55.3692 50.5936C55.636 51.2096 55.7713 51.874 55.7665 52.5447C55.7665 54.9505 53.7099 57.3942 50.7384 57.3942M54.4874 52.5776C54.4911 52.0996 54.3889 51.6266 54.1882 51.1923C53.998 50.7656 53.7239 50.3809 53.3821 50.0609C53.0403 49.741 52.6376 49.4921 52.1978 49.3291C51.2378 48.961 50.1756 48.9549 49.2115 49.312C48.7717 49.4756 48.3691 49.7247 48.0274 50.0449C47.6856 50.365 47.4115 50.7497 47.2211 51.1765C47.0246 51.6122 46.9231 52.0842 46.9231 52.5617C46.9231 53.0392 47.0246 53.5113 47.2211 53.947C47.4115 54.3737 47.6856 54.7584 48.0274 55.0786C48.3691 55.3987 48.7717 55.6479 49.2115 55.8114C50.1756 56.1685 51.2378 56.1624 52.1978 55.7944C52.6376 55.6313 53.0403 55.3825 53.3821 55.0625C53.7239 54.7425 53.998 54.3579 54.1882 53.9311C54.3891 53.4964 54.4913 53.023 54.4874 52.5447V52.5776Z" fill="#50287D"/>
<path d="M62.7815 52.2301C63.1616 52.4226 63.4827 52.7132 63.711 53.0715C63.9728 53.4862 64.1055 53.9685 64.0925 54.4579C64.0969 54.865 64.0181 55.2686 63.8607 55.6444C63.718 55.9726 63.5025 56.2644 63.2303 56.498C62.9548 56.7365 62.633 56.9163 62.2848 57.026C61.9093 57.1455 61.5176 57.2064 61.1234 57.2065H57.9716V47.8695H60.7089C61.1023 47.8642 61.4942 47.9202 61.8702 48.0353C62.2098 48.1336 62.5256 48.2995 62.7986 48.5231C63.0512 48.7429 63.2546 49.0129 63.3959 49.3157C63.5487 49.6526 63.6277 50.018 63.6277 50.3876C63.6277 50.7571 63.5487 51.1225 63.3959 51.4594C63.2538 51.7474 63.0499 52.0009 62.7986 52.202L62.7815 52.2301ZM61.322 55.909C61.5201 55.9097 61.7168 55.8763 61.9034 55.8102C62.0834 55.7469 62.2475 55.6454 62.3841 55.5127C62.5218 55.3804 62.634 55.2242 62.7152 55.0518C62.8024 54.8657 62.848 54.6632 62.8489 54.4579C62.8499 54.2758 62.8135 54.0953 62.742 53.9276C62.6705 53.7599 62.5654 53.6084 62.4332 53.4824C62.2953 53.3426 62.13 53.2324 61.9475 53.1587C61.765 53.0851 61.5692 53.0496 61.3723 53.0544H59.182V55.8883L61.322 55.909ZM60.9406 51.763C61.3035 51.7693 61.6567 51.6465 61.9365 51.4167C62.0763 51.3037 62.188 51.16 62.2627 50.9969C62.3374 50.8338 62.373 50.6557 62.3669 50.4766C62.3726 50.3009 62.3406 50.1261 62.2729 49.9638C62.2052 49.8014 62.1035 49.6553 61.9745 49.5352C61.7 49.2816 61.336 49.1457 60.9615 49.1572H59.1992V51.796L60.9406 51.763Z" fill="#50287D"/>
<path d="M67.5949 55.0349L66.6996 57.2115H65.3715L69.237 47.8757H70.5971L74.4627 57.2115H73.1345L72.2564 55.0349H67.5949ZM71.7094 53.7484L69.9177 49.4427L68.1259 53.7423L71.7094 53.7484Z" fill="#50287D"/>
<path d="M77.5349 47.8694V51.7459H83.1247V47.8694H84.3524V57.2052H83.1247V53.0323H77.5349V57.2052H76.3073V47.8694H77.5349Z" fill="#50287D"/>
<path d="M94.2259 57.2052V49.7985L88.6851 57.2052H87.3079V47.8694H88.5355V55.2919L94.1094 47.8694H95.4535V57.2052H94.2259Z" fill="#50287D"/>
<path d="M103.701 47.8694V49.1559H99.6369V51.7459H103.287V53.0323H99.6369V55.9187H103.701V57.2052H98.4093V47.8694H103.701Z" fill="#50287D"/>
<path d="M164.556 34.2559H160.255V38.5323H164.556V34.2559Z" fill="#50287D"/>
<path d="M172.127 32.316L160.255 10.3276H184L172.127 32.316Z" fill="#CEDC00"/>
</svg>
